<?xml version="1.0" encoding="UTF-8" standalone="no"?>
<!-- Generator: Adobe Illustrator 19.0.0, SVG Export Plug-In . SVG Version: 6.00 Build 0)  -->

<svg
   xmlns:dc="http://purl.org/dc/elements/1.1/"
   xmlns:cc="http://creativecommons.org/ns#"
   xmlns:rdf="http://www.w3.org/1999/02/22-rdf-syntax-ns#"
   xmlns:svg="http://www.w3.org/2000/svg"
   xmlns="http://www.w3.org/2000/svg"
   xmlns:sodipodi="http://sodipodi.sourceforge.net/DTD/sodipodi-0.dtd"
   xmlns:inkscape="http://www.inkscape.org/namespaces/inkscape"
   version="1.1"
   id="Capa_1"
   x="0px"
   y="0px"
   viewBox="0 0 512 512"
   style="enable-background:new 0 0 512 512;"
   xml:space="preserve"
   inkscape:version="0.91 r13725"
   sodipodi:docname="icon_quesale.svg"
   inkscape:export-filename="/home/lucho/Escritorio/icon_quesale.png"
   inkscape:export-xdpi="90"
   inkscape:export-ydpi="90"><metadata
     id="metadata49"><rdf:RDF><cc:Work
         rdf:about=""><dc:format>image/svg+xml</dc:format><dc:type
           rdf:resource="http://purl.org/dc/dcmitype/StillImage" /></cc:Work></rdf:RDF></metadata><defs
     id="defs47" /><sodipodi:namedview
     pagecolor="#ffffff"
     bordercolor="#666666"
     borderopacity="1"
     objecttolerance="10"
     gridtolerance="10"
     guidetolerance="10"
     inkscape:pageopacity="0"
     inkscape:pageshadow="2"
     inkscape:window-width="1366"
     inkscape:window-height="721"
     id="namedview45"
     showgrid="false"
     inkscape:zoom="0.4609375"
     inkscape:cx="553.58472"
     inkscape:cy="-7.4204561"
     inkscape:window-x="0"
     inkscape:window-y="25"
     inkscape:window-maximized="1"
     inkscape:current-layer="Capa_1" /><g
     id="g3"><g
       id="g5"><path
         d="M363.104,147.819c-5.82-5.789-14.589-7.431-22.111-4.146l-222,97c-7.433,3.248-12.169,10.665-11.987,18.774    c0.181,8.111,5.244,15.308,12.815,18.22l82.703,31.809l31.418,81.688C238.872,403.97,249.703,405,253.018,405    c0.021,0,0.044,0,0.066,0c7.959-0.033,15.141-4.782,18.287-12.092l96-223C370.617,162.367,368.925,153.609,363.104,147.819z     M254.041,332c-6.104-15.872-12.605-32.777-17.375-45.179c-2.031-5.282-6.205-9.457-11.487-11.488l-45.53-17.512l130.958-57.22    L254.041,332z"
         id="path7"
         style="fill:#033c73;fill-opacity:1" /></g></g><g
     id="g9"><g
       id="g11"
       style="fill:#033c73;fill-opacity:1"><path
         d="M437.02,74.98C388.667,26.629,324.38,0,256,0S123.333,26.629,74.98,74.98C26.629,123.333,0,187.62,0,256    s26.629,132.667,74.98,181.02C123.333,485.371,187.62,512,256,512c46.813,0,92.617-12.758,132.462-36.893    c9.447-5.724,12.467-18.022,6.744-27.469c-5.724-9.449-18.022-12.467-27.469-6.744C334.144,461.244,295.505,472,256,472    c-119.103,0-216-96.897-216-216S136.897,40,256,40s216,96.897,216,216c0,42.589-12.665,84.044-36.626,119.884    c-6.139,9.182-3.672,21.603,5.51,27.742c9.184,6.139,21.604,3.672,27.742-5.51C497.002,355.674,512,306.53,512,256    C512,187.62,485.371,123.333,437.02,74.98z"
         id="path13"
         style="fill:#033c73;fill-opacity:1" /></g></g><g
     id="g15" /><g
     id="g17" /><g
     id="g19" /><g
     id="g21" /><g
     id="g23" /><g
     id="g25" /><g
     id="g27" /><g
     id="g29" /><g
     id="g31" /><g
     id="g33" /><g
     id="g35" /><g
     id="g37" /><g
     id="g39" /><g
     id="g41" /><g
     id="g43" /><path
     style="fill:#033c73;fill-rule:evenodd;stroke:#033c73;stroke-width:38.01806259;stroke-linecap:butt;stroke-linejoin:bevel;stroke-miterlimit:4;stroke-dasharray:none;stroke-opacity:1;fill-opacity:1"
     d="m 352.33306,356.58395 127.33387,132.9338"
     id="path4202"
     inkscape:connector-curvature="0" /><ellipse
     style="fill:#033c73;fill-opacity:1;stroke-width:34.20000076;stroke-linejoin:bevel;stroke-miterlimit:4;stroke-dasharray:none"
     id="path4206"
     cx="353.87906"
     cy="358.21802"
     rx="18.440678"
     ry="19.525423" /><ellipse
     style="fill:#033c73;fill-opacity:1;stroke-width:34.20000076;stroke-linejoin:bevel;stroke-miterlimit:4;stroke-dasharray:none"
     id="path4206-6"
     cx="477.86035"
     cy="487.45502"
     rx="18.440678"
     ry="19.525423"
     inkscape:transform-center-x="21.47687"
     inkscape:transform-center-y="-43.337256" /></svg>