<?xml version="1.0" encoding="iso-8859-1"?>
<!-- Generator: Adobe Illustrator 16.0.0, SVG Export Plug-In . SVG Version: 6.00 Build 0)  -->
<!DOCTYPE svg PUBLIC "-//W3C//DTD SVG 1.1//EN" "http://www.w3.org/Graphics/SVG/1.1/DTD/svg11.dtd">
<svg version="1.1" id="Capa_1" xmlns="http://www.w3.org/2000/svg" xmlns:xlink="http://www.w3.org/1999/xlink" x="0px" y="0px"
	 width="32.75px" height="32.75px" viewBox="0 0 32.75 32.75" style="enable-background:new 0 0 32.75 32.75;" xml:space="preserve"
	>
<g>
	<g>
		<path d="M29.375,1.25h-1.123c0.029-0.093,0.059-0.186,0.059-0.289c0-0.53-0.432-0.961-0.963-0.961s-0.961,0.431-0.961,0.961
			c0,0.103,0.028,0.196,0.059,0.289h-3.68c0.029-0.093,0.059-0.186,0.059-0.289C22.823,0.431,22.393,0,21.861,0
			C21.331,0,20.9,0.431,20.9,0.961c0,0.103,0.029,0.196,0.059,0.289h-3.681c0.029-0.093,0.058-0.186,0.058-0.289
			c0-0.53-0.43-0.961-0.961-0.961s-0.961,0.431-0.961,0.961c0,0.103,0.028,0.196,0.058,0.289h-3.681
			c0.029-0.093,0.059-0.186,0.059-0.289C11.85,0.431,11.419,0,10.889,0c-0.531,0-0.962,0.431-0.962,0.961
			c0,0.103,0.028,0.196,0.058,0.289h-3.68c0.03-0.093,0.059-0.186,0.059-0.289C6.364,0.43,5.934,0,5.403,0
			C4.872,0,4.441,0.431,4.441,0.961c0,0.103,0.028,0.196,0.058,0.289H3.375c-1.518,0-2.75,1.233-2.75,2.75v26
			c0,1.518,1.232,2.75,2.75,2.75H26.27l5.855-5.855V4C32.125,2.484,30.893,1.25,29.375,1.25z M30.625,26.273l-0.311,0.311h-2.355
			c-1.102,0-2,0.9-2,2v2.355l-0.311,0.311H3.375c-0.689,0-1.25-0.561-1.25-1.25V5h28.5V26.273z"/>
		<path d="M6.743,24.493c-0.448,0.464-0.704,0.942-0.672,1.599h4.741v-1.359H8.198c0.296-0.207,0.728-0.424,1.135-0.68
			c0.736-0.455,1.495-0.863,1.495-1.854c0-1.312-1.095-1.823-2.263-1.823c-1.463,0-2.367,0.671-2.391,2.327h1.495
			c-0.008-0.544,0.176-1.08,0.815-1.08c0.336,0,0.68,0.208,0.68,0.567C9.166,23.126,7.687,23.51,6.743,24.493z"/>
		<path d="M13.63,20.375c-1.287,0-2.438,0.775-2.446,2.846c0,1.615,0.624,2.991,2.446,2.991c1.823,0,2.439-1.392,2.439-2.999
			C16.069,21.343,15.093,20.375,13.63,20.375z M13.63,24.965c-0.631,0-0.783-0.664-0.783-1.646c0-0.536,0.016-1.695,0.768-1.695
			c0.823,0,0.792,1.087,0.792,1.679C14.406,24.245,14.222,24.965,13.63,24.965z"/>
		<path d="M17.079,21.671v1.136h1.303v3.285h1.663v-5.717h-1.263C18.598,21.352,17.958,21.655,17.079,21.671z"/>
		<path d="M26.014,20.456h-1.552l-2.631,3.126v1.335h2.599v1.175h1.584v-1.175h0.703v-1.239h-0.703V20.456z M24.43,23.678h-1.343
			l1.343-1.719V23.678z"/>
		<path d="M8.19,16.375c1.152,0,1.89-0.522,1.89-1.747v-3.043c0-1.512-0.855-1.873-1.873-1.873c-0.837,0-1.917,0.36-1.917,1.873
			v3.043C6.29,15.854,7.055,16.375,8.19,16.375z M7.785,11.172c0-0.315,0.162-0.432,0.396-0.432c0.234,0,0.405,0.117,0.405,0.432
			v3.745c0,0.315-0.171,0.432-0.405,0.432c-0.234,0-0.396-0.117-0.396-0.432V11.172z"/>
		<path d="M12.176,16.25h1.495V9.84h-1.26c-0.108,0.567-0.783,0.72-1.288,0.72v0.937h1.053V16.25z"/>
		<rect x="15.695" y="11.1" width="1.395" height="1.512"/>
		<rect x="15.695" y="14.737" width="1.395" height="1.512"/>
		<path d="M19.979,16.375c1.152,0,1.892-0.522,1.892-1.747v-3.043c0-1.512-0.854-1.873-1.873-1.873c-0.837,0-1.917,0.36-1.917,1.873
			v3.043C18.08,15.854,18.846,16.375,19.979,16.375z M19.574,11.172c0-0.315,0.162-0.432,0.396-0.432
			c0.233,0,0.404,0.117,0.404,0.432v3.745c0,0.315-0.171,0.432-0.404,0.432c-0.234,0-0.396-0.117-0.396-0.432V11.172z"/>
		<path d="M26.46,15.313h-2.306c0-0.261,0.117-0.415,0.234-0.622c0.676-1.152,2.071-1.81,2.071-3.286c0-1.351-1-1.693-1.854-1.693
			c-0.847,0-1.944,0.153-1.944,1.71v0.703h1.495v-0.927c0-0.315,0.144-0.459,0.404-0.459c0.262,0,0.405,0.144,0.405,0.459
			c0,1.278-2.305,2.196-2.305,4.258v0.792h3.799V15.313z"/>
		<rect x="6.197" y="18.296" width="20.392" height="0.329"/>
	</g>
</g>
<g>
</g>
<g>
</g>
<g>
</g>
<g>
</g>
<g>
</g>
<g>
</g>
<g>
</g>
<g>
</g>
<g>
</g>
<g>
</g>
<g>
</g>
<g>
</g>
<g>
</g>
<g>
</g>
<g>
</g>
</svg>
