<?xml version="1.0" encoding="iso-8859-1"?>
<!-- Generator: Adobe Illustrator 16.0.0, SVG Export Plug-In . SVG Version: 6.00 Build 0)  -->
<!DOCTYPE svg PUBLIC "-//W3C//DTD SVG 1.1//EN" "http://www.w3.org/Graphics/SVG/1.1/DTD/svg11.dtd">
<svg version="1.1" id="Capa_1" xmlns="http://www.w3.org/2000/svg" xmlns:xlink="http://www.w3.org/1999/xlink" x="0px" y="0px"
	 width="30px" height="30px" viewBox="0 0 30 30" style="enable-background:new 0 0 30 30;" xml:space="preserve">
<g>
	<g>
		<path d="M27,0H3C1.35,0,0,1.351,0,3v24c0,1.65,1.35,3,3,3h24c1.65,0,3-1.35,3-3V3C30,1.351,28.65,0,27,0z M29,14.5h-6v1h6V26H1
			V15.5h6v-1H1V4h28V14.5z"/>
		<path d="M15,21.32c4.311,0,7.816-3.506,7.816-7.816c0-4.31-3.506-7.816-7.816-7.816c-4.31,0-7.816,3.506-7.816,7.816
			C7.184,17.814,10.69,21.32,15,21.32z M8.876,9.708c0.024,0.104,0.063,0.18,0.118,0.18c0.121,0,0.362-0.412,0.362-0.412
			s0.531-0.363,0.507,0.025c-0.022,0.387,0.05,0.798,0.05,1.04s0.436,0.823,0.436,0.677c0-0.145,0.193-0.556,0.193-0.774
			c0-0.217,0.121-0.121,0.437,0.097c0.314,0.217,0.531,0.653,0.531,0.653s0.314,0.29,0.362,0.412
			c0.051,0.121,0.388-0.048,0.46-0.194c0.073-0.145,0.12-0.218,0.316-0.265c0.194-0.049,0.436-0.049,0.508-0.314
			c0.073-0.267,0.291-0.582,0-0.945c-0.291-0.363-0.435-0.604-0.654-0.774c-0.217-0.169-0.386-0.605-0.386-0.605
			s0.46-0.412,0.605-0.556c0.144-0.146,0.362-0.048,0.386,0.121c0.023,0.17-0.217,0.314-0.265,0.678
			c-0.05,0.363,0.288,0.484,0.387,0.363c0.095-0.122,0.338-0.412,0.338-0.483c0-0.073-0.17-0.05-0.193-0.315
			C13.35,8.05,13.687,7.856,13.81,7.929c0.122,0.072,0.896-0.096,1.258-0.291c0.363-0.193,0.58-0.604,0.799-0.774
			c0.104-0.082,0.328-0.252,0.529-0.437c3.312,0.652,5.819,3.576,5.819,7.077c0,0.408-0.043,0.805-0.108,1.193
			c-0.051-0.028-0.101-0.056-0.166-0.089c-0.389-0.194-1.26-0.194-1.283-0.073c-0.023,0.122,0,0-0.289-0.097
			c-0.292-0.096-0.51,0-0.581-0.168c-0.072-0.169-0.242-0.218-0.461,0c-0.181,0.181-0.265,0.193,0.146,0.266
			c0.411,0.073,0.533,0.073,0.364,0.266c-0.17,0.194-0.292,0.437-0.146,0.461c0.146,0.024,0.58-0.098,0.627,0
			c0.05,0.096-0.096,0.12,0.388,0.192c0.485,0.074,0.581,0.243,0.679,0.339c0.096,0.098,0.389,0.412,0.192,0.412
			c-0.192,0-0.409,0.242-0.267,0.266c0.059,0.01,0.16,0,0.264-0.01c-0.186,0.41-0.406,0.799-0.661,1.164
			c-0.138-0.154-0.765-0.018-0.837-0.018c-0.07,0-0.217-0.241-0.361-0.241c-0.146,0-0.122,0.483-0.122,0.483
			s-0.145-0.168-0.36-0.387c-0.221-0.217,0.021,0.145-0.194,0.363c-0.218,0.218-0.146,0.146-0.243,0.388
			c-0.097,0.242-0.312,0.146-0.531-0.098c-0.22-0.241-0.339-0.072-0.484,0c-0.146,0.073-0.266,0.483-0.338,0.58
			s-0.582,0.218-0.701,0.34c-0.122,0.121-0.17,0.508-0.17,0.604s-0.51,0.049-0.678,0.17c-0.17,0.119-0.437,0.047-0.604,0.047
			c-0.172,0-0.751,0.459-0.944,0.582c-0.072,0.045-0.118,0.134-0.141,0.232c-3.604-0.398-6.417-3.461-6.417-7.169
			C7.785,12.111,8.188,10.812,8.876,9.708z"/>
		<path d="M16.277,7.782c0.291-0.024,0.604-0.846,0.291-0.798C16.21,7.04,15.986,7.806,16.277,7.782z"/>
		<path d="M10.93,15.091c0.12,0.097,0.725,0.461,0.822,0.654c0.097,0.192,0.316,0.243,0.316-0.024c0-0.267,0.048-0.58,0.167-0.726
			c0.122-0.146,0.073-0.364-0.119-0.338c-0.193,0.024-0.364-0.315-0.678-0.533c-0.315-0.218-0.558-0.362-0.848-0.677
			c-0.289-0.315-0.653-0.508-0.848-0.677c-0.192-0.17-0.483-0.243-0.604-0.219c-0.302,0.061,0.437,0.581,0.509,0.654
			c0.071,0.073,0.726,0.629,0.726,0.896C10.373,14.366,10.809,14.995,10.93,15.091z"/>
		<path d="M10.397,12.259c0.12,0.437,0.363,0.872,0.459,1.041c0.097,0.17,0.509,0.411,0.653,0.532
			c0.145,0.122,0.362-0.048,0.267-0.193c-0.098-0.146-0.29-0.363-0.314-0.532c-0.023-0.17-0.146-0.437-0.339-0.727
			s-0.362-0.362-0.483-0.556c-0.122-0.195-0.559-0.557-0.559-0.557c-0.193,0.024-0.193,0.387-0.096,0.509
			C10.081,11.897,10.277,11.825,10.397,12.259z"/>
		<path d="M12.116,15.842c-0.177,0.221,0.047,0.387,0.119,0.436c0.073,0.049,0.341,0.097,0.582,0.072
			c0.155-0.015,0.349-0.051,0.397-0.113c0.006,0.025,0.023,0.055,0.063,0.09c0.194,0.169,0.313,0.242,0.604,0.217
			c0.29-0.023,0.726,0.145,0.751,0c0.025-0.145-0.265-0.363-0.389-0.363c-0.12,0-0.725-0.145-0.725-0.145
			c-0.112,0.047-0.261,0.086-0.3,0.152c-0.009-0.023-0.032-0.049-0.089-0.08c-0.266-0.146-0.58,0-0.679-0.193
			C12.357,15.72,12.212,15.72,12.116,15.842z"/>
		<path d="M15.891,16.834c-0.055,0.216,0.362,0.314,0.387,0.073C16.303,16.665,15.939,16.641,15.891,16.834z"/>
		<path d="M17.559,16.445c-0.145,0.193-0.408,0.389-0.384,0.558c0.036,0.265,0.529-0.146,0.529-0.146s0.389-0.047,0.389-0.217
			S17.704,16.253,17.559,16.445z"/>
		<path d="M15.866,15.236c0.192,0.121,0.557-0.411,0.653-0.241c0.096,0.17-0.023,0.241,0.146,0.459
			c0.17,0.219,0.483,0.194,0.483,0.194s-0.024-0.582-0.291-0.728c-0.266-0.146-0.436-0.313-0.119-0.265
			c0.313,0.048,0.482-0.073,0.41-0.219c-0.071-0.145-0.532-0.072-0.678-0.048s-0.363-0.097-0.363-0.097
			c-0.146,0.048-0.121,0.169-0.168,0.411C15.891,14.946,15.672,15.115,15.866,15.236z"/>
		<path d="M17.607,13.711c-0.096,0-0.772,0.121-0.846,0.146c-0.072,0.024-0.51-0.048-0.51-0.048
			c-0.168,0.17-0.048,0.338,0.219,0.314c0.268-0.023,0.823-0.097,0.942-0.097C17.536,14.026,17.704,13.711,17.607,13.711z"/>
		<path d="M18.385,14.341c0.288,0.072,0.508-0.799,0.338-0.871C18.5,13.375,18.093,14.269,18.385,14.341z"/>
		<path d="M13.932,15.115c0.12,0,0.361,0,0.531,0.049c0.17,0.048,0.727,0.097,0.701-0.121c-0.023-0.218-0.072-0.557,0.17-0.774
			c0.242-0.218,0.484-0.339,0.361-0.654c-0.119-0.315-0.361-0.508-0.192-0.653s0.363-0.193,0.363-0.314
			c0-0.122-0.411,0.338-0.46-0.46c-0.01-0.17-0.387,0.048-0.411,0.218c-0.024,0.169,0.267,0.315-0.193,0.315
			c-0.459,0-0.485,0.363-0.581,0.436c-0.097,0.072-0.192,0.096-0.388,0.145c-0.192,0.048-0.242,0.242-0.29,0.363
			s-0.387-0.218-0.483-0.121c-0.098,0.097-0.026,0.557,0.146,0.943C13.374,14.873,13.81,15.115,13.932,15.115z"/>
		<path d="M16.543,10.372c-0.12,0.121-0.482,0.363-0.529,0.58c-0.051,0.218,0.579-0.339,0.748-0.556
			c0.17-0.218,0.51-0.097,0.581-0.218c0.071-0.122,0.071-0.122,0.071-0.122s-0.266-0.047-0.482-0.12
			c-0.219-0.073-0.483,0.193-0.363-0.194c0.121-0.386,0.484-0.313,0.412-0.604s-0.314-0.363-0.388-0.363
			c-0.17,0,0.023,0.266-0.218,0.436c-0.243,0.168-0.509,0.241-0.361,0.531C16.156,10.033,16.665,10.251,16.543,10.372z"/>
		<path d="M17.414,11.292c-0.096-0.122-0.337-0.508-0.604-0.412c-0.082,0.03-0.291,0.459-0.023,0.459S17.512,11.413,17.414,11.292z"
			/>
		<path d="M17.633,11.001c0.436-0.023,0.315-0.459-0.023-0.484C17.512,10.511,17.198,11.025,17.633,11.001z"/>
		<path d="M17.682,11.413c-0.339,0.436-0.313,0.339-0.558,0.242c-0.241-0.097-0.628,0.218-0.556,0.339s0.605-0.024,0.727,0.193
			c0.119,0.218,0.119,0.243,0.363,0.193c0.24-0.047,0.482-0.387,0.41-0.556S17.682,11.413,17.682,11.413z"/>
		<path d="M9.554,22.895c-0.322,0-0.739,0.139-0.739,0.723v1.173c0,0.472,0.295,0.673,0.732,0.673c0.443,0,0.728-0.201,0.728-0.673
			v-1.173C10.274,23.032,9.945,22.895,9.554,22.895z M9.699,24.898c0,0.123-0.065,0.168-0.156,0.168s-0.152-0.045-0.152-0.168
			v-1.442c0-0.122,0.062-0.167,0.152-0.167s0.156,0.045,0.156,0.167V24.898z"/>
		<path d="M11.905,22.941h-0.697l-0.673,1.511v0.396h0.833v0.565h0.537v-0.565h0.191v-0.396h-0.191V22.941z M11.368,24.452h-0.452
			l0.445-0.996h0.007V24.452z"/>
		<rect x="12.439" y="24.831" width="0.539" height="0.583"/>
		<path d="M14.099,22.895c-0.322,0-0.739,0.139-0.739,0.723v1.173c0,0.472,0.294,0.673,0.732,0.673c0.443,0,0.729-0.201,0.729-0.673
			v-1.173C14.82,23.032,14.49,22.895,14.099,22.895z M14.244,24.898c0,0.123-0.065,0.168-0.156,0.168
			c-0.09,0-0.152-0.045-0.152-0.168v-1.442c0-0.122,0.063-0.167,0.152-0.167c0.091,0,0.156,0.045,0.156,0.167V24.898z"/>
		<path d="M16.45,22.941h-0.697l-0.674,1.511v0.396h0.833v0.565h0.538v-0.565h0.19v-0.396h-0.19V22.941z M15.912,24.452h-0.451
			l0.445-0.996h0.006V24.452z"/>
		<rect x="16.984" y="24.831" width="0.539" height="0.583"/>
		<path d="M17.984,23.22v0.36h0.404v1.833h0.576v-2.472h-0.486C18.438,23.161,18.178,23.22,17.984,23.22z"/>
		<path d="M20.995,22.941h-0.697l-0.674,1.511v0.396h0.833v0.565h0.538v-0.565h0.19v-0.396h-0.19V22.941z M20.457,24.452h-0.451
			l0.445-0.996h0.006V24.452z"/>
	</g>
</g>
<g>
</g>
<g>
</g>
<g>
</g>
<g>
</g>
<g>
</g>
<g>
</g>
<g>
</g>
<g>
</g>
<g>
</g>
<g>
</g>
<g>
</g>
<g>
</g>
<g>
</g>
<g>
</g>
<g>
</g>
</svg>
