<?xml version="1.0" encoding="iso-8859-1"?>
<!-- Generator: Adobe Illustrator 16.0.0, SVG Export Plug-In . SVG Version: 6.00 Build 0)  -->
<!DOCTYPE svg PUBLIC "-//W3C//DTD SVG 1.1//EN" "http://www.w3.org/Graphics/SVG/1.1/DTD/svg11.dtd">
<svg version="1.1" id="Capa_1" xmlns="http://www.w3.org/2000/svg" xmlns:xlink="http://www.w3.org/1999/xlink" x="0px" y="0px"
	 width="30px" height="30px" viewBox="0 0 30 30" style="enable-background:new 0 0 30 30;" xml:space="preserve">
<g>
	<path d="M27,0H3C1.35,0,0,1.351,0,3v24c0,1.648,1.35,3,3,3h24c1.65,0,3-1.352,3-3V3C30,1.351,28.65,0,27,0z M6.477,2.705
		C6.477,2.317,6.794,2,7.182,2H22.82c0.387,0,0.705,0.317,0.705,0.705v1.137c0,0.388-0.317,0.705-0.705,0.705H7.181
		c-0.387,0-0.705-0.317-0.705-0.705L6.477,2.705L6.477,2.705z M8.095,26.402H3.5v-4.086h4.595V26.402z M8.095,20.945H3.5v-4.086
		h4.595V20.945z M14.23,26.402H9.634v-4.086h4.596V26.402z M14.23,20.945H9.634v-4.086h4.596V20.945z M14.23,15.49H9.634v-4.088
		h4.596V15.49z M20.365,26.402H15.77v-4.086h4.596V26.402z M20.365,20.945H15.77v-4.086h4.596V20.945z M20.365,15.49H15.77v-4.088
		h4.596V15.49z M26.5,26.402h-4.596v-4.086H26.5V26.402z M26.5,20.945h-4.596v-4.086H26.5V20.945z M26.5,15.49h-4.596v-4.088H26.5
		V15.49z"/>
</g>
<g>
</g>
<g>
</g>
<g>
</g>
<g>
</g>
<g>
</g>
<g>
</g>
<g>
</g>
<g>
</g>
<g>
</g>
<g>
</g>
<g>
</g>
<g>
</g>
<g>
</g>
<g>
</g>
<g>
</g>
</svg>
