<?xml version="1.0" encoding="iso-8859-1"?>
<!-- Generator: Adobe Illustrator 16.0.0, SVG Export Plug-In . SVG Version: 6.00 Build 0)  -->
<!DOCTYPE svg PUBLIC "-//W3C//DTD SVG 1.1//EN" "http://www.w3.org/Graphics/SVG/1.1/DTD/svg11.dtd">
<svg version="1.1" id="Capa_1" xmlns="http://www.w3.org/2000/svg" xmlns:xlink="http://www.w3.org/1999/xlink" x="0px" y="0px"
	 width="33px" height="33px" viewBox="0 0 33 33" style="enable-background:new 0 0 33 33;" xml:space="preserve">
<g>
	<g>
		<rect x="3.997" y="15.268" width="3.482" height="3.482"/>
		<rect x="9.378" y="15.268" width="3.482" height="3.482"/>
		<rect x="14.759" y="15.268" width="3.482" height="3.482"/>
		<rect x="20.141" y="15.268" width="3.482" height="3.482"/>
		<rect x="25.521" y="15.268" width="3.482" height="3.482"/>
		<rect x="3.996" y="20.648" width="3.482" height="3.482"/>
		<rect x="9.377" y="20.648" width="3.482" height="3.482"/>
		<rect x="14.759" y="20.648" width="3.482" height="3.482"/>
		<rect x="20.141" y="20.648" width="3.481" height="3.482"/>
		<rect x="25.521" y="20.648" width="3.481" height="3.482"/>
		<path d="M29.4,6.95V5.5h-1.174v1.45h-1.903V5.5h-1.175v1.45h-1.903V5.5H22.07v1.45h-1.904V5.5h-1.174v1.45h-1.904V5.5h-1.174v1.45
			H14.01V5.5h-1.174v1.45H10.93V5.5H9.756v1.45H7.852V5.5H6.678v1.45H4.774V5.5H3.6v1.45H0V27.5h33V6.95H29.4z M31,25.445H2v-11.51
			h29V25.445z"/>
	</g>
</g>
<g>
</g>
<g>
</g>
<g>
</g>
<g>
</g>
<g>
</g>
<g>
</g>
<g>
</g>
<g>
</g>
<g>
</g>
<g>
</g>
<g>
</g>
<g>
</g>
<g>
</g>
<g>
</g>
<g>
</g>
</svg>
