<?xml version="1.0" encoding="iso-8859-1"?>
<!-- Generator: Adobe Illustrator 16.0.0, SVG Export Plug-In . SVG Version: 6.00 Build 0)  -->
<!DOCTYPE svg PUBLIC "-//W3C//DTD SVG 1.1//EN" "http://www.w3.org/Graphics/SVG/1.1/DTD/svg11.dtd">
<svg version="1.1" id="Capa_1" xmlns="http://www.w3.org/2000/svg" xmlns:xlink="http://www.w3.org/1999/xlink" x="0px" y="0px"
	 width="32.75px" height="32.75px" viewBox="0 0 32.75 32.75" style="enable-background:new 0 0 32.75 32.75;" xml:space="preserve"
	>
<g>
	<g>
		<path d="M9.915,25.666h3.36v-14.16h-2.36c-0.04,0.227-0.117,0.47-0.23,0.73c-0.113,0.26-0.29,0.5-0.53,0.72
			c-0.24,0.22-0.563,0.403-0.97,0.55c-0.407,0.147-0.93,0.22-1.57,0.22h-0.42v2.12h2.72V25.666z"/>
		<path d="M21.895,25.666h3.121v-2.74h1.319v-2.6h-1.319v-8.54h-3.601l-4.601,8.54v2.6h5.08V25.666z M19.475,20.326l2.381-4.74
			h0.039v4.74H19.475z"/>
		<polygon points="12.495,3.538 12.484,3.538 12.159,5.287 12.831,5.287 		"/>
		<path d="M15.346,6.106c0.042,0.048,0.102,0.071,0.179,0.071c0.081,0,0.144-0.021,0.19-0.062c0.046-0.043,0.08-0.104,0.102-0.182
			c0.022-0.079,0.036-0.174,0.042-0.283c0.005-0.11,0.008-0.233,0.008-0.369c0-0.121-0.003-0.237-0.008-0.349
			c-0.005-0.112-0.02-0.211-0.042-0.298c-0.022-0.086-0.057-0.155-0.104-0.209c-0.047-0.053-0.112-0.079-0.192-0.079
			c-0.132,0-0.218,0.077-0.258,0.23c-0.041,0.154-0.061,0.376-0.061,0.666c0,0.132,0.002,0.255,0.008,0.368
			c0.005,0.114,0.019,0.213,0.041,0.297C15.272,5.993,15.304,6.059,15.346,6.106z"/>
		<path d="M29.375,1.25h-1.123c0.029-0.093,0.059-0.186,0.059-0.289c0-0.53-0.432-0.961-0.963-0.961s-0.961,0.431-0.961,0.961
			c0,0.104,0.028,0.196,0.059,0.289h-3.68c0.029-0.093,0.059-0.186,0.059-0.289c0-0.53-0.432-0.961-0.963-0.961
			C21.332,0,20.9,0.431,20.9,0.961c0,0.104,0.029,0.196,0.06,0.289h-3.681c0.029-0.093,0.058-0.186,0.058-0.289
			c0-0.53-0.43-0.961-0.961-0.961c-0.531,0-0.961,0.431-0.961,0.961c0,0.104,0.028,0.196,0.058,0.289h-3.681
			c0.029-0.093,0.059-0.186,0.059-0.289C11.851,0.431,11.42,0,10.89,0c-0.531,0-0.962,0.431-0.962,0.961
			c0,0.104,0.028,0.196,0.058,0.289h-3.68c0.03-0.093,0.059-0.186,0.059-0.289C6.365,0.431,5.935,0,5.404,0
			C4.873,0,4.442,0.431,4.442,0.961c0,0.104,0.028,0.196,0.058,0.289H3.375c-1.518,0-2.75,1.233-2.75,2.75v26
			c0,1.518,1.232,2.75,2.75,2.75H26.27l5.855-5.855V4C32.125,2.483,30.893,1.25,29.375,1.25z M20.668,2.823h0.891V6.75h-0.891V2.823
			z M19.238,2.779h0.891v0.682h-0.891V2.779z M19.238,3.774h0.891V6.75h-0.891V3.774z M17.182,3.774h0.857v0.418h0.011
			c0.06-0.132,0.146-0.247,0.261-0.347c0.115-0.099,0.268-0.147,0.455-0.147h0.065c0.015,0,0.041,0.004,0.077,0.012v0.836
			c-0.045-0.008-0.085-0.014-0.124-0.017c-0.039-0.004-0.08-0.006-0.124-0.006c-0.18,0-0.323,0.04-0.43,0.121
			c-0.105,0.081-0.158,0.22-0.158,0.418v1.688h-0.891V3.774z M14.326,3.774h0.858v0.363h0.011c0.015-0.048,0.038-0.099,0.068-0.151
			c0.031-0.053,0.074-0.101,0.126-0.144c0.053-0.042,0.117-0.076,0.19-0.104c0.073-0.027,0.16-0.041,0.258-0.041
			c0.147,0,0.278,0.028,0.394,0.086c0.115,0.057,0.212,0.146,0.289,0.27c0.077,0.122,0.136,0.281,0.175,0.476
			c0.041,0.194,0.062,0.431,0.062,0.709c0,0.231-0.011,0.444-0.032,0.639c-0.022,0.195-0.064,0.361-0.126,0.503
			c-0.063,0.141-0.15,0.251-0.264,0.33c-0.114,0.078-0.26,0.118-0.44,0.118c-0.121,0-0.244-0.026-0.369-0.08
			c-0.125-0.053-0.224-0.16-0.297-0.321h-0.011v1.292h-0.891V3.774z M11.934,2.823h1.155l0.979,3.927h-0.957l-0.143-0.748h-0.94
			L11.89,6.75h-0.957L11.934,2.823z M30.625,26.273l-0.311,0.311h-2.355c-1.102,0-2,0.898-2,2v2.355l-0.311,0.311H3.375
			c-0.689,0-1.25-0.561-1.25-1.25V9h28.5V26.273z"/>
	</g>
</g>
<g>
</g>
<g>
</g>
<g>
</g>
<g>
</g>
<g>
</g>
<g>
</g>
<g>
</g>
<g>
</g>
<g>
</g>
<g>
</g>
<g>
</g>
<g>
</g>
<g>
</g>
<g>
</g>
<g>
</g>
</svg>
