<?xml version="1.0" encoding="iso-8859-1"?>
<!-- Generator: Adobe Illustrator 16.0.0, SVG Export Plug-In . SVG Version: 6.00 Build 0)  -->
<!DOCTYPE svg PUBLIC "-//W3C//DTD SVG 1.1//EN" "http://www.w3.org/Graphics/SVG/1.1/DTD/svg11.dtd">
<svg version="1.1" id="Capa_1" xmlns="http://www.w3.org/2000/svg" xmlns:xlink="http://www.w3.org/1999/xlink" x="0px" y="0px"
	 width="30px" height="30px" viewBox="0 0 30 30" style="enable-background:new 0 0 30 30;" xml:space="preserve">
<g>
	<g>
		<path d="M27,0H3C1.35,0,0,1.351,0,3v24c0,1.65,1.35,3,3,3h24c1.648,0,3-1.35,3-3V3C30,1.351,28.65,0,27,0z M29,14.5h-1v1h1V26H1
			V15.5h1v-1H1V4h28V14.5z"/>
		<path d="M4.629,17.441c0.844,0,1.385-0.381,1.385-1.279v-2.23c0-1.11-0.625-1.374-1.372-1.374c-0.613,0-1.405,0.264-1.405,1.374
			v2.23C3.237,17.061,3.799,17.441,4.629,17.441z M4.333,13.628c0-0.231,0.119-0.317,0.29-0.317c0.172,0,0.298,0.085,0.298,0.317
			v2.745c0,0.23-0.126,0.316-0.298,0.316c-0.171,0-0.29-0.086-0.29-0.316V13.628z"/>
		<path d="M8.093,17.35h1.023v-1.076H9.48v-0.752H9.116v-2.871H7.79l-1.281,2.871v0.752h1.583L8.093,17.35L8.093,17.35z
			 M7.235,15.521l0.845-1.894h0.013v1.894H7.235z"/>
		<rect x="10.132" y="16.241" width="1.022" height="1.108"/>
		<path d="M13.272,17.441c0.844,0,1.386-0.381,1.386-1.279v-2.23c0-1.11-0.627-1.374-1.373-1.374c-0.613,0-1.405,0.264-1.405,1.374
			v2.23C11.879,17.061,12.44,17.441,13.272,17.441z M12.975,13.628c0-0.231,0.119-0.317,0.291-0.317
			c0.171,0,0.296,0.085,0.296,0.317v2.745c0,0.23-0.125,0.316-0.296,0.316c-0.172,0-0.291-0.086-0.291-0.316V13.628z"/>
		<path d="M16.734,17.35h1.023v-1.076h0.363v-0.752h-0.363v-2.871h-1.326l-1.279,2.871v0.752h1.582V17.35z M15.877,15.521
			l0.846-1.894h0.012v1.894H15.877z"/>
		<rect x="18.773" y="16.241" width="1.022" height="1.108"/>
		<path d="M21.445,17.35h1.096v-4.699h-0.924c-0.079,0.416-0.574,0.528-0.943,0.528v0.686h0.771V17.35z"/>
		<path d="M25.377,17.35H26.4v-1.076h0.363v-0.752H26.4v-2.871h-1.326l-1.28,2.871v0.752h1.583V17.35z M24.52,15.521l0.846-1.894
			h0.013v1.894H24.52z"/>
	</g>
</g>
<g>
</g>
<g>
</g>
<g>
</g>
<g>
</g>
<g>
</g>
<g>
</g>
<g>
</g>
<g>
</g>
<g>
</g>
<g>
</g>
<g>
</g>
<g>
</g>
<g>
</g>
<g>
</g>
<g>
</g>
</svg>
