<?xml version="1.0" encoding="iso-8859-1"?>
<!-- Generator: Adobe Illustrator 16.0.0, SVG Export Plug-In . SVG Version: 6.00 Build 0)  -->
<!DOCTYPE svg PUBLIC "-//W3C//DTD SVG 1.1//EN" "http://www.w3.org/Graphics/SVG/1.1/DTD/svg11.dtd">
<svg version="1.1" id="Capa_1" xmlns="http://www.w3.org/2000/svg" xmlns:xlink="http://www.w3.org/1999/xlink" x="0px" y="0px"
	 width="30px" height="30px" viewBox="0 0 30 30" style="enable-background:new 0 0 30 30;" xml:space="preserve">
<g>
	<g>
		<path d="M27,0H3C1.35,0,0,1.351,0,3v24c0,1.65,1.35,3,3,3h24c1.65,0,3-1.35,3-3V3C30,1.351,28.65,0,27,0z M29,14.5h-4v1h4V26H1
			V15.5h4v-1H1V4h28V14.5z"/>
		<path d="M9.547,7.462c0.443,0,0.728-0.201,0.728-0.673V5.616c0-0.584-0.329-0.723-0.721-0.723c-0.322,0-0.739,0.139-0.739,0.723
			v1.173C8.814,7.261,9.109,7.462,9.547,7.462z M9.391,5.457c0-0.122,0.062-0.167,0.152-0.167s0.156,0.045,0.156,0.167V6.9
			c0,0.122-0.065,0.167-0.156,0.167S9.391,7.022,9.391,6.9V5.457z"/>
		<path d="M11.368,7.413h0.537V6.848h0.191V6.452h-0.191v-1.51h-0.697l-0.673,1.51v0.396h0.833V7.413z M10.916,6.452l0.445-0.996
			h0.007v0.996H10.916z"/>
		<rect x="12.439" y="6.831" width="0.539" height="0.583"/>
		<path d="M14.092,7.462c0.443,0,0.729-0.201,0.729-0.673V5.616c0-0.584-0.33-0.723-0.722-0.723c-0.322,0-0.739,0.139-0.739,0.723
			v1.173C13.359,7.261,13.653,7.462,14.092,7.462z M13.936,5.457c0-0.122,0.063-0.167,0.152-0.167c0.091,0,0.156,0.045,0.156,0.167
			V6.9c0,0.122-0.065,0.167-0.156,0.167c-0.09,0-0.152-0.045-0.152-0.167V5.457z"/>
		<path d="M15.912,7.413h0.538V6.848h0.19V6.452h-0.19v-1.51h-0.697l-0.674,1.51v0.396h0.833V7.413z M15.461,6.452l0.445-0.996
			h0.006v0.996H15.461z"/>
		<rect x="16.984" y="6.831" width="0.539" height="0.583"/>
		<path d="M18.391,7.413h0.575V4.942H18.48c-0.041,0.219-0.303,0.278-0.496,0.278v0.36h0.406V7.413z"/>
		<path d="M20.457,7.413h0.538V6.848h0.19V6.452h-0.19v-1.51h-0.697l-0.674,1.51v0.396h0.833V7.413z M20.006,6.452l0.445-0.996
			h0.006v0.996H20.006z"/>
		<path d="M17.591,12.374c0.474,0,1.156,0.199,1.558,0.453l1.377,0.878v-3.082c0-0.405-0.33-0.737-0.735-0.737h-2.538l-0.746-1.597
			h-3.01L12.75,9.886h-2.538c-0.405,0-0.736,0.332-0.736,0.737v3.082l1.378-0.879c0.401-0.254,1.084-0.453,1.558-0.453
			L17.591,12.374L17.591,12.374z M13.495,9.102h3.01l0.547,0.785h-4.104L13.495,9.102z"/>
		<path d="M20.764,19.641h-0.238v-5.062l-1.772-1.129c-0.282-0.18-0.825-0.338-1.161-0.338h-2.371c0,0.008,0.008,0.012,0.008,0.02
			v0.304c0,0.125-0.103,0.227-0.228,0.227s-0.228-0.102-0.228-0.227V13.13c0-0.008,0.009-0.012,0.009-0.02H12.41
			c-0.336,0-0.879,0.158-1.16,0.338l-1.775,1.131v5.062H9.238c-0.177,0-0.321,0.192-0.321,0.428v2.988
			c0,0.235,0.145,0.428,0.321,0.428h0.237v0.402c0,0.406,0.331,0.737,0.736,0.737h0.52v0.503c0,0.046,0.039,0.084,0.084,0.084h1.099
			c0.046,0,0.084-0.038,0.084-0.084v-0.503h6.006v0.503c0,0.046,0.038,0.084,0.084,0.084h1.1c0.045,0,0.082-0.038,0.082-0.084
			v-0.503h0.521c0.404,0,0.736-0.331,0.736-0.737v-0.402h0.236c0.178,0,0.321-0.192,0.321-0.428v-2.988
			C21.084,19.833,20.939,19.641,20.764,19.641z M14.772,14.119c0-0.126,0.103-0.229,0.228-0.229s0.229,0.102,0.229,0.229v0.684
			c0,0.125-0.104,0.229-0.229,0.229s-0.228-0.104-0.228-0.229V14.119z M14.772,15.486c0-0.125,0.103-0.229,0.228-0.229
			s0.229,0.104,0.229,0.229v0.685c0,0.126-0.104,0.229-0.229,0.229s-0.228-0.103-0.228-0.229V15.486z M14.772,16.855
			c0-0.125,0.103-0.228,0.228-0.228s0.229,0.103,0.229,0.228v0.685c0,0.126-0.104,0.228-0.229,0.228s-0.228-0.102-0.228-0.228
			V16.855z M15.51,18.579c0,0.282-0.229,0.511-0.51,0.511c-0.281,0-0.51-0.229-0.51-0.511v-0.072c0-0.28,0.229-0.51,0.51-0.51
			c0.281,0,0.51,0.229,0.51,0.51V18.579z"/>
	</g>
</g>
<g>
</g>
<g>
</g>
<g>
</g>
<g>
</g>
<g>
</g>
<g>
</g>
<g>
</g>
<g>
</g>
<g>
</g>
<g>
</g>
<g>
</g>
<g>
</g>
<g>
</g>
<g>
</g>
<g>
</g>
</svg>
