<?xml version="1.0" encoding="iso-8859-1"?>
<!-- Generator: Adobe Illustrator 16.0.0, SVG Export Plug-In . SVG Version: 6.00 Build 0)  -->
<!DOCTYPE svg PUBLIC "-//W3C//DTD SVG 1.1//EN" "http://www.w3.org/Graphics/SVG/1.1/DTD/svg11.dtd">
<svg version="1.1" id="Capa_1" xmlns="http://www.w3.org/2000/svg" xmlns:xlink="http://www.w3.org/1999/xlink" x="0px" y="0px"
	 width="32.75px" height="32.75px" viewBox="0 0 32.75 32.75" style="enable-background:new 0 0 32.75 32.75;" xml:space="preserve"
	>
<g>
	<g>
		<path d="M9.915,25.666h3.36v-14.16h-2.36c-0.04,0.227-0.116,0.47-0.229,0.73c-0.113,0.26-0.291,0.5-0.53,0.72
			c-0.24,0.22-0.563,0.403-0.97,0.55c-0.407,0.147-0.931,0.22-1.57,0.22h-0.42v2.12h2.72L9.915,25.666L9.915,25.666z"/>
		<path d="M17.775,24.695c0.346,0.395,0.826,0.701,1.438,0.921c0.613,0.22,1.399,0.329,2.36,0.329c0.96,0,1.746-0.116,2.359-0.351
			c0.613-0.231,1.094-0.553,1.439-0.96c0.348-0.406,0.583-0.876,0.71-1.41c0.126-0.531,0.19-1.1,0.19-1.699
			c0-0.959-0.211-1.727-0.631-2.301c-0.42-0.572-1.011-0.92-1.771-1.039v-0.039c0.653-0.147,1.149-0.48,1.489-1
			c0.341-0.521,0.511-1.182,0.511-1.98c0-0.56-0.076-1.063-0.229-1.51c-0.152-0.447-0.399-0.83-0.74-1.15
			c-0.34-0.32-0.783-0.566-1.33-0.74c-0.547-0.173-1.213-0.26-2-0.26c-0.786,0-1.453,0.09-2,0.271
			c-0.547,0.18-0.989,0.433-1.329,0.76c-0.341,0.327-0.587,0.713-0.74,1.16c-0.153,0.446-0.229,0.937-0.229,1.47
			c0,0.84,0.174,1.507,0.521,2s0.819,0.819,1.42,0.979v0.039c-0.427,0.067-0.787,0.205-1.08,0.41
			c-0.293,0.207-0.532,0.461-0.72,0.762c-0.188,0.3-0.323,0.637-0.41,1.01s-0.13,0.76-0.13,1.16c0,0.64,0.063,1.229,0.188,1.77
			C17.189,23.838,17.428,24.303,17.775,24.695z M20.645,14.146c0.168-0.347,0.478-0.521,0.932-0.521c0.453,0,0.763,0.174,0.93,0.521
			s0.25,0.767,0.25,1.26c0,0.693-0.102,1.17-0.3,1.43c-0.2,0.26-0.494,0.391-0.88,0.391c-0.389,0-0.682-0.131-0.881-0.391
			s-0.301-0.736-0.301-1.43C20.395,14.913,20.479,14.493,20.645,14.146z M20.295,20.686c0.04-0.266,0.109-0.5,0.21-0.699
			s0.237-0.355,0.41-0.471c0.173-0.111,0.394-0.17,0.66-0.17c0.266,0,0.485,0.059,0.659,0.17c0.174,0.114,0.311,0.271,0.41,0.471
			c0.101,0.199,0.17,0.435,0.211,0.699c0.039,0.269,0.06,0.562,0.06,0.881s-0.021,0.617-0.06,0.891
			c-0.041,0.273-0.11,0.51-0.211,0.71s-0.236,0.36-0.41,0.479s-0.394,0.181-0.659,0.181c-0.267,0-0.487-0.062-0.66-0.181
			s-0.31-0.279-0.41-0.479s-0.17-0.437-0.21-0.71s-0.061-0.57-0.061-0.891S20.255,20.953,20.295,20.686z"/>
		<path d="M29.375,1.25h-1.123c0.029-0.093,0.059-0.186,0.059-0.289c0-0.53-0.432-0.961-0.963-0.961s-0.961,0.431-0.961,0.961
			c0,0.104,0.028,0.196,0.059,0.289h-3.68c0.029-0.093,0.059-0.186,0.059-0.289c0-0.53-0.432-0.961-0.963-0.961
			C21.332,0,20.9,0.431,20.9,0.961c0,0.104,0.029,0.196,0.06,0.289h-3.681c0.029-0.093,0.058-0.186,0.058-0.289
			c0-0.53-0.43-0.961-0.961-0.961c-0.531,0-0.961,0.431-0.961,0.961c0,0.104,0.028,0.196,0.058,0.289h-3.681
			c0.029-0.093,0.059-0.186,0.059-0.289C11.851,0.431,11.42,0,10.89,0c-0.531,0-0.962,0.431-0.962,0.961
			c0,0.104,0.028,0.196,0.058,0.289h-3.68c0.03-0.093,0.059-0.186,0.059-0.289C6.365,0.431,5.935,0,5.404,0
			C4.873,0,4.442,0.431,4.442,0.961c0,0.104,0.028,0.196,0.058,0.289H3.375c-1.518,0-2.75,1.233-2.75,2.75v26
			c0,1.518,1.232,2.75,2.75,2.75H26.27l5.855-5.855V4C32.125,2.483,30.893,1.25,29.375,1.25z M30.625,26.273l-0.311,0.311h-2.355
			c-1.102,0-2,0.898-2,2v2.355l-0.311,0.311H3.375c-0.689,0-1.25-0.561-1.25-1.25V9h28.5V26.273z M30.625,7.208c0,0.55-0.45,1-1,1
			h-26.5c-0.55,0-1-0.45-1-1v-4c0-0.55,0.45-1,1-1h26.5c0.55,0,1,0.45,1,1V7.208z"/>
		<path d="M9.388,2.823L8.387,6.75h0.957l0.137-0.748h0.941l0.143,0.748h0.957l-0.979-3.927H9.388z M9.613,5.287l0.324-1.749h0.012
			l0.335,1.749H9.613z"/>
		<path d="M13.248,5.722c0,0.146-0.031,0.254-0.096,0.321c-0.064,0.068-0.139,0.102-0.223,0.102c-0.085,0-0.148-0.029-0.193-0.09
			c-0.043-0.061-0.065-0.145-0.065-0.251V3.775h-0.892v2.228c0,0.286,0.066,0.495,0.198,0.627c0.132,0.132,0.325,0.198,0.577,0.198
			c0.166,0,0.311-0.039,0.436-0.115c0.124-0.077,0.218-0.182,0.279-0.313h0.012v0.352h0.857V3.776h-0.891L13.248,5.722L13.248,5.722
			z"/>
		<path d="M16.169,4.176h-0.011c-0.052-0.136-0.132-0.249-0.24-0.341c-0.107-0.092-0.263-0.138-0.465-0.138
			c-0.193,0-0.348,0.047-0.461,0.141c-0.114,0.094-0.201,0.213-0.262,0.357s-0.1,0.308-0.118,0.489
			c-0.018,0.181-0.027,0.36-0.027,0.536c0,0.206,0.014,0.397,0.041,0.575c0.027,0.178,0.073,0.332,0.138,0.462
			c0.065,0.13,0.148,0.232,0.256,0.308c0.105,0.075,0.24,0.113,0.401,0.113c0.153,0,0.294-0.03,0.421-0.091
			c0.126-0.061,0.221-0.177,0.283-0.35h0.011v0.182c0,0.144-0.005,0.263-0.014,0.357c-0.009,0.096-0.028,0.174-0.056,0.234
			c-0.027,0.06-0.063,0.104-0.109,0.129s-0.105,0.038-0.179,0.038c-0.085,0-0.157-0.02-0.22-0.061
			c-0.048-0.04-0.079-0.101-0.094-0.182h-0.825c0,0.11,0.018,0.216,0.052,0.316c0.035,0.102,0.096,0.189,0.182,0.265
			c0.086,0.076,0.201,0.135,0.344,0.179c0.144,0.044,0.323,0.065,0.539,0.065c0.234,0,0.432-0.026,0.589-0.079
			c0.157-0.054,0.285-0.129,0.381-0.226c0.099-0.098,0.166-0.215,0.207-0.353s0.062-0.29,0.062-0.459V3.771H16.17L16.169,4.176
			L16.169,4.176z M16.117,5.598c-0.014,0.108-0.033,0.194-0.059,0.259s-0.061,0.109-0.104,0.135
			c-0.043,0.026-0.095,0.038-0.153,0.038c-0.063,0-0.114-0.014-0.154-0.041c-0.041-0.027-0.074-0.072-0.1-0.135
			c-0.026-0.063-0.043-0.146-0.055-0.253c-0.011-0.106-0.017-0.236-0.017-0.391c0-0.121,0.004-0.232,0.011-0.336
			c0.008-0.103,0.023-0.19,0.047-0.264c0.024-0.074,0.059-0.13,0.102-0.17c0.045-0.041,0.104-0.061,0.176-0.061
			c0.129,0,0.215,0.064,0.26,0.195c0.043,0.13,0.065,0.332,0.065,0.607C16.136,5.352,16.129,5.489,16.117,5.598z"/>
		<path d="M18.957,5.722c0,0.146-0.031,0.254-0.096,0.321c-0.064,0.068-0.139,0.102-0.223,0.102c-0.086,0-0.148-0.029-0.193-0.09
			C18.402,5.994,18.38,5.91,18.38,5.804V3.775h-0.892v2.228c0,0.286,0.066,0.495,0.197,0.627c0.133,0.132,0.326,0.198,0.578,0.198
			c0.166,0,0.311-0.039,0.436-0.115c0.124-0.077,0.218-0.182,0.279-0.313h0.012v0.352h0.857V3.776h-0.892L18.957,5.722L18.957,5.722
			z"/>
		<path d="M22.137,5.111c-0.107-0.07-0.222-0.123-0.344-0.16c-0.123-0.036-0.238-0.072-0.344-0.106
			c-0.107-0.035-0.195-0.075-0.266-0.121c-0.07-0.046-0.104-0.113-0.104-0.201c0-0.081,0.021-0.146,0.062-0.198
			c0.043-0.051,0.123-0.077,0.239-0.077c0.097,0,0.168,0.023,0.218,0.069c0.049,0.046,0.073,0.133,0.073,0.261v0.056h0.793v-0.1
			c0-0.106-0.018-0.21-0.053-0.311s-0.095-0.189-0.177-0.267c-0.082-0.077-0.192-0.14-0.329-0.188
			c-0.138-0.047-0.312-0.071-0.521-0.071c-0.363,0-0.643,0.075-0.84,0.226c-0.195,0.15-0.293,0.374-0.293,0.671
			c0,0.158,0.021,0.288,0.064,0.391c0.045,0.103,0.111,0.189,0.201,0.262c0.09,0.071,0.203,0.135,0.338,0.189
			c0.137,0.054,0.295,0.113,0.479,0.176c0.14,0.048,0.231,0.103,0.274,0.165c0.045,0.063,0.065,0.129,0.065,0.198
			c0,0.084-0.026,0.156-0.079,0.215c-0.054,0.059-0.134,0.088-0.238,0.088c-0.074,0-0.133-0.013-0.174-0.039
			c-0.043-0.025-0.076-0.059-0.103-0.099c-0.022-0.044-0.037-0.095-0.045-0.151c-0.007-0.057-0.013-0.118-0.017-0.185H20.23v0.132
			c0,0.298,0.088,0.521,0.267,0.669c0.178,0.148,0.467,0.223,0.866,0.223c0.373,0,0.656-0.087,0.85-0.262
			c0.191-0.174,0.289-0.411,0.289-0.712c0-0.19-0.035-0.345-0.104-0.462C22.33,5.274,22.242,5.181,22.137,5.111z"/>
		<path d="M23.896,2.9h-0.892v0.874h-0.368V4.39h0.368v1.59c0,0.172,0.013,0.312,0.036,0.418c0.023,0.105,0.066,0.188,0.127,0.244
			s0.143,0.095,0.244,0.113c0.104,0.018,0.23,0.027,0.385,0.027c0.169,0,0.34-0.011,0.512-0.033V6.155
			c-0.019,0.004-0.039,0.006-0.062,0.008s-0.045,0.003-0.062,0.003c-0.105,0-0.181-0.02-0.224-0.058
			c-0.042-0.039-0.063-0.111-0.063-0.218V4.389h0.412V3.773h-0.412V2.9L23.896,2.9z"/>
	</g>
</g>
<g>
</g>
<g>
</g>
<g>
</g>
<g>
</g>
<g>
</g>
<g>
</g>
<g>
</g>
<g>
</g>
<g>
</g>
<g>
</g>
<g>
</g>
<g>
</g>
<g>
</g>
<g>
</g>
<g>
</g>
</svg>
