<?xml version="1.0" encoding="iso-8859-1"?>
<!-- Generator: Adobe Illustrator 16.0.0, SVG Export Plug-In . SVG Version: 6.00 Build 0)  -->
<!DOCTYPE svg PUBLIC "-//W3C//DTD SVG 1.1//EN" "http://www.w3.org/Graphics/SVG/1.1/DTD/svg11.dtd">
<svg version="1.1" id="Capa_1" xmlns="http://www.w3.org/2000/svg" xmlns:xlink="http://www.w3.org/1999/xlink" x="0px" y="0px"
	 width="36.447px" height="36.447px" viewBox="0 0 36.447 36.447" style="enable-background:new 0 0 36.447 36.447;"
	 xml:space="preserve">
<g>
	<g>
		<path d="M30.224,3.948h-1.098V2.75c0-1.516-1.197-2.75-2.67-2.75c-1.474,0-2.67,1.234-2.67,2.75v1.197h-2.74V2.75
			c0-1.516-1.197-2.75-2.67-2.75c-1.473,0-2.67,1.234-2.67,2.75v1.197h-2.74V2.75c0-1.516-1.197-2.75-2.67-2.75
			c-1.473,0-2.67,1.234-2.67,2.75v1.197H6.224c-2.343,0-4.25,1.907-4.25,4.25v24c0,2.343,1.907,4.25,4.25,4.25h24
			c2.344,0,4.25-1.907,4.25-4.25v-24C34.474,5.854,32.567,3.948,30.224,3.948z M25.286,2.75c0-0.689,0.525-1.25,1.17-1.25
			c0.646,0,1.17,0.561,1.17,1.25v4.895c0,0.689-0.524,1.25-1.17,1.25c-0.645,0-1.17-0.561-1.17-1.25V2.75z M17.206,2.75
			c0-0.689,0.525-1.25,1.17-1.25s1.17,0.561,1.17,1.25v4.895c0,0.689-0.525,1.25-1.17,1.25s-1.17-0.561-1.17-1.25V2.75z M9.125,2.75
			c0-0.689,0.525-1.25,1.17-1.25s1.17,0.561,1.17,1.25v4.895c0,0.689-0.525,1.25-1.17,1.25s-1.17-0.561-1.17-1.25V2.75z
			 M31.974,32.198c0,0.965-0.785,1.75-1.75,1.75h-24c-0.965,0-1.75-0.785-1.75-1.75v-22h27.5V32.198z"/>
		<path d="M20.542,26.6c0.061-0.414,0.4-1.424,0.597-2.088c-0.069,0.002-0.14-0.004-0.208-0.022c-0.146-0.039-0.273-0.12-0.37-0.229
			c-0.147,0.022-0.296,0.002-0.431-0.062c-0.137-0.063-0.248-0.166-0.323-0.291c-0.147-0.003-0.291-0.05-0.413-0.136
			c-0.051-0.035-0.093-0.08-0.133-0.125c0.049,0.775,0.082,1.472,0.093,1.684c0.027,0.527-0.288,1.753-0.179,2.264
			c0.109,0.51,0.91,1.924,0.938,2.162c0.027,0.239-0.224,0.342-0.352,0.475c-0.128,0.134-0.087,0.338,0.016,0.457
			c0.104,0.119,0.385,0.228,0.489,0.455c0.103,0.229-0.054,1.108-0.065,1.334c-0.011,0.228,0.289,0.164,0.392,0
			c0.104-0.162,0.559-0.922,0.586-1.383c0.026-0.461-0.183-1.08-0.228-1.352C20.903,29.471,20.477,27.039,20.542,26.6z"/>
		<path d="M9.763,17.4c0.38,0.13,0.643,0.212,1.042,0.341c0.286,0.092,4.24,1.569,6.538,2.509c-0.003-0.018-0.012-0.033-0.013-0.052
			c-0.013-0.151,0.02-0.3,0.09-0.427c-0.07-0.127-0.103-0.274-0.09-0.424c0.014-0.152,0.072-0.293,0.164-0.406
			c-0.041-0.117-0.044-0.244-0.022-0.37c-0.338-0.097-0.674-0.193-0.966-0.276c-1.08-0.307-5.104-1.1-5.471-1.172
			c-0.366-0.073-0.593-0.223-0.733-0.301c-0.139-0.079-1.112-1.18-1.546-1.213c-0.435-0.033-0.629,0.358-0.456,0.57
			C8.472,16.391,9.383,17.27,9.763,17.4z"/>
		<path d="M15.624,13.753c0.245-0.065,0.807-0.333,0.978-0.228c0.17,0.105,4.56,3.655,4.722,3.907
			c0.164,0.252,0.282,1.25,0.146,1.464c-0.033,0.054-0.09,0.084-0.161,0.1c-0.885-0.771-2.13-1.855-2.253-1.941
			c-0.191-0.134-0.457-0.087-0.591,0.104c-0.096,0.138-0.096,0.311-0.02,0.447c-0.157,0.004-0.307,0.09-0.376,0.241
			c-0.071,0.151-0.041,0.322,0.058,0.444c-0.154,0.03-0.286,0.143-0.329,0.303c-0.043,0.162,0.016,0.322,0.133,0.426
			c-0.146,0.058-0.257,0.189-0.271,0.355s0.072,0.314,0.206,0.396c-0.134,0.082-0.22,0.231-0.206,0.396
			c0.015,0.167,0.126,0.299,0.271,0.355c-0.118,0.104-0.176,0.266-0.134,0.426c0.043,0.162,0.175,0.273,0.33,0.303
			c-0.099,0.122-0.128,0.293-0.058,0.441c0.071,0.152,0.22,0.24,0.376,0.244c-0.076,0.137-0.075,0.31,0.02,0.445
			c0.096,0.137,0.257,0.196,0.412,0.172c-0.049,0.148-0.019,0.317,0.099,0.437c0.117,0.118,0.288,0.147,0.436,0.099
			c-0.022,0.153,0.037,0.315,0.172,0.411c0.138,0.097,0.31,0.097,0.447,0.021c0.004,0.156,0.09,0.306,0.241,0.375
			c0.151,0.072,0.321,0.041,0.443-0.057c0.03,0.153,0.141,0.285,0.303,0.328c0.161,0.043,0.323-0.016,0.425-0.134
			c0.057,0.147,0.189,0.257,0.356,0.271c0.166,0.016,0.315-0.072,0.396-0.205c0.082,0.135,0.23,0.221,0.397,0.205
			c0.166-0.015,0.298-0.125,0.354-0.271c0.104,0.118,0.266,0.176,0.428,0.134c0.16-0.044,0.271-0.176,0.302-0.328
			c0.122,0.098,0.292,0.127,0.444,0.057c0.149-0.07,0.236-0.219,0.24-0.377c0.137,0.076,0.311,0.076,0.446-0.021
			c0.19-0.134,0.237-0.397,0.104-0.591c-0.09-0.127-1.252-1.461-2.027-2.35c0.875-0.707,1.793-1.424,1.874-1.629
			c0.157-0.402-0.075-1.011-0.099-1.32c-0.022-0.309,1.996-4.871,2.101-5.128c0.106-0.258,0.813,0.041,1.14-0.114
			c0.325-0.155,0.407-0.733,0.195-0.83c-0.212-0.098-1.555,0.341-1.84,0.667c-0.285,0.326-2,3.921-2.264,4.429
			c0.018-0.122-0.332-0.513-0.226-0.714c0.106-0.202,0.633-0.531,0.666-0.661c0.032-0.13-0.358-0.439-0.31-0.529
			c0.047-0.089,0.138-0.171,0.08-0.244c-0.057-0.073-0.455-0.065-0.569-0.147c-0.114-0.081-0.369-0.291-0.538-0.423
			c-0.168-0.132-1.01-0.016-1.335,0.261c-0.326,0.277-0.435,0.698-0.472,0.814c-0.039,0.115-0.188,0.122-0.213,0.26
			c-0.023,0.138,0.351,0.586,0.474,0.635c0.122,0.048,0.677,0.379,0.806,0.456c0.129,0.076-0.008,0.171-0.105,0.114
			c-0.099-0.057-4.926-3.157-5.259-3.37c-0.333-0.213-2.141-0.122-2.377,0C14.378,13.207,15.381,13.818,15.624,13.753z"/>
	</g>
</g>
<g>
</g>
<g>
</g>
<g>
</g>
<g>
</g>
<g>
</g>
<g>
</g>
<g>
</g>
<g>
</g>
<g>
</g>
<g>
</g>
<g>
</g>
<g>
</g>
<g>
</g>
<g>
</g>
<g>
</g>
</svg>
