<?xml version="1.0" encoding="iso-8859-1"?>
<!-- Generator: Adobe Illustrator 16.0.0, SVG Export Plug-In . SVG Version: 6.00 Build 0)  -->
<!DOCTYPE svg PUBLIC "-//W3C//DTD SVG 1.1//EN" "http://www.w3.org/Graphics/SVG/1.1/DTD/svg11.dtd">
<svg version="1.1" id="Capa_1" xmlns="http://www.w3.org/2000/svg" xmlns:xlink="http://www.w3.org/1999/xlink" x="0px" y="0px"
	 width="32.75px" height="32.75px" viewBox="0 0 32.75 32.75" style="enable-background:new 0 0 32.75 32.75;" xml:space="preserve"
	>
<g>
	<path d="M29.375,1.25h-1.123c0.029-0.093,0.059-0.186,0.059-0.289c0-0.53-0.432-0.961-0.963-0.961s-0.961,0.431-0.961,0.961
		c0,0.103,0.028,0.196,0.059,0.289h-3.68c0.029-0.093,0.059-0.186,0.059-0.289C22.823,0.431,22.393,0,21.861,0
		C21.331,0,20.9,0.431,20.9,0.961c0,0.103,0.029,0.196,0.059,0.289h-3.682c0.029-0.093,0.059-0.186,0.059-0.289
		c0-0.53-0.43-0.961-0.961-0.961c-0.531,0-0.961,0.431-0.961,0.961c0,0.103,0.028,0.196,0.058,0.289h-3.681
		c0.029-0.093,0.059-0.186,0.059-0.289C11.85,0.431,11.419,0,10.889,0c-0.531,0-0.962,0.431-0.962,0.961
		c0,0.103,0.028,0.196,0.058,0.289h-3.68c0.03-0.093,0.059-0.186,0.059-0.289C6.364,0.43,5.934,0,5.403,0
		C4.872,0,4.441,0.431,4.441,0.961c0,0.103,0.028,0.196,0.058,0.289H3.375c-1.518,0-2.75,1.233-2.75,2.75v26
		c0,1.518,1.232,2.75,2.75,2.75H26.27l5.855-5.855V4C32.125,2.483,30.893,1.25,29.375,1.25z M3.375,31.25
		c-0.689,0-1.25-0.561-1.25-1.25V5h28.5v21.273l-0.311,0.311h-2.355c-1.102,0-2,0.9-2,2v2.355l-0.311,0.311H3.375z"/>
	<path d="M17.854,19.591v-6.067c0-0.257-0.6-0.463-1.354-0.484v-0.449c0.662-1.131,1.28-2.488-0.249-3.807
		c-0.221,0.971-1.999,2.396,0.004,3.692v0.563c-0.755,0.021-1.355,0.227-1.355,0.484v6.067c-2.601,0.133-4.533,0.6-4.533,1.161
		v1.202l1.202,4.809c0,0.664,2.153,1.202,4.808,1.202c2.656,0,4.812-0.538,4.812-1.202l1.201-4.809v-1.202
		C22.387,20.191,20.454,19.725,17.854,19.591z M16.374,21.629c-1.326,0-2.403-0.293-2.403-0.656c0-0.209,0.366-0.395,0.927-0.515
		v0.453c0,0.272,0.662,0.491,1.477,0.491c0.816,0,1.479-0.219,1.479-0.491v-0.453c0.562,0.12,0.928,0.304,0.928,0.515
		C18.779,21.336,17.703,21.629,16.374,21.629z"/>
</g>
<g>
</g>
<g>
</g>
<g>
</g>
<g>
</g>
<g>
</g>
<g>
</g>
<g>
</g>
<g>
</g>
<g>
</g>
<g>
</g>
<g>
</g>
<g>
</g>
<g>
</g>
<g>
</g>
<g>
</g>
</svg>
