<?xml version="1.0" encoding="iso-8859-1"?>
<!-- Generator: Adobe Illustrator 16.0.0, SVG Export Plug-In . SVG Version: 6.00 Build 0)  -->
<!DOCTYPE svg PUBLIC "-//W3C//DTD SVG 1.1//EN" "http://www.w3.org/Graphics/SVG/1.1/DTD/svg11.dtd">
<svg version="1.1" id="Capa_1" xmlns="http://www.w3.org/2000/svg" xmlns:xlink="http://www.w3.org/1999/xlink" x="0px" y="0px"
	 width="32.75px" height="32.75px" viewBox="0 0 32.75 32.75" style="enable-background:new 0 0 32.75 32.75;" xml:space="preserve"
	>
<g>
	<g>
		<path d="M29.375,1.25h-1.123c0.029-0.093,0.059-0.186,0.059-0.289c0-0.53-0.432-0.961-0.963-0.961s-0.961,0.431-0.961,0.961
			c0,0.103,0.028,0.196,0.059,0.289h-3.68c0.029-0.093,0.059-0.186,0.059-0.289C22.823,0.431,22.393,0,21.861,0
			C21.331,0,20.9,0.431,20.9,0.961c0,0.103,0.029,0.196,0.059,0.289h-3.682c0.029-0.093,0.059-0.186,0.059-0.289
			c0-0.53-0.43-0.961-0.961-0.961c-0.531,0-0.961,0.431-0.961,0.961c0,0.103,0.028,0.196,0.058,0.289h-3.681
			c0.029-0.093,0.059-0.186,0.059-0.289C11.85,0.431,11.419,0,10.889,0c-0.531,0-0.962,0.431-0.962,0.961
			c0,0.103,0.028,0.196,0.058,0.289h-3.68c0.03-0.093,0.059-0.186,0.059-0.289C6.364,0.43,5.934,0,5.403,0
			C4.872,0,4.441,0.431,4.441,0.961c0,0.103,0.028,0.196,0.058,0.289H3.375c-1.518,0-2.75,1.233-2.75,2.75v26
			c0,1.518,1.232,2.75,2.75,2.75H26.27l5.855-5.855V4C32.125,2.483,30.893,1.25,29.375,1.25z M30.625,26.273l-0.311,0.311h-2.355
			c-1.102,0-2,0.9-2,2v2.355l-0.311,0.311H3.375c-0.689,0-1.25-0.561-1.25-1.25V5h28.5V26.273z"/>
		<path d="M11.801,20.467l4.455,8.043c0.002,0.006,0.01,0.004,0.013,0.008c0.009,0.014,0.017,0.022,0.029,0.031
			c0.006,0.006,0.006,0.012,0.011,0.016c0.02,0.01,0.039,0.015,0.061,0.015c0.002,0.001,0.004,0.003,0.006,0.003
			s0.004-0.002,0.006-0.003c0.021,0,0.041-0.005,0.061-0.015c0.005-0.004,0.005-0.01,0.011-0.016
			c0.012-0.009,0.021-0.02,0.029-0.031c0.005-0.004,0.011-0.002,0.013-0.008l4.455-8.043c1.879-0.017,3.4-2.652,3.4-4.946
			c0-2.3-1.529-4.163-3.42-4.163c-0.021,0-0.041,0.007-0.062,0.007c0.029,0.244,0.062,0.486,0.062,0.739
			c0,0.624-0.1,1.262-0.271,1.881l0.069-0.01l0.338-0.683l0.336,0.683l0.756,0.109l-0.547,0.531l0.13,0.751l-0.675-0.354
			l-0.676,0.354l0.131-0.751l-0.045-0.043c-0.217,0.592-0.506,1.147-0.853,1.644l0.183,0.37l0.754,0.109l-0.547,0.532l0.129,0.75
			l-0.674-0.354l-0.674,0.354l0.129-0.75l-0.104-0.101c-0.268,0.247-0.547,0.47-0.852,0.638c0.545,1.383,1.529,2.514,2.684,2.674
			l-4.143,7.479V17.03c1.823-0.127,3.28-2.683,3.28-4.926c0-2.301-1.529-4.164-3.417-4.164c-1.887,0-3.417,1.863-3.417,4.164
			c0,2.243,1.458,4.799,3.28,4.926v10.887l-4.143-7.479c1.154-0.162,2.139-1.291,2.684-2.674c-0.306-0.168-0.585-0.391-0.853-0.638
			l-0.103,0.101l0.129,0.75l-0.675-0.354l-0.673,0.354l0.129-0.75l-0.547-0.532l0.755-0.109l0.182-0.37
			c-0.346-0.496-0.636-1.052-0.852-1.644l-0.045,0.043l0.13,0.751l-0.675-0.354l-0.675,0.354l0.13-0.751l-0.547-0.531l0.755-0.109
			l0.337-0.683l0.337,0.683l0.07,0.01c-0.171-0.62-0.271-1.257-0.271-1.881c0-0.253,0.034-0.496,0.063-0.739
			c-0.022,0-0.042-0.007-0.063-0.007c-1.888,0-3.419,1.863-3.419,4.163C8.4,17.812,9.923,20.45,11.801,20.467z M22.327,16.585
			l0.336-0.683l0.338,0.683l0.754,0.109l-0.546,0.533l0.129,0.75l-0.675-0.354l-0.675,0.354l0.13-0.75l-0.545-0.533L22.327,16.585z
			 M17.971,12.253l0.338,0.683l0.754,0.109l-0.545,0.532l0.129,0.751l-0.676-0.354l-0.673,0.354l0.129-0.751l-0.547-0.532
			l0.753-0.109L17.971,12.253z M15.452,14.328l-0.673-0.354l-0.675,0.354l0.128-0.751l-0.545-0.532l0.754-0.109l0.338-0.683
			l0.335,0.683l0.756,0.109l-0.547,0.532L15.452,14.328z M15.7,11.717l0.13-0.751l-0.547-0.532l0.754-0.109l0.338-0.682l0.338,0.683
			l0.754,0.109l-0.547,0.532l0.129,0.751l-0.674-0.355L15.7,11.717z M8.995,16.694l0.754-0.109l0.338-0.683l0.337,0.683l0.753,0.109
			l-0.545,0.533l0.129,0.75l-0.674-0.354l-0.675,0.354l0.129-0.75L8.995,16.694z"/>
	</g>
</g>
<g>
</g>
<g>
</g>
<g>
</g>
<g>
</g>
<g>
</g>
<g>
</g>
<g>
</g>
<g>
</g>
<g>
</g>
<g>
</g>
<g>
</g>
<g>
</g>
<g>
</g>
<g>
</g>
<g>
</g>
</svg>
