<?xml version="1.0" encoding="iso-8859-1"?>
<!-- Generator: Adobe Illustrator 16.0.0, SVG Export Plug-In . SVG Version: 6.00 Build 0)  -->
<!DOCTYPE svg PUBLIC "-//W3C//DTD SVG 1.1//EN" "http://www.w3.org/Graphics/SVG/1.1/DTD/svg11.dtd">
<svg version="1.1" id="Capa_1" xmlns="http://www.w3.org/2000/svg" xmlns:xlink="http://www.w3.org/1999/xlink" x="0px" y="0px"
	 width="34px" height="34px" viewBox="0 0 34 34" style="enable-background:new 0 0 34 34;" xml:space="preserve">
<g>
	<path d="M27.91,2H27V1c0-0.553-0.447-1-1-1s-1,0.447-1,1v1h-7V1c0-0.553-0.447-1-1-1c-0.553,0-1,0.447-1,1v1H9V1
		c0-0.553-0.447-1-1-1S7,0.447,7,1v1H6.09C3.283,2,1,4.283,1,7.09v21.82C1,31.717,3.283,34,6.09,34h21.82
		c2.807,0,5.09-2.283,5.09-5.09V7.09C33,4.283,30.717,2,27.91,2z M3,7.09C3,5.386,4.386,4,6.09,4H7v3c0,0.553,0.447,1,1,1
		s1-0.447,1-1V4h7v3c0,0.553,0.447,1,1,1c0.553,0,1-0.447,1-1V4h7v3c0,0.553,0.447,1,1,1s1-0.447,1-1V4h0.91
		C29.613,4,31,5.386,31,7.09V10H3V7.09z M31,12v11.052H3V12H31z M30.982,29.084H3.018C3.015,29.025,3,28.97,3,28.91v-0.875h28v0.875
		C31,28.97,30.984,29.025,30.982,29.084z M3,26.068V25.02h28v1.049H3L3,26.068z M27.91,32H6.09c-0.872,0-1.656-0.366-2.219-0.948
		h26.258C29.566,31.634,28.782,32,27.91,32z"/>
</g>
<g>
</g>
<g>
</g>
<g>
</g>
<g>
</g>
<g>
</g>
<g>
</g>
<g>
</g>
<g>
</g>
<g>
</g>
<g>
</g>
<g>
</g>
<g>
</g>
<g>
</g>
<g>
</g>
<g>
</g>
</svg>
