<?xml version="1.0" encoding="iso-8859-1"?>
<!-- Generator: Adobe Illustrator 16.0.0, SVG Export Plug-In . SVG Version: 6.00 Build 0)  -->
<!DOCTYPE svg PUBLIC "-//W3C//DTD SVG 1.1//EN" "http://www.w3.org/Graphics/SVG/1.1/DTD/svg11.dtd">
<svg version="1.1" id="Capa_1" xmlns="http://www.w3.org/2000/svg" xmlns:xlink="http://www.w3.org/1999/xlink" x="0px" y="0px"
	 width="36.447px" height="36.447px" viewBox="0 0 36.447 36.447" style="enable-background:new 0 0 36.447 36.447;"
	 xml:space="preserve">
<g>
	<g>
		<path d="M30.224,3.948h-1.098V2.75c0-1.516-1.197-2.75-2.67-2.75c-1.474,0-2.67,1.234-2.67,2.75v1.197h-2.74V2.75
			c0-1.516-1.197-2.75-2.67-2.75c-1.473,0-2.67,1.234-2.67,2.75v1.197h-2.74V2.75c0-1.516-1.197-2.75-2.67-2.75
			c-1.473,0-2.67,1.234-2.67,2.75v1.197H6.224c-2.343,0-4.25,1.907-4.25,4.25v24c0,2.343,1.907,4.25,4.25,4.25h24
			c2.344,0,4.25-1.907,4.25-4.25v-24C34.474,5.854,32.567,3.948,30.224,3.948z M25.286,2.75c0-0.689,0.525-1.25,1.17-1.25
			c0.646,0,1.17,0.561,1.17,1.25v4.895c0,0.689-0.524,1.25-1.17,1.25c-0.645,0-1.17-0.561-1.17-1.25V2.75z M17.206,2.75
			c0-0.689,0.525-1.25,1.17-1.25s1.17,0.561,1.17,1.25v4.895c0,0.689-0.525,1.25-1.17,1.25s-1.17-0.561-1.17-1.25V2.75z M9.125,2.75
			c0-0.689,0.525-1.25,1.17-1.25s1.17,0.561,1.17,1.25v4.895c0,0.689-0.525,1.25-1.17,1.25s-1.17-0.561-1.17-1.25V2.75z
			 M31.974,32.198c0,0.965-0.785,1.75-1.75,1.75h-24c-0.965,0-1.75-0.785-1.75-1.75v-22h27.5V32.198z"/>
		<path d="M7.015,25.443h1.497l1.515,3.875c0.036,0.189,0.664,1.14,9.442,1.14c9.049,0,9.995-0.515,10.03-0.536
			c0.039-0.023,0.062-0.064,0.062-0.111v-2.426c0-0.05-0.027-0.096-0.074-0.117l-2.199-1.035c-0.018-0.008-0.035-0.012-0.056-0.012
			h-0.991c-0.057-0.361-0.184-1.527,0.301-2.619l0.697-0.949c0.043-0.059,0.031-0.139-0.027-0.182
			c-0.057-0.041-0.137-0.029-0.182,0.028l-0.436,0.595c-0.709-0.426-1.081-0.851-0.574-2.217l0.842-0.857
			c0.051-0.051,0.049-0.133-0.004-0.184c-0.051-0.049-0.132-0.05-0.182,0.001l-0.775,0.792c-1.594-0.041-2.352-0.994-2.681-1.645
			v-0.661c0.284-0.173,0.483-0.54,0.483-0.621c0-0.093-0.263-0.171-0.612-0.19v-4.629c0-0.072-0.06-0.13-0.132-0.13
			c-0.07,0-0.127,0.058-0.127,0.13v4.627c-0.385,0.013-0.68,0.093-0.68,0.192c0,0.087,0.231,0.5,0.549,0.651v5.797h-2.187
			l-0.771-1.483c-0.023-0.043-0.067-0.069-0.115-0.069h-2.361c-0.071,0-0.131,0.059-0.131,0.129v1.515l-0.973,1.462l-4.429,0.004
			l-1.973-0.49v-0.582c0-0.07-0.058-0.129-0.13-0.129h-2.62c-0.07,0-0.129,0.059-0.129,0.129v0.68
			C6.886,25.387,6.945,25.443,7.015,25.443z M26.114,26.252c-0.021,0.018-0.035,0.04-0.043,0.066
			c-0.014,0.059,0.014,0.119,0.066,0.146l0.529,0.273h-2.426l2.019-2.75C25.954,24.979,26.064,25.936,26.114,26.252z M23.221,19.232
			c0.384,0.643,1.147,1.441,2.56,1.521l-2.56,2.614V19.232z M23.221,23.736l2.591-2.646c-0.395,1.25,0.014,1.69,0.707,2.107
			l-2.597,3.54h-0.701V23.736z M20.634,24.975h1.326v0.857h-1.326V24.975z M18.79,24.975h1.327v0.857H18.79V24.975z M17.462,24.975
			h0.81v0.857h-1.326L17.462,24.975z M15.462,26.079c0.123,0,0.223,0.101,0.223,0.226c0,0.123-0.1,0.224-0.223,0.224
			c-0.124,0-0.226-0.101-0.226-0.224C15.237,26.18,15.339,26.079,15.462,26.079z M14.537,26.079c0.123,0,0.223,0.101,0.223,0.226
			c0,0.123-0.1,0.224-0.223,0.224c-0.124,0-0.224-0.101-0.224-0.224C14.312,26.18,14.413,26.079,14.537,26.079z M13.612,26.079
			c0.124,0,0.224,0.101,0.224,0.226c0,0.123-0.1,0.224-0.224,0.224s-0.224-0.101-0.224-0.224
			C13.388,26.18,13.488,26.079,13.612,26.079z M9.064,24.766h0.442v0.42H9.064V24.766z M8.632,24.766h0.302v0.42H8.632V24.766z
			 M8.202,24.766h0.303v0.42H8.202V24.766z M7.77,24.766h0.303v0.42H7.77V24.766z M7.34,24.766h0.302v0.42H7.34V24.766z
			 M7.145,24.766h0.064v0.42H7.145V24.766z"/>
	</g>
</g>
<g>
</g>
<g>
</g>
<g>
</g>
<g>
</g>
<g>
</g>
<g>
</g>
<g>
</g>
<g>
</g>
<g>
</g>
<g>
</g>
<g>
</g>
<g>
</g>
<g>
</g>
<g>
</g>
<g>
</g>
</svg>
