<?xml version="1.0" encoding="iso-8859-1"?>
<!-- Generator: Adobe Illustrator 16.0.0, SVG Export Plug-In . SVG Version: 6.00 Build 0)  -->
<!DOCTYPE svg PUBLIC "-//W3C//DTD SVG 1.1//EN" "http://www.w3.org/Graphics/SVG/1.1/DTD/svg11.dtd">
<svg version="1.1" id="Capa_1" xmlns="http://www.w3.org/2000/svg" xmlns:xlink="http://www.w3.org/1999/xlink" x="0px" y="0px"
	 width="32.75px" height="32.75px" viewBox="0 0 32.75 32.75" style="enable-background:new 0 0 32.75 32.75;" xml:space="preserve"
	>
<g>
	<g>
		<path d="M29.375,1.25h-1.123c0.029-0.093,0.059-0.186,0.059-0.289C28.311,0.43,27.879,0,27.348,0s-0.961,0.431-0.961,0.961
			c0,0.103,0.028,0.196,0.059,0.289h-3.68c0.029-0.093,0.059-0.186,0.059-0.289C22.824,0.43,22.393,0,21.861,0
			C21.332,0,20.9,0.431,20.9,0.961c0,0.103,0.029,0.196,0.06,0.289h-3.681c0.029-0.093,0.058-0.186,0.058-0.289
			C17.337,0.43,16.907,0,16.376,0c-0.531,0-0.961,0.431-0.961,0.961c0,0.103,0.028,0.196,0.058,0.289h-3.681
			c0.029-0.093,0.059-0.186,0.059-0.289C11.851,0.43,11.42,0,10.89,0c-0.531,0-0.962,0.431-0.962,0.961
			c0,0.103,0.028,0.196,0.058,0.289h-3.68c0.03-0.093,0.059-0.186,0.059-0.289C6.365,0.43,5.935,0,5.404,0
			C4.873,0,4.442,0.431,4.442,0.961c0,0.103,0.028,0.196,0.058,0.289H3.375c-1.518,0-2.75,1.233-2.75,2.75v26
			c0,1.518,1.232,2.75,2.75,2.75H26.27l5.855-5.855V4C32.125,2.484,30.893,1.25,29.375,1.25z M30.625,26.273l-0.311,0.311h-2.355
			c-1.102,0-2,0.9-2,2v2.355l-0.311,0.311H3.375c-0.689,0-1.25-0.561-1.25-1.25V5h28.5V26.273z"/>
		<path d="M8.603,21.107c-0.196,0.277-0.206,0.642-0.023,0.994c0.275,0.528,0.909,0.912,1.509,0.912
			c0.054,0,0.108-0.003,0.162-0.009c0.045,0.15,0.119,0.295,0.22,0.433c0.335,0.453,0.95,0.758,1.531,0.758
			c0.079,0,0.157-0.006,0.233-0.016c0.061,0.176,0.158,0.346,0.29,0.504c0.371,0.441,0.957,0.717,1.53,0.717
			c0.055,0,0.109-0.004,0.162-0.008c0.05,0.192,0.141,0.375,0.273,0.539c0.301,0.373,0.779,0.604,1.246,0.604
			c0.382,0,0.711-0.163,0.905-0.447c0.201-0.298,0.578-0.957,0.943-1.594c0.081-0.141,0.159-0.276,0.232-0.407
			c0.515,0.218,0.832,0.354,0.832,0.354c1.115,0.438,1.688-1.215,1.17-1.664l0.777,0.272c1.137,0.457,2.149-0.938,1.256-1.796
			c0.428,0.191,0.824,0.1,1.125-0.13l-0.002,0.004l0.996-0.205l3.84-1.077l0.367-0.104l-0.061-0.376l-1.215-7.538l-0.074-0.462
			l-0.453,0.116l-4.32,1.103c-0.359-0.004-1.938-0.946-2.785-1.452c-1.254-0.75-1.685-0.992-1.971-0.992
			c-0.338,0-1.375,0.487-2.253,1.058c-0.151-0.128-0.27-0.204-0.346-0.192c-0.912,0.147-3.611,2.329-4.152,2.194
			c-0.54-0.135-4.827-1.249-4.827-1.249l-1.147,7.393c0,0,3.099,0.83,4.424,1.185L8.603,21.107z M14.104,12.594
			c0.157-0.562,2.722-2.026,3.195-2.026c0.458,0,3.914,2.439,4.781,2.439c0.029,0,0.057-0.002,0.08-0.009
			c0.706-0.18,4.32-1.103,4.32-1.103l1.215,7.539l-3.84,1.077c0.064-0.233,0.082-0.465,0.043-0.682
			c0.563-0.095,1.064-0.519,1.268-1.09c0.208-0.589,0.046-1.188-0.422-1.566l-0.059-0.039c-0.033-0.018-3.234-1.793-6.275-3.666
			l-0.848,0.031c-0.213,0.099-0.795,0.393-0.871,0.67c-0.093,0.338-0.541,1.958-0.742,2.745c-0.053,0.208-0.268,0.295-0.551,0.295
			c-0.788,0-2.107-0.674-1.981-1.286C13.587,15.092,13.945,13.156,14.104,12.594z M10.255,19.908c0.529,0,1.168,0.57,1.103,1.057
			c0.327-0.542,0.664-0.973,1.08-1.057c0.073-0.014,0.146-0.021,0.218-0.021c0.705,0,1.333,0.66,1.312,1.191
			c0.266-0.441,0.63-0.612,0.994-0.612c0.806,0,1.611,0.841,1.349,1.442c0.145-0.135,0.332-0.194,0.526-0.194
			c0.679,0,1.464,0.729,0.957,1.569c-0.381,0.632-1.194,2.103-1.508,2.566c-0.121,0.178-0.326,0.258-0.551,0.258
			c-0.57,0-1.275-0.517-1.111-1.279c-0.173,0.1-0.37,0.145-0.57,0.145c-0.762,0-1.582-0.649-1.453-1.386
			c-0.171,0.126-0.381,0.183-0.6,0.183c-0.736,0-1.566-0.636-1.34-1.373c-0.177,0.135-0.375,0.191-0.572,0.191
			c-0.73,0-1.457-0.777-1.132-1.238l0.781-1.147C9.863,19.993,10.051,19.908,10.255,19.908z"/>
	</g>
</g>
<g>
</g>
<g>
</g>
<g>
</g>
<g>
</g>
<g>
</g>
<g>
</g>
<g>
</g>
<g>
</g>
<g>
</g>
<g>
</g>
<g>
</g>
<g>
</g>
<g>
</g>
<g>
</g>
<g>
</g>
</svg>
