<?xml version="1.0" encoding="iso-8859-1"?>
<!-- Generator: Adobe Illustrator 16.0.0, SVG Export Plug-In . SVG Version: 6.00 Build 0)  -->
<!DOCTYPE svg PUBLIC "-//W3C//DTD SVG 1.1//EN" "http://www.w3.org/Graphics/SVG/1.1/DTD/svg11.dtd">
<svg version="1.1" id="Capa_1" xmlns="http://www.w3.org/2000/svg" xmlns:xlink="http://www.w3.org/1999/xlink" x="0px" y="0px"
	 width="32.75px" height="32.75px" viewBox="0 0 32.75 32.75" style="enable-background:new 0 0 32.75 32.75;" xml:space="preserve"
	>
<g>
	<g>
		<path d="M29.375,1.25h-1.123c0.029-0.093,0.059-0.186,0.059-0.289C28.311,0.43,27.879,0,27.348,0s-0.961,0.431-0.961,0.961
			c0,0.103,0.028,0.196,0.059,0.289h-3.68c0.029-0.093,0.059-0.186,0.059-0.289C22.824,0.43,22.393,0,21.861,0
			C21.332,0,20.9,0.431,20.9,0.961c0,0.103,0.029,0.196,0.06,0.289h-3.681c0.029-0.093,0.058-0.186,0.058-0.289
			C17.337,0.43,16.907,0,16.376,0c-0.531,0-0.961,0.431-0.961,0.961c0,0.103,0.028,0.196,0.058,0.289h-3.681
			c0.029-0.093,0.059-0.186,0.059-0.289C11.851,0.43,11.42,0,10.89,0c-0.531,0-0.962,0.431-0.962,0.961
			c0,0.103,0.028,0.196,0.058,0.289h-3.68c0.03-0.093,0.059-0.186,0.059-0.289C6.365,0.43,5.935,0,5.404,0
			C4.873,0,4.442,0.431,4.442,0.961c0,0.103,0.028,0.196,0.058,0.289H3.375c-1.518,0-2.75,1.233-2.75,2.75v26
			c0,1.518,1.232,2.75,2.75,2.75H26.27l5.855-5.855V4C32.125,2.484,30.893,1.25,29.375,1.25z M30.625,26.273l-0.311,0.311h-2.355
			c-1.102,0-2,0.9-2,2v2.355l-0.311,0.311H3.375c-0.689,0-1.25-0.561-1.25-1.25V5h28.5V26.273z"/>
		<path d="M11.435,26.656h6.19V20.79c-0.154,0.033-0.316,0.047-0.48,0.028c-0.386-0.043-0.74-0.238-0.987-0.549
			c-0.249-0.311-0.361-0.697-0.316-1.094l0.171-1.541h-0.005v-1.83h0.208l0.094-0.845h-0.784v-1.403h-1.989v1.403h-0.995v0.276
			h-1.106v10.851h-0.482V13.123H9.804v-1.401H8.668V9.331H8.383v2.391H7.245v1.401H6.097v13.533h4.855H11.435z M16.006,22.146h1.051
			v1.828h-1.051V22.146z M15.722,26.087h-1.05v-1.829h1.05V26.087z M15.722,23.975h-1.05v-1.83h1.05V23.975z M15.722,21.861h-1.05
			v-1.83h1.05V21.861z M15.722,17.918v1.83h-1.05v-1.83H15.722z M13.819,13.841h1.421v0.977h-1.421V13.841z M13.337,15.805h1.051
			v1.829h-1.051V15.805z M13.337,20.031h1.051v1.83h-1.051V20.031z M13.337,24.259h1.051v1.829h-1.051V24.259z M12.003,17.918h1.05
			v1.83h-1.05V17.918z M12.003,22.146h1.05v1.828h-1.05V22.146z M7.529,12.006h1.989v1.117H7.529V12.006z M7.715,23.975H6.664v-1.83
			h1.051V23.975z M7.715,21.861H6.664v-1.83h1.051V21.861z M7.715,19.748H6.664v-1.83h1.051V19.748z M7.715,15.52H6.664v-1.829
			h0.581h0.47V15.52z M9.05,26.087H7.999v-1.829H9.05V26.087z M9.05,23.975H7.999v-1.83H9.05V23.975z M9.05,17.634H7.999v-1.829
			H9.05V17.634z M9.05,15.52H7.999v-1.829H9.05V15.52z M10.384,23.975h-1.05v-1.83h1.05V23.975z M10.384,21.861h-1.05v-1.83h1.05
			V21.861z M10.384,19.748h-1.05v-1.83h1.05V19.748z M10.384,17.634h-1.05v-1.829h1.05V17.634z"/>
		<path d="M21.284,11.733c1.153,0,2.09-1.338,2.09-2.492c0-1.154-0.937-2.09-2.09-2.09s-2.091,0.936-2.091,2.09
			C19.193,10.395,20.131,11.733,21.284,11.733z"/>
		<path d="M17.227,20.161c0.031,0.004,0.062,0.005,0.092,0.005c0.416,0,0.773-0.312,0.82-0.734l0.604-5.422
			c0.07-0.021,0.146-0.043,0.229-0.066v5.641l-0.658,8.179c-0.043,0.547,0.363,1.024,0.91,1.068c0.025,0.002,0.053,0.003,0.08,0.003
			c0.512,0,0.945-0.394,0.987-0.913l0.594-7.392c0.123,0.054,0.259,0.085,0.4,0.085s0.276-0.031,0.399-0.085l0.596,7.392
			c0.041,0.52,0.476,0.913,0.986,0.913c0.027,0,0.055-0.001,0.082-0.003c0.545-0.043,0.952-0.521,0.908-1.068l-0.658-8.179v-5.641
			c0.082,0.023,0.159,0.046,0.229,0.066l0.603,5.422c0.045,0.396,0.366,0.688,0.75,0.721v0.402h-0.594
			c-0.182,0-0.33,0.148-0.33,0.33v5.014c0,0.183,0.148,0.332,0.33,0.332h1.736c0.183,0,0.33-0.148,0.33-0.332v-5.014
			c0-0.182-0.147-0.33-0.33-0.33H25.73v-0.559c0.229-0.169,0.375-0.444,0.34-0.748l-0.66-5.951c-0.004-0.04-0.025-0.072-0.035-0.109
			c-0.016-0.061-0.027-0.12-0.059-0.176c-0.021-0.042-0.053-0.074-0.08-0.111c-0.036-0.049-0.069-0.098-0.117-0.138
			c-0.038-0.031-0.081-0.05-0.123-0.075c-0.043-0.024-0.077-0.058-0.125-0.076c-0.075-0.027-1.738-0.623-3.268-0.701l-0.211,0.42
			h-0.006l0.557,4.334l-0.66,1.155l-0.66-1.155l0.557-4.334h-0.007l-0.21-0.42c-1.527,0.078-3.191,0.674-3.268,0.701
			c-0.049,0.018-0.084,0.052-0.125,0.077c-0.043,0.025-0.086,0.043-0.121,0.074c-0.051,0.042-0.084,0.091-0.122,0.141
			c-0.026,0.036-0.058,0.067-0.078,0.107c-0.028,0.056-0.041,0.117-0.058,0.179c-0.01,0.037-0.03,0.068-0.035,0.107l-0.661,5.951
			C16.446,19.702,16.771,20.111,17.227,20.161z"/>
	</g>
</g>
<g>
</g>
<g>
</g>
<g>
</g>
<g>
</g>
<g>
</g>
<g>
</g>
<g>
</g>
<g>
</g>
<g>
</g>
<g>
</g>
<g>
</g>
<g>
</g>
<g>
</g>
<g>
</g>
<g>
</g>
</svg>
