<?xml version="1.0" encoding="iso-8859-1"?>
<!-- Generator: Adobe Illustrator 16.0.0, SVG Export Plug-In . SVG Version: 6.00 Build 0)  -->
<!DOCTYPE svg PUBLIC "-//W3C//DTD SVG 1.1//EN" "http://www.w3.org/Graphics/SVG/1.1/DTD/svg11.dtd">
<svg version="1.1" id="Capa_1" xmlns="http://www.w3.org/2000/svg" xmlns:xlink="http://www.w3.org/1999/xlink" x="0px" y="0px"
	 width="32.75px" height="32.75px" viewBox="0 0 32.75 32.75" style="enable-background:new 0 0 32.75 32.75;" xml:space="preserve"
	>
<g>
	<g>
		<path d="M29.375,1.25h-1.123c0.029-0.092,0.059-0.186,0.059-0.288c0-0.53-0.432-0.962-0.963-0.962s-0.961,0.432-0.961,0.962
			c0,0.103,0.028,0.196,0.059,0.288h-3.68c0.029-0.092,0.059-0.186,0.059-0.288c0-0.53-0.432-0.962-0.963-0.962
			C21.332,0,20.9,0.432,20.9,0.962c0,0.103,0.029,0.196,0.06,0.288h-3.681c0.029-0.092,0.058-0.186,0.058-0.288
			c0-0.53-0.43-0.962-0.961-0.962c-0.531,0-0.961,0.432-0.961,0.962c0,0.103,0.028,0.196,0.058,0.288h-3.681
			c0.029-0.092,0.059-0.186,0.059-0.288C11.851,0.432,11.42,0,10.89,0c-0.531,0-0.962,0.432-0.962,0.962
			c0,0.103,0.028,0.196,0.058,0.288h-3.68c0.03-0.092,0.059-0.186,0.059-0.288C6.365,0.432,5.935,0,5.404,0
			C4.873,0,4.442,0.432,4.442,0.962c0,0.103,0.028,0.196,0.058,0.288H3.375c-1.518,0-2.75,1.234-2.75,2.75v26
			c0,1.518,1.232,2.75,2.75,2.75H26.27l5.855-5.855V4C32.125,2.484,30.893,1.25,29.375,1.25z M30.625,26.273l-0.311,0.311h-2.355
			c-1.102,0-2,0.9-2,2v2.355l-0.311,0.311H3.375c-0.689,0-1.25-0.561-1.25-1.25V5h28.5V26.273z"/>
		<path d="M17.347,21.636l-1.029-2.483h0.011l0.397-0.457c-0.192,0.068-0.391,0.109-0.602,0.109c-0.21,0-0.409-0.043-0.603-0.111
			l0.398,0.459h0.011l-1.028,2.483l1.222,1.222L17.347,21.636z"/>
		<path d="M9.648,29.184h12.954c1.383,0,2.508-1.125,2.508-2.508V9.708c0-1.383-1.125-2.508-2.508-2.508H9.648
			c-1.383,0-2.509,1.125-2.509,2.508v0.57h1.566c0.521,0,0.94,0.423,0.94,0.941c0,0.518-0.42,0.938-0.94,0.938H7.139v1.607h1.566
			c0.521,0,0.94,0.422,0.94,0.94s-0.42,0.94-0.94,0.94H7.139v1.604h1.566c0.521,0,0.94,0.422,0.94,0.941
			c0,0.519-0.42,0.939-0.94,0.939H7.139v1.604h1.566c0.521,0,0.94,0.423,0.94,0.94c0,0.519-0.42,0.94-0.94,0.94H7.139v1.606h1.566
			c0.521,0,0.94,0.421,0.94,0.938c0,0.52-0.42,0.941-0.94,0.941H7.139v0.569C7.14,28.059,8.266,29.184,9.648,29.184z M15.047,18.453
			c-0.786-0.53-1.329-1.577-1.329-2.52c0-1.328,1.077-2.407,2.406-2.407c1.33,0,2.407,1.079,2.407,2.407
			c0,0.942-0.543,1.989-1.331,2.52c1.886,0.477,3.282,2.115,3.282,3.329c0,1.435-8.717,1.435-8.717,0
			C11.766,20.568,13.164,18.93,15.047,18.453z"/>
	</g>
</g>
<g>
</g>
<g>
</g>
<g>
</g>
<g>
</g>
<g>
</g>
<g>
</g>
<g>
</g>
<g>
</g>
<g>
</g>
<g>
</g>
<g>
</g>
<g>
</g>
<g>
</g>
<g>
</g>
<g>
</g>
</svg>
