<?xml version="1.0" encoding="iso-8859-1"?>
<!-- Generator: Adobe Illustrator 16.0.0, SVG Export Plug-In . SVG Version: 6.00 Build 0)  -->
<!DOCTYPE svg PUBLIC "-//W3C//DTD SVG 1.1//EN" "http://www.w3.org/Graphics/SVG/1.1/DTD/svg11.dtd">
<svg version="1.1" id="Capa_1" xmlns="http://www.w3.org/2000/svg" xmlns:xlink="http://www.w3.org/1999/xlink" x="0px" y="0px"
	 width="32.75px" height="32.75px" viewBox="0 0 32.75 32.75" style="enable-background:new 0 0 32.75 32.75;" xml:space="preserve"
	>
<g>
	<g>
		<path d="M29.375,1.25h-1.123c0.029-0.093,0.059-0.186,0.059-0.289c0-0.53-0.432-0.961-0.963-0.961s-0.961,0.431-0.961,0.961
			c0,0.103,0.028,0.196,0.059,0.289h-3.68c0.029-0.093,0.059-0.186,0.059-0.289C22.823,0.431,22.393,0,21.861,0
			C21.331,0,20.9,0.431,20.9,0.961c0,0.103,0.029,0.196,0.059,0.289h-3.682c0.029-0.093,0.059-0.186,0.059-0.289
			c0-0.53-0.43-0.961-0.961-0.961c-0.531,0-0.961,0.431-0.961,0.961c0,0.103,0.028,0.196,0.058,0.289h-3.681
			c0.029-0.093,0.059-0.186,0.059-0.289C11.85,0.431,11.419,0,10.889,0c-0.531,0-0.962,0.431-0.962,0.961
			c0,0.103,0.028,0.196,0.058,0.289h-3.68c0.03-0.093,0.059-0.186,0.059-0.289C6.364,0.43,5.934,0,5.403,0
			C4.872,0,4.441,0.431,4.441,0.961c0,0.103,0.028,0.196,0.058,0.289H3.375c-1.518,0-2.75,1.233-2.75,2.75v26
			c0,1.518,1.232,2.75,2.75,2.75H26.27l5.855-5.855V4C32.125,2.483,30.893,1.25,29.375,1.25z M23.891,4.258l0.365,1.201
			c0.041,0.145,0.092,0.325,0.121,0.456h0.016c0.034-0.13,0.074-0.315,0.109-0.456l0.3-1.201h0.815l-0.57,1.611
			c-0.35,0.971-0.586,1.361-0.859,1.607c-0.267,0.23-0.547,0.31-0.735,0.335l-0.16-0.646c0.095-0.015,0.215-0.06,0.33-0.13
			c0.114-0.061,0.239-0.181,0.313-0.306c0.025-0.035,0.041-0.075,0.041-0.11c0-0.025-0.006-0.065-0.035-0.125l-0.896-2.237
			L23.891,4.258L23.891,4.258z M21.842,4.258l0.024,0.45h0.021c0.125-0.355,0.426-0.505,0.66-0.505c0.07,0,0.105,0,0.16,0.01v0.716
			c-0.055-0.01-0.12-0.02-0.205-0.02c-0.279,0-0.471,0.15-0.521,0.385c-0.01,0.05-0.015,0.11-0.015,0.17v1.241h-0.761V5.063
			c0-0.36-0.01-0.596-0.02-0.806L21.842,4.258L21.842,4.258z M19.271,4.724c-0.25,0-0.517,0.085-0.676,0.185l-0.142-0.49
			c0.171-0.095,0.506-0.215,0.95-0.215c0.816,0,1.076,0.48,1.076,1.056v0.851c0,0.235,0.011,0.46,0.035,0.596H19.83l-0.045-0.245
			H19.77c-0.16,0.195-0.41,0.3-0.701,0.3c-0.494,0-0.791-0.36-0.791-0.751c0-0.636,0.572-0.941,1.438-0.936V5.04
			C19.717,4.909,19.646,4.724,19.271,4.724z M15.391,4.258h0.766v1.316c0,0.355,0.115,0.571,0.381,0.571
			c0.21,0,0.33-0.145,0.38-0.265c0.021-0.045,0.023-0.105,0.023-0.165V4.258h0.768V5.92c0,0.32,0.01,0.581,0.02,0.786h-0.66
			l-0.034-0.345H17.02c-0.097,0.15-0.326,0.4-0.767,0.4c-0.496,0-0.861-0.311-0.861-1.066L15.391,4.258L15.391,4.258z M12.986,4.258
			l0.035,0.335h0.015c0.101-0.155,0.351-0.391,0.756-0.391c0.5,0,0.876,0.33,0.876,1.051v1.452h-0.762V5.349
			c0-0.315-0.109-0.53-0.385-0.53c-0.21,0-0.336,0.145-0.385,0.285c-0.021,0.045-0.031,0.12-0.031,0.19v1.412h-0.76V5.039
			c0-0.306-0.01-0.565-0.021-0.781H12.986z M10.411,4.724c-0.251,0-0.516,0.085-0.676,0.185l-0.14-0.49
			c0.17-0.095,0.505-0.215,0.95-0.215c0.815,0,1.076,0.48,1.076,1.056v0.851c0,0.235,0.011,0.46,0.035,0.596H10.97l-0.045-0.245
			H10.91c-0.16,0.195-0.411,0.3-0.701,0.3c-0.496,0-0.791-0.36-0.791-0.751c0-0.636,0.57-0.941,1.437-0.936V5.04
			C10.856,4.909,10.786,4.724,10.411,4.724z M7.199,6.065c0.105,0.035,0.24,0.06,0.391,0.06c0.32,0,0.521-0.145,0.521-0.671V3.332
			h0.761v2.132c0,0.961-0.46,1.296-1.201,1.296c-0.175,0-0.405-0.03-0.555-0.08L7.199,6.065z M30.625,26.273l-0.311,0.311h-2.355
			c-1.102,0-2,0.9-2,2v2.355l-0.311,0.311H3.375c-0.689,0-1.25-0.561-1.25-1.25V9h28.5V26.273z"/>
		<path d="M10.171,5.935c0,0.195,0.13,0.291,0.3,0.291c0.19,0,0.346-0.125,0.396-0.28c0.011-0.04,0.015-0.085,0.015-0.13V5.551
			C10.48,5.544,10.171,5.64,10.171,5.935z"/>
		<path d="M19.031,5.935c0,0.195,0.13,0.291,0.301,0.291c0.189,0,0.345-0.125,0.395-0.28c0.01-0.04,0.017-0.085,0.017-0.13V5.551
			C19.342,5.544,19.031,5.64,19.031,5.935z"/>
		<path d="M14.586,27.659l1.789-4.894l-0.556-1.188h1.111l-0.555,1.188l1.789,4.894l-1.124,1.553c2.28-0.381,5.92-2.403,7.685-2.403
			l-0.617-2.666c-0.189-0.193-0.414-0.355-0.672-0.49c-1.293-0.662-2.634-1.213-3.99-1.733c-0.1-0.038-0.221-0.114-0.262-0.204
			c-0.109-0.245-0.188-0.504-0.268-0.761c-0.048-0.163-0.092-0.317-0.271-0.396c-0.049-0.022-0.094-0.117-0.094-0.178
			c0.012-0.595-0.127-1.219,0.312-1.738c0.016-0.017,0.021-0.039,0.029-0.059c0.238-0.521,0.279-1.117,0.612-1.602
			c0.011-0.011,0.011-0.026,0.013-0.041c0.037-0.37,0.078-0.739,0.108-1.109c0.003-0.045-0.036-0.127-0.075-0.141
			c-0.183-0.065-0.175-0.212-0.174-0.359c0-0.723,0-0.828-0.001-1.55c0-0.42-0.122-0.794-0.44-1.08
			c-0.36-0.324-0.731-0.639-1.104-0.953c-0.18-0.152-0.195-0.269-0.027-0.435c0.074-0.074,0.172-0.127,0.258-0.188
			c-0.021-0.029-0.039-0.057-0.057-0.085c-0.113,0-0.229-0.016-0.336,0.001c-0.412,0.066-0.824,0.125-1.228,0.22
			c-0.771,0.182-1.519,0.422-2.144,0.938c-0.428,0.353-0.769,0.762-0.813,1.344c-0.021,0.305-0.02,0.611-0.021,0.915
			c-0.003,0.497,0.004,0.376-0.006,0.871c-0.002,0.081-0.048,0.214-0.103,0.232c-0.202,0.065-0.206,0.192-0.182,0.361
			c0.021,0.115,0.007,0.235,0.03,0.347c0.07,0.31,0.145,0.621,0.233,0.925c0.067,0.229,0.196,0.443,0.232,0.675
			c0.071,0.462,0.243,0.864,0.555,1.213c0.051,0.058,0.09,0.153,0.084,0.231c-0.024,0.354-0.061,0.709-0.107,1.063
			c-0.01,0.069-0.083,0.172-0.143,0.185c-0.236,0.049-0.272,0.23-0.329,0.416c-0.074,0.242-0.153,0.484-0.249,0.72
			c-0.028,0.073-0.103,0.149-0.175,0.182c-0.419,0.183-0.847,0.351-1.271,0.528c-0.45,0.189-0.906,0.371-1.346,0.58
			c-0.452,0.216-0.893,0.461-1.337,0.697c-0.261,0.14-0.505,0.295-0.71,0.487l-0.618,2.632c3.01,0,4.582,2.176,7.713,2.443
			L14.586,27.659z M19.311,25.068h2.6v0.464h-2.6V25.068z"/>
	</g>
</g>
<g>
</g>
<g>
</g>
<g>
</g>
<g>
</g>
<g>
</g>
<g>
</g>
<g>
</g>
<g>
</g>
<g>
</g>
<g>
</g>
<g>
</g>
<g>
</g>
<g>
</g>
<g>
</g>
<g>
</g>
</svg>
