<?xml version="1.0" encoding="iso-8859-1"?>
<!-- Generator: Adobe Illustrator 16.0.0, SVG Export Plug-In . SVG Version: 6.00 Build 0)  -->
<!DOCTYPE svg PUBLIC "-//W3C//DTD SVG 1.1//EN" "http://www.w3.org/Graphics/SVG/1.1/DTD/svg11.dtd">
<svg version="1.1" id="Capa_1" xmlns="http://www.w3.org/2000/svg" xmlns:xlink="http://www.w3.org/1999/xlink" x="0px" y="0px"
	 width="32.75px" height="32.75px" viewBox="0 0 32.75 32.75" style="enable-background:new 0 0 32.75 32.75;" xml:space="preserve"
	>
<g>
	<g>
		<path d="M29.375,1.25h-1.123c0.029-0.093,0.059-0.186,0.059-0.289C28.311,0.43,27.879,0,27.348,0s-0.961,0.431-0.961,0.961
			c0,0.103,0.028,0.196,0.059,0.289h-3.68c0.029-0.093,0.059-0.186,0.059-0.289C22.824,0.43,22.393,0,21.861,0
			C21.332,0,20.9,0.431,20.9,0.961c0,0.103,0.029,0.196,0.06,0.289h-3.681c0.029-0.093,0.058-0.186,0.058-0.289
			C17.337,0.43,16.907,0,16.376,0c-0.531,0-0.961,0.431-0.961,0.961c0,0.103,0.028,0.196,0.058,0.289h-3.681
			c0.029-0.093,0.059-0.186,0.059-0.289C11.851,0.43,11.42,0,10.89,0c-0.531,0-0.962,0.431-0.962,0.961
			c0,0.103,0.028,0.196,0.058,0.289h-3.68c0.03-0.093,0.059-0.186,0.059-0.289C6.365,0.43,5.935,0,5.404,0
			C4.873,0,4.442,0.431,4.442,0.961c0,0.103,0.028,0.196,0.058,0.289H3.375c-1.518,0-2.75,1.233-2.75,2.75v26
			c0,1.518,1.232,2.75,2.75,2.75H26.27l5.855-5.855V4C32.125,2.484,30.893,1.25,29.375,1.25z M30.625,26.273l-0.311,0.311h-2.355
			c-1.102,0-2,0.9-2,2v2.355l-0.311,0.311H3.375c-0.689,0-1.25-0.561-1.25-1.25V5h28.5V26.273z"/>
		<path d="M11.86,28.426h9.031c1.655,0,3.01-1.355,3.01-3.01v-14.3c0-1.656-1.354-3.01-3.01-3.01H11.86
			c-1.657,0-3.011,1.354-3.011,3.01v14.3C8.849,27.07,10.203,28.426,11.86,28.426z M17.665,25.416c0,0.413-0.339,0.752-0.752,0.752
			h-1.076c-0.414,0-0.752-0.339-0.752-0.752v-1.075c0-0.414,0.339-0.753,0.752-0.753h1.076c0.414,0,0.752,0.339,0.752,0.753V25.416z
			 M17.665,21.438c0,0.414-0.339,0.752-0.752,0.752h-1.076c-0.414,0-0.752-0.338-0.752-0.752v-1.074
			c0-0.413,0.339-0.752,0.752-0.752h1.076c0.414,0,0.752,0.339,0.752,0.752V21.438z M17.665,17.459c0,0.415-0.339,0.753-0.752,0.753
			h-1.076c-0.414,0-0.752-0.338-0.752-0.753v-1.075c0-0.413,0.339-0.752,0.752-0.752h1.076c0.414,0,0.752,0.339,0.752,0.752V17.459z
			 M21.643,25.416c0,0.413-0.338,0.752-0.752,0.752h-1.076c-0.414,0-0.752-0.339-0.752-0.752v-1.075
			c0-0.414,0.338-0.753,0.752-0.753h1.076c0.414,0,0.752,0.339,0.752,0.753V25.416z M21.643,21.438c0,0.414-0.338,0.752-0.752,0.752
			h-1.076c-0.414,0-0.752-0.338-0.752-0.752v-1.074c0-0.413,0.338-0.752,0.752-0.752h1.076c0.414,0,0.752,0.339,0.752,0.752V21.438z
			 M21.643,17.459c0,0.415-0.338,0.753-0.752,0.753h-1.076c-0.414,0-0.752-0.338-0.752-0.753v-1.075
			c0-0.413,0.338-0.752,0.752-0.752h1.076c0.414,0,0.752,0.339,0.752,0.752V17.459z M11.107,11.546c0-0.414,0.338-0.753,0.753-0.753
			h9.031c0.414,0,0.752,0.339,0.752,0.753v1.828c0,0.414-0.338,0.753-0.752,0.753H11.86c-0.415,0-0.753-0.339-0.753-0.753V11.546z
			 M11.107,16.384c0-0.413,0.338-0.752,0.753-0.752h1.074c0.414,0,0.753,0.339,0.753,0.752v1.075c0,0.415-0.34,0.753-0.753,0.753
			H11.86c-0.415,0-0.753-0.338-0.753-0.753V16.384z M11.107,20.363c0-0.413,0.338-0.752,0.753-0.752h1.074
			c0.414,0,0.753,0.339,0.753,0.752v1.074c0,0.414-0.34,0.752-0.753,0.752H11.86c-0.415,0-0.753-0.338-0.753-0.752V20.363z
			 M11.107,24.341c0-0.414,0.338-0.753,0.753-0.753h1.074c0.414,0,0.753,0.339,0.753,0.753v1.075c0,0.413-0.34,0.752-0.753,0.752
			H11.86c-0.415,0-0.753-0.339-0.753-0.752V24.341z"/>
		<path d="M16.639,13.513c0.521,0,0.774-0.433,0.774-1.062c0-0.558-0.213-1.042-0.759-1.042c-0.526,0-0.776,0.466-0.776,1.055
			C15.881,13.04,16.112,13.513,16.639,13.513z M16.648,11.768c0.189,0,0.287,0.238,0.287,0.688c0,0.464-0.101,0.696-0.285,0.696
			c-0.184,0-0.297-0.222-0.293-0.689C16.354,11.99,16.473,11.768,16.648,11.768z"/>
		<path d="M18.378,13.513c0.521,0,0.772-0.433,0.772-1.062c0-0.558-0.213-1.042-0.758-1.042c-0.525,0-0.776,0.466-0.776,1.055
			C17.62,13.04,17.852,13.513,18.378,13.513z M18.387,11.768c0.191,0,0.289,0.238,0.289,0.688c0,0.464-0.1,0.696-0.285,0.696
			c-0.185,0-0.297-0.222-0.293-0.689C18.093,11.99,18.212,11.768,18.387,11.768z"/>
		<path d="M20.117,13.513c0.521,0,0.773-0.433,0.773-1.062c0-0.558-0.214-1.042-0.758-1.042c-0.525,0-0.777,0.466-0.777,1.055
			C19.359,13.04,19.591,13.513,20.117,13.513z M20.125,11.768c0.191,0,0.289,0.238,0.289,0.688c0,0.464-0.1,0.696-0.285,0.696
			s-0.298-0.222-0.294-0.689C19.832,11.99,19.951,11.768,20.125,11.768z"/>
	</g>
</g>
<g>
</g>
<g>
</g>
<g>
</g>
<g>
</g>
<g>
</g>
<g>
</g>
<g>
</g>
<g>
</g>
<g>
</g>
<g>
</g>
<g>
</g>
<g>
</g>
<g>
</g>
<g>
</g>
<g>
</g>
</svg>
