<?xml version="1.0" encoding="iso-8859-1"?>
<!-- Generator: Adobe Illustrator 16.0.0, SVG Export Plug-In . SVG Version: 6.00 Build 0)  -->
<!DOCTYPE svg PUBLIC "-//W3C//DTD SVG 1.1//EN" "http://www.w3.org/Graphics/SVG/1.1/DTD/svg11.dtd">
<svg version="1.1" id="Capa_1" xmlns="http://www.w3.org/2000/svg" xmlns:xlink="http://www.w3.org/1999/xlink" x="0px" y="0px"
	 width="34px" height="34px" viewBox="0 0 34 34" style="enable-background:new 0 0 34 34;" xml:space="preserve">
<g>
	<g>
		<path d="M27.91,2H27V1c0-0.553-0.447-1-1-1s-1,0.447-1,1v1h-7V1c0-0.553-0.447-1-1-1c-0.553,0-1,0.447-1,1v1H9V1
			c0-0.553-0.447-1-1-1S7,0.447,7,1v1H6.09C3.283,2,1,4.283,1,7.09v21.82C1,31.717,3.283,34,6.09,34h21.82
			c2.807,0,5.09-2.283,5.09-5.09V7.09C33,4.283,30.717,2,27.91,2z M31,28.91c0,1.704-1.387,3.09-3.09,3.09H6.09
			C4.386,32,3,30.614,3,28.91V12h28V28.91z M31,10H3V7.09C3,5.386,4.386,4,6.09,4H7v3c0,0.553,0.447,1,1,1s1-0.447,1-1V4h7v3
			c0,0.553,0.447,1,1,1c0.553,0,1-0.447,1-1V4h7v3c0,0.553,0.447,1,1,1s1-0.447,1-1V4h0.91C29.613,4,31,5.386,31,7.09V10z"/>
		<path d="M12.464,27.27c0.462,0.691,1.063,1.248,1.806,1.668s1.652,0.631,2.73,0.631c0.798,0,1.55-0.118,2.257-0.356
			c0.707-0.237,1.33-0.584,1.869-1.039s0.963-1.019,1.271-1.69c0.309-0.672,0.463-1.441,0.463-2.311c0-0.672-0.123-1.299-0.367-1.88
			c-0.245-0.58-0.577-1.092-0.997-1.532c-0.42-0.441-0.921-0.787-1.502-1.039c-0.581-0.253-1.207-0.379-1.88-0.379
			c-0.7,0-1.354,0.108-1.963,0.325c-0.609,0.218-1.096,0.627-1.46,1.229h-0.042c0.014-0.42,0.081-0.848,0.2-1.28
			c0.118-0.435,0.294-0.833,0.524-1.197c0.231-0.364,0.525-0.661,0.882-0.894c0.357-0.23,0.795-0.346,1.312-0.346
			c0.154,0,0.322,0.014,0.504,0.041c0.184,0.028,0.357,0.092,0.525,0.189c0.168,0.111,0.315,0.255,0.441,0.431
			c0.126,0.175,0.225,0.409,0.294,0.703h3.339c-0.111-0.672-0.318-1.257-0.62-1.754c-0.301-0.496-0.675-0.909-1.123-1.238
			c-0.448-0.329-0.959-0.578-1.532-0.746c-0.574-0.168-1.184-0.252-1.828-0.252c-1.104,0-2.062,0.203-2.865,0.609
			c-0.804,0.406-1.47,0.955-1.995,1.648c-0.524,0.692-0.913,1.501-1.165,2.425c-0.252,0.925-0.378,1.896-0.378,2.92
			c0,0.938,0.101,1.852,0.304,2.74C11.67,25.784,12.002,26.575,12.464,27.27z M14.899,23.457c0.112-0.294,0.27-0.553,0.473-0.777
			c0.203-0.224,0.444-0.397,0.725-0.523c0.281-0.126,0.588-0.189,0.924-0.189c0.812,0,1.432,0.238,1.857,0.715
			c0.428,0.477,0.641,1.058,0.641,1.742c0,0.294-0.06,0.577-0.179,0.852c-0.118,0.273-0.286,0.515-0.504,0.725
			c-0.217,0.21-0.476,0.375-0.776,0.493c-0.302,0.118-0.641,0.179-1.019,0.179c-0.7,0-1.26-0.221-1.681-0.661
			c-0.42-0.44-0.63-0.977-0.63-1.605C14.731,24.064,14.787,23.751,14.899,23.457z"/>
	</g>
</g>
<g>
</g>
<g>
</g>
<g>
</g>
<g>
</g>
<g>
</g>
<g>
</g>
<g>
</g>
<g>
</g>
<g>
</g>
<g>
</g>
<g>
</g>
<g>
</g>
<g>
</g>
<g>
</g>
<g>
</g>
</svg>
