<?xml version="1.0" encoding="iso-8859-1"?>
<!-- Generator: Adobe Illustrator 16.0.0, SVG Export Plug-In . SVG Version: 6.00 Build 0)  -->
<!DOCTYPE svg PUBLIC "-//W3C//DTD SVG 1.1//EN" "http://www.w3.org/Graphics/SVG/1.1/DTD/svg11.dtd">
<svg version="1.1" id="Capa_1" xmlns="http://www.w3.org/2000/svg" xmlns:xlink="http://www.w3.org/1999/xlink" x="0px" y="0px"
	 width="34.5px" height="34.5px" viewBox="0 0 34.5 34.5" style="enable-background:new 0 0 34.5 34.5;" xml:space="preserve">
<g>
	<g>
		<path d="M3.477,13.919c-0.837,0-1.917,0.36-1.917,1.873v3.043c0,1.226,0.765,1.746,1.9,1.746c1.152,0,1.89-0.521,1.89-1.746
			v-3.043C5.35,14.28,4.495,13.919,3.477,13.919z M3.856,19.123c0,0.314-0.171,0.432-0.405,0.432s-0.396-0.115-0.396-0.432v-3.745
			c0-0.315,0.162-0.433,0.396-0.433s0.405,0.117,0.405,0.433V19.123z"/>
		<path d="M6.393,14.766v0.937h1.053v4.753h1.495v-6.409h-1.26C7.573,14.613,6.897,14.766,6.393,14.766z"/>
		<path d="M0,25.5h10.5V9H0V25.5z M0.5,9.5H10V25H0.5V9.5z"/>
		<path d="M14.977,13.919c-0.837,0-1.917,0.36-1.917,1.872v3.043c0,1.225,0.765,1.747,1.9,1.747c1.152,0,1.89-0.522,1.89-1.747
			v-3.043C16.85,14.28,15.995,13.919,14.977,13.919z M15.356,19.122c0,0.315-0.171,0.433-0.405,0.433s-0.396-0.117-0.396-0.433
			v-3.745c0-0.314,0.162-0.432,0.396-0.432s0.405,0.117,0.405,0.432V19.122z"/>
		<path d="M21.44,15.612c0-1.351-1-1.692-1.854-1.692c-0.847,0-1.945,0.153-1.945,1.71v0.703h1.496v-0.928
			c0-0.315,0.144-0.459,0.404-0.459c0.262,0,0.405,0.144,0.405,0.459c0,1.278-2.305,2.196-2.305,4.258v0.793h3.799V19.52h-2.306
			c0-0.262,0.117-0.414,0.234-0.621C20.045,17.745,21.44,17.088,21.44,15.612z"/>
		<path d="M12,25.5h10.5V9H12V25.5z M12.5,9.5H22V25h-9.5V9.5z"/>
		<path d="M26.15,20.455h1.494v-6.41h-1.26c-0.107,0.567-0.783,0.72-1.287,0.72v0.937h1.053V20.455z"/>
		<path d="M31.514,20.455h1.396v-1.467h0.495v-1.026H32.91v-3.916H31.1l-1.746,3.916v1.026h2.16V20.455z M30.344,17.961l1.152-2.584
			h0.018v2.584H30.344z"/>
		<path d="M24,9v16.5h10.5V9H24z M34,25h-9.5V9.5H34V25z"/>
		<rect x="10.75" y="16.452" width="1" height="1.597"/>
		<rect x="22.75" y="16.452" width="1" height="1.597"/>
	</g>
</g>
<g>
</g>
<g>
</g>
<g>
</g>
<g>
</g>
<g>
</g>
<g>
</g>
<g>
</g>
<g>
</g>
<g>
</g>
<g>
</g>
<g>
</g>
<g>
</g>
<g>
</g>
<g>
</g>
<g>
</g>
</svg>
