<?xml version="1.0" encoding="iso-8859-1"?>
<!-- Generator: Adobe Illustrator 16.0.0, SVG Export Plug-In . SVG Version: 6.00 Build 0)  -->
<!DOCTYPE svg PUBLIC "-//W3C//DTD SVG 1.1//EN" "http://www.w3.org/Graphics/SVG/1.1/DTD/svg11.dtd">
<svg version="1.1" id="Capa_1" xmlns="http://www.w3.org/2000/svg" xmlns:xlink="http://www.w3.org/1999/xlink" x="0px" y="0px"
	 width="31.582px" height="31.582px" viewBox="0 0 31.582 31.582" style="enable-background:new 0 0 31.582 31.582;"
	 xml:space="preserve">
<g>
	<g>
		<path d="M26.018,6.8h-2.789L16.53,1.101C16.567,1.008,16.59,0.907,16.59,0.8c0-0.441-0.358-0.8-0.8-0.8S14.99,0.358,14.99,0.8
			c0,0.106,0.022,0.208,0.061,0.301L8.353,6.8H5.563C4.371,6.8,3.4,7.771,3.4,8.963v20.456c0,1.193,0.97,2.163,2.163,2.163h18.013
			l4.605-4.605V8.963C28.181,7.77,27.209,6.8,26.018,6.8z M23.902,9.57c0,0.643-0.521,1.163-1.164,1.163
			c-0.644,0-1.164-0.521-1.164-1.163c0-0.642,0.521-1.164,1.164-1.164S23.902,8.928,23.902,9.57z M15.384,1.474
			c0.121,0.073,0.255,0.127,0.406,0.127s0.285-0.054,0.406-0.127l6.26,5.326H9.124L15.384,1.474z M20.429,9.57
			c0,0.643-0.521,1.163-1.165,1.163c-0.643,0-1.162-0.521-1.162-1.163c0-0.642,0.521-1.164,1.162-1.164
			C19.906,8.406,20.429,8.928,20.429,9.57z M16.953,9.57c0,0.643-0.521,1.163-1.163,1.163c-0.643,0-1.164-0.521-1.164-1.163
			c0-0.642,0.521-1.164,1.164-1.164C16.432,8.406,16.953,8.928,16.953,9.57z M13.478,9.57c0,0.643-0.521,1.163-1.162,1.163
			c-0.645,0-1.166-0.521-1.166-1.163c0-0.642,0.521-1.164,1.166-1.164C12.958,8.406,13.478,8.928,13.478,9.57z M8.84,8.406
			c0.644,0,1.164,0.521,1.164,1.164s-0.521,1.163-1.164,1.163c-0.643,0-1.164-0.521-1.164-1.163C7.677,8.928,8.198,8.406,8.84,8.406
			z M27,26.487l-0.244,0.243h-1.854c-0.865,0-1.572,0.709-1.572,1.574v1.854l-0.244,0.244H5.562c-0.543,0-0.983-0.441-0.983-0.983
			V12.11H27V26.487z"/>
		<path d="M12.345,19.663c-0.126,0.216-0.321,0.468-0.583,0.755c-0.262,0.29-0.629,0.645-1.101,1.062
			c-0.241,0.211-0.508,0.468-0.795,0.771c-0.288,0.307-0.562,0.661-0.818,1.07c-0.256,0.408-0.473,0.876-0.646,1.4
			C8.23,25.247,8.144,25.839,8.144,26.5h7.111v-2.046h-3.949c0.136-0.313,0.396-0.653,0.779-1.015
			c0.383-0.361,0.847-0.812,1.393-1.347c0.346-0.325,0.631-0.618,0.857-0.881c0.225-0.263,0.406-0.526,0.543-0.796
			c0.136-0.268,0.229-0.552,0.283-0.855c0.052-0.306,0.079-0.668,0.079-1.086c0-0.44-0.053-0.851-0.159-1.229
			c-0.104-0.378-0.287-0.705-0.55-0.982c-0.263-0.277-0.616-0.498-1.062-0.66c-0.446-0.162-1.005-0.246-1.676-0.246
			c-2.393,0-3.589,1.119-3.589,3.353v0.362h2.456c0-0.209,0.005-0.436,0.015-0.676c0.011-0.241,0.049-0.465,0.111-0.67
			c0.063-0.205,0.162-0.371,0.298-0.504c0.137-0.132,0.33-0.195,0.583-0.195c0.378,0,0.626,0.134,0.747,0.4
			c0.12,0.269,0.181,0.621,0.181,1.062c0,0.21-0.011,0.402-0.031,0.582C12.542,19.252,12.471,19.449,12.345,19.663z"/>
		<path d="M19.699,19.695c-0.373,0.729-0.703,1.492-0.99,2.289c-0.289,0.798-0.53,1.589-0.725,2.377
			c-0.193,0.785-0.312,1.498-0.354,2.14h2.738c0.03-0.618,0.125-1.312,0.282-2.077c0.157-0.767,0.367-1.551,0.63-2.353
			c0.262-0.804,0.571-1.595,0.928-2.376c0.356-0.782,0.75-1.497,1.182-2.147v-1.967h-7.097v2.233h4.562
			C20.459,18.34,20.072,18.966,19.699,19.695z"/>
	</g>
</g>
<g>
</g>
<g>
</g>
<g>
</g>
<g>
</g>
<g>
</g>
<g>
</g>
<g>
</g>
<g>
</g>
<g>
</g>
<g>
</g>
<g>
</g>
<g>
</g>
<g>
</g>
<g>
</g>
<g>
</g>
</svg>
