<?xml version="1.0" encoding="iso-8859-1"?>
<!-- Generator: Adobe Illustrator 16.0.0, SVG Export Plug-In . SVG Version: 6.00 Build 0)  -->
<!DOCTYPE svg PUBLIC "-//W3C//DTD SVG 1.1//EN" "http://www.w3.org/Graphics/SVG/1.1/DTD/svg11.dtd">
<svg version="1.1" id="Capa_1" xmlns="http://www.w3.org/2000/svg" xmlns:xlink="http://www.w3.org/1999/xlink" x="0px" y="0px"
	 width="36.447px" height="36.447px" viewBox="0 0 36.447 36.447" style="enable-background:new 0 0 36.447 36.447;"
	 xml:space="preserve">
<g>
	<g>
		<path d="M30.224,3.947h-1.098V2.75c0-1.516-1.197-2.75-2.67-2.75c-1.474,0-2.67,1.234-2.67,2.75v1.197h-2.74V2.75
			c0-1.516-1.197-2.75-2.67-2.75s-2.67,1.234-2.67,2.75v1.197h-2.74V2.75c0-1.516-1.197-2.75-2.67-2.75s-2.67,1.234-2.67,2.75v1.197
			H6.224c-2.343,0-4.25,1.907-4.25,4.25v24c0,2.343,1.907,4.25,4.25,4.25h24c2.344,0,4.25-1.907,4.25-4.25v-24
			C34.474,5.854,32.566,3.947,30.224,3.947z M25.286,2.75c0-0.689,0.524-1.25,1.17-1.25c0.645,0,1.17,0.561,1.17,1.25v4.895
			c0,0.689-0.525,1.25-1.17,1.25c-0.646,0-1.17-0.561-1.17-1.25V2.75z M17.206,2.75c0-0.689,0.525-1.25,1.17-1.25
			s1.17,0.561,1.17,1.25v4.895c0,0.689-0.525,1.25-1.17,1.25s-1.17-0.561-1.17-1.25V2.75z M9.125,2.75c0-0.689,0.525-1.25,1.17-1.25
			s1.17,0.561,1.17,1.25v4.895c0,0.689-0.525,1.25-1.17,1.25s-1.17-0.561-1.17-1.25V2.75z M31.974,32.197
			c0,0.965-0.785,1.75-1.75,1.75h-24c-0.965,0-1.75-0.785-1.75-1.75v-22h27.5V32.197z"/>
		<path d="M18.375,30.992c4.338,0,7.739-1.453,7.739-3.309v-2.126c0-0.983-0.969-1.85-2.516-2.45
			c-0.077-0.183-0.157-0.357-0.246-0.516l-2.869-8.606c-0.002-0.003-0.005-0.003-0.006-0.005c-0.116-0.645-1.139-0.946-2.103-0.946
			c-0.965,0-1.987,0.301-2.104,0.946c-0.002,0.002-0.003,0.002-0.005,0.005l-2.907,8.717c-0.065,0.125-0.127,0.256-0.184,0.394
			c-1.563,0.603-2.54,1.472-2.54,2.46v2.126C10.637,29.539,14.037,30.992,18.375,30.992z M16.742,14.804
			c0.416,0.239,1.035,0.358,1.634,0.358c0.598,0,1.217-0.119,1.633-0.358l0.65,1.949c-0.373,0.476-1.33,0.722-2.284,0.722
			c-0.954,0-1.91-0.247-2.283-0.722L16.742,14.804z M15.2,19.427c0.479,0.69,1.827,1.051,3.176,1.051s2.696-0.36,3.176-1.051
			l1.086,3.265c-0.01,0.027-0.018,0.057-0.027,0.086c-0.045,0.109-0.105,0.213-0.184,0.312c-0.01,0.011-0.018,0.023-0.027,0.034
			c-0.074,0.092-0.156,0.18-0.254,0.264c-0.766,0.638-2.211,0.974-3.661,0.988h-0.203c-1.453-0.017-2.9-0.353-3.664-0.991
			c-0.099-0.083-0.185-0.173-0.257-0.266c-0.011-0.012-0.02-0.023-0.029-0.036c-0.073-0.099-0.135-0.201-0.179-0.312
			c-0.014-0.031-0.021-0.068-0.032-0.102L15.2,19.427z M12.854,24.006c-0.091,0.32-0.148,0.595-0.148,0.725
			c0,0.017,0.004,0.03,0.004,0.043c0,0.006,0,0.012,0.001,0.017c0.068,1.384,2.478,2.42,5.665,2.42c3.125,0,5.5-0.996,5.655-2.339
			c0.019-0.045,0.029-0.09,0.029-0.141c0-0.025-0.017-0.045-0.021-0.07c-0.01-0.147-0.057-0.377-0.131-0.648
			c0.947,0.461,1.498,1.016,1.498,1.545c0,1.229-2.889,2.6-7.031,2.6c-4.144,0-7.031-1.369-7.031-2.6
			C11.345,25.025,11.898,24.469,12.854,24.006z"/>
	</g>
</g>
<g>
</g>
<g>
</g>
<g>
</g>
<g>
</g>
<g>
</g>
<g>
</g>
<g>
</g>
<g>
</g>
<g>
</g>
<g>
</g>
<g>
</g>
<g>
</g>
<g>
</g>
<g>
</g>
<g>
</g>
</svg>
