<?xml version="1.0" encoding="iso-8859-1"?>
<!-- Generator: Adobe Illustrator 16.0.0, SVG Export Plug-In . SVG Version: 6.00 Build 0)  -->
<!DOCTYPE svg PUBLIC "-//W3C//DTD SVG 1.1//EN" "http://www.w3.org/Graphics/SVG/1.1/DTD/svg11.dtd">
<svg version="1.1" id="Capa_1" xmlns="http://www.w3.org/2000/svg" xmlns:xlink="http://www.w3.org/1999/xlink" x="0px" y="0px"
	 width="36.447px" height="36.447px" viewBox="0 0 36.447 36.447" style="enable-background:new 0 0 36.447 36.447;"
	 xml:space="preserve">
<g>
	<g>
		<path d="M30.224,3.948h-1.098V2.75c0-1.517-1.197-2.75-2.67-2.75c-1.474,0-2.67,1.233-2.67,2.75v1.197h-2.74V2.75
			c0-1.517-1.197-2.75-2.67-2.75c-1.473,0-2.67,1.233-2.67,2.75v1.197h-2.74V2.75c0-1.517-1.197-2.75-2.67-2.75
			c-1.473,0-2.67,1.233-2.67,2.75v1.197H6.224c-2.343,0-4.25,1.907-4.25,4.25v24c0,2.343,1.907,4.25,4.25,4.25h24
			c2.344,0,4.25-1.907,4.25-4.25v-24C34.474,5.855,32.567,3.948,30.224,3.948z M25.286,2.75c0-0.689,0.525-1.25,1.17-1.25
			c0.646,0,1.17,0.561,1.17,1.25v4.896c0,0.689-0.524,1.25-1.17,1.25c-0.645,0-1.17-0.561-1.17-1.25V2.75z M17.206,2.75
			c0-0.689,0.525-1.25,1.17-1.25s1.17,0.561,1.17,1.25v4.896c0,0.689-0.525,1.25-1.17,1.25s-1.17-0.561-1.17-1.25V2.75z M9.125,2.75
			c0-0.689,0.525-1.25,1.17-1.25s1.17,0.561,1.17,1.25v4.896c0,0.689-0.525,1.25-1.17,1.25s-1.17-0.561-1.17-1.25V2.75z
			 M31.974,32.198c0,0.965-0.785,1.75-1.75,1.75h-24c-0.965,0-1.75-0.785-1.75-1.75v-22h27.5V32.198z"/>
		<rect x="25.128" y="14.626" width="4.596" height="4.089"/>
		<rect x="25.128" y="20.084" width="4.596" height="4.086"/>
		<rect x="6.724" y="25.54" width="4.595" height="4.086"/>
		<rect x="12.857" y="25.54" width="4.596" height="4.086"/>
		<rect x="18.995" y="25.54" width="4.595" height="4.086"/>
		<rect x="25.128" y="25.54" width="4.596" height="4.086"/>
		<path d="M14.766,21.745H10.67v-0.013c0.424-0.262,0.871-0.512,1.339-0.754c0.468-0.244,0.897-0.514,1.287-0.813
			c0.39-0.3,0.71-0.647,0.962-1.047c0.251-0.397,0.377-0.89,0.377-1.469c0-0.477-0.089-0.896-0.267-1.255s-0.429-0.656-0.754-0.891
			c-0.325-0.233-0.715-0.409-1.17-0.526c-0.455-0.117-0.956-0.176-1.501-0.176c-0.607,0-1.155,0.087-1.645,0.261
			c-0.49,0.173-0.904,0.427-1.242,0.76c-0.338,0.334-0.589,0.743-0.754,1.229c-0.165,0.486-0.23,1.041-0.195,1.664h2.444
			c-0.018-0.555,0.076-1.003,0.279-1.346c0.204-0.342,0.565-0.513,1.085-0.513c0.303,0,0.561,0.08,0.774,0.24
			c0.212,0.16,0.318,0.448,0.318,0.864c0,0.165-0.042,0.313-0.124,0.442c-0.083,0.13-0.187,0.246-0.312,0.351
			c-0.126,0.104-0.26,0.199-0.403,0.286s-0.271,0.165-0.384,0.234c-0.286,0.173-0.581,0.349-0.884,0.525
			c-0.304,0.178-0.596,0.364-0.877,0.559c-0.282,0.195-0.546,0.406-0.793,0.632s-0.466,0.468-0.657,0.728
			c-0.226,0.305-0.396,0.643-0.514,1.016c-0.117,0.371-0.162,0.779-0.136,1.222h7.839v-2.209H14.766z"/>
		<path d="M19.323,22.006c-0.199,0-0.387-0.023-0.563-0.072c-0.177-0.047-0.33-0.123-0.459-0.228
			c-0.19-0.147-0.311-0.347-0.362-0.599h-2.575c-0.018,0.148-0.009,0.322,0.026,0.527c0.035,0.202,0.102,0.416,0.202,0.637
			c0.1,0.221,0.243,0.438,0.429,0.65c0.187,0.211,0.425,0.401,0.715,0.57c0.29,0.169,0.641,0.307,1.053,0.41
			s0.895,0.154,1.451,0.154c0.649,0,1.229-0.08,1.734-0.24c0.507-0.159,0.932-0.381,1.273-0.662
			c0.343-0.281,0.604-0.617,0.781-1.008c0.176-0.391,0.266-0.813,0.266-1.273c0-0.527-0.077-0.988-0.233-1.378
			c-0.155-0.39-0.368-0.709-0.637-0.955c-0.269-0.247-0.583-0.433-0.942-0.553c-0.359-0.121-0.738-0.183-1.138-0.183
			c-0.338,0-0.683,0.037-1.034,0.111c-0.351,0.073-0.665,0.214-0.942,0.422l-0.026-0.024l0.26-1.196h4.212v-2.21H16.6l-0.936,5.213
			h2.418c0.139-0.208,0.316-0.357,0.533-0.447c0.216-0.092,0.477-0.138,0.78-0.138c0.39,0,0.704,0.11,0.942,0.331
			c0.238,0.222,0.357,0.531,0.357,0.93c0,0.364-0.134,0.656-0.4,0.879C20.025,21.895,19.702,22.006,19.323,22.006z"/>
	</g>
</g>
<g>
</g>
<g>
</g>
<g>
</g>
<g>
</g>
<g>
</g>
<g>
</g>
<g>
</g>
<g>
</g>
<g>
</g>
<g>
</g>
<g>
</g>
<g>
</g>
<g>
</g>
<g>
</g>
<g>
</g>
</svg>
