<?xml version="1.0" encoding="iso-8859-1"?>
<!-- Generator: Adobe Illustrator 16.0.0, SVG Export Plug-In . SVG Version: 6.00 Build 0)  -->
<!DOCTYPE svg PUBLIC "-//W3C//DTD SVG 1.1//EN" "http://www.w3.org/Graphics/SVG/1.1/DTD/svg11.dtd">
<svg version="1.1" id="Capa_1" xmlns="http://www.w3.org/2000/svg" xmlns:xlink="http://www.w3.org/1999/xlink" x="0px" y="0px"
	 width="33px" height="33px" viewBox="0 0 33 33" style="enable-background:new 0 0 33 33;" xml:space="preserve">
<g>
	<g>
		<rect x="3.334" y="15.328" width="3.667" height="3.667"/>
		<path d="M29.021,4.411V1.589h-7v2.821H20V1.589h-7v2.821h-2.021V1.589h-7v2.821H0v27h33v-27H29.021z M23.021,2.589h5v4h-5V2.589z
			 M14,2.589h5v4h-5V2.589z M4.979,2.589h5v4h-5V2.589z M31,28.911H2v-18h29V28.911z"/>
		<rect x="9" y="15.328" width="3.667" height="3.667"/>
		<rect x="14.667" y="15.328" width="3.667" height="3.667"/>
		<rect x="20.333" y="15.328" width="3.667" height="3.667"/>
		<rect x="26" y="15.328" width="3.667" height="3.667"/>
		<rect x="3.333" y="20.995" width="3.667" height="3.667"/>
		<rect x="9" y="20.995" width="3.667" height="3.667"/>
		<rect x="14.667" y="20.995" width="3.667" height="3.667"/>
		<rect x="20.333" y="20.995" width="3.667" height="3.667"/>
		<rect x="26" y="20.995" width="3.667" height="3.667"/>
	</g>
</g>
<g>
</g>
<g>
</g>
<g>
</g>
<g>
</g>
<g>
</g>
<g>
</g>
<g>
</g>
<g>
</g>
<g>
</g>
<g>
</g>
<g>
</g>
<g>
</g>
<g>
</g>
<g>
</g>
<g>
</g>
</svg>
