<?xml version="1.0" encoding="iso-8859-1"?>
<!-- Generator: Adobe Illustrator 16.0.0, SVG Export Plug-In . SVG Version: 6.00 Build 0)  -->
<!DOCTYPE svg PUBLIC "-//W3C//DTD SVG 1.1//EN" "http://www.w3.org/Graphics/SVG/1.1/DTD/svg11.dtd">
<svg version="1.1" id="Capa_1" xmlns="http://www.w3.org/2000/svg" xmlns:xlink="http://www.w3.org/1999/xlink" x="0px" y="0px"
	 width="32.75px" height="32.75px" viewBox="0 0 32.75 32.75" style="enable-background:new 0 0 32.75 32.75;" xml:space="preserve"
	>
<g>
	<g>
		<path d="M29.375,1.25h-1.123c0.029-0.093,0.059-0.186,0.059-0.289c0-0.53-0.432-0.961-0.963-0.961s-0.961,0.431-0.961,0.961
			c0,0.103,0.028,0.196,0.059,0.289h-3.68c0.029-0.093,0.059-0.186,0.059-0.289C22.823,0.431,22.393,0,21.861,0
			C21.331,0,20.9,0.431,20.9,0.961c0,0.103,0.029,0.196,0.059,0.289h-3.682c0.029-0.093,0.059-0.186,0.059-0.289
			c0-0.53-0.43-0.961-0.961-0.961c-0.531,0-0.961,0.431-0.961,0.961c0,0.103,0.028,0.196,0.058,0.289h-3.681
			c0.029-0.093,0.059-0.186,0.059-0.289C11.85,0.431,11.419,0,10.889,0c-0.531,0-0.962,0.431-0.962,0.961
			c0,0.103,0.028,0.196,0.058,0.289h-3.68c0.03-0.093,0.059-0.186,0.059-0.289C6.364,0.43,5.934,0,5.403,0
			C4.872,0,4.441,0.431,4.441,0.961c0,0.103,0.028,0.196,0.058,0.289H3.375c-1.518,0-2.75,1.233-2.75,2.75v26
			c0,1.518,1.232,2.75,2.75,2.75H26.27l5.855-5.855V4C32.125,2.483,30.893,1.25,29.375,1.25z M3.375,31.25
			c-0.689,0-1.25-0.561-1.25-1.25V9h28.5v17.273l-0.311,0.311h-2.355c-1.102,0-2,0.9-2,2v2.355l-0.311,0.311H3.375z"/>
		<path d="M16.091,17.725c0-2.953-2.467-4.104-5.096-4.104c-3.295,0-5.329,1.513-5.384,5.239h3.367
			c-0.018-1.225,0.396-2.43,1.836-2.43c0.757,0,1.531,0.468,1.531,1.278c0,2.105-3.331,2.971-5.455,5.186
			c-1.01,1.045-1.586,2.125-1.514,3.602h10.679v-3.061h-5.888c0.666-0.469,1.638-0.955,2.557-1.531
			C14.381,20.876,16.091,19.958,16.091,17.725z"/>
		<path d="M27.771,22.102c0-2.539-1.891-4.017-4.32-4.017c-0.955,0-1.836,0.108-2.629,0.685l0.414-1.909h5.51V13.8h-8.139
			l-1.26,7.22l3.528,0.127c0.287-0.559,0.953-0.703,1.513-0.703c1.135,0,1.639,0.793,1.639,1.837c0,0.937-0.721,1.675-1.818,1.675
			c-0.686,0-1.404-0.36-1.621-1.025c0-0.037-0.035-0.091-0.035-0.127l-3.764,0.379c0.721,2.34,2.521,3.582,5.293,3.582
			C24.98,26.764,27.771,25.611,27.771,22.102z"/>
	</g>
</g>
<g>
</g>
<g>
</g>
<g>
</g>
<g>
</g>
<g>
</g>
<g>
</g>
<g>
</g>
<g>
</g>
<g>
</g>
<g>
</g>
<g>
</g>
<g>
</g>
<g>
</g>
<g>
</g>
<g>
</g>
</svg>
