<?xml version="1.0" encoding="iso-8859-1"?>
<!-- Generator: Adobe Illustrator 16.0.0, SVG Export Plug-In . SVG Version: 6.00 Build 0)  -->
<!DOCTYPE svg PUBLIC "-//W3C//DTD SVG 1.1//EN" "http://www.w3.org/Graphics/SVG/1.1/DTD/svg11.dtd">
<svg version="1.1" id="Capa_1" xmlns="http://www.w3.org/2000/svg" xmlns:xlink="http://www.w3.org/1999/xlink" x="0px" y="0px"
	 width="33px" height="33px" viewBox="0 0 33 33" style="enable-background:new 0 0 33 33;" xml:space="preserve">
<g>
	<g>
		<path d="M16.99,21.9c0.486-0.459,1.076-1.029,1.77-1.709c0.44-0.414,0.803-0.787,1.09-1.121c0.287-0.332,0.518-0.67,0.69-1.01
			c0.173-0.341,0.293-0.703,0.36-1.091c0.065-0.387,0.1-0.847,0.1-1.38c0-0.56-0.066-1.08-0.2-1.56
			c-0.133-0.48-0.366-0.896-0.7-1.25c-0.332-0.354-0.783-0.634-1.35-0.84c-0.566-0.207-1.277-0.311-2.13-0.311
			c-3.04,0-4.56,1.42-4.56,4.26v0.46h3.12c0-0.268,0.007-0.554,0.02-0.859c0.013-0.306,0.06-0.59,0.14-0.851
			c0.08-0.26,0.207-0.473,0.38-0.64c0.173-0.167,0.42-0.25,0.74-0.25c0.48,0,0.796,0.17,0.95,0.51c0.154,0.34,0.23,0.79,0.23,1.351
			c0,0.267-0.014,0.513-0.041,0.74c-0.026,0.228-0.119,0.478-0.279,0.75s-0.407,0.594-0.74,0.959c-0.333,0.367-0.8,0.817-1.4,1.352
			c-0.307,0.267-0.644,0.594-1.01,0.979c-0.367,0.389-0.713,0.842-1.04,1.36c-0.327,0.521-0.6,1.112-0.82,1.78
			c-0.22,0.666-0.33,1.42-0.33,2.26h9.04v-2.6H16C16.173,22.791,16.503,22.361,16.99,21.9z"/>
		<path d="M28.5,0h-24C2.019,0,0,2.019,0,4.5v24C0,30.98,2.019,33,4.5,33h24c2.48,0,4.5-2.02,4.5-4.5v-24C33,2.019,30.98,0,28.5,0z
			 M31.5,28.5c0,1.648-1.35,3-3,3h-24c-1.65,0-3-1.352-3-3v-24c0-1.649,1.35-3,3-3h24c1.65,0,3,1.351,3,3V28.5z"/>
		<path d="M24.318,3.5H8.681c-0.387,0-0.705,0.317-0.705,0.705v1.137c0,0.388,0.317,0.705,0.705,0.705h15.637
			c0.388,0,0.705-0.317,0.705-0.705V4.205C25.023,3.817,24.706,3.5,24.318,3.5z"/>
	</g>
</g>
<g>
</g>
<g>
</g>
<g>
</g>
<g>
</g>
<g>
</g>
<g>
</g>
<g>
</g>
<g>
</g>
<g>
</g>
<g>
</g>
<g>
</g>
<g>
</g>
<g>
</g>
<g>
</g>
<g>
</g>
</svg>
