<?xml version="1.0" encoding="iso-8859-1"?>
<!-- Generator: Adobe Illustrator 16.0.0, SVG Export Plug-In . SVG Version: 6.00 Build 0)  -->
<!DOCTYPE svg PUBLIC "-//W3C//DTD SVG 1.1//EN" "http://www.w3.org/Graphics/SVG/1.1/DTD/svg11.dtd">
<svg version="1.1" id="Capa_1" xmlns="http://www.w3.org/2000/svg" xmlns:xlink="http://www.w3.org/1999/xlink" x="0px" y="0px"
	 width="32.804px" height="32.805px" viewBox="0 0 32.804 32.805" style="enable-background:new 0 0 32.804 32.805;"
	 xml:space="preserve">
<g>
	<g>
		<path d="M28.391,2.356V0h-1.276v2.356h-4.398V0h-1.277v2.356h-4.397V0h-1.277v2.356h-4.398V0h-1.277v2.356H5.691V0H4.415v2.356
			H1.177v30.449h15.225h15.225V17.581V2.356H28.391z M18.396,24.451c0-0.584,0.02-1.149,0.06-1.697s0.147-1.032,0.323-1.452
			c0.177-0.42,0.442-0.756,0.799-1.008c0.355-0.252,0.85-0.378,1.482-0.378c0.512,0,0.939,0.074,1.283,0.222
			s0.618,0.388,0.822,0.716c0.203,0.327,0.348,0.754,0.432,1.276c0.084,0.524,0.126,1.162,0.126,1.914
			c0,0.593-0.021,1.159-0.06,1.704c-0.04,0.544-0.148,1.025-0.324,1.445s-0.441,0.756-0.798,1.008s-0.851,0.379-1.481,0.379
			c-0.521,0-0.951-0.074-1.291-0.223c-0.34-0.147-0.611-0.386-0.816-0.713c-0.203-0.328-0.348-0.755-0.432-1.279
			C18.437,25.842,18.396,25.203,18.396,24.451z M26.771,21.044c-0.216,0-0.386,0.044-0.51,0.132
			c-0.124,0.089-0.22,0.208-0.288,0.359c-0.067,0.152-0.112,0.328-0.132,0.529c-0.02,0.199-0.029,0.412-0.029,0.635h-1.656v-0.323
			c0-0.792,0.211-1.399,0.636-1.824c0.424-0.424,1.092-0.636,2.004-0.636c0.864,0,1.504,0.199,1.92,0.6s0.624,0.973,0.624,1.717
			c0,0.28-0.023,0.537-0.072,0.769c-0.048,0.231-0.123,0.456-0.228,0.672s-0.24,0.427-0.408,0.63
			c-0.168,0.204-0.372,0.414-0.612,0.631l-0.959,0.889c-0.257,0.23-0.457,0.457-0.601,0.678c-0.144,0.22-0.236,0.41-0.276,0.57
			h3.204v1.344h-5.231c0-0.377,0.037-0.729,0.113-1.057s0.192-0.641,0.348-0.937c0.156-0.296,0.353-0.586,0.589-0.87
			c0.235-0.283,0.51-0.568,0.821-0.857l0.696-0.647c0.192-0.168,0.347-0.324,0.462-0.468c0.116-0.145,0.206-0.288,0.271-0.432
			c0.063-0.146,0.106-0.302,0.126-0.47s0.029-0.358,0.029-0.575C27.611,21.396,27.332,21.044,26.771,21.044z M16.402,17.581v12.181
			H3.023V10.709h26.757v6.872H16.402z"/>
		<path d="M20.316,26.941c0.072,0.196,0.168,0.33,0.289,0.401c0.119,0.072,0.271,0.108,0.455,0.108c0.192,0,0.348-0.047,0.469-0.139
			c0.119-0.092,0.213-0.248,0.281-0.469c0.068-0.22,0.116-0.514,0.145-0.882c0.027-0.367,0.042-0.823,0.042-1.368v-0.922
			c0-0.535-0.015-0.975-0.042-1.312c-0.028-0.34-0.078-0.608-0.15-0.806c-0.072-0.194-0.168-0.329-0.288-0.401
			c-0.12-0.071-0.272-0.107-0.456-0.107c-0.191,0-0.348,0.046-0.468,0.139c-0.12,0.092-0.214,0.247-0.282,0.469
			c-0.068,0.219-0.115,0.514-0.144,0.881c-0.028,0.369-0.042,0.824-0.042,1.369v0.924c0,0.535,0.014,0.974,0.042,1.312
			C20.195,26.479,20.244,26.746,20.316,26.941z"/>
	</g>
</g>
<g>
</g>
<g>
</g>
<g>
</g>
<g>
</g>
<g>
</g>
<g>
</g>
<g>
</g>
<g>
</g>
<g>
</g>
<g>
</g>
<g>
</g>
<g>
</g>
<g>
</g>
<g>
</g>
<g>
</g>
</svg>
