<?xml version="1.0" encoding="iso-8859-1"?>
<!-- Generator: Adobe Illustrator 16.0.0, SVG Export Plug-In . SVG Version: 6.00 Build 0)  -->
<!DOCTYPE svg PUBLIC "-//W3C//DTD SVG 1.1//EN" "http://www.w3.org/Graphics/SVG/1.1/DTD/svg11.dtd">
<svg version="1.1" id="Capa_1" xmlns="http://www.w3.org/2000/svg" xmlns:xlink="http://www.w3.org/1999/xlink" x="0px" y="0px"
	 width="32.75px" height="32.75px" viewBox="0 0 32.75 32.75" style="enable-background:new 0 0 32.75 32.75;" xml:space="preserve"
	>
<g>
	<g>
		<path d="M29.375,1.25h-1.123c0.029-0.093,0.059-0.186,0.059-0.289c0-0.53-0.432-0.961-0.963-0.961s-0.961,0.431-0.961,0.961
			c0,0.103,0.028,0.196,0.059,0.289h-3.68c0.029-0.093,0.059-0.186,0.059-0.289C22.823,0.431,22.393,0,21.861,0
			C21.331,0,20.9,0.431,20.9,0.961c0,0.103,0.029,0.196,0.059,0.289h-3.682c0.029-0.093,0.059-0.186,0.059-0.289
			c0-0.53-0.43-0.961-0.961-0.961c-0.531,0-0.961,0.431-0.961,0.961c0,0.103,0.028,0.196,0.058,0.289h-3.681
			c0.029-0.093,0.059-0.186,0.059-0.289C11.85,0.431,11.419,0,10.889,0c-0.531,0-0.962,0.431-0.962,0.961
			c0,0.103,0.028,0.196,0.058,0.289h-3.68c0.03-0.093,0.059-0.186,0.059-0.289C6.364,0.43,5.934,0,5.403,0
			C4.872,0,4.441,0.431,4.441,0.961c0,0.103,0.028,0.196,0.058,0.289H3.375c-1.518,0-2.75,1.233-2.75,2.75v26
			c0,1.518,1.232,2.75,2.75,2.75H26.27l5.855-5.855V4C32.125,2.483,30.893,1.25,29.375,1.25z M30.625,26.273l-0.311,0.311h-2.355
			c-1.102,0-2,0.9-2,2v2.355l-0.311,0.311H3.375c-0.689,0-1.25-0.561-1.25-1.25V5h28.5V26.273z"/>
		<path d="M10.404,13.96l0.649,3.858c0,0.134,0.053,0.281,0.162,0.429c0.344-0.245,0.654-0.479,0.916-0.675l0.198-0.15
			c0.882-0.662,1.801-0.999,2.734-0.999c1.416,0,2.333,0.765,2.664,1.093c0.264-0.263,0.994-0.872,2.125-0.872
			c0.738,0,1.463,0.264,2.158,0.786l0.151,0.112c0.306,0.233,0.708,0.532,1.151,0.826c0.186-0.185,0.267-0.38,0.267-0.55
			l0.649-3.859c0-0.474-0.576-1.362-2.504-1.159c-1.898,0.2-4.41,2.32-4.41,2.32s-2.521-2.038-4.407-2.319
			C10.934,12.506,10.404,13.487,10.404,13.96z M21.725,13.604c1.398-0.199,1.868,0.409,1.868,0.758c0,0.349-0.489,0.758-1.868,0.758
			h-3.132C19.547,14.383,20.854,13.728,21.725,13.604z M12.908,13.604c0.871,0.111,2.175,0.779,3.134,1.516h-3.134
			c-1.378,0-1.869-0.409-1.869-0.758C11.039,14.013,11.534,13.428,12.908,13.604z"/>
		<path d="M18.186,17.977c-0.015,0.014-0.025,0.029-0.039,0.043c0.682,0.979,0.939,2.356,0.319,3.799
			c0.821,1.097,2.103,2.945,1.798,4.467c0,0,0.672-0.383,1.647-1.156c0.043,0.076,0.093,0.148,0.157,0.214
			c0.383,0.384,1,0.384,1.385,0c0.382-0.382,0.382-1.001,0-1.384c-0.031-0.031-0.066-0.057-0.1-0.081
			c0.121-0.116,0.246-0.237,0.371-0.362c1.86-1.86,2.775-3.469,2.775-3.469c-1.738,0.354-3.891-1.355-4.88-2.096
			C20.109,16.815,18.789,17.374,18.186,17.977z M24.904,20.427c-0.705,0.246-2.199,0.142-3.176-0.838
			c-0.979-0.979-2.344-1.2-2.033-1.513c0.312-0.311,1.466,0.122,2.445,1.101C23.118,20.155,24.195,20.395,24.904,20.427z"/>
		<path d="M12.718,17.941c-1.311,0.982-4.164,3.246-6.468,2.778c0,0,1.216,2.13,3.68,4.597c0.165,0.166,0.329,0.326,0.491,0.479
			c-0.045,0.034-0.091,0.066-0.133,0.109c-0.507,0.506-0.507,1.328,0,1.835c0.508,0.506,1.329,0.506,1.835,0
			c0.086-0.087,0.152-0.183,0.209-0.285c1.295,1.024,2.186,1.532,2.186,1.532c-0.459-2.295,1.802-5.148,2.789-6.457
			c1.506-2.004,0.762-3.754-0.037-4.553C16.471,17.18,14.721,16.438,12.718,17.941z M12.577,20.114
			c-1.297,1.298-3.275,1.437-4.213,1.11c0.942-0.043,2.37-0.359,3.666-1.656c1.297-1.297,2.826-1.871,3.238-1.459
			S13.874,18.816,12.577,20.114z"/>
		<path d="M4.594,9.968c-0.364,0.376-0.571,0.766-0.545,1.298h3.847v-1.103H5.775c0.24-0.168,0.59-0.344,0.921-0.552
			c0.597-0.37,1.213-0.701,1.213-1.505c0-1.064-0.889-1.479-1.836-1.479c-1.187,0-1.92,0.545-1.94,1.888h1.213
			C5.34,8.074,5.489,7.639,6.008,7.639C6.28,7.639,6.56,7.807,6.56,8.1C6.561,8.859,5.359,9.17,4.594,9.968z"/>
		<path d="M10.114,10.351c-0.247,0-0.506-0.129-0.584-0.37c0-0.013-0.013-0.032-0.013-0.045l-1.356,0.136
			c0.26,0.843,0.908,1.291,1.908,1.291c1.044,0,2.051-0.415,2.051-1.68c0-0.915-0.682-1.447-1.558-1.447
			c-0.344,0-0.662,0.039-0.947,0.248l0.149-0.688h1.985V6.693H8.816L8.363,9.295L9.634,9.34c0.103-0.201,0.343-0.252,0.544-0.252
			c0.41,0,0.591,0.285,0.591,0.662C10.77,10.086,10.509,10.351,10.114,10.351z"/>
	</g>
</g>
<g>
</g>
<g>
</g>
<g>
</g>
<g>
</g>
<g>
</g>
<g>
</g>
<g>
</g>
<g>
</g>
<g>
</g>
<g>
</g>
<g>
</g>
<g>
</g>
<g>
</g>
<g>
</g>
<g>
</g>
</svg>
