<?xml version="1.0" encoding="iso-8859-1"?>
<!-- Generator: Adobe Illustrator 16.0.0, SVG Export Plug-In . SVG Version: 6.00 Build 0)  -->
<!DOCTYPE svg PUBLIC "-//W3C//DTD SVG 1.1//EN" "http://www.w3.org/Graphics/SVG/1.1/DTD/svg11.dtd">
<svg version="1.1" id="Capa_1" xmlns="http://www.w3.org/2000/svg" xmlns:xlink="http://www.w3.org/1999/xlink" x="0px" y="0px"
	 width="36.449px" height="36.448px" viewBox="0 0 36.449 36.448" style="enable-background:new 0 0 36.449 36.448;"
	 xml:space="preserve">
<g>
	<g>
		<path d="M16.711,29.852c0.142,0.31,0.342,0.551,0.601,0.726c0.258,0.175,0.596,0.263,1.012,0.263c0.434,0,0.779-0.088,1.039-0.263
			c0.258-0.175,0.453-0.421,0.586-0.737c0.135-0.316,0.221-0.688,0.264-1.111c0.041-0.424,0.062-0.889,0.062-1.389
			c0-1.199-0.148-2.059-0.449-2.574c-0.301-0.518-0.801-0.774-1.5-0.774c-0.717,0-1.225,0.258-1.524,0.774
			c-0.299,0.516-0.45,1.375-0.45,2.574c0,0.5,0.025,0.967,0.075,1.4C16.476,29.174,16.57,29.543,16.711,29.852z"/>
		<path d="M1.974,32.198c0,2.343,1.907,4.25,4.25,4.25h24c2.344,0,4.25-1.907,4.25-4.25V12.099h-32.5V32.198z M12.687,21.277
			c0.074-1.176,0.3-2.217,0.675-3.125s0.962-1.638,1.762-2.188c0.8-0.55,1.933-0.825,3.399-0.825c0.635,0,1.246,0.075,1.838,0.226
			c0.592,0.149,1.112,0.399,1.563,0.75c0.45,0.35,0.813,0.813,1.087,1.387c0.275,0.575,0.421,1.288,0.438,2.139H20
			c0-0.701-0.121-1.233-0.362-1.601c-0.241-0.366-0.662-0.55-1.262-0.55c-0.484,0-0.867,0.112-1.15,0.337
			c-0.283,0.226-0.504,0.538-0.662,0.938c-0.159,0.399-0.263,0.875-0.313,1.424c-0.051,0.552-0.075,1.15-0.075,1.802v0.875h0.049
			c0.3-0.468,0.729-0.838,1.287-1.113c0.559-0.274,1.238-0.411,2.038-0.411c0.782,0,1.45,0.137,2,0.411
			c0.55,0.275,0.995,0.659,1.337,1.15s0.592,1.075,0.75,1.75s0.238,1.411,0.238,2.213c0,2.05-0.455,3.616-1.363,4.698
			c-0.908,1.084-2.362,1.625-4.362,1.625c-1.233,0-2.221-0.229-2.962-0.688c-0.742-0.458-1.305-1.066-1.688-1.824
			c-0.384-0.759-0.634-1.638-0.75-2.638c-0.117-1-0.176-2.042-0.176-3.125C12.574,23.664,12.612,22.452,12.687,21.277z"/>
		<path d="M30.224,3.948h-1.098V2.75c0-1.517-1.197-2.75-2.67-2.75c-1.474,0-2.67,1.233-2.67,2.75v1.197h-2.74V2.75
			c0-1.517-1.197-2.75-2.67-2.75c-1.473,0-2.67,1.233-2.67,2.75v1.197h-2.74V2.75c0-1.517-1.197-2.75-2.67-2.75
			c-1.473,0-2.67,1.233-2.67,2.75v1.197H6.224c-2.343,0-4.25,1.907-4.25,4.25v2h2.5h27.5h2.5v-2
			C34.474,5.855,32.568,3.948,30.224,3.948z M11.466,7.646c0,0.689-0.525,1.25-1.17,1.25s-1.17-0.561-1.17-1.25V2.75
			c0-0.689,0.525-1.25,1.17-1.25s1.17,0.561,1.17,1.25V7.646z M19.546,7.646c0,0.689-0.525,1.25-1.17,1.25s-1.17-0.561-1.17-1.25
			V2.75c0-0.689,0.525-1.25,1.17-1.25s1.17,0.561,1.17,1.25V7.646z M27.626,7.646c0,0.689-0.525,1.25-1.17,1.25
			c-0.646,0-1.17-0.561-1.17-1.25V2.75c0-0.689,0.524-1.25,1.17-1.25c0.645,0,1.17,0.561,1.17,1.25V7.646z"/>
	</g>
</g>
<g>
</g>
<g>
</g>
<g>
</g>
<g>
</g>
<g>
</g>
<g>
</g>
<g>
</g>
<g>
</g>
<g>
</g>
<g>
</g>
<g>
</g>
<g>
</g>
<g>
</g>
<g>
</g>
<g>
</g>
</svg>
