<?xml version="1.0" encoding="iso-8859-1"?>
<!-- Generator: Adobe Illustrator 16.0.0, SVG Export Plug-In . SVG Version: 6.00 Build 0)  -->
<!DOCTYPE svg PUBLIC "-//W3C//DTD SVG 1.1//EN" "http://www.w3.org/Graphics/SVG/1.1/DTD/svg11.dtd">
<svg version="1.1" id="Capa_1" xmlns="http://www.w3.org/2000/svg" xmlns:xlink="http://www.w3.org/1999/xlink" x="0px" y="0px"
	 width="31.582px" height="31.582px" viewBox="0 0 31.582 31.582" style="enable-background:new 0 0 31.582 31.582;"
	 xml:space="preserve">
<g>
	<g>
		<path d="M26.018,6.8h-2.789L16.53,1.101C16.567,1.008,16.59,0.907,16.59,0.8c0-0.441-0.358-0.8-0.8-0.8S14.99,0.358,14.99,0.8
			c0,0.106,0.022,0.208,0.061,0.301L8.353,6.8H5.563C4.371,6.8,3.4,7.771,3.4,8.963v20.456c0,1.193,0.97,2.163,2.163,2.163h18.013
			l4.605-4.605V8.963C28.181,7.77,27.209,6.8,26.018,6.8z M23.902,9.57c0,0.643-0.521,1.163-1.164,1.163
			c-0.644,0-1.164-0.521-1.164-1.163c0-0.642,0.521-1.164,1.164-1.164S23.902,8.928,23.902,9.57z M15.384,1.474
			c0.121,0.073,0.255,0.127,0.406,0.127s0.285-0.054,0.406-0.127l6.26,5.326H9.124L15.384,1.474z M20.429,9.57
			c0,0.643-0.521,1.163-1.165,1.163c-0.643,0-1.162-0.521-1.162-1.163c0-0.642,0.521-1.164,1.162-1.164
			C19.906,8.406,20.429,8.928,20.429,9.57z M16.953,9.57c0,0.643-0.521,1.163-1.163,1.163c-0.643,0-1.164-0.521-1.164-1.163
			c0-0.642,0.521-1.164,1.164-1.164C16.432,8.406,16.953,8.928,16.953,9.57z M13.478,9.57c0,0.643-0.521,1.163-1.162,1.163
			c-0.645,0-1.166-0.521-1.166-1.163c0-0.642,0.521-1.164,1.166-1.164C12.958,8.406,13.478,8.928,13.478,9.57z M8.84,8.406
			c0.644,0,1.164,0.521,1.164,1.164s-0.521,1.163-1.164,1.163c-0.643,0-1.164-0.521-1.164-1.163C7.677,8.928,8.198,8.406,8.84,8.406
			z M27,26.487l-0.244,0.243h-1.854c-0.865,0-1.572,0.709-1.572,1.574v1.854l-0.244,0.244H5.562c-0.543,0-0.983-0.441-0.983-0.983
			V12.11H27V26.487z"/>
		<path d="M19.85,20.932c0.199,0,0.359-0.045,0.479-0.135c0.121-0.089,0.219-0.215,0.293-0.379c0.071-0.161,0.121-0.352,0.148-0.564
			c0.025-0.215,0.039-0.448,0.039-0.701c0-0.66-0.066-1.18-0.195-1.557c-0.133-0.378-0.393-0.566-0.779-0.566
			c-0.377,0-0.635,0.171-0.771,0.512c-0.139,0.341-0.205,0.814-0.205,1.424c0,0.692,0.061,1.193,0.182,1.502
			S19.431,20.932,19.85,20.932z"/>
		<path d="M15.254,27.501h1v-1v-0.103c0.136,0.162,0.277,0.317,0.446,0.449c0.744,0.579,1.745,0.873,2.975,0.873
			c1.076,0,1.924-0.169,2.588-0.516c0.697-0.362,1.232-0.9,1.593-1.604c0.32-0.629,0.521-1.381,0.593-2.233
			c0.065-0.746,0.098-1.591,0.098-2.58c0-0.86-0.038-1.654-0.114-2.356c-0.089-0.802-0.294-1.502-0.612-2.086
			c-0.351-0.648-0.869-1.152-1.537-1.498c-0.639-0.329-1.43-0.489-2.416-0.489c-0.887,0-1.615,0.136-2.226,0.414
			c-0.624,0.284-1.131,0.683-1.505,1.188c-0.117,0.157-0.204,0.337-0.298,0.512c-0.148-0.322-0.33-0.63-0.579-0.895
			c-0.372-0.393-0.858-0.699-1.447-0.913c-0.558-0.203-1.236-0.306-2.018-0.306c-2.959,0-4.589,1.545-4.589,4.352v0.362v1h1h2.456
			h0.045c-0.195,0.194-0.433,0.415-0.71,0.661c-0.265,0.229-0.556,0.513-0.856,0.83c-0.337,0.356-0.652,0.77-0.938,1.227
			c-0.299,0.477-0.551,1.02-0.749,1.617c-0.205,0.631-0.309,1.334-0.309,2.093v1h1H15.254z M16.373,17.848
			c0.104-0.494,0.293-0.925,0.565-1.291c0.272-0.367,0.646-0.658,1.117-0.873c0.473-0.216,1.074-0.324,1.811-0.324
			c0.818,0,1.471,0.128,1.959,0.38c0.487,0.251,0.86,0.612,1.116,1.086c0.257,0.472,0.423,1.043,0.496,1.715
			c0.072,0.671,0.108,1.421,0.108,2.25c0,0.935-0.029,1.765-0.094,2.494c-0.062,0.729-0.226,1.351-0.486,1.864
			c-0.264,0.514-0.651,0.904-1.166,1.172c-0.514,0.269-1.223,0.4-2.125,0.4c-1.006,0-1.793-0.22-2.358-0.66
			c-0.565-0.44-0.86-1.164-0.881-2.172h2.549c0,0.147,0.011,0.291,0.031,0.434c0.021,0.142,0.063,0.27,0.126,0.386
			c0.136,0.231,0.352,0.347,0.645,0.347c0.221,0,0.401-0.051,0.543-0.149c0.144-0.101,0.258-0.269,0.348-0.503
			c0.089-0.236,0.15-0.557,0.18-0.961c0.033-0.402,0.049-0.914,0.049-1.533h-0.031c-0.18,0.336-0.437,0.582-0.771,0.738
			c-0.336,0.158-0.738,0.237-1.212,0.237c-0.851,0-1.508-0.267-1.975-0.796c-0.468-0.529-0.7-1.418-0.7-2.667
			C16.214,18.864,16.267,18.34,16.373,17.848z M15.455,21.395c0.158,0.545,0.394,0.996,0.711,1.354
			c0.042,0.048,0.085,0.095,0.13,0.14h-0.881l0.012,0.566h-0.172h-1.74c0.206-0.199,0.427-0.415,0.663-0.646
			c0.349-0.328,0.661-0.648,0.913-0.939C15.226,21.711,15.346,21.553,15.455,21.395z M8.4,24.723c0.174-0.523,0.39-0.99,0.646-1.399
			c0.256-0.409,0.53-0.765,0.818-1.07c0.287-0.304,0.554-0.562,0.795-0.771c0.472-0.42,0.839-0.773,1.101-1.063
			c0.262-0.287,0.457-0.539,0.583-0.755c0.126-0.214,0.198-0.411,0.22-0.59c0.021-0.18,0.031-0.372,0.031-0.582
			c0-0.44-0.061-0.794-0.181-1.062c-0.121-0.268-0.369-0.4-0.747-0.4c-0.253,0-0.446,0.063-0.583,0.195
			c-0.136,0.133-0.234,0.299-0.298,0.504c-0.063,0.205-0.101,0.429-0.111,0.67c-0.01,0.24-0.015,0.467-0.015,0.676H8.204v-0.362
			c0-2.233,1.196-3.353,3.589-3.353c0.671,0,1.229,0.084,1.676,0.246c0.445,0.162,0.799,0.383,1.062,0.66
			c0.263,0.277,0.446,0.604,0.55,0.982c0.106,0.378,0.159,0.787,0.159,1.229c0,0.418-0.027,0.78-0.079,1.086
			c-0.054,0.305-0.147,0.59-0.283,0.855c-0.137,0.27-0.318,0.533-0.543,0.796c-0.227,0.263-0.512,0.556-0.857,0.882
			c-0.546,0.534-1.01,0.983-1.393,1.346c-0.384,0.36-0.644,0.699-0.779,1.015h3.949v2.046H8.144
			C8.144,25.84,8.229,25.248,8.4,24.723z"/>
	</g>
</g>
<g>
</g>
<g>
</g>
<g>
</g>
<g>
</g>
<g>
</g>
<g>
</g>
<g>
</g>
<g>
</g>
<g>
</g>
<g>
</g>
<g>
</g>
<g>
</g>
<g>
</g>
<g>
</g>
<g>
</g>
</svg>
