<?xml version="1.0" encoding="iso-8859-1"?>
<!-- Generator: Adobe Illustrator 16.0.0, SVG Export Plug-In . SVG Version: 6.00 Build 0)  -->
<!DOCTYPE svg PUBLIC "-//W3C//DTD SVG 1.1//EN" "http://www.w3.org/Graphics/SVG/1.1/DTD/svg11.dtd">
<svg version="1.1" id="Capa_1" xmlns="http://www.w3.org/2000/svg" xmlns:xlink="http://www.w3.org/1999/xlink" x="0px" y="0px"
	 width="33px" height="33px" viewBox="0 0 33 33" style="enable-background:new 0 0 33 33;" xml:space="preserve">
<g>
	<g>
		<path d="M18.721,18.411v-0.04c0.652-0.146,1.152-0.477,1.5-0.99c0.346-0.513,0.52-1.13,0.52-1.85c0-1.373-0.338-2.367-1.01-2.98
			c-0.674-0.613-1.711-0.92-3.11-0.92c-1.573,0-2.727,0.347-3.46,1.04c-0.72,0.667-1.08,1.707-1.08,3.12h3
			c0-0.8,0.124-1.34,0.37-1.62c0.246-0.28,0.557-0.42,0.93-0.42c0.387,0,0.67,0.13,0.851,0.39c0.18,0.261,0.27,0.67,0.27,1.23
			c0,0.693-0.1,1.22-0.3,1.58c-0.2,0.359-0.58,0.54-1.14,0.54h-0.92v2.12h0.8c0.333,0,0.61,0.033,0.83,0.1s0.4,0.184,0.541,0.35
			c0.14,0.168,0.239,0.397,0.299,0.69c0.061,0.294,0.091,0.667,0.091,1.12c0,0.8-0.107,1.347-0.32,1.64
			c-0.213,0.294-0.534,0.44-0.96,0.44c-0.253,0-0.46-0.062-0.62-0.19c-0.16-0.126-0.287-0.293-0.38-0.5
			c-0.094-0.206-0.157-0.45-0.19-0.729c-0.034-0.28-0.05-0.58-0.05-0.9h-3.24c0,0.907,0.11,1.647,0.33,2.22
			c0.22,0.574,0.536,1.023,0.95,1.352c0.413,0.327,0.903,0.554,1.47,0.68c0.566,0.127,1.203,0.19,1.91,0.19
			c0.613,0,1.193-0.08,1.74-0.24s1.02-0.41,1.42-0.75s0.717-0.78,0.95-1.319c0.233-0.541,0.351-1.189,0.351-1.951
			c0-1-0.181-1.77-0.541-2.31C20.16,18.961,19.561,18.598,18.721,18.411z"/>
		<path d="M28.5,0h-24C2.019,0,0,2.019,0,4.5v24C0,30.98,2.019,33,4.5,33h24c2.48,0,4.5-2.02,4.5-4.5v-24C33,2.019,30.98,0,28.5,0z
			 M31.5,28.5c0,1.648-1.35,3-3,3h-24c-1.65,0-3-1.352-3-3v-24c0-1.649,1.35-3,3-3h24c1.65,0,3,1.351,3,3V28.5z"/>
		<circle cx="9.25" cy="4.773" r="1.273"/>
		<circle cx="16.5" cy="4.773" r="1.273"/>
		<circle cx="23.75" cy="4.773" r="1.273"/>
	</g>
</g>
<g>
</g>
<g>
</g>
<g>
</g>
<g>
</g>
<g>
</g>
<g>
</g>
<g>
</g>
<g>
</g>
<g>
</g>
<g>
</g>
<g>
</g>
<g>
</g>
<g>
</g>
<g>
</g>
<g>
</g>
</svg>
