<?xml version="1.0" encoding="iso-8859-1"?>
<!-- Generator: Adobe Illustrator 16.0.0, SVG Export Plug-In . SVG Version: 6.00 Build 0)  -->
<!DOCTYPE svg PUBLIC "-//W3C//DTD SVG 1.1//EN" "http://www.w3.org/Graphics/SVG/1.1/DTD/svg11.dtd">
<svg version="1.1" id="Capa_1" xmlns="http://www.w3.org/2000/svg" xmlns:xlink="http://www.w3.org/1999/xlink" x="0px" y="0px"
	 width="36.449px" height="36.448px" viewBox="0 0 36.449 36.448" style="enable-background:new 0 0 36.449 36.448;"
	 xml:space="preserve">
<g>
	<g>
		<path d="M31.974,32.198c0,0.965-0.785,1.75-1.75,1.75h-24c-0.965,0-1.75-0.785-1.75-1.75V12.099h-2.5v20.099
			c0,2.343,1.907,4.25,4.25,4.25h24c2.344,0,4.25-1.907,4.25-4.25V12.099h-2.5V32.198z"/>
		<path d="M30.224,3.948h-1.098V2.75c0-1.517-1.197-2.75-2.67-2.75c-1.474,0-2.67,1.233-2.67,2.75v1.197h-2.74V2.75
			c0-1.517-1.197-2.75-2.67-2.75c-1.473,0-2.67,1.233-2.67,2.75v1.197h-2.74V2.75c0-1.517-1.197-2.75-2.67-2.75
			c-1.473,0-2.67,1.233-2.67,2.75v1.197H6.224c-2.343,0-4.25,1.907-4.25,4.25v2h2.5h1.5v21.9h19.834v-0.666c0-2.205,1.794-4,4-4
			h0.666V10.198h1.5h2.5v-2C34.474,5.855,32.568,3.948,30.224,3.948z M22.685,15.135c-0.547,0.827-1.047,1.736-1.5,2.729
			c-0.454,0.993-0.848,2-1.182,3.021c-0.332,1.021-0.6,2.018-0.799,2.99c-0.201,0.973-0.32,1.854-0.36,2.641h-3.479
			c0.053-0.813,0.203-1.721,0.449-2.721c0.247-1,0.554-2.007,0.92-3.021c0.367-1.012,0.787-1.981,1.261-2.909
			c0.474-0.926,0.963-1.723,1.47-2.39h-5.8v-2.84h9.021L22.685,15.135L22.685,15.135z M25.287,2.75c0-0.689,0.525-1.25,1.17-1.25
			c0.646,0,1.17,0.561,1.17,1.25v4.896c0,0.072-0.026,0.135-0.037,0.203h-2.264c-0.012-0.068-0.039-0.131-0.039-0.203V2.75z
			 M17.206,2.75c0-0.689,0.525-1.25,1.17-1.25s1.17,0.561,1.17,1.25v4.896c0,0.072-0.027,0.135-0.038,0.203h-2.264
			c-0.011-0.068-0.038-0.131-0.038-0.203V2.75z M9.126,2.75c0-0.689,0.525-1.25,1.17-1.25s1.17,0.561,1.17,1.25v4.896
			c0,0.072-0.027,0.135-0.038,0.203H9.164C9.153,7.781,9.126,7.718,9.126,7.646V2.75z"/>
	</g>
</g>
<g>
</g>
<g>
</g>
<g>
</g>
<g>
</g>
<g>
</g>
<g>
</g>
<g>
</g>
<g>
</g>
<g>
</g>
<g>
</g>
<g>
</g>
<g>
</g>
<g>
</g>
<g>
</g>
<g>
</g>
</svg>
