<?xml version="1.0" encoding="iso-8859-1"?>
<!-- Generator: Adobe Illustrator 16.0.0, SVG Export Plug-In . SVG Version: 6.00 Build 0)  -->
<!DOCTYPE svg PUBLIC "-//W3C//DTD SVG 1.1//EN" "http://www.w3.org/Graphics/SVG/1.1/DTD/svg11.dtd">
<svg version="1.1" id="Capa_1" xmlns="http://www.w3.org/2000/svg" xmlns:xlink="http://www.w3.org/1999/xlink" x="0px" y="0px"
	 width="36.449px" height="36.448px" viewBox="0 0 36.449 36.448" style="enable-background:new 0 0 36.449 36.448;"
	 xml:space="preserve">
<g>
	<g>
		<path d="M30.224,3.948h-1.098V2.75c0-1.517-1.197-2.75-2.67-2.75c-1.474,0-2.67,1.233-2.67,2.75v1.197h-2.74V2.75
			c0-1.517-1.197-2.75-2.67-2.75c-1.473,0-2.67,1.233-2.67,2.75v1.197h-2.74V2.75c0-1.517-1.197-2.75-2.67-2.75
			c-1.473,0-2.67,1.233-2.67,2.75v1.197H6.224c-2.343,0-4.25,1.907-4.25,4.25v2h2.5h27.5h2.5v-2
			C34.474,5.855,32.568,3.948,30.224,3.948z M11.466,7.646c0,0.689-0.525,1.25-1.17,1.25s-1.17-0.561-1.17-1.25V2.75
			c0-0.689,0.525-1.25,1.17-1.25s1.17,0.561,1.17,1.25V7.646z M19.546,7.646c0,0.689-0.525,1.25-1.17,1.25s-1.17-0.561-1.17-1.25
			V2.75c0-0.689,0.525-1.25,1.17-1.25s1.17,0.561,1.17,1.25V7.646z M27.626,7.646c0,0.689-0.525,1.25-1.17,1.25
			c-0.646,0-1.17-0.561-1.17-1.25V2.75c0-0.689,0.524-1.25,1.17-1.25c0.645,0,1.17,0.561,1.17,1.25V7.646z"/>
		<path d="M1.974,32.198c0,2.343,1.907,4.25,4.25,4.25h24c2.344,0,4.25-1.907,4.25-4.25V12.099h-32.5V32.198z M17.424,31.626h-4.8
			v-2.235h4.8V31.626z M17.424,28.641h-4.8v-2.234h4.8V28.641z M23.824,31.626h-4.799v-2.235h4.799V31.626z M23.824,28.641h-4.799
			v-2.234h4.799V28.641z M30.224,31.626h-4.8v-2.235h4.8V31.626z M30.224,28.641h-4.8v-2.234h4.8V28.641z M23.787,19.814
			c-0.254-0.234-0.588-0.353-1.004-0.353c-0.32,0-0.599,0.05-0.828,0.146c-0.229,0.098-0.42,0.257-0.566,0.478h-2.571l0.995-5.543
			h6.607v2.35h-4.479l-0.275,1.272l0.026,0.027c0.296-0.222,0.63-0.371,1.003-0.449c0.373-0.079,0.739-0.118,1.1-0.118
			c0.424,0,0.826,0.065,1.209,0.194c0.383,0.129,0.717,0.325,1.003,0.588c0.284,0.262,0.511,0.602,0.677,1.016
			s0.25,0.903,0.25,1.465c0,0.489-0.096,0.94-0.284,1.355c-0.188,0.414-0.466,0.771-0.829,1.07
			c-0.363,0.301-0.814,0.535-1.354,0.705c-0.54,0.17-1.155,0.256-1.848,0.256c-0.59,0-1.103-0.055-1.541-0.166
			c-0.438-0.11-0.811-0.256-1.119-0.436c-0.31-0.181-0.562-0.383-0.76-0.607c-0.199-0.228-0.352-0.457-0.458-0.691
			c-0.105-0.234-0.176-0.461-0.214-0.677c-0.037-0.218-0.045-0.403-0.026-0.562h2.737c0.055,0.269,0.184,0.479,0.385,0.637
			c0.138,0.111,0.302,0.19,0.488,0.242c0.188,0.051,0.389,0.076,0.6,0.076c0.402,0,0.746-0.119,1.031-0.354
			c0.283-0.235,0.428-0.547,0.428-0.934C24.166,20.379,24.039,20.051,23.787,19.814z M9.671,22.864
			c0.124-0.396,0.305-0.757,0.546-1.079c0.201-0.275,0.436-0.534,0.698-0.773c0.262-0.24,0.544-0.463,0.843-0.67
			c0.299-0.207,0.61-0.406,0.933-0.595c0.323-0.188,0.636-0.376,0.941-0.562c0.119-0.072,0.255-0.155,0.406-0.248
			c0.152-0.092,0.295-0.193,0.43-0.305c0.134-0.109,0.244-0.234,0.331-0.373c0.087-0.139,0.132-0.294,0.132-0.471
			c0-0.442-0.113-0.749-0.339-0.919c-0.227-0.17-0.5-0.256-0.823-0.256c-0.553,0-0.937,0.182-1.154,0.546
			c-0.217,0.364-0.315,0.841-0.297,1.432H9.719c-0.038-0.664,0.033-1.253,0.207-1.771c0.175-0.516,0.442-0.951,0.802-1.307
			c0.359-0.354,0.8-0.624,1.321-0.808c0.52-0.185,1.103-0.277,1.749-0.277c0.579,0,1.112,0.063,1.596,0.187
			c0.484,0.125,0.898,0.312,1.244,0.561c0.346,0.249,0.613,0.564,0.802,0.946c0.189,0.383,0.283,0.828,0.283,1.335
			c0,0.617-0.134,1.138-0.4,1.562c-0.268,0.424-0.608,0.795-1.023,1.113c-0.414,0.318-0.871,0.605-1.368,0.864
			c-0.498,0.259-0.974,0.524-1.424,0.802v0.014h4.354v2.351H9.526C9.498,23.693,9.546,23.26,9.671,22.864z M6.224,26.406h4.8v2.234
			h-4.8V26.406z M6.224,29.391h4.8v2.235h-4.8V29.391z"/>
	</g>
</g>
<g>
</g>
<g>
</g>
<g>
</g>
<g>
</g>
<g>
</g>
<g>
</g>
<g>
</g>
<g>
</g>
<g>
</g>
<g>
</g>
<g>
</g>
<g>
</g>
<g>
</g>
<g>
</g>
<g>
</g>
</svg>
