<?xml version="1.0" encoding="iso-8859-1"?>
<!-- Generator: Adobe Illustrator 16.0.0, SVG Export Plug-In . SVG Version: 6.00 Build 0)  -->
<!DOCTYPE svg PUBLIC "-//W3C//DTD SVG 1.1//EN" "http://www.w3.org/Graphics/SVG/1.1/DTD/svg11.dtd">
<svg version="1.1" id="Capa_1" xmlns="http://www.w3.org/2000/svg" xmlns:xlink="http://www.w3.org/1999/xlink" x="0px" y="0px"
	 width="33.375px" height="33.375px" viewBox="0 0 33.375 33.375" style="enable-background:new 0 0 33.375 33.375;"
	 xml:space="preserve">
<g>
	<g>
		<path d="M27.96,1.375h-0.682V1c0-0.552-0.447-1-1-1c-0.552,0-1,0.448-1,1v0.375h-1.837V1c0-0.552-0.448-1-1-1s-1,0.448-1,1v0.375
			h-1.837V1c0-0.552-0.447-1-1-1c-0.552,0-1,0.448-1,1v0.375h-1.837V1c0-0.552-0.448-1-1-1c-0.552,0-1,0.448-1,1v0.375h-1.837V1
			c0-0.552-0.448-1-1-1c-0.552,0-1,0.448-1,1v0.375H8.094V1c0-0.552-0.448-1-1-1c-0.552,0-1,0.448-1,1v0.375H5.412
			c-2.605,0-4.725,2.12-4.725,4.726v22.547c0,2.605,2.12,4.727,4.727,4.727H27.96c2.606,0,4.728-2.12,4.728-4.727V6.101
			C32.687,3.495,30.567,1.375,27.96,1.375z M25.78,1c0-0.276,0.224-0.5,0.5-0.5s0.5,0.224,0.5,0.5v6.482c0,0.276-0.224,0.5-0.5,0.5
			s-0.5-0.224-0.5-0.5V1z M21.943,1c0-0.276,0.225-0.5,0.5-0.5c0.276,0,0.5,0.224,0.5,0.5v6.482c0,0.276-0.224,0.5-0.5,0.5
			c-0.275,0-0.5-0.224-0.5-0.5V1z M18.106,1c0-0.276,0.224-0.5,0.5-0.5s0.5,0.224,0.5,0.5v6.482c0,0.276-0.224,0.5-0.5,0.5
			s-0.5-0.224-0.5-0.5V1z M14.269,1c0-0.276,0.224-0.5,0.5-0.5s0.5,0.224,0.5,0.5v6.482c0,0.276-0.224,0.5-0.5,0.5
			s-0.5-0.224-0.5-0.5V1z M10.432,1c0-0.276,0.224-0.5,0.5-0.5s0.5,0.224,0.5,0.5v6.482c0,0.276-0.224,0.5-0.5,0.5
			s-0.5-0.224-0.5-0.5V1z M6.595,1c0-0.276,0.224-0.5,0.5-0.5c0.276,0,0.5,0.224,0.5,0.5v6.482c0,0.276-0.224,0.5-0.5,0.5
			c-0.276,0-0.5-0.224-0.5-0.5V1z M30.279,28.648c0,1.277-1.04,2.317-2.318,2.317H5.414c-1.278,0-2.318-1.04-2.318-2.317V6.101
			c0-1.278,1.04-2.318,2.318-2.318h0.682v2.513c-0.339,0.286-0.56,0.709-0.56,1.187c0,0.86,0.699,1.56,1.56,1.56
			c0.861,0,1.56-0.699,1.56-1.56c0-0.478-0.221-0.9-0.56-1.187V3.783h1.837v2.513c-0.339,0.286-0.56,0.709-0.56,1.187
			c0,0.86,0.699,1.56,1.56,1.56c0.861,0,1.56-0.699,1.56-1.56c0-0.478-0.221-0.9-0.56-1.187V3.783h1.837v2.513
			c-0.339,0.286-0.56,0.709-0.56,1.187c0,0.86,0.699,1.56,1.56,1.56s1.56-0.699,1.56-1.56c0-0.478-0.221-0.9-0.56-1.187V3.783h1.837
			v2.513c-0.339,0.286-0.56,0.709-0.56,1.187c0,0.86,0.699,1.56,1.56,1.56s1.561-0.699,1.561-1.56c0-0.478-0.222-0.9-0.561-1.187
			V3.783h1.837v2.513c-0.339,0.286-0.56,0.709-0.56,1.187c0,0.86,0.699,1.56,1.56,1.56c0.861,0,1.56-0.699,1.56-1.56
			c0-0.478-0.221-0.9-0.56-1.187V3.783h1.837v2.513c-0.339,0.286-0.56,0.709-0.56,1.187c0,0.86,0.698,1.56,1.56,1.56
			s1.561-0.699,1.561-1.56c0-0.478-0.221-0.9-0.561-1.187V3.783h0.682c1.277,0,2.317,1.04,2.317,2.318L30.279,28.648L30.279,28.648z
			"/>
		<path d="M16.724,24.491c0.328,0,0.621-0.052,0.883-0.155c0.26-0.104,0.484-0.244,0.672-0.427s0.334-0.392,0.438-0.628
			c0.103-0.236,0.154-0.481,0.154-0.736c0-0.593-0.186-1.096-0.556-1.51c-0.369-0.411-0.905-0.617-1.609-0.617
			c-0.29,0-0.557,0.055-0.8,0.163c-0.242,0.11-0.451,0.263-0.627,0.454c-0.176,0.195-0.313,0.419-0.409,0.674
			c-0.098,0.255-0.146,0.527-0.146,0.818c0,0.545,0.182,1.009,0.545,1.392C15.634,24.299,16.119,24.491,16.724,24.491z"/>
		<path d="M5.187,28.436h23V12.562h-23V28.436z M11.96,18.053c0.219-0.801,0.555-1.5,1.009-2.1c0.454-0.601,1.031-1.076,1.728-1.428
			c0.697-0.352,1.524-0.527,2.481-0.527c0.559,0,1.085,0.072,1.583,0.218c0.496,0.146,0.939,0.361,1.326,0.646
			c0.389,0.284,0.713,0.643,0.974,1.072c0.263,0.43,0.438,0.937,0.537,1.518h-2.892c-0.061-0.255-0.145-0.456-0.254-0.607
			c-0.108-0.152-0.236-0.276-0.383-0.374c-0.145-0.084-0.296-0.14-0.455-0.163c-0.156-0.024-0.303-0.037-0.437-0.037
			c-0.447,0-0.826,0.101-1.136,0.301c-0.309,0.2-0.563,0.458-0.764,0.772c-0.199,0.315-0.352,0.66-0.454,1.037
			c-0.104,0.375-0.161,0.744-0.174,1.107h0.037c0.314-0.52,0.736-0.875,1.265-1.063c0.526-0.188,1.093-0.28,1.699-0.28
			c0.582,0,1.125,0.107,1.628,0.326c0.504,0.219,0.938,0.52,1.301,0.901c0.362,0.381,0.65,0.823,0.862,1.325
			c0.213,0.504,0.318,1.047,0.318,1.629c0,0.752-0.134,1.418-0.4,2c-0.267,0.583-0.633,1.07-1.1,1.464
			c-0.468,0.396-1.007,0.694-1.618,0.899C18.029,26.896,17.378,27,16.688,27c-0.935,0-1.723-0.184-2.364-0.546
			c-0.644-0.364-1.164-0.847-1.564-1.444c-0.399-0.602-0.688-1.285-0.864-2.056s-0.264-1.562-0.264-2.374
			C11.632,19.695,11.743,18.854,11.96,18.053z"/>
	</g>
</g>
<g>
</g>
<g>
</g>
<g>
</g>
<g>
</g>
<g>
</g>
<g>
</g>
<g>
</g>
<g>
</g>
<g>
</g>
<g>
</g>
<g>
</g>
<g>
</g>
<g>
</g>
<g>
</g>
<g>
</g>
</svg>
