<?xml version="1.0" encoding="iso-8859-1"?>
<!-- Generator: Adobe Illustrator 16.0.0, SVG Export Plug-In . SVG Version: 6.00 Build 0)  -->
<!DOCTYPE svg PUBLIC "-//W3C//DTD SVG 1.1//EN" "http://www.w3.org/Graphics/SVG/1.1/DTD/svg11.dtd">
<svg version="1.1" id="Capa_1" xmlns="http://www.w3.org/2000/svg" xmlns:xlink="http://www.w3.org/1999/xlink" x="0px" y="0px"
	 width="24.5px" height="24.5px" viewBox="0 0 24.5 24.5" style="enable-background:new 0 0 24.5 24.5;" xml:space="preserve">
<g>
	<path d="M13.32,13.111c-0.1-0.2-0.236-0.356-0.41-0.471c-0.174-0.113-0.393-0.171-0.66-0.171s-0.486,0.058-0.66,0.171
		c-0.173,0.113-0.31,0.271-0.41,0.471c-0.1,0.199-0.17,0.434-0.209,0.699c-0.041,0.268-0.061,0.561-0.061,0.881
		c0,0.318,0.02,0.615,0.061,0.89c0.039,0.272,0.109,0.51,0.209,0.71c0.101,0.2,0.237,0.359,0.41,0.48
		c0.174,0.119,0.394,0.18,0.66,0.18c0.268,0,0.486-0.061,0.66-0.18c0.174-0.121,0.311-0.28,0.41-0.48
		c0.099-0.2,0.17-0.438,0.209-0.71c0.041-0.272,0.061-0.57,0.061-0.89c0-0.32-0.02-0.613-0.061-0.881
		C13.49,13.545,13.42,13.311,13.32,13.111z"/>
	<path d="M12.25,10.351c0.387,0,0.68-0.13,0.881-0.39c0.199-0.26,0.299-0.736,0.299-1.43c0-0.493-0.082-0.913-0.25-1.26
		c-0.166-0.347-0.477-0.521-0.93-0.521s-0.764,0.174-0.93,0.521c-0.167,0.347-0.25,0.767-0.25,1.26c0,0.693,0.1,1.17,0.3,1.43
		C11.57,10.221,11.863,10.351,12.25,10.351z"/>
	<path d="M19.834,23.709c0-2.206,1.794-4,4-4H24.5V0.125H0v24.25h19.834V23.709z M16.76,16.352
		c-0.127,0.533-0.363,1.004-0.709,1.409c-0.348,0.407-0.826,0.729-1.439,0.96c-0.613,0.233-1.399,0.352-2.36,0.352
		c-0.959,0-1.746-0.11-2.359-0.33c-0.613-0.221-1.094-0.526-1.44-0.92c-0.346-0.395-0.583-0.86-0.71-1.4s-0.189-1.13-0.189-1.77
		c0-0.4,0.043-0.787,0.129-1.16c0.088-0.373,0.224-0.71,0.41-1.01c0.188-0.301,0.428-0.555,0.721-0.761
		c0.293-0.206,0.652-0.343,1.08-0.41v-0.039c-0.6-0.16-1.074-0.487-1.42-0.98c-0.348-0.493-0.521-1.16-0.521-2
		c0-0.533,0.077-1.023,0.229-1.47c0.154-0.447,0.4-0.833,0.74-1.16c0.34-0.327,0.783-0.58,1.33-0.76
		c0.547-0.181,1.213-0.271,2-0.271s1.453,0.087,2,0.26c0.547,0.174,0.99,0.42,1.33,0.74c0.34,0.32,0.587,0.703,0.739,1.15
		c0.154,0.446,0.23,0.95,0.23,1.51c0,0.8-0.17,1.46-0.51,1.98c-0.341,0.52-0.838,0.853-1.49,1v0.039c0.76,0.12,1.35,0.468,1.77,1.04
		c0.421,0.574,0.631,1.342,0.631,2.301C16.95,15.251,16.887,15.818,16.76,16.352z"/>
</g>
<g>
</g>
<g>
</g>
<g>
</g>
<g>
</g>
<g>
</g>
<g>
</g>
<g>
</g>
<g>
</g>
<g>
</g>
<g>
</g>
<g>
</g>
<g>
</g>
<g>
</g>
<g>
</g>
<g>
</g>
</svg>
