<?xml version="1.0" encoding="iso-8859-1"?>
<!-- Generator: Adobe Illustrator 16.0.0, SVG Export Plug-In . SVG Version: 6.00 Build 0)  -->
<!DOCTYPE svg PUBLIC "-//W3C//DTD SVG 1.1//EN" "http://www.w3.org/Graphics/SVG/1.1/DTD/svg11.dtd">
<svg version="1.1" id="Capa_1" xmlns="http://www.w3.org/2000/svg" xmlns:xlink="http://www.w3.org/1999/xlink" x="0px" y="0px"
	 width="36.447px" height="36.447px" viewBox="0 0 36.447 36.447" style="enable-background:new 0 0 36.447 36.447;"
	 xml:space="preserve">
<g>
	<g>
		<path d="M30.224,3.948h-1.098V2.75c0-1.517-1.197-2.75-2.67-2.75c-1.474,0-2.67,1.233-2.67,2.75v1.197h-2.74V2.75
			c0-1.517-1.197-2.75-2.67-2.75c-1.473,0-2.67,1.233-2.67,2.75v1.197h-2.74V2.75c0-1.517-1.197-2.75-2.67-2.75
			c-1.473,0-2.67,1.233-2.67,2.75v1.197H6.224c-2.343,0-4.25,1.907-4.25,4.25v24c0,2.343,1.907,4.25,4.25,4.25h24
			c2.344,0,4.25-1.907,4.25-4.25v-24C34.474,5.855,32.567,3.948,30.224,3.948z M25.286,2.75c0-0.689,0.525-1.25,1.17-1.25
			c0.646,0,1.17,0.561,1.17,1.25v4.896c0,0.689-0.524,1.25-1.17,1.25c-0.645,0-1.17-0.561-1.17-1.25V2.75z M17.206,2.75
			c0-0.689,0.525-1.25,1.17-1.25s1.17,0.561,1.17,1.25v4.896c0,0.689-0.525,1.25-1.17,1.25s-1.17-0.561-1.17-1.25V2.75z M9.125,2.75
			c0-0.689,0.525-1.25,1.17-1.25s1.17,0.561,1.17,1.25v4.896c0,0.689-0.525,1.25-1.17,1.25s-1.17-0.561-1.17-1.25V2.75z
			 M31.974,32.198c0,0.965-0.785,1.75-1.75,1.75h-24c-0.965,0-1.75-0.785-1.75-1.75v-22h27.5V32.198z"/>
		<rect x="25.128" y="14.626" width="4.596" height="4.089"/>
		<rect x="25.128" y="20.084" width="4.596" height="4.086"/>
		<rect x="6.724" y="25.54" width="4.595" height="4.086"/>
		<rect x="12.857" y="25.54" width="4.596" height="4.086"/>
		<rect x="18.995" y="25.54" width="4.595" height="4.086"/>
		<rect x="25.128" y="25.54" width="4.596" height="4.086"/>
		<path d="M10.099,23.955h2.704v-9.048H10.67c-0.018,0.373-0.106,0.687-0.267,0.942c-0.161,0.256-0.366,0.459-0.618,0.611
			c-0.251,0.151-0.533,0.26-0.845,0.324c-0.312,0.065-0.633,0.094-0.962,0.085v1.872h2.119L10.099,23.955L10.099,23.955z"/>
		<path d="M20.09,17.352c-0.083,0.095-0.195,0.235-0.339,0.422c-0.143,0.187-0.322,0.441-0.539,0.761
			c-0.442,0.633-0.789,1.27-1.04,1.911c-0.251,0.642-0.438,1.222-0.559,1.741c-0.122,0.521-0.195,0.945-0.221,1.273
			c-0.026,0.33-0.035,0.494-0.026,0.494h2.874c-0.01-0.537,0.025-1.105,0.104-1.703s0.219-1.197,0.422-1.801
			c0.204-0.602,0.482-1.197,0.839-1.787c0.354-0.589,0.81-1.14,1.365-1.651v-2.105h-6.981v2.21h4.329
			C20.247,17.178,20.172,17.256,20.09,17.352z"/>
	</g>
</g>
<g>
</g>
<g>
</g>
<g>
</g>
<g>
</g>
<g>
</g>
<g>
</g>
<g>
</g>
<g>
</g>
<g>
</g>
<g>
</g>
<g>
</g>
<g>
</g>
<g>
</g>
<g>
</g>
<g>
</g>
</svg>
