<?xml version="1.0" encoding="iso-8859-1"?>
<!-- Generator: Adobe Illustrator 16.0.0, SVG Export Plug-In . SVG Version: 6.00 Build 0)  -->
<!DOCTYPE svg PUBLIC "-//W3C//DTD SVG 1.1//EN" "http://www.w3.org/Graphics/SVG/1.1/DTD/svg11.dtd">
<svg version="1.1" id="Capa_1" xmlns="http://www.w3.org/2000/svg" xmlns:xlink="http://www.w3.org/1999/xlink" x="0px" y="0px"
	 width="31.5px" height="31.5px" viewBox="0 0 31.5 31.5" style="enable-background:new 0 0 31.5 31.5;" xml:space="preserve">
<g>
	<g>
		<path d="M28.75,0h-26C1.232,0,0,1.233,0,2.75v26c0,1.518,1.232,2.75,2.75,2.75h22.895l5.855-5.855V2.75
			C31.5,1.234,30.268,0,28.75,0z M24.583,2.042c0.817,0,1.479,0.662,1.479,1.479S25.4,5,24.583,5s-1.479-0.662-1.479-1.479
			S23.766,2.042,24.583,2.042z M20.166,2.042c0.816,0,1.479,0.662,1.479,1.479S20.982,5,20.166,5s-1.479-0.662-1.479-1.479
			S19.35,2.042,20.166,2.042z M15.75,2.042c0.816,0,1.479,0.662,1.479,1.479S16.567,5,15.75,5s-1.479-0.662-1.479-1.479
			S14.933,2.042,15.75,2.042z M11.334,2.042c0.816,0,1.479,0.662,1.479,1.479S12.151,5,11.334,5c-0.818,0-1.48-0.662-1.48-1.479
			S10.516,2.042,11.334,2.042z M6.917,2.042c0.817,0,1.479,0.662,1.479,1.479S7.734,5,6.917,5S5.438,4.338,5.438,3.521
			S6.1,2.042,6.917,2.042z M30,25.023l-0.311,0.311h-2.355c-1.102,0-2,0.9-2,2v2.355L25.023,30H2.75c-0.689,0-1.25-0.561-1.25-1.25
			v-22H30V25.023z"/>
		<polygon points="7.093,27.209 9.989,27.209 9.989,18.423 7.093,20.01 		"/>
		<polygon points="10.873,17.939 10.873,27.209 13.769,27.209 13.769,21.693 11.519,17.586 		"/>
		<polygon points="14.651,27.209 17.549,27.209 17.549,20.775 14.651,23.305 		"/>
		<polygon points="18.432,27.209 21.328,27.209 21.328,17.477 18.432,20.005 		"/>
		<polygon points="22.209,16.705 22.209,27.209 25.105,27.209 25.105,17.822 23.16,15.875 		"/>
		<polygon points="11.993,15.908 15.084,21.333 23.213,14.171 24.588,15.546 26.02,9.344 19.816,10.775 21.1,12.058 15.86,16.673 
			13.132,11.882 5.48,16.075 6.914,18.689 		"/>
	</g>
</g>
<g>
</g>
<g>
</g>
<g>
</g>
<g>
</g>
<g>
</g>
<g>
</g>
<g>
</g>
<g>
</g>
<g>
</g>
<g>
</g>
<g>
</g>
<g>
</g>
<g>
</g>
<g>
</g>
<g>
</g>
</svg>
