<?xml version="1.0" encoding="iso-8859-1"?>
<!-- Generator: Adobe Illustrator 16.0.0, SVG Export Plug-In . SVG Version: 6.00 Build 0)  -->
<!DOCTYPE svg PUBLIC "-//W3C//DTD SVG 1.1//EN" "http://www.w3.org/Graphics/SVG/1.1/DTD/svg11.dtd">
<svg version="1.1" id="Capa_1" xmlns="http://www.w3.org/2000/svg" xmlns:xlink="http://www.w3.org/1999/xlink" x="0px" y="0px"
	 width="32.629px" height="32.63px" viewBox="0 0 32.629 32.63" style="enable-background:new 0 0 32.629 32.63;"
	 xml:space="preserve">
<g>
	<g>
		<path d="M22.594,12.546c-0.094-0.387-0.228-0.656-0.399-0.81s-0.399-0.23-0.68-0.23c-0.281,0-0.507,0.077-0.681,0.23
			s-0.308,0.423-0.399,0.81c-0.095,0.387-0.153,0.91-0.181,1.57c-0.026,0.66-0.039,1.496-0.039,2.51c0,1,0.013,1.827,0.039,2.479
			c0.026,0.653,0.086,1.174,0.181,1.561c0.093,0.387,0.228,0.656,0.399,0.811c0.174,0.152,0.399,0.229,0.681,0.229
			c0.28,0,0.507-0.077,0.68-0.229s0.308-0.424,0.399-0.811c0.094-0.387,0.154-0.906,0.181-1.561c0.026-0.652,0.04-1.479,0.04-2.479
			c0-1.014-0.014-1.85-0.04-2.51C22.749,13.456,22.688,12.933,22.594,12.546z"/>
		<path d="M23.899,28.464c0-2.206,1.794-4,4-4h0.666V4.88h-24.5v24.25h19.834V28.464z M13.215,23.546h-3.36v-9.82h-2.72v-2.12h0.42
			c0.64,0,1.163-0.072,1.57-0.22c0.406-0.146,0.729-0.33,0.97-0.55c0.239-0.22,0.417-0.46,0.53-0.72
			c0.113-0.261,0.189-0.504,0.229-0.73h2.36L13.215,23.546L13.215,23.546z M18.995,23.336c-0.613-0.326-1.08-0.797-1.4-1.41
			c-0.318-0.613-0.522-1.365-0.608-2.26c-0.087-0.895-0.13-1.913-0.13-3.061c0-1.013,0.046-1.96,0.141-2.84
			c0.094-0.88,0.301-1.643,0.619-2.29c0.32-0.646,0.786-1.156,1.4-1.529c0.611-0.373,1.445-0.561,2.5-0.561
			c1.053,0,1.89,0.164,2.51,0.49c0.62,0.327,1.09,0.797,1.41,1.41c0.318,0.613,0.521,1.37,0.609,2.27
			c0.086,0.9,0.129,1.917,0.129,3.05c0,1.014-0.047,1.959-0.139,2.84c-0.094,0.881-0.301,1.644-0.621,2.291
			c-0.32,0.646-0.787,1.156-1.398,1.528c-0.614,0.373-1.447,0.562-2.5,0.562C20.448,23.826,19.608,23.662,18.995,23.336z"/>
		<path d="M30.565,26.152l-0.311,0.312h-2.355c-1.102,0-2,0.899-2,2v2.356l-0.311,0.31H3.315c-0.689,0-1.25-0.562-1.25-1.25v-25
			h-1.5v25c0,1.519,1.232,2.75,2.75,2.75h22.895l5.855-5.854V4.88h-1.5V26.152z"/>
		<circle cx="2.133" cy="1.568" r="1.568"/>
		<circle cx="9.223" cy="1.568" r="1.568"/>
		<circle cx="16.315" cy="1.568" r="1.568"/>
		<circle cx="23.407" cy="1.568" r="1.568"/>
		<circle cx="30.497" cy="1.568" r="1.568"/>
	</g>
</g>
<g>
</g>
<g>
</g>
<g>
</g>
<g>
</g>
<g>
</g>
<g>
</g>
<g>
</g>
<g>
</g>
<g>
</g>
<g>
</g>
<g>
</g>
<g>
</g>
<g>
</g>
<g>
</g>
<g>
</g>
</svg>
