<?xml version="1.0" encoding="iso-8859-1"?>
<!-- Generator: Adobe Illustrator 16.0.0, SVG Export Plug-In . SVG Version: 6.00 Build 0)  -->
<!DOCTYPE svg PUBLIC "-//W3C//DTD SVG 1.1//EN" "http://www.w3.org/Graphics/SVG/1.1/DTD/svg11.dtd">
<svg version="1.1" id="Capa_1" xmlns="http://www.w3.org/2000/svg" xmlns:xlink="http://www.w3.org/1999/xlink" x="0px" y="0px"
	 width="36.447px" height="36.447px" viewBox="0 0 36.447 36.447" style="enable-background:new 0 0 36.447 36.447;"
	 xml:space="preserve">
<g>
	<g>
		<path d="M30.224,3.948h-1.098V2.75c0-1.516-1.197-2.75-2.67-2.75c-1.474,0-2.67,1.234-2.67,2.75v1.197h-2.74V2.75
			c0-1.516-1.197-2.75-2.67-2.75c-1.473,0-2.67,1.234-2.67,2.75v1.197h-2.74V2.75c0-1.516-1.197-2.75-2.67-2.75
			c-1.473,0-2.67,1.234-2.67,2.75v1.197H6.224c-2.343,0-4.25,1.907-4.25,4.25v24c0,2.343,1.907,4.25,4.25,4.25h24
			c2.344,0,4.25-1.907,4.25-4.25v-24C34.474,5.854,32.567,3.948,30.224,3.948z M25.286,2.75c0-0.689,0.525-1.25,1.17-1.25
			c0.646,0,1.17,0.561,1.17,1.25v4.895c0,0.689-0.524,1.25-1.17,1.25c-0.645,0-1.17-0.561-1.17-1.25V2.75z M17.206,2.75
			c0-0.689,0.525-1.25,1.17-1.25s1.17,0.561,1.17,1.25v4.895c0,0.689-0.525,1.25-1.17,1.25s-1.17-0.561-1.17-1.25V2.75z M9.125,2.75
			c0-0.689,0.525-1.25,1.17-1.25s1.17,0.561,1.17,1.25v4.895c0,0.689-0.525,1.25-1.17,1.25s-1.17-0.561-1.17-1.25V2.75z
			 M31.974,32.198c0,0.965-0.785,1.75-1.75,1.75h-24c-0.965,0-1.75-0.785-1.75-1.75v-22h27.5V32.198z"/>
		<path d="M11.707,21.943l0.813,6.91c0,1.262,1.92,1.902,5.706,1.902s5.704-0.641,5.701-1.83l0.816-6.982
			c1.478-0.553,2.476-1.961,2.476-3.566c0-2.106-1.713-3.82-3.82-3.82c-0.711,0-1.396,0.197-1.991,0.563
			c-0.695-1.063-1.873-1.717-3.182-1.717c-1.309,0-2.487,0.653-3.182,1.717c-0.597-0.367-1.282-0.563-1.991-0.563
			c-2.107,0-3.822,1.714-3.822,3.82C9.229,19.98,10.229,21.391,11.707,21.943z M13.052,15.824c0.657,0,1.285,0.255,1.765,0.718
			l0.688,0.661l0.343-0.891c0.383-0.997,1.317-1.641,2.376-1.641c1.059,0,1.993,0.644,2.375,1.641l0.343,0.892l0.688-0.662
			c0.48-0.463,1.107-0.718,1.766-0.718c1.408,0,2.553,1.146,2.553,2.553c0,1.172-0.799,2.188-1.942,2.469l-0.425,0.106l-0.904,7.829
			c-0.005,0.007-0.573,0.706-4.454,0.706s-4.451-0.699-4.441-0.707l-0.918-7.827l-0.425-0.105c-1.144-0.283-1.944-1.299-1.944-2.47
			C10.497,16.969,11.642,15.824,13.052,15.824z"/>
	</g>
</g>
<g>
</g>
<g>
</g>
<g>
</g>
<g>
</g>
<g>
</g>
<g>
</g>
<g>
</g>
<g>
</g>
<g>
</g>
<g>
</g>
<g>
</g>
<g>
</g>
<g>
</g>
<g>
</g>
<g>
</g>
</svg>
