<?xml version="1.0" encoding="iso-8859-1"?>
<!-- Generator: Adobe Illustrator 16.0.0, SVG Export Plug-In . SVG Version: 6.00 Build 0)  -->
<!DOCTYPE svg PUBLIC "-//W3C//DTD SVG 1.1//EN" "http://www.w3.org/Graphics/SVG/1.1/DTD/svg11.dtd">
<svg version="1.1" id="Capa_1" xmlns="http://www.w3.org/2000/svg" xmlns:xlink="http://www.w3.org/1999/xlink" x="0px" y="0px"
	 width="31.5px" height="31.5px" viewBox="0 0 31.5 31.5" style="enable-background:new 0 0 31.5 31.5;" xml:space="preserve">
<g>
	<g>
		<path d="M28.75,0h-26C1.232,0,0,1.234,0,2.75v26c0,1.518,1.232,2.75,2.75,2.75h22.895l5.855-5.855V2.75
			C31.5,1.234,30.268,0,28.75,0z M24.583,2.042c0.817,0,1.479,0.662,1.479,1.479C26.062,4.337,25.4,5,24.583,5
			s-1.479-0.662-1.479-1.479S23.766,2.042,24.583,2.042z M20.166,2.042c0.816,0,1.479,0.662,1.479,1.479
			C21.645,4.337,20.982,5,20.166,5s-1.479-0.662-1.479-1.479S19.35,2.042,20.166,2.042z M15.75,2.042
			c0.816,0,1.479,0.662,1.479,1.479C17.229,4.337,16.567,5,15.75,5s-1.479-0.662-1.479-1.479S14.933,2.042,15.75,2.042z
			 M11.334,2.042c0.816,0,1.479,0.662,1.479,1.479C12.813,4.337,12.151,5,11.334,5c-0.818,0-1.48-0.662-1.48-1.479
			S10.516,2.042,11.334,2.042z M6.917,2.042c0.817,0,1.479,0.662,1.479,1.479C8.396,4.337,7.734,5,6.917,5S5.438,4.338,5.438,3.521
			S6.1,2.042,6.917,2.042z M30,25.023l-0.311,0.311h-2.355c-0.691,0-1.305,0.357-1.664,0.896v-3.145H5.829v4.579h19.505v2.024
			L25.023,30H2.75c-0.689,0-1.25-0.561-1.25-1.25v-22H30V25.023z M23.825,26.835l-0.948-0.499l-0.947,0.499l0.18-1.058l-0.768-0.746
			l1.061-0.156l0.475-0.959l0.477,0.959l1.061,0.156l-0.768,0.746L23.825,26.835z M20.271,26.835l-0.948-0.499l-0.949,0.499
			l0.181-1.058l-0.767-0.746l1.06-0.156l0.475-0.959l0.475,0.959l1.061,0.156l-0.768,0.746L20.271,26.835z M16.718,26.835
			l-0.949-0.499l-0.949,0.499l0.181-1.058l-0.768-0.746l1.061-0.156l0.474-0.959l0.474,0.959l1.061,0.156l-0.767,0.746
			L16.718,26.835z M13.163,26.835l-0.948-0.499l-0.949,0.499l0.181-1.058l-0.768-0.746l1.061-0.156l0.474-0.959l0.475,0.959
			l1.06,0.156l-0.768,0.746L13.163,26.835z M9.57,26.835l-0.949-0.499l-0.948,0.499l0.181-1.058l-0.768-0.746l1.061-0.156
			l0.474-0.959l0.475,0.959l1.061,0.156l-0.768,0.746L9.57,26.835z"/>
		<path d="M11.723,16.052c0.101-0.04,0.204-0.13,0.259-0.224c0.347-0.588,0.867-0.652,1.475-0.545
			c0.306,0.057,0.628,0.09,0.933,0.052c0.479-0.06,0.76,0.151,0.665,0.636c-0.059,0.303-4.372,2.574-4.382,6.353h9.879
			c0,0-0.821-1.108-1.015-1.625c-0.284-0.751-0.16-1.499,0.475-2.015c0.84-0.688,1.336-1.5,1.158-2.627
			c1.348-2.896-0.455-5.133-1.756-5.618c-1.086-1.521-4.517-1.927-6.119-0.407l0.69,0.805c-0.725,0.353-1.158,1.006-1.734,1.509
			c-0.581,0.507-1.23,0.936-1.844,1.404c-0.542,0.415-0.705,1.134-0.392,1.686C10.222,15.805,11.316,16.207,11.723,16.052z"/>
	</g>
</g>
<g>
</g>
<g>
</g>
<g>
</g>
<g>
</g>
<g>
</g>
<g>
</g>
<g>
</g>
<g>
</g>
<g>
</g>
<g>
</g>
<g>
</g>
<g>
</g>
<g>
</g>
<g>
</g>
<g>
</g>
</svg>
