<?xml version="1.0" encoding="iso-8859-1"?>
<!-- Generator: Adobe Illustrator 16.0.0, SVG Export Plug-In . SVG Version: 6.00 Build 0)  -->
<!DOCTYPE svg PUBLIC "-//W3C//DTD SVG 1.1//EN" "http://www.w3.org/Graphics/SVG/1.1/DTD/svg11.dtd">
<svg version="1.1" id="Capa_1" xmlns="http://www.w3.org/2000/svg" xmlns:xlink="http://www.w3.org/1999/xlink" x="0px" y="0px"
	 width="32.75px" height="32.75px" viewBox="0 0 32.75 32.75" style="enable-background:new 0 0 32.75 32.75;" xml:space="preserve"
	>
<g>
	<g>
		<path d="M29.375,1.25h-1.123c0.029-0.092,0.059-0.186,0.059-0.288c0-0.53-0.432-0.962-0.963-0.962s-0.961,0.432-0.961,0.962
			c0,0.103,0.028,0.196,0.059,0.288h-3.68c0.029-0.092,0.059-0.186,0.059-0.288c0-0.53-0.432-0.962-0.963-0.962
			C21.332,0,20.9,0.432,20.9,0.962c0,0.103,0.029,0.196,0.06,0.288h-3.681c0.029-0.092,0.058-0.186,0.058-0.288
			c0-0.53-0.43-0.962-0.961-0.962c-0.531,0-0.961,0.432-0.961,0.962c0,0.103,0.028,0.196,0.058,0.288h-3.681
			c0.029-0.092,0.059-0.186,0.059-0.288C11.851,0.432,11.42,0,10.89,0c-0.531,0-0.962,0.432-0.962,0.962
			c0,0.103,0.028,0.196,0.058,0.288h-3.68c0.03-0.092,0.059-0.186,0.059-0.288C6.365,0.432,5.935,0,5.404,0
			C4.873,0,4.442,0.432,4.442,0.962c0,0.103,0.028,0.196,0.058,0.288H3.375c-1.518,0-2.75,1.234-2.75,2.75v26
			c0,1.518,1.232,2.75,2.75,2.75H26.27l5.855-5.855V4C32.125,2.484,30.893,1.25,29.375,1.25z M30.625,26.273l-0.311,0.311h-2.355
			c-1.102,0-2,0.9-2,2v2.355l-0.311,0.311H3.375c-0.689,0-1.25-0.561-1.25-1.25V5h28.5V26.273z"/>
		<path d="M10.334,29.141l-0.159-0.594l1.3-0.349l0.159,0.593l14.228-3.812l-0.158-0.593l1.3-0.349l0.159,0.592l0.886-0.236
			L23.302,6.68l-0.886,0.237l0.159,0.593l-1.3,0.348l-0.159-0.593L6.888,11.078l0.159,0.592l-1.3,0.348l-0.159-0.592l-0.886,0.237
			l4.746,17.714L10.334,29.141z M12.932,28.206l-0.831-3.101l11.514-3.086l0.83,3.102L12.932,28.206z M26.497,22.146l-1.3,0.349
			L24.92,21.46l1.301-0.349L26.497,22.146z M25.712,19.219l-1.299,0.35l-0.278-1.035l1.301-0.35L25.712,19.219z M24.928,16.291
			l-1.3,0.349l-0.276-1.032l1.301-0.349L24.928,16.291z M24.143,13.363l-1.3,0.348l-0.278-1.035l1.301-0.348L24.143,13.363z
			 M23.082,9.401l0.277,1.035l-1.301,0.349L21.782,9.75L23.082,9.401z M23.2,20.471l-11.514,3.086L9.55,15.586L21.064,12.5
			L23.2,20.471z M19.818,7.85l0.83,3.101L9.135,14.035l-0.83-3.1L19.818,7.85z M6.254,13.911l1.3-0.349l0.277,1.035l-1.3,0.349
			L6.254,13.911z M7.038,16.837l1.299-0.348l0.278,1.034l-1.3,0.349L7.038,16.837z M7.823,19.768l1.3-0.349l0.276,1.032l-1.3,0.349
			L7.823,19.768z M8.607,22.693l1.3-0.35l0.278,1.035l-1.3,0.35L8.607,22.693z M10.691,25.271l0.277,1.037l-1.3,0.348l-0.277-1.035
			L10.691,25.271z"/>
	</g>
</g>
<g>
</g>
<g>
</g>
<g>
</g>
<g>
</g>
<g>
</g>
<g>
</g>
<g>
</g>
<g>
</g>
<g>
</g>
<g>
</g>
<g>
</g>
<g>
</g>
<g>
</g>
<g>
</g>
<g>
</g>
</svg>
