<?xml version="1.0" encoding="iso-8859-1"?>
<!-- Generator: Adobe Illustrator 16.0.0, SVG Export Plug-In . SVG Version: 6.00 Build 0)  -->
<!DOCTYPE svg PUBLIC "-//W3C//DTD SVG 1.1//EN" "http://www.w3.org/Graphics/SVG/1.1/DTD/svg11.dtd">
<svg version="1.1" id="Capa_1" xmlns="http://www.w3.org/2000/svg" xmlns:xlink="http://www.w3.org/1999/xlink" x="0px" y="0px"
	 width="32px" height="32px" viewBox="0 0 32 32" style="enable-background:new 0 0 32 32;" xml:space="preserve">
<g>
	<path d="M16,0C7.162,0,0,7.163,0,16c0,8.838,7.162,16,16,16c8.837,0,16-7.162,16-16C32,7.163,24.837,0,16,0z M16,1
		c0.738,0,1.337,0.599,1.337,1.338c0,0.738-0.599,1.337-1.337,1.337c-0.739,0-1.338-0.599-1.338-1.337C14.662,1.599,15.261,1,16,1z
		 M11.831,21.075H7.844v-3.987h3.987V21.075z M17.993,21.075h-3.987v-3.987h3.987V21.075z M17.994,14.912h-3.987v-3.987h3.987
		V14.912z M24.154,21.075h-3.986v-3.987h3.986V21.075z M24.156,14.912h-3.987v-3.987h3.987V14.912z"/>
</g>
<g>
</g>
<g>
</g>
<g>
</g>
<g>
</g>
<g>
</g>
<g>
</g>
<g>
</g>
<g>
</g>
<g>
</g>
<g>
</g>
<g>
</g>
<g>
</g>
<g>
</g>
<g>
</g>
<g>
</g>
</svg>
