<?xml version="1.0" encoding="iso-8859-1"?>
<!-- Generator: Adobe Illustrator 16.0.0, SVG Export Plug-In . SVG Version: 6.00 Build 0)  -->
<!DOCTYPE svg PUBLIC "-//W3C//DTD SVG 1.1//EN" "http://www.w3.org/Graphics/SVG/1.1/DTD/svg11.dtd">
<svg version="1.1" id="Capa_1" xmlns="http://www.w3.org/2000/svg" xmlns:xlink="http://www.w3.org/1999/xlink" x="0px" y="0px"
	 width="36.447px" height="36.447px" viewBox="0 0 36.447 36.447" style="enable-background:new 0 0 36.447 36.447;"
	 xml:space="preserve">
<g>
	<g>
		<path d="M30.224,3.948h-1.098V2.75c0-1.516-1.197-2.75-2.67-2.75c-1.474,0-2.67,1.234-2.67,2.75v1.197h-2.74V2.75
			c0-1.516-1.197-2.75-2.67-2.75c-1.473,0-2.67,1.234-2.67,2.75v1.197h-2.74V2.75c0-1.516-1.197-2.75-2.67-2.75
			c-1.473,0-2.67,1.234-2.67,2.75v1.197H6.224c-2.343,0-4.25,1.907-4.25,4.25v24c0,2.343,1.907,4.25,4.25,4.25h24
			c2.344,0,4.25-1.907,4.25-4.25v-24C34.474,5.854,32.567,3.948,30.224,3.948z M25.286,2.75c0-0.689,0.524-1.25,1.17-1.25
			c0.645,0,1.17,0.561,1.17,1.25v4.895c0,0.689-0.525,1.25-1.17,1.25c-0.646,0-1.17-0.561-1.17-1.25V2.75z M17.206,2.75
			c0-0.689,0.525-1.25,1.17-1.25s1.17,0.561,1.17,1.25v4.895c0,0.689-0.525,1.25-1.17,1.25s-1.17-0.561-1.17-1.25V2.75z M9.125,2.75
			c0-0.689,0.525-1.25,1.17-1.25s1.17,0.561,1.17,1.25v4.895c0,0.689-0.525,1.25-1.17,1.25s-1.17-0.561-1.17-1.25V2.75z
			 M31.974,32.198c0,0.965-0.785,1.75-1.75,1.75h-24c-0.965,0-1.75-0.785-1.75-1.75v-22h27.5V32.198z"/>
		<polygon points="9.209,19.416 13.259,19.416 13.259,28.926 16.819,28.926 16.819,16.334 18.537,14.198 20.378,14.198 
			20.378,28.926 23.938,28.926 23.938,22.062 25.487,20.514 27.036,22.062 27.036,28.926 30.596,28.926 30.596,28.219 
			27.743,28.219 27.743,21.77 25.487,19.514 23.231,21.77 23.231,28.219 21.085,28.219 21.085,13.491 18.198,13.491 16.112,16.084 
			16.112,28.219 13.966,28.219 13.966,18.709 8.503,18.709 8.503,28.219 6.602,28.219 6.602,28.926 9.209,28.926 		"/>
		<rect x="9.833" y="20.104" width="1.053" height="0.846"/>
		<rect x="11.608" y="20.104" width="1.054" height="0.846"/>
		<rect x="9.833" y="21.529" width="1.053" height="0.845"/>
		<rect x="11.608" y="21.529" width="1.054" height="0.845"/>
		<rect x="9.833" y="22.954" width="1.053" height="0.845"/>
		<rect x="11.608" y="22.954" width="1.054" height="0.847"/>
		<rect x="9.833" y="24.378" width="1.053" height="0.847"/>
		<rect x="11.608" y="24.378" width="1.054" height="0.847"/>
		<rect x="9.833" y="25.805" width="1.053" height="0.844"/>
		<rect x="11.608" y="25.805" width="1.054" height="0.844"/>
		<rect x="9.833" y="27.229" width="1.053" height="0.846"/>
		<rect x="11.608" y="27.229" width="1.054" height="0.846"/>
		<rect x="24.345" y="22.663" width="0.845" height="0.845"/>
		<rect x="25.77" y="22.663" width="0.845" height="0.847"/>
		<rect x="24.345" y="24.09" width="0.845" height="0.844"/>
		<rect x="25.77" y="24.09" width="0.845" height="0.844"/>
		<rect x="24.345" y="25.514" width="0.845" height="0.846"/>
		<rect x="18.889" y="14.984" width="0.845" height="1.232"/>
		<rect x="18.889" y="17.059" width="0.845" height="1.232"/>
		<rect x="17.464" y="19.137" width="0.845" height="1.23"/>
		<rect x="18.889" y="19.137" width="0.845" height="1.231"/>
		<rect x="17.464" y="21.211" width="0.845" height="1.232"/>
		<rect x="18.889" y="21.212" width="0.845" height="1.231"/>
		<rect x="17.464" y="23.287" width="0.845" height="1.23"/>
		<rect x="18.889" y="23.287" width="0.845" height="1.23"/>
		<rect x="17.464" y="25.363" width="0.845" height="1.23"/>
		<rect x="18.889" y="25.363" width="0.845" height="1.23"/>
	</g>
</g>
<g>
</g>
<g>
</g>
<g>
</g>
<g>
</g>
<g>
</g>
<g>
</g>
<g>
</g>
<g>
</g>
<g>
</g>
<g>
</g>
<g>
</g>
<g>
</g>
<g>
</g>
<g>
</g>
<g>
</g>
</svg>
