<?xml version="1.0" encoding="iso-8859-1"?>
<!-- Generator: Adobe Illustrator 16.0.0, SVG Export Plug-In . SVG Version: 6.00 Build 0)  -->
<!DOCTYPE svg PUBLIC "-//W3C//DTD SVG 1.1//EN" "http://www.w3.org/Graphics/SVG/1.1/DTD/svg11.dtd">
<svg version="1.1" id="Capa_1" xmlns="http://www.w3.org/2000/svg" xmlns:xlink="http://www.w3.org/1999/xlink" x="0px" y="0px"
	 width="37.884px" height="37.885px" viewBox="0 0 37.884 37.885" style="enable-background:new 0 0 37.884 37.885;"
	 xml:space="preserve">
<g>
	<g>
		<path d="M31.212,8.157h-3.346L19.832,1.32c0.045-0.111,0.072-0.233,0.072-0.36c0-0.529-0.431-0.96-0.96-0.96
			c-0.531,0-0.961,0.431-0.961,0.96c0,0.127,0.027,0.249,0.072,0.36l-8.034,6.837H6.674c-1.432,0-2.595,1.164-2.595,2.595V35.29
			c0,1.433,1.163,2.595,2.595,2.595h21.606l5.524-5.525V10.752C33.806,9.321,32.642,8.157,31.212,8.157z M28.675,11.48
			c0,0.771-0.626,1.396-1.396,1.396s-1.396-0.625-1.396-1.396s0.625-1.396,1.396-1.396S28.675,10.71,28.675,11.48z M18.458,1.767
			c0.144,0.088,0.304,0.154,0.486,0.154s0.341-0.065,0.488-0.153l7.508,6.39H10.947L18.458,1.767z M24.507,11.48
			c0,0.771-0.625,1.396-1.398,1.396c-0.77,0-1.394-0.625-1.394-1.396s0.624-1.396,1.394-1.396
			C23.882,10.084,24.507,10.71,24.507,11.48z M20.339,11.48c0,0.771-0.626,1.396-1.396,1.396c-0.771,0-1.396-0.625-1.396-1.396
			s0.626-1.396,1.396-1.396S20.339,10.71,20.339,11.48z M16.17,11.48c0,0.771-0.623,1.396-1.393,1.396
			c-0.774,0-1.399-0.625-1.399-1.396s0.625-1.396,1.399-1.396C15.547,10.084,16.17,10.71,16.17,11.48z M10.607,10.084
			c0.771,0,1.396,0.626,1.396,1.396s-0.625,1.396-1.396,1.396s-1.396-0.625-1.396-1.396S9.837,10.084,10.607,10.084z M32.392,31.773
			l-0.294,0.291h-2.224c-1.038,0-1.887,0.852-1.887,1.889v2.224l-0.293,0.293H6.674c-0.651,0-1.18-0.528-1.18-1.18V14.527H32.39
			v17.247H32.392z"/>
		<path d="M7.772,27.255c0.127,0.245,0.311,0.437,0.551,0.574c0.24,0.137,0.563,0.206,0.967,0.206c0.355,0,0.644-0.059,0.866-0.172
			c0.223-0.115,0.395-0.271,0.518-0.469c0.123-0.199,0.206-0.427,0.251-0.688c0.045-0.26,0.067-0.535,0.067-0.825h-1.08
			c0,0.29-0.018,0.524-0.053,0.701s-0.083,0.315-0.142,0.413c-0.06,0.097-0.131,0.162-0.214,0.195S9.333,27.24,9.237,27.24
			c-0.115,0-0.216-0.024-0.304-0.071c-0.087-0.047-0.16-0.14-0.217-0.276c-0.058-0.139-0.1-0.332-0.127-0.582
			s-0.042-0.578-0.042-0.982c0-0.381,0.01-0.701,0.03-0.965c0.02-0.262,0.055-0.475,0.105-0.637c0.05-0.162,0.119-0.279,0.206-0.353
			c0.087-0.073,0.199-0.108,0.334-0.108c0.245,0,0.414,0.088,0.506,0.266c0.092,0.178,0.139,0.461,0.139,0.852h1.08
			c0-0.195-0.014-0.404-0.042-0.626c-0.027-0.222-0.096-0.431-0.206-0.623c-0.11-0.192-0.276-0.351-0.499-0.476
			C9.979,22.533,9.674,22.47,9.29,22.47c-0.405,0-0.728,0.069-0.967,0.206c-0.24,0.139-0.424,0.329-0.551,0.574
			c-0.127,0.244-0.21,0.539-0.248,0.881c-0.038,0.344-0.056,0.716-0.056,1.121c0,0.404,0.019,0.779,0.056,1.122
			S7.646,27.009,7.772,27.255z"/>
		<polygon points="14.602,27.045 12.688,27.045 12.688,22.574 11.608,22.574 11.608,27.929 14.602,27.929 		"/>
		<path d="M15.272,27.255c0.127,0.245,0.311,0.437,0.551,0.574c0.24,0.137,0.563,0.206,0.967,0.206c0.405,0,0.728-0.069,0.968-0.206
			c0.24-0.138,0.423-0.329,0.551-0.574c0.128-0.245,0.21-0.539,0.248-0.881c0.038-0.343,0.057-0.716,0.057-1.122
			c0-0.404-0.019-0.777-0.057-1.121c-0.037-0.342-0.12-0.637-0.248-0.881c-0.127-0.245-0.311-0.436-0.551-0.574
			c-0.24-0.137-0.563-0.206-0.968-0.206c-0.405,0-0.728,0.069-0.967,0.206c-0.24,0.139-0.424,0.329-0.551,0.574
			c-0.127,0.244-0.21,0.539-0.248,0.881c-0.038,0.344-0.056,0.717-0.056,1.121s0.019,0.779,0.056,1.122S15.146,27.009,15.272,27.255
			z M16.074,24.337c0.018-0.25,0.053-0.455,0.105-0.614c0.053-0.16,0.127-0.277,0.225-0.35c0.098-0.073,0.226-0.109,0.386-0.109
			c0.16,0,0.289,0.036,0.386,0.109c0.098,0.072,0.172,0.188,0.225,0.35c0.052,0.159,0.087,0.364,0.105,0.614
			s0.026,0.556,0.026,0.915s-0.009,0.667-0.026,0.919s-0.053,0.458-0.105,0.614c-0.053,0.158-0.127,0.273-0.225,0.346
			c-0.098,0.073-0.226,0.109-0.386,0.109c-0.16,0-0.289-0.036-0.386-0.109c-0.098-0.072-0.172-0.188-0.225-0.346
			c-0.052-0.157-0.087-0.362-0.105-0.614s-0.026-0.56-0.026-0.919S16.057,24.587,16.074,24.337z"/>
		<path d="M20.744,28.033c0.584,0,1.041-0.131,1.369-0.396c0.326-0.265,0.49-0.68,0.49-1.244c0-0.166-0.015-0.316-0.045-0.451
			c-0.029-0.135-0.084-0.258-0.16-0.371c-0.078-0.112-0.184-0.217-0.315-0.315s-0.3-0.19-0.499-0.28l-0.833-0.361
			c-0.229-0.094-0.38-0.198-0.45-0.312c-0.07-0.112-0.105-0.251-0.105-0.416c0-0.079,0.01-0.157,0.026-0.231
			c0.019-0.075,0.05-0.142,0.099-0.199c0.047-0.059,0.11-0.104,0.19-0.139s0.181-0.054,0.3-0.054c0.211,0,0.36,0.069,0.45,0.206
			c0.091,0.139,0.136,0.334,0.136,0.59h1.034v-0.15c0-0.256-0.042-0.475-0.124-0.656s-0.197-0.333-0.345-0.45
			c-0.147-0.116-0.323-0.202-0.524-0.255c-0.203-0.053-0.424-0.079-0.664-0.079c-0.516,0-0.92,0.13-1.216,0.39
			c-0.295,0.26-0.442,0.655-0.442,1.186c0,0.22,0.027,0.414,0.082,0.581c0.056,0.167,0.143,0.315,0.26,0.442
			s0.264,0.238,0.439,0.334c0.174,0.094,0.381,0.183,0.623,0.262c0.18,0.06,0.33,0.119,0.453,0.176
			c0.123,0.059,0.221,0.122,0.297,0.191c0.074,0.07,0.127,0.148,0.16,0.236c0.033,0.086,0.049,0.19,0.049,0.311
			c0,0.225-0.065,0.392-0.199,0.498c-0.133,0.107-0.28,0.162-0.445,0.162c-0.145,0-0.264-0.021-0.354-0.061
			s-0.162-0.095-0.217-0.165c-0.055-0.069-0.093-0.155-0.113-0.259c-0.02-0.104-0.029-0.217-0.029-0.342v-0.156h-1.08v0.217
			c0,0.495,0.131,0.879,0.395,1.151C19.697,27.898,20.133,28.033,20.744,28.033z"/>
		<polygon points="26.211,27.045 24.223,27.045 24.223,25.604 26.023,25.604 26.023,24.719 24.223,24.719 24.223,23.459 
			26.136,23.459 26.136,22.574 23.144,22.574 23.144,27.929 26.211,27.929 		"/>
		<path d="M29.398,27.764c0.235-0.109,0.422-0.277,0.563-0.502s0.239-0.51,0.296-0.855c0.057-0.344,0.086-0.754,0.086-1.229
			c0-0.396-0.021-0.752-0.066-1.073c-0.045-0.32-0.131-0.593-0.26-0.82c-0.127-0.227-0.306-0.402-0.535-0.525
			c-0.23-0.123-0.533-0.184-0.908-0.184h-1.771v5.354h1.702C28.867,27.929,29.164,27.874,29.398,27.764z M27.883,27.134v-3.765
			h0.458c0.205,0,0.369,0.039,0.491,0.115c0.123,0.078,0.215,0.194,0.278,0.35c0.062,0.154,0.104,0.348,0.123,0.574
			c0.021,0.228,0.03,0.494,0.03,0.799c0,0.365-0.011,0.67-0.034,0.915c-0.021,0.245-0.066,0.442-0.135,0.593
			c-0.066,0.15-0.16,0.258-0.277,0.322s-0.269,0.098-0.453,0.098L27.883,27.134L27.883,27.134z"/>
	</g>
</g>
<g>
</g>
<g>
</g>
<g>
</g>
<g>
</g>
<g>
</g>
<g>
</g>
<g>
</g>
<g>
</g>
<g>
</g>
<g>
</g>
<g>
</g>
<g>
</g>
<g>
</g>
<g>
</g>
<g>
</g>
</svg>
