<?xml version="1.0" encoding="iso-8859-1"?>
<!-- Generator: Adobe Illustrator 16.0.0, SVG Export Plug-In . SVG Version: 6.00 Build 0)  -->
<!DOCTYPE svg PUBLIC "-//W3C//DTD SVG 1.1//EN" "http://www.w3.org/Graphics/SVG/1.1/DTD/svg11.dtd">
<svg version="1.1" id="Capa_1" xmlns="http://www.w3.org/2000/svg" xmlns:xlink="http://www.w3.org/1999/xlink" x="0px" y="0px"
	 width="36.447px" height="36.447px" viewBox="0 0 36.447 36.447" style="enable-background:new 0 0 36.447 36.447;"
	 xml:space="preserve">
<g>
	<g>
		<path d="M30.224,3.948h-1.098V2.75c0-1.516-1.197-2.75-2.67-2.75c-1.474,0-2.67,1.234-2.67,2.75v1.197h-2.74V2.75
			c0-1.516-1.197-2.75-2.67-2.75c-1.473,0-2.67,1.234-2.67,2.75v1.197h-2.74V2.75c0-1.516-1.197-2.75-2.67-2.75
			c-1.473,0-2.67,1.234-2.67,2.75v1.197H6.224c-2.343,0-4.25,1.907-4.25,4.25v24c0,2.343,1.907,4.25,4.25,4.25h24
			c2.344,0,4.25-1.907,4.25-4.25v-24C34.474,5.854,32.567,3.948,30.224,3.948z M25.286,2.75c0-0.689,0.525-1.25,1.17-1.25
			c0.646,0,1.17,0.561,1.17,1.25v4.895c0,0.689-0.524,1.25-1.17,1.25c-0.645,0-1.17-0.561-1.17-1.25V2.75z M17.206,2.75
			c0-0.689,0.525-1.25,1.17-1.25s1.17,0.561,1.17,1.25v4.895c0,0.689-0.525,1.25-1.17,1.25s-1.17-0.561-1.17-1.25V2.75z M9.125,2.75
			c0-0.689,0.525-1.25,1.17-1.25s1.17,0.561,1.17,1.25v4.895c0,0.689-0.525,1.25-1.17,1.25s-1.17-0.561-1.17-1.25V2.75z
			 M31.974,32.198c0,0.965-0.785,1.75-1.75,1.75h-24c-0.965,0-1.75-0.785-1.75-1.75v-22h27.5V32.198z"/>
		<path d="M11.062,29.443c0.298,0,0.603-0.039,0.911-0.115c0.754,0.826,1.823,1.309,2.941,1.309c0.623,0,1.232-0.146,1.788-0.427
			c0.694,0.534,1.538,0.823,2.42,0.823c1.375,0,2.658-0.729,3.381-1.893c1.889,0.1,3.466-1.414,3.466-3.287
			c0-0.828-0.313-1.58-0.822-2.159c0.599-0.751,0.96-1.697,0.96-2.729c0-2.432-1.979-4.41-4.41-4.41
			c-1.959,0-3.621,1.287-4.193,3.059c-0.224,0.095-0.442,0.202-0.651,0.337c-0.739-0.707-1.708-1.104-2.733-1.104
			c-1.703,0-3.225,1.112-3.769,2.701c-1.869,0.34-3.276,1.979-3.276,3.907C7.074,27.656,8.863,29.443,11.062,29.443z M21.696,17.78
			c1.756,0,3.187,1.429,3.187,3.187c0,0.752-0.269,1.437-0.709,1.979c-0.228-0.116-0.466-0.215-0.722-0.277
			c-0.461-1.968-2.222-3.4-4.27-3.4c-0.055,0-0.107,0.01-0.164,0.012C19.579,18.385,20.562,17.78,21.696,17.78z M10.871,22.717
			l0.456-0.033l0.099-0.446c0.278-1.255,1.412-2.165,2.694-2.165c0.844,0,1.634,0.393,2.168,1.072l0.389,0.496l0.484-0.402
			c0.586-0.489,1.286-0.748,2.021-0.748c1.588,0,2.937,1.197,3.136,2.785l0.062,0.486l0.488,0.045
			c1.069,0.102,1.875,0.981,1.875,2.047c0,1.14-0.928,2.068-2.068,2.068c-0.125,0-0.253-0.014-0.395-0.041l-0.466-0.09l-0.202,0.428
			c-0.466,0.98-1.42,1.59-2.492,1.59c-0.718,0-1.402-0.279-1.923-0.787l-0.353-0.342l-0.41,0.271
			c-0.456,0.301-0.982,0.46-1.521,0.46c-0.887,0-1.701-0.418-2.231-1.147l-0.27-0.369l-0.431,0.154
			c-0.322,0.114-0.623,0.17-0.919,0.17c-1.524,0-2.764-1.24-2.764-2.764C8.298,24.02,9.428,22.816,10.871,22.717z"/>
		<path d="M27.593,21.148c0,0.119,0.095,0.213,0.213,0.213h1.354c0.119,0,0.213-0.094,0.213-0.213c0-0.118-0.094-0.213-0.213-0.213
			h-1.354C27.687,20.934,27.593,21.03,27.593,21.148z"/>
		<path d="M26.987,18.307c0.036,0,0.072-0.01,0.105-0.028l1.174-0.676c0.102-0.06,0.137-0.189,0.078-0.292
			c-0.059-0.102-0.188-0.136-0.291-0.078l-1.173,0.676c-0.103,0.06-0.138,0.189-0.078,0.292
			C26.842,18.268,26.913,18.307,26.987,18.307z"/>
		<path d="M24.749,16.071c0.074,0,0.146-0.038,0.186-0.106l0.68-1.172c0.059-0.103,0.022-0.232-0.078-0.292
			c-0.104-0.059-0.232-0.023-0.293,0.078l-0.678,1.172c-0.06,0.102-0.023,0.232,0.078,0.291
			C24.677,16.061,24.714,16.071,24.749,16.071z"/>
		<path d="M21.696,15.252L21.696,15.252c0.117,0,0.213-0.096,0.213-0.213v-1.354c0-0.118-0.095-0.214-0.213-0.214
			c-0.117,0-0.213,0.095-0.213,0.214l-0.002,1.354C21.481,15.155,21.577,15.252,21.696,15.252z"/>
		<path d="M18.458,15.964c0.038,0.068,0.111,0.106,0.184,0.106c0.036,0,0.073-0.008,0.106-0.027
			c0.102-0.061,0.138-0.189,0.078-0.292l-0.676-1.174c-0.058-0.101-0.189-0.137-0.291-0.078c-0.102,0.059-0.137,0.189-0.078,0.292
			L18.458,15.964z"/>
		<path d="M16.3,18.278c0.033,0.021,0.07,0.028,0.106,0.028c0.073,0,0.145-0.039,0.185-0.106c0.059-0.103,0.024-0.232-0.078-0.291
			l-1.173-0.678c-0.102-0.06-0.232-0.024-0.291,0.078c-0.059,0.103-0.024,0.232,0.078,0.292L16.3,18.278z"/>
		<path d="M28.053,25.064c0.034,0.021,0.071,0.029,0.106,0.029c0.074,0,0.146-0.039,0.186-0.106
			c0.059-0.103,0.023-0.231-0.078-0.292l-1.174-0.676c-0.102-0.061-0.232-0.025-0.29,0.078c-0.06,0.102-0.024,0.231,0.078,0.291
			L28.053,25.064z"/>
	</g>
</g>
<g>
</g>
<g>
</g>
<g>
</g>
<g>
</g>
<g>
</g>
<g>
</g>
<g>
</g>
<g>
</g>
<g>
</g>
<g>
</g>
<g>
</g>
<g>
</g>
<g>
</g>
<g>
</g>
<g>
</g>
</svg>
