<?xml version="1.0" encoding="iso-8859-1"?>
<!-- Generator: Adobe Illustrator 16.0.0, SVG Export Plug-In . SVG Version: 6.00 Build 0)  -->
<!DOCTYPE svg PUBLIC "-//W3C//DTD SVG 1.1//EN" "http://www.w3.org/Graphics/SVG/1.1/DTD/svg11.dtd">
<svg version="1.1" id="Capa_1" xmlns="http://www.w3.org/2000/svg" xmlns:xlink="http://www.w3.org/1999/xlink" x="0px" y="0px"
	 width="36.447px" height="36.447px" viewBox="0 0 36.447 36.447" style="enable-background:new 0 0 36.447 36.447;"
	 xml:space="preserve">
<g>
	<g>
		<path d="M30.224,3.948h-1.098V2.75c0-1.516-1.197-2.75-2.67-2.75c-1.474,0-2.67,1.234-2.67,2.75v1.197h-2.74V2.75
			c0-1.516-1.197-2.75-2.67-2.75c-1.473,0-2.67,1.234-2.67,2.75v1.197h-2.74V2.75c0-1.516-1.197-2.75-2.67-2.75
			c-1.473,0-2.67,1.234-2.67,2.75v1.197H6.224c-2.343,0-4.25,1.907-4.25,4.25v24c0,2.343,1.907,4.25,4.25,4.25h24
			c2.344,0,4.25-1.907,4.25-4.25v-24C34.474,5.854,32.567,3.948,30.224,3.948z M25.286,2.75c0-0.689,0.525-1.25,1.17-1.25
			c0.646,0,1.17,0.561,1.17,1.25v4.895c0,0.689-0.524,1.25-1.17,1.25c-0.645,0-1.17-0.561-1.17-1.25V2.75z M17.206,2.75
			c0-0.689,0.525-1.25,1.17-1.25s1.17,0.561,1.17,1.25v4.895c0,0.689-0.525,1.25-1.17,1.25s-1.17-0.561-1.17-1.25V2.75z M9.125,2.75
			c0-0.689,0.525-1.25,1.17-1.25s1.17,0.561,1.17,1.25v4.895c0,0.689-0.525,1.25-1.17,1.25s-1.17-0.561-1.17-1.25V2.75z
			 M31.974,32.198c0,0.965-0.785,1.75-1.75,1.75h-24c-0.965,0-1.75-0.785-1.75-1.75v-22h27.5V32.198z"/>
		<path d="M14.321,29.963v0.879h5.67v-0.875c1.994-0.533,3.234-1.658,3.974-3.094c0.214,0.089,0.438,0.148,0.68,0.148
			c0.813,0,1.613-0.508,2.085-1.324c0.314-0.549,0.442-1.167,0.355-1.741c-0.094-0.608-0.411-1.099-0.895-1.376
			c-0.268-0.154-0.564-0.232-0.883-0.232c-0.117,0-0.232,0.014-0.346,0.033c0.009-0.232,0.014-0.465,0.014-0.699H9.334
			C9.334,25.284,10.231,28.865,14.321,29.963z M24.913,23.227c0.131-0.045,0.265-0.068,0.396-0.068c0.174,0,0.335,0.042,0.478,0.125
			c0.267,0.152,0.443,0.436,0.498,0.796c0.062,0.394-0.031,0.824-0.256,1.213c-0.322,0.56-0.865,0.92-1.383,0.92
			c-0.127,0-0.242-0.03-0.354-0.073C24.635,25.237,24.825,24.248,24.913,23.227z"/>
		<path d="M12.992,20.617c-0.249-2.325,1.785-4.359,0-6.684C13.573,15.842,11.33,18.209,12.992,20.617z"/>
		<path d="M17.202,20.617c-0.249-2.325,1.786-4.359,0-6.684C17.783,15.842,15.54,18.209,17.202,20.617z"/>
		<path d="M21.411,20.617c-0.248-2.325,1.785-4.359,0-6.684C21.993,15.842,19.749,18.209,21.411,20.617z"/>
	</g>
</g>
<g>
</g>
<g>
</g>
<g>
</g>
<g>
</g>
<g>
</g>
<g>
</g>
<g>
</g>
<g>
</g>
<g>
</g>
<g>
</g>
<g>
</g>
<g>
</g>
<g>
</g>
<g>
</g>
<g>
</g>
</svg>
