<?xml version="1.0" encoding="iso-8859-1"?>
<!-- Generator: Adobe Illustrator 16.0.0, SVG Export Plug-In . SVG Version: 6.00 Build 0)  -->
<!DOCTYPE svg PUBLIC "-//W3C//DTD SVG 1.1//EN" "http://www.w3.org/Graphics/SVG/1.1/DTD/svg11.dtd">
<svg version="1.1" id="Capa_1" xmlns="http://www.w3.org/2000/svg" xmlns:xlink="http://www.w3.org/1999/xlink" x="0px" y="0px"
	 width="32.75px" height="32.75px" viewBox="0 0 32.75 32.75" style="enable-background:new 0 0 32.75 32.75;" xml:space="preserve"
	>
<g>
	<g>
		<path d="M29.375,1.25h-1.124c0.028-0.093,0.058-0.186,0.058-0.289C28.311,0.431,27.879,0,27.348,0s-0.961,0.431-0.961,0.961
			c0,0.103,0.028,0.196,0.059,0.289h-3.68c0.029-0.093,0.058-0.186,0.058-0.289C22.823,0.43,22.393,0,21.861,0
			C21.331,0,20.9,0.431,20.9,0.961c0,0.103,0.029,0.196,0.059,0.289h-3.68c0.029-0.093,0.058-0.186,0.058-0.289
			C17.336,0.431,16.906,0,16.375,0c-0.531,0-0.961,0.431-0.961,0.961c0,0.103,0.029,0.196,0.058,0.289h-3.68
			c0.029-0.093,0.058-0.186,0.058-0.289C11.85,0.431,11.419,0,10.888,0c-0.531,0-0.961,0.431-0.961,0.961
			c0,0.103,0.028,0.196,0.058,0.289h-3.68c0.03-0.093,0.058-0.186,0.058-0.289C6.363,0.43,5.933,0,5.402,0
			C4.871,0,4.441,0.431,4.441,0.961c0,0.103,0.029,0.196,0.058,0.289H3.375c-1.517,0-2.75,1.233-2.75,2.75v26
			c0,1.518,1.233,2.75,2.75,2.75H26.27l5.855-5.855V4C32.125,2.483,30.893,1.25,29.375,1.25z M30.625,26.273l-0.311,0.311h-2.356
			c-1.101,0-2,0.9-2,2v2.355l-0.31,0.311H3.375c-0.689,0-1.25-0.561-1.25-1.25V9h28.5V26.273z"/>
		<path d="M16.663,14.563c0.021,0.04,0.055,0.08,0.083,0.119c0.033,0.045,0.064,0.09,0.104,0.136
			c0.047,0.054,0.101,0.109,0.156,0.164c0.028,0.028,0.057,0.057,0.086,0.085c0.557,0.521,1.446,1.097,2.279,1.879
			c0,0,1.77,1.886,3.367,3.137v6.071c0,0.484-0.164,0.928-0.434,1.289h0.967c0,0,4.686,0,4.685-5.25
			c0.001-3.272-1.529-4.658-2.573-5.09c-0.006-0.002-5.685-3.255-6.992-3.935c-1.311-0.679-2.064,0.15-1.837,1.131
			C16.571,14.39,16.611,14.477,16.663,14.563z"/>
		<path d="M6.426,27.786h14.137c0.901,0,1.633-0.731,1.633-1.631v-5.808c-0.784-0.633-1.575-1.375-2.174-1.965H5.883v-0.928
			c0-0.301,0.243-0.544,0.543-0.543L18.5,16.911c-0.284-0.237-0.566-0.464-0.829-0.666c-0.192-0.147-0.37-0.285-0.538-0.422H6.425
			c-0.899,0-1.63,0.732-1.63,1.632v8.7C4.794,27.055,5.525,27.786,6.426,27.786z M5.883,21.578h15.225v4.578
			c0,0.3-0.244,0.543-0.545,0.543H6.425c-0.299,0-0.542-0.243-0.542-0.543V21.578z"/>
		<rect x="6.715" y="24.465" width="5.03" height="1.326"/>
	</g>
</g>
<g>
</g>
<g>
</g>
<g>
</g>
<g>
</g>
<g>
</g>
<g>
</g>
<g>
</g>
<g>
</g>
<g>
</g>
<g>
</g>
<g>
</g>
<g>
</g>
<g>
</g>
<g>
</g>
<g>
</g>
</svg>
