<?xml version="1.0" encoding="iso-8859-1"?>
<!-- Generator: Adobe Illustrator 16.0.0, SVG Export Plug-In . SVG Version: 6.00 Build 0)  -->
<!DOCTYPE svg PUBLIC "-//W3C//DTD SVG 1.1//EN" "http://www.w3.org/Graphics/SVG/1.1/DTD/svg11.dtd">
<svg version="1.1" id="Capa_1" xmlns="http://www.w3.org/2000/svg" xmlns:xlink="http://www.w3.org/1999/xlink" x="0px" y="0px"
	 width="33px" height="33px" viewBox="0 0 33 33" style="enable-background:new 0 0 33 33;" xml:space="preserve">
<g>
	<g>
		<path d="M28.5,0h-24C2.019,0,0,2.019,0,4.5v24C0,30.98,2.019,33,4.5,33h24c2.48,0,4.5-2.02,4.5-4.5v-24C33,2.019,30.98,0,28.5,0z
			 M31.5,28.5c0,1.648-1.35,3-3,3h-24c-1.65,0-3-1.352-3-3v-24c0-1.649,1.35-3,3-3h24c1.65,0,3,1.351,3,3V28.5z"/>
		<path d="M16.44,11.751c-0.479,0-0.808,0.217-0.979,0.65c-0.174,0.433-0.261,1.036-0.261,1.81c0,0.88,0.077,1.517,0.229,1.91
			c0.154,0.395,0.497,0.59,1.031,0.59c0.252,0,0.456-0.057,0.608-0.17c0.154-0.113,0.277-0.273,0.371-0.48
			c0.093-0.206,0.156-0.445,0.189-0.72c0.033-0.272,0.049-0.569,0.049-0.89c0-0.84-0.082-1.5-0.25-1.98
			C17.264,11.991,16.934,11.751,16.44,11.751z"/>
		<path d="M26.318,3H6.682C4.653,3,3,4.65,3,6.681V26.32c0,2.029,1.652,3.681,3.682,3.681h19.636c2.029,0,3.683-1.649,3.683-3.681
			V6.681C30,4.65,28.348,3,26.318,3z M21.041,19.701c-0.08,0.927-0.287,1.717-0.621,2.369c-0.333,0.654-0.826,1.149-1.479,1.49
			c-0.653,0.34-1.555,0.51-2.7,0.51c-1.279,0-2.279-0.279-3-0.84c-0.72-0.561-1.094-1.479-1.12-2.761h3.24
			c0,0.188,0.013,0.37,0.04,0.552c0.026,0.18,0.08,0.343,0.16,0.488c0.173,0.295,0.446,0.44,0.82,0.44
			c0.279,0,0.51-0.063,0.689-0.19c0.18-0.126,0.326-0.34,0.438-0.64c0.113-0.3,0.19-0.707,0.229-1.22
			c0.041-0.515,0.062-1.164,0.062-1.95h-0.04c-0.227,0.427-0.553,0.739-0.979,0.938c-0.427,0.2-0.94,0.301-1.54,0.301
			c-1.08,0-1.917-0.336-2.51-1.01c-0.594-0.674-0.891-1.804-0.891-3.391c0-0.707,0.066-1.373,0.201-2
			c0.133-0.627,0.373-1.173,0.719-1.64c0.348-0.467,0.82-0.837,1.42-1.11c0.601-0.273,1.367-0.41,2.301-0.41
			c1.041,0,1.869,0.16,2.49,0.48c0.619,0.319,1.094,0.779,1.42,1.38c0.326,0.6,0.536,1.327,0.631,2.18
			c0.092,0.854,0.14,1.807,0.14,2.86C21.16,17.718,21.12,18.773,21.041,19.701z"/>
	</g>
</g>
<g>
</g>
<g>
</g>
<g>
</g>
<g>
</g>
<g>
</g>
<g>
</g>
<g>
</g>
<g>
</g>
<g>
</g>
<g>
</g>
<g>
</g>
<g>
</g>
<g>
</g>
<g>
</g>
<g>
</g>
</svg>
