<?xml version="1.0" encoding="iso-8859-1"?>
<!-- Generator: Adobe Illustrator 16.0.0, SVG Export Plug-In . SVG Version: 6.00 Build 0)  -->
<!DOCTYPE svg PUBLIC "-//W3C//DTD SVG 1.1//EN" "http://www.w3.org/Graphics/SVG/1.1/DTD/svg11.dtd">
<svg version="1.1" id="Capa_1" xmlns="http://www.w3.org/2000/svg" xmlns:xlink="http://www.w3.org/1999/xlink" x="0px" y="0px"
	 width="32px" height="32px" viewBox="0 0 32 32" style="enable-background:new 0 0 32 32;" xml:space="preserve">
<g>
	<g>
		<path d="M16.105,12.551c-0.765,0-1.306,0.273-1.626,0.825C14.16,13.928,14,14.843,14,16.123c0,0.533,0.027,1.031,0.081,1.494
			c0.052,0.463,0.155,0.855,0.305,1.188c0.151,0.327,0.365,0.584,0.642,0.771c0.275,0.187,0.635,0.28,1.078,0.28
			c0.463,0,0.832-0.095,1.108-0.28c0.274-0.187,0.483-0.448,0.626-0.786s0.234-0.732,0.28-1.188
			c0.044-0.451,0.065-0.945,0.065-1.479c0-1.28-0.158-2.195-0.479-2.747S16.854,12.551,16.105,12.551z"/>
		<path d="M28.801,0H3.199C1.439,0,0,1.44,0,3.199v25.602C0,30.561,1.439,32,3.199,32h25.602C30.561,32,32,30.561,32,28.801V3.199
			C32,1.44,30.561,0,28.801,0z M3.732,5.334c-0.883,0-1.6-0.716-1.6-1.602c0-0.884,0.717-1.6,1.6-1.6c0.885,0,1.602,0.716,1.602,1.6
			C5.334,4.618,4.617,5.334,3.732,5.334z M12.102,28.177c0,0.485-0.111,0.835-0.339,1.05c-0.226,0.213-0.571,0.318-1.037,0.318
			c-0.243,0-0.442-0.036-0.598-0.107c-0.156-0.071-0.279-0.168-0.371-0.291c-0.093-0.121-0.155-0.265-0.189-0.427
			c-0.034-0.161-0.05-0.333-0.05-0.511v-0.2h0.845v0.144c0,0.242,0.025,0.422,0.079,0.539c0.054,0.117,0.163,0.178,0.33,0.178
			c0.166,0,0.277-0.061,0.329-0.178c0.054-0.117,0.081-0.297,0.081-0.539v-3.267h0.92V28.177z M15.565,28.073
			c0,0.291-0.04,0.53-0.122,0.72c-0.08,0.189-0.189,0.341-0.326,0.452c-0.138,0.11-0.293,0.188-0.467,0.233
			c-0.176,0.045-0.357,0.065-0.545,0.065s-0.368-0.019-0.544-0.056c-0.176-0.04-0.331-0.113-0.467-0.221
			c-0.136-0.11-0.246-0.261-0.325-0.449c-0.082-0.19-0.122-0.438-0.122-0.746v-3.188h0.921v3.188c0,0.115,0.007,0.221,0.022,0.318
			c0.014,0.096,0.042,0.178,0.084,0.25c0.04,0.068,0.095,0.125,0.163,0.164c0.067,0.041,0.157,0.062,0.268,0.062
			c0.107,0,0.196-0.021,0.267-0.062c0.069-0.039,0.125-0.096,0.165-0.164c0.042-0.072,0.068-0.154,0.084-0.25
			c0.015-0.099,0.023-0.203,0.023-0.318v-3.188h0.921V28.073z M12.76,21.629c-0.791-0.486-1.391-1.137-1.799-1.945
			c-0.409-0.81-0.677-1.746-0.801-2.812c-0.125-1.066-0.188-2.179-0.188-3.334c0-1.332,0.04-2.627,0.121-3.88
			c0.08-1.253,0.319-2.365,0.72-3.334c0.401-0.969,1.026-1.747,1.88-2.332c0.853-0.587,2.062-0.88,3.625-0.88
			c0.678,0,1.33,0.079,1.961,0.239c0.631,0.159,1.188,0.427,1.666,0.801c0.481,0.373,0.867,0.867,1.16,1.479
			c0.295,0.614,0.449,1.374,0.467,2.28h-3.678c0-0.747-0.131-1.315-0.39-1.705c-0.257-0.392-0.705-0.587-1.346-0.587
			c-0.516,0-0.924,0.12-1.227,0.358c-0.303,0.241-0.537,0.575-0.707,1c-0.169,0.428-0.28,0.934-0.332,1.521
			c-0.055,0.588-0.081,1.227-0.081,1.92v0.934h0.054c0.319-0.498,0.777-0.893,1.373-1.188c0.596-0.292,1.32-0.439,2.173-0.439
			c0.836,0,1.548,0.147,2.133,0.439c0.587,0.295,1.062,0.704,1.428,1.227c0.364,0.525,0.631,1.147,0.801,1.867
			c0.168,0.72,0.254,1.506,0.254,2.361c0,2.187-0.486,3.856-1.455,5.012c-0.969,1.156-2.52,1.734-4.653,1.734
			C14.604,22.363,13.552,22.119,12.76,21.629z M19.182,29.457h-1.051l-1.127-3.201h-0.012v3.201h-0.846v-4.571h1.063l1.112,3.132
			h0.014v-3.132h0.846V29.457z M22.438,29.457H19.82v-4.571h2.555v0.757h-1.632v1.074h1.534v0.756h-1.534V28.7h1.694V29.457z"/>
	</g>
</g>
<g>
</g>
<g>
</g>
<g>
</g>
<g>
</g>
<g>
</g>
<g>
</g>
<g>
</g>
<g>
</g>
<g>
</g>
<g>
</g>
<g>
</g>
<g>
</g>
<g>
</g>
<g>
</g>
<g>
</g>
</svg>
