<?xml version="1.0" encoding="iso-8859-1"?>
<!-- Generator: Adobe Illustrator 16.0.0, SVG Export Plug-In . SVG Version: 6.00 Build 0)  -->
<!DOCTYPE svg PUBLIC "-//W3C//DTD SVG 1.1//EN" "http://www.w3.org/Graphics/SVG/1.1/DTD/svg11.dtd">
<svg version="1.1" id="Capa_1" xmlns="http://www.w3.org/2000/svg" xmlns:xlink="http://www.w3.org/1999/xlink" x="0px" y="0px"
	 width="33.375px" height="33.375px" viewBox="0 0 33.375 33.375" style="enable-background:new 0 0 33.375 33.375;"
	 xml:space="preserve">
<g>
	<path d="M27.96,1.375h-0.682V1c0-0.552-0.447-1-1-1c-0.552,0-1,0.448-1,1v0.375h-1.837V1c0-0.552-0.448-1-1-1s-1,0.448-1,1v0.375
		h-1.837V1c0-0.552-0.447-1-1-1c-0.552,0-1,0.448-1,1v0.375h-1.837V1c0-0.552-0.448-1-1-1c-0.552,0-1,0.448-1,1v0.375h-1.837V1
		c0-0.552-0.448-1-1-1c-0.552,0-1,0.448-1,1v0.375H8.094V1c0-0.552-0.448-1-1-1c-0.552,0-1,0.448-1,1v0.375H5.412
		c-2.605,0-4.725,2.12-4.725,4.726v22.547c0,2.605,2.12,4.727,4.727,4.727H27.96c2.606,0,4.728-2.12,4.728-4.727V6.101
		C32.687,3.495,30.567,1.375,27.96,1.375z M25.78,1c0-0.276,0.224-0.5,0.5-0.5s0.5,0.224,0.5,0.5v6.482c0,0.276-0.224,0.5-0.5,0.5
		s-0.5-0.224-0.5-0.5V1z M21.943,1c0-0.276,0.225-0.5,0.5-0.5c0.276,0,0.5,0.224,0.5,0.5v6.482c0,0.276-0.224,0.5-0.5,0.5
		c-0.275,0-0.5-0.224-0.5-0.5V1z M18.106,1c0-0.276,0.224-0.5,0.5-0.5s0.5,0.224,0.5,0.5v6.482c0,0.276-0.224,0.5-0.5,0.5
		s-0.5-0.224-0.5-0.5V1z M14.269,1c0-0.276,0.224-0.5,0.5-0.5s0.5,0.224,0.5,0.5v6.482c0,0.276-0.224,0.5-0.5,0.5
		s-0.5-0.224-0.5-0.5V1z M10.432,1c0-0.276,0.224-0.5,0.5-0.5s0.5,0.224,0.5,0.5v6.482c0,0.276-0.224,0.5-0.5,0.5
		s-0.5-0.224-0.5-0.5V1z M6.595,1c0-0.276,0.224-0.5,0.5-0.5c0.276,0,0.5,0.224,0.5,0.5v6.482c0,0.276-0.224,0.5-0.5,0.5
		c-0.276,0-0.5-0.224-0.5-0.5V1z M16.007,27.979h-9.04c0-0.84,0.11-1.594,0.33-2.26c0.22-0.668,0.493-1.261,0.82-1.781
		c0.327-0.52,0.673-0.973,1.04-1.359c0.366-0.387,0.703-0.713,1.01-0.979c0.6-0.533,1.067-0.983,1.4-1.352
		c0.333-0.366,0.58-0.688,0.74-0.96c0.16-0.272,0.253-0.522,0.28-0.75s0.04-0.474,0.04-0.739c0-0.561-0.077-1.011-0.23-1.351
		c-0.153-0.34-0.47-0.51-0.95-0.51c-0.32,0-0.567,0.083-0.74,0.25s-0.3,0.38-0.38,0.64c-0.08,0.261-0.127,0.544-0.14,0.852
		c-0.013,0.307-0.02,0.592-0.02,0.858h-3.12v-0.46c0-2.84,1.52-4.26,4.56-4.26c0.854,0,1.563,0.104,2.13,0.311
		c0.566,0.206,1.017,0.486,1.35,0.84c0.333,0.354,0.567,0.77,0.7,1.25c0.133,0.479,0.2,1,0.2,1.56c0,0.533-0.034,0.992-0.1,1.38
		c-0.067,0.387-0.187,0.75-0.36,1.09c-0.174,0.341-0.404,0.679-0.69,1.011c-0.286,0.334-0.65,0.707-1.09,1.12
		c-0.693,0.681-1.283,1.25-1.77,1.71c-0.487,0.461-0.817,0.891-0.99,1.29h5.02V27.979z M26.097,25.947
		c-0.233,0.541-0.551,0.98-0.95,1.32s-0.874,0.59-1.42,0.75c-0.547,0.16-1.127,0.24-1.74,0.24c-0.707,0-1.343-0.062-1.909-0.189
		c-0.567-0.127-1.058-0.354-1.471-0.68c-0.414-0.328-0.73-0.777-0.95-1.352c-0.22-0.572-0.33-1.312-0.33-2.221h3.24
		c0,0.32,0.017,0.621,0.05,0.9s0.096,0.523,0.19,0.729c0.093,0.207,0.22,0.375,0.38,0.5c0.16,0.127,0.367,0.191,0.62,0.191
		c0.426,0,0.747-0.146,0.96-0.441c0.213-0.293,0.32-0.84,0.32-1.639c0-0.453-0.03-0.826-0.09-1.121
		c-0.061-0.293-0.16-0.522-0.301-0.689c-0.14-0.166-0.32-0.282-0.539-0.35c-0.221-0.066-0.498-0.101-0.83-0.101h-0.801v-2.12h0.92
		c0.561,0,0.94-0.181,1.141-0.539c0.199-0.361,0.3-0.888,0.3-1.58c0-0.562-0.091-0.971-0.271-1.23c-0.18-0.26-0.463-0.39-0.85-0.39
		c-0.374,0-0.684,0.14-0.93,0.42c-0.246,0.28-0.371,0.82-0.371,1.621h-3c0-1.414,0.361-2.454,1.08-3.121
		c0.733-0.693,1.888-1.04,3.461-1.04c1.4,0,2.437,0.307,3.109,0.92c0.674,0.613,1.01,1.607,1.01,2.98c0,0.72-0.172,1.337-0.52,1.851
		s-0.848,0.844-1.5,0.99v0.039c0.84,0.188,1.439,0.551,1.801,1.09c0.359,0.541,0.539,1.311,0.539,2.311
		C26.447,24.758,26.33,25.408,26.097,25.947z M30.279,10.497H3.095V6.101c0-1.278,1.04-2.318,2.318-2.318h0.682v2.513
		c-0.339,0.286-0.56,0.709-0.56,1.187c0,0.86,0.699,1.56,1.56,1.56c0.861,0,1.56-0.699,1.56-1.56c0-0.478-0.221-0.9-0.56-1.187
		V3.783h1.837v2.513c-0.339,0.286-0.56,0.709-0.56,1.187c0,0.86,0.699,1.56,1.56,1.56c0.861,0,1.56-0.699,1.56-1.56
		c0-0.478-0.221-0.9-0.56-1.187V3.783h1.837v2.513c-0.339,0.286-0.56,0.709-0.56,1.187c0,0.86,0.699,1.56,1.56,1.56
		s1.56-0.699,1.56-1.56c0-0.478-0.221-0.9-0.56-1.187V3.783h1.837v2.513c-0.339,0.286-0.56,0.709-0.56,1.187
		c0,0.86,0.7,1.56,1.56,1.56s1.56-0.699,1.56-1.56c0-0.478-0.221-0.9-0.56-1.187V3.783h1.837v2.513
		c-0.339,0.286-0.561,0.709-0.561,1.187c0,0.86,0.699,1.56,1.561,1.56s1.561-0.699,1.561-1.56c0-0.478-0.221-0.9-0.561-1.187V3.783
		h1.837v2.513c-0.339,0.286-0.56,0.709-0.56,1.187c0,0.86,0.699,1.56,1.56,1.56c0.861,0,1.56-0.699,1.56-1.56
		c0-0.478-0.221-0.9-0.56-1.187V3.783h0.681c1.278,0,2.318,1.04,2.318,2.318V10.497z"/>
</g>
<g>
</g>
<g>
</g>
<g>
</g>
<g>
</g>
<g>
</g>
<g>
</g>
<g>
</g>
<g>
</g>
<g>
</g>
<g>
</g>
<g>
</g>
<g>
</g>
<g>
</g>
<g>
</g>
<g>
</g>
</svg>
