<?xml version="1.0" encoding="iso-8859-1"?>
<!-- Generator: Adobe Illustrator 16.0.0, SVG Export Plug-In . SVG Version: 6.00 Build 0)  -->
<!DOCTYPE svg PUBLIC "-//W3C//DTD SVG 1.1//EN" "http://www.w3.org/Graphics/SVG/1.1/DTD/svg11.dtd">
<svg version="1.1" id="Capa_1" xmlns="http://www.w3.org/2000/svg" xmlns:xlink="http://www.w3.org/1999/xlink" x="0px" y="0px"
	 width="33.375px" height="33.375px" viewBox="0 0 33.375 33.375" style="enable-background:new 0 0 33.375 33.375;"
	 xml:space="preserve">
<g>
	<g>
		<path d="M27.96,1.375h-0.682V1c0-0.552-0.447-1-1-1c-0.552,0-1,0.448-1,1v0.375h-1.837V1c0-0.552-0.448-1-1-1s-1,0.448-1,1v0.375
			h-1.837V1c0-0.552-0.447-1-1-1c-0.552,0-1,0.448-1,1v0.375h-1.837V1c0-0.552-0.448-1-1-1c-0.552,0-1,0.448-1,1v0.375h-1.837V1
			c0-0.552-0.448-1-1-1c-0.552,0-1,0.448-1,1v0.375H8.094V1c0-0.552-0.448-1-1-1c-0.552,0-1,0.448-1,1v0.375H5.412
			c-2.605,0-4.725,2.12-4.725,4.726v22.547c0,2.605,2.12,4.727,4.727,4.727H27.96c2.606,0,4.728-2.12,4.728-4.727V6.101
			C32.687,3.495,30.567,1.375,27.96,1.375z M25.78,1c0-0.276,0.224-0.5,0.5-0.5s0.5,0.224,0.5,0.5v6.482c0,0.276-0.224,0.5-0.5,0.5
			s-0.5-0.224-0.5-0.5V1z M21.943,1c0-0.276,0.225-0.5,0.5-0.5c0.276,0,0.5,0.224,0.5,0.5v6.482c0,0.276-0.224,0.5-0.5,0.5
			c-0.275,0-0.5-0.224-0.5-0.5V1z M18.106,1c0-0.276,0.224-0.5,0.5-0.5s0.5,0.224,0.5,0.5v6.482c0,0.276-0.224,0.5-0.5,0.5
			s-0.5-0.224-0.5-0.5V1z M14.269,1c0-0.276,0.224-0.5,0.5-0.5s0.5,0.224,0.5,0.5v6.482c0,0.276-0.224,0.5-0.5,0.5
			s-0.5-0.224-0.5-0.5V1z M10.432,1c0-0.276,0.224-0.5,0.5-0.5s0.5,0.224,0.5,0.5v6.482c0,0.276-0.224,0.5-0.5,0.5
			s-0.5-0.224-0.5-0.5V1z M6.595,1c0-0.276,0.224-0.5,0.5-0.5c0.276,0,0.5,0.224,0.5,0.5v6.482c0,0.276-0.224,0.5-0.5,0.5
			c-0.276,0-0.5-0.224-0.5-0.5V1z M30.279,28.648c0,1.277-1.04,2.317-2.318,2.317H5.414c-1.278,0-2.318-1.04-2.318-2.317V6.101
			c0-1.278,1.04-2.318,2.318-2.318h0.682v2.513c-0.339,0.286-0.56,0.709-0.56,1.187c0,0.86,0.699,1.56,1.56,1.56
			c0.861,0,1.56-0.699,1.56-1.56c0-0.478-0.221-0.9-0.56-1.187V3.783h1.837v2.513c-0.339,0.286-0.56,0.709-0.56,1.187
			c0,0.86,0.699,1.56,1.56,1.56c0.861,0,1.56-0.699,1.56-1.56c0-0.478-0.221-0.9-0.56-1.187V3.783h1.837v2.513
			c-0.339,0.286-0.56,0.709-0.56,1.187c0,0.86,0.699,1.56,1.56,1.56s1.56-0.699,1.56-1.56c0-0.478-0.221-0.9-0.56-1.187V3.783h1.837
			v2.513c-0.339,0.286-0.56,0.709-0.56,1.187c0,0.86,0.699,1.56,1.56,1.56s1.561-0.699,1.561-1.56c0-0.478-0.222-0.9-0.561-1.187
			V3.783h1.837v2.513c-0.339,0.286-0.56,0.709-0.56,1.187c0,0.86,0.699,1.56,1.56,1.56c0.861,0,1.56-0.699,1.56-1.56
			c0-0.478-0.221-0.9-0.56-1.187V3.783h1.837v2.513c-0.339,0.286-0.56,0.709-0.56,1.187c0,0.86,0.698,1.56,1.56,1.56
			s1.561-0.699,1.561-1.56c0-0.478-0.221-0.9-0.561-1.187V3.783h0.682c1.277,0,2.317,1.04,2.317,2.318L30.279,28.648L30.279,28.648z
			"/>
		<path d="M15.594,24.708c0.102,0.224,0.245,0.397,0.433,0.524c0.187,0.125,0.432,0.189,0.732,0.189
			c0.313,0,0.563-0.064,0.751-0.189c0.187-0.127,0.327-0.305,0.425-0.533c0.096-0.229,0.159-0.497,0.189-0.805
			c0.028-0.308,0.045-0.644,0.045-1.004c0-0.869-0.107-1.49-0.325-1.863c-0.218-0.373-0.579-0.559-1.085-0.559
			c-0.52,0-0.886,0.186-1.104,0.559c-0.217,0.373-0.325,0.994-0.325,1.863c0,0.36,0.019,0.698,0.055,1.014
			C15.421,24.219,15.49,24.484,15.594,24.708z"/>
		<path d="M4.933,26.406c0,1.693,1.379,3.072,3.074,3.072h17.36c1.694,0,3.074-1.379,3.074-3.072V11.867H4.933V26.406z
			 M12.682,18.504c0.054-0.85,0.218-1.603,0.487-2.26c0.271-0.657,0.695-1.185,1.275-1.582c0.578-0.397,1.398-0.597,2.46-0.597
			c0.457,0,0.901,0.054,1.328,0.162c0.428,0.108,0.805,0.29,1.129,0.544c0.327,0.252,0.59,0.587,0.788,1.003
			c0.199,0.416,0.306,0.93,0.315,1.546H17.97c0-0.508-0.088-0.892-0.264-1.157c-0.173-0.266-0.479-0.397-0.912-0.397
			c-0.351,0-0.627,0.081-0.833,0.243c-0.204,0.164-0.364,0.39-0.478,0.679c-0.116,0.289-0.191,0.632-0.228,1.031
			c-0.036,0.397-0.055,0.83-0.055,1.303v0.633h0.036c0.218-0.338,0.527-0.605,0.932-0.805c0.403-0.199,0.896-0.301,1.475-0.301
			c0.564,0,1.049,0.102,1.445,0.301c0.398,0.198,0.722,0.477,0.968,0.832c0.248,0.354,0.429,0.776,0.544,1.266
			c0.113,0.488,0.172,1.021,0.172,1.601c0,1.481-0.33,2.616-0.986,3.399c-0.658,0.783-1.709,1.175-3.156,1.175
			c-0.892,0-1.605-0.164-2.143-0.498c-0.535-0.33-0.943-0.771-1.22-1.319c-0.278-0.548-0.459-1.184-0.543-1.906
			c-0.085-0.725-0.128-1.478-0.128-2.262C12.599,20.232,12.627,19.355,12.682,18.504z"/>
	</g>
</g>
<g>
</g>
<g>
</g>
<g>
</g>
<g>
</g>
<g>
</g>
<g>
</g>
<g>
</g>
<g>
</g>
<g>
</g>
<g>
</g>
<g>
</g>
<g>
</g>
<g>
</g>
<g>
</g>
<g>
</g>
</svg>
