<?xml version="1.0" encoding="iso-8859-1"?>
<!-- Generator: Adobe Illustrator 16.0.0, SVG Export Plug-In . SVG Version: 6.00 Build 0)  -->
<!DOCTYPE svg PUBLIC "-//W3C//DTD SVG 1.1//EN" "http://www.w3.org/Graphics/SVG/1.1/DTD/svg11.dtd">
<svg version="1.1" id="Capa_1" xmlns="http://www.w3.org/2000/svg" xmlns:xlink="http://www.w3.org/1999/xlink" x="0px" y="0px"
	 width="32px" height="32px" viewBox="0 0 32 32" style="enable-background:new 0 0 32 32;" xml:space="preserve">
<g>
	<g>
		<path d="M29.867,26.667c0,1.765-1.436,3.199-3.201,3.199H5.334c-1.766,0-3.201-1.435-3.201-3.199V11.854l-0.39,0.103L1.36,10.783
			L0,12.218v14.449C0,29.6,2.4,32,5.334,32h21.332C29.6,32,32,29.6,32,26.667V11.733h-2.133V26.667z"/>
		<path d="M26.666,0H5.334C2.4,0,0,2.4,0,5.333v5.334l1.817-1.919l0.626,1.919l1.114-0.296L4.81,8.4l1.252,2.737l0.627-0.47
			L7.941,7.89l2.853,3.247L13.3,9.6l4.452-2.058l0.488,3.125l4.104-1.271l1.53,1.74l2.228-1.537L25.15,5.801l2.97,3.92l1.321,0.945
			H32V5.332C32,2.4,29.6,0,26.666,0z"/>
		<path d="M17.061,26.908c0.129-4.357,1.922-8.131,4.248-10.016V14H10.925v3.113h6.63c-2.215,2.324-4.047,5.474-4.448,9.795H17.061z
			"/>
	</g>
</g>
<g>
</g>
<g>
</g>
<g>
</g>
<g>
</g>
<g>
</g>
<g>
</g>
<g>
</g>
<g>
</g>
<g>
</g>
<g>
</g>
<g>
</g>
<g>
</g>
<g>
</g>
<g>
</g>
<g>
</g>
</svg>
