<?xml version="1.0" encoding="iso-8859-1"?>
<!-- Generator: Adobe Illustrator 16.0.0, SVG Export Plug-In . SVG Version: 6.00 Build 0)  -->
<!DOCTYPE svg PUBLIC "-//W3C//DTD SVG 1.1//EN" "http://www.w3.org/Graphics/SVG/1.1/DTD/svg11.dtd">
<svg version="1.1" id="Capa_1" xmlns="http://www.w3.org/2000/svg" xmlns:xlink="http://www.w3.org/1999/xlink" x="0px" y="0px"
	 width="36.447px" height="36.447px" viewBox="0 0 36.447 36.447" style="enable-background:new 0 0 36.447 36.447;"
	 xml:space="preserve">
<g>
	<path d="M30.224,3.948h-1.098V2.75c0-1.516-1.197-2.75-2.67-2.75c-1.475,0-2.67,1.234-2.67,2.75v1.197h-2.74V2.75
		c0-1.516-1.197-2.75-2.67-2.75c-1.473,0-2.67,1.234-2.67,2.75v1.197h-2.74V2.75c0-1.516-1.197-2.75-2.67-2.75
		c-1.473,0-2.67,1.234-2.67,2.75v1.197H6.224c-2.343,0-4.25,1.907-4.25,4.25v24c0,2.344,1.907,4.25,4.25,4.25h24
		c2.344,0,4.25-1.906,4.25-4.25v-24C34.474,5.854,32.567,3.948,30.224,3.948z M25.286,2.75c0-0.689,0.524-1.25,1.17-1.25
		s1.17,0.561,1.17,1.25v4.895c0,0.689-0.524,1.25-1.17,1.25s-1.17-0.561-1.17-1.25V2.75z M17.206,2.75c0-0.689,0.525-1.25,1.17-1.25
		s1.17,0.561,1.17,1.25v4.895c0,0.689-0.525,1.25-1.17,1.25s-1.17-0.561-1.17-1.25V2.75z M9.125,2.75c0-0.689,0.525-1.25,1.17-1.25
		s1.17,0.561,1.17,1.25v4.895c0,0.689-0.525,1.25-1.17,1.25s-1.17-0.561-1.17-1.25V2.75z M31.974,32.199
		c0,0.965-0.785,1.75-1.75,1.75h-24c-0.965,0-1.75-0.785-1.75-1.75v-22h27.5V32.199z M10.706,25.578h0.166h0.91h0.909h0.91h0.91
		h0.909h0.911h0.909h0.91h0.91h0.909h0.909h0.91h0.91h0.909h0.909h0.91h0.908h0.91h0.91h0.354l0.321,0.15l0.192-0.416
		c0.002,0,0.002-0.004,0.002-0.006c0.023-0.058,0.041-0.119,0.041-0.187v-3.121c0-0.121-0.05-0.237-0.136-0.323l-9.102-9.043
		c-0.18-0.176-0.467-0.176-0.645,0l-9.102,9.043c-0.087,0.084-0.135,0.202-0.135,0.323v3.019l-0.15,0.324l0.828,0.385L10.706,25.578
		z M19.286,21.883h2.324v2.323h-2.324V21.883z M16.049,21.883h2.322v2.323h-2.322V21.883z M25.812,30.057l0.828,0.385l-0.193,0.414
		c-0.074,0.162-0.236,0.266-0.412,0.266h-0.459v-0.914h0.168L25.812,30.057z M18.295,30.206h0.911v0.914h-0.911V30.206z
		 M16.477,30.206h0.909v0.914h-0.909V30.206z M12.835,30.206h0.911v0.914h-0.911V30.206z M14.658,30.206h0.909v0.914h-0.909V30.206z
		 M9.198,30.206h0.91v0.914h-0.91V30.206z M11.018,30.206h0.909v0.914h-0.909V30.206z M23.756,30.206h0.909v0.914h-0.909V30.206z
		 M21.936,30.206h0.91v0.914h-0.91V30.206z M20.116,30.206h0.91v0.914h-0.91V30.206z M7.446,30.91
		c-0.084-0.131-0.094-0.297-0.028-0.438l0.193-0.414l0.321,0.148h0.354v0.168l0.152,0.068l-0.152,0.322v0.354H7.831
		C7.675,31.12,7.53,31.042,7.446,30.91z M9.759,27.613l-0.828-0.385l0.438-0.943l0.828,0.385L9.759,27.613z M8.879,29.5
		l-0.829-0.386l0.439-0.942l0.829,0.385L8.879,29.5z M27.567,26.285l0.829,0.387l-0.438,0.943l-0.828-0.387L27.567,26.285z
		 M26.69,28.172l0.828,0.385L27.079,29.5l-0.828-0.386L26.69,28.172z M18.371,26.035l-0.913,2.324h-2.323l0.914-2.324H18.371z
		 M19.286,26.035h2.324l-0.914,2.324H18.37L19.286,26.035z"/>
</g>
<g>
</g>
<g>
</g>
<g>
</g>
<g>
</g>
<g>
</g>
<g>
</g>
<g>
</g>
<g>
</g>
<g>
</g>
<g>
</g>
<g>
</g>
<g>
</g>
<g>
</g>
<g>
</g>
<g>
</g>
</svg>
