<?xml version="1.0" encoding="iso-8859-1"?>
<!-- Generator: Adobe Illustrator 16.0.0, SVG Export Plug-In . SVG Version: 6.00 Build 0)  -->
<!DOCTYPE svg PUBLIC "-//W3C//DTD SVG 1.1//EN" "http://www.w3.org/Graphics/SVG/1.1/DTD/svg11.dtd">
<svg version="1.1" id="Capa_1" xmlns="http://www.w3.org/2000/svg" xmlns:xlink="http://www.w3.org/1999/xlink" x="0px" y="0px"
	 width="30px" height="30px" viewBox="0 0 30 30" style="enable-background:new 0 0 30 30;" xml:space="preserve">
<g>
	<path d="M27,0H3C1.35,0,0,1.351,0,3v24c0,1.648,1.35,3,3,3h24c1.65,0,3-1.352,3-3V3C30,1.351,28.65,0,27,0z M6.477,2.705
		C6.477,2.317,6.794,2,7.182,2H22.82c0.387,0,0.705,0.317,0.705,0.705v1.137c0,0.388-0.317,0.705-0.705,0.705H7.181
		c-0.387,0-0.705-0.317-0.705-0.705L6.477,2.705L6.477,2.705z M14.32,24.291H5.28c0-0.84,0.11-1.593,0.33-2.26
		c0.22-0.667,0.493-1.26,0.82-1.78c0.327-0.521,0.673-0.974,1.04-1.36c0.366-0.386,0.703-0.713,1.01-0.979
		c0.6-0.533,1.067-0.982,1.4-1.352c0.333-0.365,0.58-0.687,0.74-0.959c0.16-0.272,0.253-0.522,0.28-0.75
		c0.027-0.227,0.04-0.473,0.04-0.739c0-0.561-0.077-1.011-0.23-1.351c-0.153-0.34-0.47-0.51-0.95-0.51
		c-0.32,0-0.567,0.083-0.74,0.25s-0.3,0.38-0.38,0.64c-0.08,0.261-0.127,0.544-0.14,0.851c-0.013,0.307-0.02,0.593-0.02,0.859H5.36
		v-0.46c0-2.84,1.52-4.26,4.56-4.26c0.854,0,1.563,0.104,2.13,0.311c0.566,0.206,1.017,0.486,1.35,0.84
		c0.333,0.354,0.567,0.77,0.7,1.25c0.133,0.479,0.2,1,0.2,1.56c0,0.533-0.034,0.993-0.1,1.381c-0.067,0.387-0.187,0.75-0.36,1.09
		c-0.174,0.34-0.404,0.678-0.69,1.011s-0.65,0.707-1.09,1.12c-0.693,0.68-1.283,1.25-1.77,1.709
		c-0.487,0.461-0.817,0.891-0.99,1.291h5.02V24.291z M23.52,23.391c-0.76,0.787-1.927,1.182-3.5,1.182
		c-1.52,0-2.644-0.34-3.369-1.021c-0.728-0.68-1.09-1.646-1.09-2.898v-0.521H18.8v0.521c0,0.238,0.017,0.467,0.05,0.68
		c0.033,0.214,0.094,0.402,0.18,0.57c0.088,0.166,0.211,0.3,0.371,0.398c0.16,0.102,0.359,0.15,0.6,0.15
		c0.533,0,0.883-0.264,1.05-0.79s0.25-1.276,0.25-2.25c0-0.841-0.097-1.46-0.29-1.86c-0.193-0.398-0.51-0.6-0.949-0.6
		c-0.308,0-0.578,0.083-0.811,0.25s-0.377,0.457-0.43,0.869H15.7l0.44-7.659h7.939v2.6h-5.359l-0.16,2.66l0.039,0.04
		c0.094-0.173,0.228-0.33,0.4-0.47c0.173-0.142,0.367-0.26,0.58-0.36c0.213-0.1,0.438-0.173,0.67-0.22s0.463-0.07,0.689-0.07
		c1.293,0,2.237,0.391,2.83,1.17c0.594,0.78,0.891,2.03,0.891,3.75C24.66,21.311,24.279,22.604,23.52,23.391z"/>
</g>
<g>
</g>
<g>
</g>
<g>
</g>
<g>
</g>
<g>
</g>
<g>
</g>
<g>
</g>
<g>
</g>
<g>
</g>
<g>
</g>
<g>
</g>
<g>
</g>
<g>
</g>
<g>
</g>
<g>
</g>
</svg>
