<?xml version="1.0" encoding="iso-8859-1"?>
<!-- Generator: Adobe Illustrator 16.0.0, SVG Export Plug-In . SVG Version: 6.00 Build 0)  -->
<!DOCTYPE svg PUBLIC "-//W3C//DTD SVG 1.1//EN" "http://www.w3.org/Graphics/SVG/1.1/DTD/svg11.dtd">
<svg version="1.1" id="Capa_1" xmlns="http://www.w3.org/2000/svg" xmlns:xlink="http://www.w3.org/1999/xlink" x="0px" y="0px"
	 width="32.75px" height="32.75px" viewBox="0 0 32.75 32.75" style="enable-background:new 0 0 32.75 32.75;" xml:space="preserve"
	>
<g>
	<g>
		<path d="M29.375,1.25h-1.123c0.029-0.092,0.059-0.186,0.059-0.288c0-0.53-0.432-0.962-0.963-0.962s-0.961,0.432-0.961,0.962
			c0,0.103,0.028,0.196,0.059,0.288h-3.68c0.029-0.092,0.059-0.186,0.059-0.288c0-0.53-0.432-0.962-0.963-0.962
			C21.332,0,20.9,0.432,20.9,0.962c0,0.103,0.029,0.196,0.06,0.288h-3.681c0.029-0.092,0.058-0.186,0.058-0.288
			c0-0.53-0.43-0.962-0.961-0.962c-0.531,0-0.961,0.432-0.961,0.962c0,0.103,0.028,0.196,0.058,0.288h-3.681
			c0.029-0.092,0.059-0.186,0.059-0.288C11.851,0.432,11.42,0,10.89,0c-0.531,0-0.962,0.432-0.962,0.962
			c0,0.103,0.028,0.196,0.058,0.288h-3.68c0.03-0.092,0.059-0.186,0.059-0.288C6.365,0.432,5.935,0,5.404,0
			C4.873,0,4.442,0.432,4.442,0.962c0,0.103,0.028,0.196,0.058,0.288H3.375c-1.518,0-2.75,1.234-2.75,2.75v26
			c0,1.518,1.232,2.75,2.75,2.75H26.27l5.855-5.855V4C32.125,2.484,30.893,1.25,29.375,1.25z M30.625,26.273l-0.311,0.311h-2.355
			c-1.102,0-2,0.9-2,2v2.355l-0.311,0.311H3.375c-0.689,0-1.25-0.561-1.25-1.25V3h28.5V26.273z"/>
		<path d="M23.959,28.584c0-2.206,1.794-4,4-4h0.666V5h-24.5v24.25h19.834V28.584z M20.836,20.786
			c-0.135,0.627-0.374,1.173-0.721,1.64c-0.348,0.467-0.82,0.838-1.42,1.11s-1.367,0.409-2.3,0.409c-1.04,0-1.87-0.159-2.49-0.479
			c-0.62-0.319-1.093-0.78-1.42-1.38c-0.327-0.6-0.537-1.322-0.63-2.17c-0.094-0.848-0.141-1.803-0.141-2.87
			c0-1.173,0.041-2.227,0.121-3.16c0.08-0.933,0.286-1.727,0.619-2.38c0.334-0.653,0.826-1.149,1.48-1.49
			c0.652-0.34,1.553-0.51,2.699-0.51c1.268,0,2.264,0.283,2.99,0.851c0.727,0.566,1.104,1.489,1.131,2.77h-3.24
			c0-0.2-0.014-0.39-0.041-0.57c-0.025-0.18-0.078-0.343-0.158-0.489c-0.174-0.294-0.446-0.44-0.82-0.44
			c-0.28,0-0.51,0.063-0.69,0.19c-0.18,0.127-0.326,0.34-0.439,0.64c-0.113,0.3-0.189,0.71-0.23,1.229
			c-0.039,0.521-0.06,1.167-0.06,1.94h0.04c0.227-0.427,0.553-0.74,0.98-0.94c0.426-0.199,0.939-0.3,1.539-0.3
			c1.08,0,1.917,0.337,2.511,1.011c0.594,0.672,0.891,1.803,0.891,3.39C21.035,19.493,20.969,20.159,20.836,20.786z"/>
		<path d="M16.416,16.866c-0.254,0-0.461,0.057-0.621,0.17c-0.16,0.112-0.283,0.272-0.369,0.479
			c-0.088,0.207-0.147,0.446-0.181,0.721c-0.034,0.273-0.05,0.568-0.05,0.89c0,0.84,0.083,1.5,0.25,1.979
			c0.166,0.479,0.496,0.721,0.99,0.721c0.48,0,0.807-0.217,0.98-0.65c0.172-0.433,0.26-1.035,0.26-1.81
			c0-0.88-0.077-1.517-0.229-1.91C17.292,17.062,16.948,16.866,16.416,16.866z"/>
	</g>
</g>
<g>
</g>
<g>
</g>
<g>
</g>
<g>
</g>
<g>
</g>
<g>
</g>
<g>
</g>
<g>
</g>
<g>
</g>
<g>
</g>
<g>
</g>
<g>
</g>
<g>
</g>
<g>
</g>
<g>
</g>
</svg>
