<?xml version="1.0" encoding="iso-8859-1"?>
<!-- Generator: Adobe Illustrator 16.0.0, SVG Export Plug-In . SVG Version: 6.00 Build 0)  -->
<!DOCTYPE svg PUBLIC "-//W3C//DTD SVG 1.1//EN" "http://www.w3.org/Graphics/SVG/1.1/DTD/svg11.dtd">
<svg version="1.1" id="Capa_1" xmlns="http://www.w3.org/2000/svg" xmlns:xlink="http://www.w3.org/1999/xlink" x="0px" y="0px"
	 width="30.691px" height="30.691px" viewBox="0 0 30.691 30.691" style="enable-background:new 0 0 30.691 30.691;"
	 xml:space="preserve">
<g>
	<g>
		<path d="M2.846,7.691v23h25v-23H2.846z M14.74,24.652H7.629c0-0.661,0.087-1.254,0.258-1.778c0.174-0.524,0.39-0.991,0.646-1.399
			c0.256-0.41,0.53-0.766,0.818-1.07c0.287-0.305,0.554-0.562,0.795-0.771c0.472-0.42,0.839-0.773,1.101-1.062
			c0.262-0.287,0.457-0.539,0.583-0.756c0.126-0.213,0.198-0.41,0.22-0.59c0.021-0.179,0.031-0.371,0.031-0.582
			c0-0.439-0.061-0.793-0.181-1.062c-0.121-0.269-0.369-0.401-0.747-0.401c-0.253,0-0.446,0.064-0.583,0.196
			c-0.136,0.132-0.234,0.299-0.298,0.503c-0.063,0.206-0.101,0.43-0.111,0.67c-0.01,0.241-0.015,0.467-0.015,0.676H7.69v-0.362
			c0-2.233,1.196-3.353,3.589-3.353c0.671,0,1.229,0.083,1.676,0.245c0.445,0.162,0.799,0.383,1.062,0.66
			c0.263,0.278,0.446,0.604,0.55,0.983c0.106,0.377,0.159,0.787,0.159,1.228c0,0.419-0.027,0.781-0.079,1.086
			c-0.054,0.306-0.147,0.591-0.283,0.856c-0.137,0.269-0.318,0.533-0.543,0.796c-0.227,0.262-0.512,0.556-0.857,0.881
			c-0.546,0.535-1.01,0.983-1.393,1.346c-0.384,0.361-0.644,0.7-0.779,1.015h3.949L14.74,24.652L14.74,24.652z M22.914,22.732
			c-0.102,0.42-0.286,0.789-0.561,1.107c-0.271,0.32-0.648,0.573-1.132,0.756c-0.481,0.185-1.103,0.275-1.856,0.275
			c-0.756,0-1.375-0.087-1.857-0.26c-0.48-0.172-0.859-0.413-1.133-0.725c-0.272-0.31-0.459-0.677-0.558-1.102
			c-0.1-0.426-0.149-0.889-0.149-1.393c0-0.314,0.034-0.619,0.103-0.912c0.069-0.295,0.175-0.56,0.322-0.795
			c0.146-0.236,0.336-0.437,0.565-0.6c0.229-0.161,0.515-0.27,0.85-0.322v-0.029c-0.471-0.127-0.844-0.385-1.116-0.772
			c-0.272-0.387-0.407-0.912-0.407-1.573c0-0.418,0.059-0.805,0.18-1.156c0.119-0.352,0.313-0.653,0.582-0.911
			c0.269-0.258,0.617-0.457,1.047-0.599s0.955-0.213,1.574-0.213c0.617,0,1.143,0.069,1.572,0.205
			c0.43,0.137,0.778,0.33,1.047,0.583c0.268,0.252,0.461,0.553,0.58,0.904c0.122,0.352,0.184,0.747,0.184,1.188
			c0,0.631-0.135,1.149-0.401,1.56c-0.269,0.407-0.657,0.671-1.173,0.786v0.031c0.598,0.094,1.062,0.367,1.393,0.817
			c0.33,0.451,0.496,1.056,0.496,1.812C23.063,21.866,23.013,22.312,22.914,22.732z"/>
		<path d="M19.367,18.012c0.303,0,0.533-0.103,0.69-0.307c0.156-0.205,0.236-0.579,0.236-1.124c0-0.39-0.066-0.719-0.196-0.992
			c-0.132-0.272-0.376-0.409-0.73-0.409c-0.357,0-0.603,0.137-0.732,0.409c-0.131,0.273-0.196,0.604-0.196,0.992
			c0,0.545,0.078,0.919,0.236,1.124C18.83,17.909,19.061,18.012,19.367,18.012z"/>
		<path d="M20.207,20.184c-0.079-0.156-0.188-0.279-0.322-0.369c-0.137-0.09-0.311-0.135-0.52-0.135s-0.383,0.045-0.52,0.135
			s-0.244,0.213-0.323,0.369c-0.079,0.157-0.134,0.342-0.165,0.551c-0.031,0.211-0.048,0.44-0.048,0.692
			c0,0.251,0.017,0.484,0.048,0.7c0.031,0.215,0.086,0.4,0.165,0.559c0.079,0.157,0.187,0.283,0.323,0.377
			c0.137,0.096,0.311,0.143,0.52,0.143s0.383-0.047,0.52-0.143c0.136-0.094,0.243-0.22,0.322-0.377
			c0.078-0.158,0.133-0.344,0.166-0.559c0.029-0.216,0.047-0.449,0.047-0.7c0-0.252-0.018-0.481-0.047-0.692
			C20.34,20.525,20.285,20.341,20.207,20.184z"/>
		<path d="M8.68,6.8l6.26-5.326c0.121,0.073,0.255,0.127,0.406,0.127s0.285-0.054,0.406-0.127l6.26,5.326h0.771l-6.699-5.699
			c0.039-0.093,0.062-0.194,0.062-0.301c0-0.441-0.358-0.8-0.8-0.8s-0.801,0.358-0.801,0.8c0,0.106,0.022,0.208,0.061,0.301
			L7.908,6.8H8.68z"/>
	</g>
</g>
<g>
</g>
<g>
</g>
<g>
</g>
<g>
</g>
<g>
</g>
<g>
</g>
<g>
</g>
<g>
</g>
<g>
</g>
<g>
</g>
<g>
</g>
<g>
</g>
<g>
</g>
<g>
</g>
<g>
</g>
</svg>
