<?xml version="1.0" encoding="iso-8859-1"?>
<!-- Generator: Adobe Illustrator 16.0.0, SVG Export Plug-In . SVG Version: 6.00 Build 0)  -->
<!DOCTYPE svg PUBLIC "-//W3C//DTD SVG 1.1//EN" "http://www.w3.org/Graphics/SVG/1.1/DTD/svg11.dtd">
<svg version="1.1" id="Capa_1" xmlns="http://www.w3.org/2000/svg" xmlns:xlink="http://www.w3.org/1999/xlink" x="0px" y="0px"
	 width="36.447px" height="36.447px" viewBox="0 0 36.447 36.447" style="enable-background:new 0 0 36.447 36.447;"
	 xml:space="preserve">
<g>
	<g>
		<path d="M30.224,3.947h-1.098V2.75c0-1.516-1.197-2.75-2.67-2.75c-1.474,0-2.67,1.234-2.67,2.75v1.197h-2.74V2.75
			c0-1.516-1.197-2.75-2.67-2.75s-2.67,1.234-2.67,2.75v1.197h-2.74V2.75c0-1.516-1.197-2.75-2.67-2.75s-2.67,1.234-2.67,2.75v1.197
			H6.224c-2.343,0-4.25,1.907-4.25,4.25v24c0,2.343,1.907,4.25,4.25,4.25h24c2.344,0,4.25-1.907,4.25-4.25v-24
			C34.474,5.854,32.566,3.947,30.224,3.947z M25.286,2.75c0-0.689,0.524-1.25,1.17-1.25c0.645,0,1.17,0.561,1.17,1.25v4.895
			c0,0.689-0.525,1.25-1.17,1.25c-0.646,0-1.17-0.561-1.17-1.25V2.75z M17.206,2.75c0-0.689,0.525-1.25,1.17-1.25
			s1.17,0.561,1.17,1.25v4.895c0,0.689-0.525,1.25-1.17,1.25s-1.17-0.561-1.17-1.25V2.75z M9.125,2.75c0-0.689,0.525-1.25,1.17-1.25
			s1.17,0.561,1.17,1.25v4.895c0,0.689-0.525,1.25-1.17,1.25s-1.17-0.561-1.17-1.25V2.75z M31.974,32.197
			c0,0.965-0.785,1.75-1.75,1.75h-24c-0.965,0-1.75-0.785-1.75-1.75v-22h27.5V32.197z"/>
		<path d="M11.965,15.331c0,0,0.509,0.816,1.27,0.932c0.566,0.084,1.112-0.242,1.355-0.416c1.078,1.872,1.837,3.661,2.38,5.315
			c-2.152,0.17-3.683,0.595-3.683,1.093l1.766,8.381c0,0.647,1.784,1.172,3.984,1.172c2.198,0,3.981-0.524,3.981-1.172l1.767-8.381
			c0-0.601-2.216-1.095-5.068-1.164c0.207-0.776,0.507-1.624,0.923-2.517c0.118,0.059,0.862,0.406,1.506,0.153
			c0.7-0.276,1.005-1.166,1.005-1.166s-0.83-0.441-1.531-0.166c-0.302,0.12-0.525,0.354-0.688,0.582
			c0.459-0.891,1.029-1.818,1.764-2.761c-0.598,0.62-1.113,1.249-1.562,1.875c0.205-0.408,0.438-1.051,0.287-1.681
			c-0.248-1.034-1.433-1.638-1.433-1.638s-0.782,1.074-0.536,2.11c0.232,0.97,1.277,1.555,1.406,1.624
			c-0.836,1.25-1.404,2.474-1.786,3.578c-0.012,0-0.022,0-0.034,0c-0.354,0-0.701,0.008-1.04,0.021
			c-0.581-1.416-1.342-2.914-2.317-4.437c0.304,0.09,0.727,0.159,1.113,0.005c0.699-0.276,1.005-1.166,1.005-1.166
			s-0.831-0.441-1.532-0.166c-0.442,0.175-0.728,0.595-0.876,0.88c-0.903-1.351-1.982-2.717-3.277-4.059
			c0.78,1.004,1.442,1.995,2.041,2.972c-0.195-0.149-0.431-0.279-0.701-0.32C12.691,14.7,11.965,15.331,11.965,15.331z
			 M19.591,21.591c0.162,0.003,0.334,0.003,0.486,0.01c0.114,0.005,0.217,0.011,0.328,0.017c0.206,0.011,0.412,0.021,0.604,0.037
			c0.121,0.008,0.23,0.021,0.346,0.03c0.163,0.017,0.326,0.03,0.475,0.048c0.112,0.014,0.215,0.028,0.319,0.043
			c0.134,0.018,0.269,0.036,0.39,0.057c0.098,0.016,0.188,0.031,0.275,0.049c0.111,0.021,0.219,0.042,0.318,0.062
			c0.08,0.019,0.156,0.035,0.228,0.054c0.089,0.021,0.173,0.044,0.249,0.064c0.062,0.019,0.122,0.036,0.176,0.054
			c0.068,0.021,0.131,0.043,0.186,0.065c0.044,0.017,0.085,0.033,0.119,0.05c0.021,0.008,0.033,0.018,0.052,0.025
			c-0.55,0.27-2.19,0.637-4.787,0.667C19.404,22.515,19.48,22.07,19.591,21.591z M19.296,23.425
			c2.134-0.021,3.959-0.274,4.871-0.644l-1.549,7.349c-0.517-0.315-1.49-0.554-2.679-0.634c-0.045-0.987-0.202-2.588-0.687-4.557
			C19.237,24.57,19.239,24.057,19.296,23.425z M18.904,21.583c-0.124,0.401-0.221,0.78-0.301,1.138
			c-0.125-0.367-0.262-0.742-0.409-1.124C18.424,21.59,18.659,21.584,18.904,21.583z M18.221,29.488
			c-1.228,0.074-2.235,0.318-2.765,0.643l-1.548-7.35c0.738,0.299,2.076,0.522,3.693,0.607
			C18.238,26.119,18.278,28.273,18.221,29.488z M17.125,21.65c0.129,0.422,0.244,0.83,0.347,1.231
			c-1.873-0.11-3.083-0.401-3.537-0.624c0.019-0.008,0.031-0.018,0.051-0.025c0.036-0.017,0.076-0.033,0.119-0.049
			c0.056-0.021,0.118-0.045,0.188-0.066c0.053-0.018,0.11-0.035,0.17-0.053c0.078-0.021,0.163-0.043,0.254-0.065
			c0.071-0.019,0.145-0.035,0.225-0.054c0.1-0.021,0.21-0.041,0.321-0.062c0.089-0.018,0.177-0.033,0.271-0.049
			c0.124-0.021,0.258-0.039,0.394-0.059c0.104-0.014,0.205-0.027,0.315-0.041c0.149-0.019,0.314-0.033,0.478-0.049
			c0.114-0.01,0.224-0.021,0.344-0.031C17.083,21.652,17.104,21.65,17.125,21.65z"/>
	</g>
</g>
<g>
</g>
<g>
</g>
<g>
</g>
<g>
</g>
<g>
</g>
<g>
</g>
<g>
</g>
<g>
</g>
<g>
</g>
<g>
</g>
<g>
</g>
<g>
</g>
<g>
</g>
<g>
</g>
<g>
</g>
</svg>
