<?xml version="1.0" encoding="iso-8859-1"?>
<!-- Generator: Adobe Illustrator 16.0.0, SVG Export Plug-In . SVG Version: 6.00 Build 0)  -->
<!DOCTYPE svg PUBLIC "-//W3C//DTD SVG 1.1//EN" "http://www.w3.org/Graphics/SVG/1.1/DTD/svg11.dtd">
<svg version="1.1" id="Capa_1" xmlns="http://www.w3.org/2000/svg" xmlns:xlink="http://www.w3.org/1999/xlink" x="0px" y="0px"
	 width="31.5px" height="31.5px" viewBox="0 0 31.5 31.5" style="enable-background:new 0 0 31.5 31.5;" xml:space="preserve">
<g>
	<path d="M28.75,0h-26C1.232,0,0,1.234,0,2.75v26c0,1.518,1.232,2.75,2.75,2.75h22.895l5.855-5.855V2.75
		C31.5,1.234,30.268,0,28.75,0z M24.583,2.042c0.817,0,1.479,0.662,1.479,1.479C26.062,4.337,25.4,5,24.583,5
		s-1.479-0.662-1.479-1.479S23.766,2.042,24.583,2.042z M20.166,2.042c0.816,0,1.479,0.662,1.479,1.479
		C21.645,4.337,20.982,5,20.166,5s-1.479-0.662-1.479-1.479S19.35,2.042,20.166,2.042z M15.75,2.042
		c0.816,0,1.479,0.662,1.479,1.479C17.229,4.337,16.567,5,15.75,5s-1.479-0.662-1.479-1.479S14.933,2.042,15.75,2.042z
		 M11.334,2.042c0.816,0,1.479,0.662,1.479,1.479C12.813,4.337,12.151,5,11.334,5c-0.818,0-1.48-0.662-1.48-1.479
		S10.516,2.042,11.334,2.042z M6.917,2.042c0.817,0,1.479,0.662,1.479,1.479C8.396,4.337,7.734,5,6.917,5S5.438,4.338,5.438,3.521
		S6.1,2.042,6.917,2.042z M12.111,15.645c-0.118,0.127-0.241,0.258-0.374,0.39c-0.869,0.871-1.681,1.472-1.81,1.342
		c-0.129-0.129,0.473-0.938,1.342-1.812c0.133-0.131,0.262-0.256,0.39-0.371l-0.146-0.146c-0.119,0.127-0.242,0.258-0.374,0.391
		c-0.871,0.869-1.681,1.472-1.811,1.34C9.2,16.65,9.8,15.839,10.671,14.967c0.133-0.131,0.262-0.255,0.39-0.373l-0.146-0.145
		c-0.119,0.127-0.242,0.257-0.374,0.389C9.67,15.71,8.859,16.311,8.73,16.182c-0.128-0.13,0.473-0.939,1.344-1.812
		c0.133-0.133,0.262-0.256,0.389-0.373l-0.146-0.146c-0.118,0.127-0.241,0.257-0.373,0.39c-0.872,0.868-1.683,1.472-1.812,1.341
		c-0.129-0.128,0.473-0.938,1.343-1.811c0.132-0.132,0.262-0.255,0.389-0.374l-0.146-0.145c-0.119,0.126-0.241,0.257-0.373,0.39
		c-0.872,0.869-1.682,1.472-1.812,1.343c-0.129-0.13,0.472-0.94,1.343-1.812c0.132-0.133,0.262-0.255,0.388-0.373l-0.145-0.146
		C9,12.781,8.877,12.912,8.745,13.044c-0.871,0.87-1.681,1.472-1.811,1.343c-0.129-0.13,0.473-0.939,1.342-1.812
		c0.138-0.136,0.271-0.263,0.402-0.385c-0.239-0.303-0.23-0.742,0.048-1.021l0.783-0.781c0.299-0.302,0.791-0.3,1.093,0
		c0,0,11.03,11.031,12.686,12.687c1.737,1.737,2.397,3.237,1.976,3.659c-0.42,0.421-1.541,0-3.658-1.979
		c-0.844-0.787-3.654-4.744-5.265-6.363c-1.996-2.004-2.701-1.291-3.632-2.154c-0.12,0.128-0.244,0.259-0.376,0.393
		c-0.871,0.87-1.682,1.473-1.811,1.344c-0.129-0.131,0.473-0.939,1.343-1.812c0.132-0.132,0.261-0.255,0.389-0.374L12.111,15.645z
		 M30,25.023l-0.311,0.311h-2.355c-0.482,0-0.919,0.18-1.266,0.466c-0.252-0.909-1.041-2.081-2.231-3.271l-2.183-2.182
		c1.261-4.938,1.812-10.432,0.017-11.536c-3.312-2.037-5.688,0.934-7.471,0.934c-1.784,0-3.906-2.886-7.472-0.934
		C3.162,10.765,7.323,26.217,9.445,26.98c2.123,0.766,0.896-6.026,4.632-6.366c3.735-0.339,1.48,8.915,3.858,8.065
		c0.698-0.25,1.596-1.9,2.432-4.15c0.289,0.35,0.531,0.625,0.712,0.795c1.403,1.31,3.095,2.676,4.253,2.265v2.103l-0.311,0.311H2.75
		C2.061,30,1.5,29.439,1.5,28.75v-22H30V25.023z"/>
</g>
<g>
</g>
<g>
</g>
<g>
</g>
<g>
</g>
<g>
</g>
<g>
</g>
<g>
</g>
<g>
</g>
<g>
</g>
<g>
</g>
<g>
</g>
<g>
</g>
<g>
</g>
<g>
</g>
<g>
</g>
</svg>
