<?xml version="1.0" encoding="iso-8859-1"?>
<!-- Generator: Adobe Illustrator 16.0.0, SVG Export Plug-In . SVG Version: 6.00 Build 0)  -->
<!DOCTYPE svg PUBLIC "-//W3C//DTD SVG 1.1//EN" "http://www.w3.org/Graphics/SVG/1.1/DTD/svg11.dtd">
<svg version="1.1" id="Capa_1" xmlns="http://www.w3.org/2000/svg" xmlns:xlink="http://www.w3.org/1999/xlink" x="0px" y="0px"
	 width="36.447px" height="36.447px" viewBox="0 0 36.447 36.447" style="enable-background:new 0 0 36.447 36.447;"
	 xml:space="preserve">
<g>
	<g>
		<path d="M30.224,3.947h-1.098V2.75c0-1.516-1.199-2.75-2.67-2.75c-1.473,0-2.67,1.234-2.67,2.75v1.197h-2.742V2.75
			c0-1.516-1.196-2.75-2.668-2.75s-2.669,1.234-2.669,2.75v1.197h-2.741V2.75c0-1.516-1.198-2.75-2.67-2.75
			c-1.472,0-2.67,1.234-2.67,2.75v1.197H6.224c-2.343,0-4.25,1.907-4.25,4.25v24c0,2.343,1.907,4.25,4.25,4.25h24
			c2.343,0,4.25-1.907,4.25-4.25v-24C34.474,5.854,32.566,3.947,30.224,3.947z M25.286,2.75c0-0.689,0.524-1.25,1.17-1.25
			c0.645,0,1.17,0.561,1.17,1.25v4.895c0,0.689-0.525,1.25-1.17,1.25c-0.646,0-1.17-0.561-1.17-1.25V2.75z M17.207,2.75
			c0-0.689,0.524-1.25,1.169-1.25s1.168,0.561,1.168,1.25v4.895c0,0.689-0.523,1.25-1.168,1.25s-1.169-0.561-1.169-1.25V2.75z
			 M9.125,2.75c0-0.689,0.525-1.25,1.17-1.25s1.17,0.561,1.17,1.25v4.895c0,0.689-0.525,1.25-1.17,1.25s-1.17-0.561-1.17-1.25V2.75z
			 M31.974,32.197c0,0.965-0.785,1.75-1.75,1.75h-24c-0.965,0-1.75-0.785-1.75-1.75v-18h27.5V32.197z"/>
		<path d="M8.322,18.068l8.455,5.073c0.879,0.528,2.318,0.528,3.197,0l8.455-5.073c0.879-0.526,0.76-0.958-0.267-0.958H8.588
			C7.562,17.11,7.443,17.542,8.322,18.068z"/>
		<path d="M8.588,31.092h19.575c1.025,0,1.863-0.839,1.863-1.864V18.974c0-0.333-0.096-0.644-0.251-0.916
			c-0.151,0.263-0.416,0.538-0.868,0.81l-7.992,4.797l5.756,3.178c0.225,0.124,0.307,0.408,0.183,0.633
			c-0.085,0.154-0.244,0.241-0.408,0.241c-0.075,0-0.153-0.019-0.225-0.058l-6.285-3.471c-0.47,0.182-1.005,0.282-1.561,0.282
			s-1.091-0.101-1.561-0.282l-6.284,3.471c-0.072,0.039-0.149,0.058-0.225,0.058c-0.164,0-0.323-0.087-0.408-0.241
			c-0.125-0.225-0.042-0.509,0.183-0.633l5.755-3.178l-7.993-4.797c-0.452-0.271-0.716-0.547-0.868-0.81
			c-0.155,0.272-0.251,0.582-0.251,0.916v10.253C6.725,30.253,7.562,31.092,8.588,31.092z"/>
	</g>
</g>
<g>
</g>
<g>
</g>
<g>
</g>
<g>
</g>
<g>
</g>
<g>
</g>
<g>
</g>
<g>
</g>
<g>
</g>
<g>
</g>
<g>
</g>
<g>
</g>
<g>
</g>
<g>
</g>
<g>
</g>
</svg>
