<?xml version="1.0" encoding="iso-8859-1"?>
<!-- Generator: Adobe Illustrator 16.0.0, SVG Export Plug-In . SVG Version: 6.00 Build 0)  -->
<!DOCTYPE svg PUBLIC "-//W3C//DTD SVG 1.1//EN" "http://www.w3.org/Graphics/SVG/1.1/DTD/svg11.dtd">
<svg version="1.1" id="Capa_1" xmlns="http://www.w3.org/2000/svg" xmlns:xlink="http://www.w3.org/1999/xlink" x="0px" y="0px"
	 width="37.884px" height="37.885px" viewBox="0 0 37.884 37.885" style="enable-background:new 0 0 37.884 37.885;"
	 xml:space="preserve">
<g>
	<path d="M31.212,8.157h-3.346L19.832,1.32c0.045-0.111,0.072-0.233,0.072-0.36c0-0.529-0.431-0.96-0.96-0.96
		c-0.531,0-0.961,0.431-0.961,0.96c0,0.127,0.027,0.249,0.072,0.36l-8.034,6.837H6.674c-1.432,0-2.595,1.164-2.595,2.595V35.29
		c0,1.433,1.163,2.595,2.595,2.595h21.606l5.524-5.525V10.752C33.806,9.321,32.642,8.157,31.212,8.157z M28.675,11.48
		c0,0.771-0.626,1.396-1.396,1.396s-1.396-0.625-1.396-1.396s0.625-1.396,1.396-1.396S28.675,10.71,28.675,11.48z M18.458,1.767
		c0.144,0.088,0.304,0.154,0.486,0.154s0.341-0.065,0.488-0.153l7.508,6.39H10.947L18.458,1.767z M24.507,11.48
		c0,0.771-0.625,1.396-1.398,1.396c-0.77,0-1.394-0.625-1.394-1.396s0.624-1.396,1.394-1.396
		C23.882,10.084,24.507,10.71,24.507,11.48z M20.339,11.48c0,0.771-0.626,1.396-1.396,1.396c-0.771,0-1.396-0.625-1.396-1.396
		s0.626-1.396,1.396-1.396S20.339,10.71,20.339,11.48z M16.17,11.48c0,0.771-0.623,1.396-1.393,1.396
		c-0.774,0-1.399-0.625-1.399-1.396s0.625-1.396,1.399-1.396C15.547,10.084,16.17,10.71,16.17,11.48z M10.607,10.084
		c0.771,0,1.396,0.626,1.396,1.396s-0.625,1.396-1.396,1.396s-1.396-0.625-1.396-1.396S9.837,10.084,10.607,10.084z M32.392,31.773
		l-0.294,0.291h-2.224c-1.038,0-1.887,0.852-1.887,1.889v2.224l-0.293,0.293h-4.043c-0.166-0.489-0.324-0.962-0.473-1.391
		c-0.619-1.818-1.047-3.028-1.047-3.028s0.518-0.093,0.811-0.559c0.291-0.463,0.146-1.141,0.146-1.141l0.683,0.071
		c0,0,0.273,0.101,0.354,0.047c0.077-0.053,0.146-0.146,0.146-0.146s0.187,0.107,0.254,0.055c0.064-0.055,0.131-0.135,0.131-0.135
		s0.174,0.08,0.252,0c0.08-0.079-0.039-0.262-0.039-0.262l5.135,1.269c0,0-0.111-7.476-5.045-8.661
		c-2.988-0.716-4.814,1.217-4.814,1.217s-0.824-0.771-1.342-1.05c-0.515-0.28-1.208-0.399-1.208-0.399l0.119-0.502
		c0,0,0.519,0.131,0.506-0.055c-0.014-0.186-0.107-1.062-0.107-1.062s0.227-0.211,0.205-0.369c-0.02-0.158,0.075-1.781-0.058-1.965
		c-0.132-0.186-0.665-0.877-1.355-1.077c-0.689-0.199-1.539,0.08-1.539,0.08s-0.214-0.492-0.438-0.532
		c-0.226-0.041-0.531,0.146-0.531,0.146s-0.292-0.199-0.729-0.04c-0.439,0.158-0.559,0.462-0.559,0.462s-0.49,0.202-0.625,0.519
		c-0.136,0.319-0.012,0.665-0.012,0.665s-1.035,0.863-1.432,2.079c-0.395,1.216,0.18,2.657,0.343,3.159
		c0.164,0.5-0.345,2.037,0.079,2.537s0.944,0.037,1.329,0.457c0.384,0.418,2.376,3.105,2.429,3.979
		c0.013,0.203-0.012,0.838-0.638,2.514c-0.174,0.463-0.743,1.498-0.949,2.034c-0.138,0.362-0.238,0.722-0.33,1.083H6.677
		c-0.651,0-1.18-0.529-1.18-1.18V14.527h26.896v17.247H32.392z M23.546,26.607c-0.915,0-1.656,0.742-1.656,1.655
		c0,0.089,0.012,0.173,0.026,0.259l-1.058-0.209l-1.455-0.418l-1.267-0.24c0,0,1.753-5.416,6.229-4.814
		c4.896,0.658,5.168,7.964,5.168,7.964l-4.213-1.024l-0.558-0.405c0.267-0.294,0.435-0.683,0.435-1.11
		C25.199,27.35,24.458,26.607,23.546,26.607z"/>
</g>
<g>
</g>
<g>
</g>
<g>
</g>
<g>
</g>
<g>
</g>
<g>
</g>
<g>
</g>
<g>
</g>
<g>
</g>
<g>
</g>
<g>
</g>
<g>
</g>
<g>
</g>
<g>
</g>
<g>
</g>
</svg>
