<?xml version="1.0" encoding="iso-8859-1"?>
<!-- Generator: Adobe Illustrator 16.0.0, SVG Export Plug-In . SVG Version: 6.00 Build 0)  -->
<!DOCTYPE svg PUBLIC "-//W3C//DTD SVG 1.1//EN" "http://www.w3.org/Graphics/SVG/1.1/DTD/svg11.dtd">
<svg version="1.1" id="Capa_1" xmlns="http://www.w3.org/2000/svg" xmlns:xlink="http://www.w3.org/1999/xlink" x="0px" y="0px"
	 width="37.884px" height="37.885px" viewBox="0 0 37.884 37.885" style="enable-background:new 0 0 37.884 37.885;"
	 xml:space="preserve">
<g>
	<g>
		<path d="M31.212,8.157h-3.346L19.832,1.32c0.045-0.111,0.072-0.233,0.072-0.36c0-0.529-0.431-0.96-0.96-0.96
			c-0.531,0-0.961,0.431-0.961,0.96c0,0.127,0.027,0.249,0.072,0.36l-8.034,6.837H6.674c-1.432,0-2.595,1.164-2.595,2.595V35.29
			c0,1.433,1.163,2.595,2.595,2.595h21.606l5.524-5.525V10.752C33.806,9.321,32.642,8.157,31.212,8.157z M28.675,11.48
			c0,0.771-0.626,1.396-1.396,1.396s-1.396-0.625-1.396-1.396s0.625-1.396,1.396-1.396S28.675,10.71,28.675,11.48z M18.458,1.767
			c0.144,0.088,0.304,0.154,0.486,0.154s0.341-0.065,0.488-0.153l7.508,6.39H10.947L18.458,1.767z M24.507,11.48
			c0,0.771-0.625,1.396-1.398,1.396c-0.77,0-1.394-0.625-1.394-1.396s0.624-1.396,1.394-1.396
			C23.882,10.084,24.507,10.71,24.507,11.48z M20.339,11.48c0,0.771-0.626,1.396-1.396,1.396c-0.771,0-1.396-0.625-1.396-1.396
			s0.626-1.396,1.396-1.396S20.339,10.71,20.339,11.48z M16.17,11.48c0,0.771-0.623,1.396-1.393,1.396
			c-0.774,0-1.399-0.625-1.399-1.396s0.625-1.396,1.399-1.396C15.547,10.084,16.17,10.71,16.17,11.48z M10.607,10.084
			c0.771,0,1.396,0.626,1.396,1.396s-0.625,1.396-1.396,1.396s-1.396-0.625-1.396-1.396S9.837,10.084,10.607,10.084z M32.392,31.773
			l-0.294,0.291h-2.224c-1.038,0-1.887,0.852-1.887,1.889v2.224l-0.293,0.293H6.674c-0.651,0-1.18-0.528-1.18-1.18V14.527H32.39
			v17.247H32.392z"/>
		<path d="M11.081,24.771l1.356,0.543c0,0.56,0.073,1.121,0.223,1.676l-1.171,0.875c-0.18,0.135-0.234,0.404-0.122,0.598
			l1.059,1.834c0.112,0.193,0.371,0.279,0.578,0.191l1.345-0.574c0.404,0.404,0.854,0.749,1.339,1.027l-0.207,1.447
			c-0.03,0.221,0.12,0.45,0.337,0.508l2.043,0.549c0.216,0.059,0.461-0.063,0.545-0.271l0.544-1.357
			c0.559,0,1.121-0.074,1.675-0.223l0.877,1.172c0.133,0.178,0.402,0.233,0.596,0.121l1.834-1.059
			c0.194-0.112,0.281-0.372,0.193-0.578l-0.576-1.346c0.404-0.403,0.751-0.854,1.029-1.34l1.447,0.207
			c0.222,0.032,0.449-0.119,0.508-0.334l0.549-2.047c0.058-0.216-0.064-0.461-0.273-0.545l-1.355-0.543
			c0-0.561-0.073-1.121-0.223-1.674l1.172-0.877c0.179-0.135,0.233-0.402,0.121-0.598l-1.06-1.832
			c-0.112-0.194-0.372-0.28-0.578-0.192l-1.345,0.575c-0.405-0.405-0.855-0.75-1.342-1.031l0.207-1.445
			c0.031-0.222-0.118-0.451-0.336-0.509l-2.045-0.548c-0.215-0.058-0.461,0.064-0.545,0.272l-0.542,1.358
			c-0.559,0-1.121,0.073-1.674,0.222l-0.877-1.171c-0.133-0.18-0.402-0.234-0.596-0.122l-1.834,1.059
			c-0.194,0.112-0.281,0.371-0.193,0.576l0.576,1.347c-0.405,0.403-0.751,0.854-1.03,1.339l-1.447-0.207
			c-0.221-0.031-0.449,0.119-0.507,0.335l-0.549,2.046C10.75,24.441,10.873,24.688,11.081,24.771z M16.908,21.785
			c1.947-1.125,4.436-0.457,5.56,1.49s0.457,4.436-1.488,5.559c-1.948,1.124-4.437,0.457-5.561-1.49S14.962,22.908,16.908,21.785z"
			/>
	</g>
</g>
<g>
</g>
<g>
</g>
<g>
</g>
<g>
</g>
<g>
</g>
<g>
</g>
<g>
</g>
<g>
</g>
<g>
</g>
<g>
</g>
<g>
</g>
<g>
</g>
<g>
</g>
<g>
</g>
<g>
</g>
</svg>
