<?xml version="1.0" encoding="iso-8859-1"?>
<!-- Generator: Adobe Illustrator 16.0.0, SVG Export Plug-In . SVG Version: 6.00 Build 0)  -->
<!DOCTYPE svg PUBLIC "-//W3C//DTD SVG 1.1//EN" "http://www.w3.org/Graphics/SVG/1.1/DTD/svg11.dtd">
<svg version="1.1" id="Capa_1" xmlns="http://www.w3.org/2000/svg" xmlns:xlink="http://www.w3.org/1999/xlink" x="0px" y="0px"
	 width="32.75px" height="32.75px" viewBox="0 0 32.75 32.75" style="enable-background:new 0 0 32.75 32.75;" xml:space="preserve"
	>
<g>
	<g>
		<path d="M29.375,1.25h-1.123c0.029-0.093,0.059-0.186,0.059-0.289c0-0.53-0.432-0.961-0.963-0.961s-0.961,0.431-0.961,0.961
			c0,0.103,0.028,0.196,0.059,0.289h-3.68c0.029-0.093,0.059-0.186,0.059-0.289C22.823,0.431,22.393,0,21.861,0
			C21.331,0,20.9,0.431,20.9,0.961c0,0.103,0.029,0.196,0.059,0.289h-3.682c0.029-0.093,0.059-0.186,0.059-0.289
			c0-0.53-0.43-0.961-0.961-0.961c-0.531,0-0.961,0.431-0.961,0.961c0,0.103,0.028,0.196,0.058,0.289h-3.681
			c0.029-0.093,0.059-0.186,0.059-0.289C11.85,0.431,11.419,0,10.889,0c-0.531,0-0.962,0.431-0.962,0.961
			c0,0.103,0.028,0.196,0.058,0.289h-3.68c0.03-0.093,0.059-0.186,0.059-0.289C6.364,0.43,5.934,0,5.403,0
			C4.872,0,4.441,0.431,4.441,0.961c0,0.103,0.028,0.196,0.058,0.289H3.375c-1.518,0-2.75,1.233-2.75,2.75v26
			c0,1.518,1.232,2.75,2.75,2.75H26.27l5.855-5.855V4C32.125,2.483,30.893,1.25,29.375,1.25z M30.625,26.273l-0.311,0.311h-2.355
			c-0.549,0-1.046,0.225-1.408,0.583v-7.772h-5.598l-0.174-0.303c1.709-0.092,2.343-0.816,2.343-1.451v-0.716h3.429V8.809
			c0-0.453-0.371-0.825-0.824-0.825h-8.115v5.789c-0.531,0.335-0.979,0.667-1.241,0.873c-0.263-0.198-0.703-0.515-1.229-0.84V7.984
			H7.024C6.571,7.984,6.2,8.356,6.2,8.809v8.116h3.429v0.716c0,0.635,0.634,1.359,2.343,1.451l-0.174,0.303H6.2v8.116
			c0,0.453,0.371,0.825,0.824,0.825h8.116v-7.154l1.195-2.07h0.08l1.194,2.068v7.155h8.117c0.092,0,0.178-0.024,0.262-0.054
			c-0.016,0.1-0.029,0.199-0.029,0.302v2.356l-0.311,0.31H3.375c-0.689,0-1.25-0.562-1.25-1.25V5h28.5V26.273z M12.331,18.704
			c-1.753,0-2.296-0.629-2.296-1.063V14.1c0-0.435,0.485-1.334,2.296-1.064c1.73,0.259,4.044,2.128,4.044,2.128
			s2.303-1.945,4.044-2.127c1.769-0.185,2.296,0.629,2.296,1.064v3.54c0,0.436-0.543,1.064-2.296,1.064c-1.751,0-4.044,0-4.044,0
			S14.08,18.704,12.331,18.704z M15.865,19.111l-3.979,6.892l-0.396-2.29l-2.18,0.803l3.119-5.404H15.865z M20.32,19.111
			l3.119,5.404l-2.181-0.803l-0.396,2.29l-3.979-6.892H20.32z"/>
		<path d="M22.132,14.469c0-0.322-0.431-0.879-1.713-0.697c-0.8,0.114-1.997,0.715-2.876,1.391h2.876
			C21.684,15.164,22.132,14.789,22.132,14.469z"/>
		<path d="M10.618,14.469c0,0.32,0.449,0.694,1.713,0.694h2.874c-0.879-0.676-2.074-1.289-2.874-1.391
			C11.07,13.611,10.618,14.147,10.618,14.469z"/>
		<circle cx="16.375" cy="16.933" r="0.814"/>
	</g>
</g>
<g>
</g>
<g>
</g>
<g>
</g>
<g>
</g>
<g>
</g>
<g>
</g>
<g>
</g>
<g>
</g>
<g>
</g>
<g>
</g>
<g>
</g>
<g>
</g>
<g>
</g>
<g>
</g>
<g>
</g>
</svg>
