<?xml version="1.0" encoding="iso-8859-1"?>
<!-- Generator: Adobe Illustrator 16.0.0, SVG Export Plug-In . SVG Version: 6.00 Build 0)  -->
<!DOCTYPE svg PUBLIC "-//W3C//DTD SVG 1.1//EN" "http://www.w3.org/Graphics/SVG/1.1/DTD/svg11.dtd">
<svg version="1.1" id="Capa_1" xmlns="http://www.w3.org/2000/svg" xmlns:xlink="http://www.w3.org/1999/xlink" x="0px" y="0px"
	 width="36.447px" height="36.447px" viewBox="0 0 36.447 36.447" style="enable-background:new 0 0 36.447 36.447;"
	 xml:space="preserve">
<g>
	<g>
		<path d="M30.224,3.948h-1.098V2.75c0-1.516-1.197-2.75-2.67-2.75c-1.474,0-2.67,1.234-2.67,2.75v1.197h-2.74V2.75
			c0-1.516-1.197-2.75-2.67-2.75c-1.473,0-2.67,1.234-2.67,2.75v1.197h-2.74V2.75c0-1.516-1.197-2.75-2.67-2.75
			c-1.473,0-2.67,1.234-2.67,2.75v1.197H6.224c-2.343,0-4.25,1.907-4.25,4.25v24c0,2.343,1.907,4.25,4.25,4.25h24
			c2.344,0,4.25-1.907,4.25-4.25v-24C34.474,5.854,32.567,3.948,30.224,3.948z M25.286,2.75c0-0.689,0.525-1.25,1.17-1.25
			c0.646,0,1.17,0.561,1.17,1.25v4.895c0,0.689-0.524,1.25-1.17,1.25c-0.645,0-1.17-0.561-1.17-1.25V2.75z M17.206,2.75
			c0-0.689,0.525-1.25,1.17-1.25s1.17,0.561,1.17,1.25v4.895c0,0.689-0.525,1.25-1.17,1.25s-1.17-0.561-1.17-1.25V2.75z M9.125,2.75
			c0-0.689,0.525-1.25,1.17-1.25s1.17,0.561,1.17,1.25v4.895c0,0.689-0.525,1.25-1.17,1.25s-1.17-0.561-1.17-1.25V2.75z
			 M31.974,32.198c0,0.965-0.785,1.75-1.75,1.75h-24c-0.965,0-1.75-0.785-1.75-1.75v-22h27.5V32.198z"/>
		<path d="M12.645,29.934l2.213,1.277c0.589,0.342,1.333,0.404,2.095,0.18c0.992-0.291,1.887-1.019,2.337-1.895l0.828-1.617
			c0.209-0.417,0.021-0.896-0.162-1.361c-0.191-0.482-0.371-0.939-0.16-1.306c0.219-0.38,0.843-0.545,1.343-0.677
			c0.464-0.123,0.797-0.211,0.897-0.488c0.508-1.43-0.062-3.06-1.317-3.859l2.741-5.489l0.584,0.337
			c0.095,0.055,0.129,0.179,0.072,0.275c-0.055,0.096-0.051,0.202,0.008,0.235c0.061,0.035,0.154-0.016,0.209-0.111l0.197-0.344
			c0.057-0.095,0.022-0.219-0.072-0.274l-0.821-0.474l0.129-0.258l0.837,0.484c0.096,0.055,0.219,0.021,0.273-0.074l0.197-0.343
			c0.058-0.096,0.053-0.202-0.007-0.237c-0.059-0.034-0.153,0.017-0.208,0.112c-0.056,0.095-0.18,0.129-0.275,0.073l-0.642-0.37
			l0.062-0.12c0.232-0.017,0.453-0.131,0.578-0.348c0.201-0.346,0.082-0.79-0.265-0.989c-0.347-0.2-0.788-0.081-0.989,0.266
			c-0.125,0.216-0.113,0.464-0.015,0.672l-0.073,0.114l-0.64-0.37c-0.097-0.055-0.128-0.179-0.073-0.274
			c0.055-0.095,0.053-0.202-0.008-0.236c-0.061-0.034-0.152,0.016-0.209,0.111l-0.199,0.343c-0.055,0.096-0.021,0.22,0.074,0.274
			l0.834,0.482l-0.158,0.241l-0.818-0.473c-0.096-0.055-0.221-0.022-0.274,0.073l-0.198,0.344c-0.056,0.096-0.052,0.202,0.008,0.236
			c0.061,0.035,0.152-0.016,0.209-0.112c0.055-0.095,0.179-0.128,0.273-0.073l0.583,0.336l-3.384,5.12
			c-1.321-0.688-3.016-0.365-3.998,0.787c-0.288,0.312-0.145,0.776,0.008,1.268c0.137,0.437,0.29,0.932,0.103,1.257
			c-0.201,0.347-0.709,0.414-1.201,0.479c-0.537,0.069-1.093,0.144-1.293,0.619l-0.962,1.482c-0.535,0.828-0.717,1.965-0.475,2.97
			C11.626,28.98,12.055,29.594,12.645,29.934z M12.39,25.547l0.986-1.525c0.097-0.221,0.488-0.271,0.866-0.321
			c0.569-0.075,1.278-0.168,1.62-0.759c0.311-0.539,0.109-1.188-0.054-1.709c-0.074-0.24-0.198-0.643-0.125-0.721
			c0.808-0.949,2.176-1.221,3.258-0.688l-1.982,3l1.898,1.096l1.605-3.218c1.003,0.671,1.451,1.993,1.037,3.156
			c-0.03,0.004-0.308,0.076-0.51,0.13c-0.57,0.149-1.352,0.356-1.688,0.942c-0.347,0.603-0.086,1.266,0.125,1.797
			c0.144,0.365,0.278,0.707,0.185,0.895l-0.829,1.616c-0.375,0.731-1.156,1.362-1.99,1.608c-0.433,0.127-1.069,0.209-1.651-0.127
			l-0.564-0.324l2.027-2.982l-1.543-0.891l-1.569,3.246l-0.563-0.326c-0.582-0.336-0.83-0.93-0.937-1.366
			C11.787,27.23,11.946,26.238,12.39,25.547z"/>
	</g>
</g>
<g>
</g>
<g>
</g>
<g>
</g>
<g>
</g>
<g>
</g>
<g>
</g>
<g>
</g>
<g>
</g>
<g>
</g>
<g>
</g>
<g>
</g>
<g>
</g>
<g>
</g>
<g>
</g>
<g>
</g>
</svg>
