<?xml version="1.0" encoding="iso-8859-1"?>
<!-- Generator: Adobe Illustrator 16.0.0, SVG Export Plug-In . SVG Version: 6.00 Build 0)  -->
<!DOCTYPE svg PUBLIC "-//W3C//DTD SVG 1.1//EN" "http://www.w3.org/Graphics/SVG/1.1/DTD/svg11.dtd">
<svg version="1.1" id="Capa_1" xmlns="http://www.w3.org/2000/svg" xmlns:xlink="http://www.w3.org/1999/xlink" x="0px" y="0px"
	 width="32.75px" height="32.75px" viewBox="0 0 32.75 32.75" style="enable-background:new 0 0 32.75 32.75;" xml:space="preserve"
	>
<g>
	<g>
		<path d="M29.375,1.25h-1.123c0.029-0.092,0.059-0.186,0.059-0.288c0-0.53-0.432-0.962-0.963-0.962s-0.961,0.432-0.961,0.962
			c0,0.103,0.028,0.196,0.059,0.288h-3.68c0.029-0.092,0.059-0.186,0.059-0.288c0-0.53-0.432-0.962-0.963-0.962
			C21.332,0,20.9,0.432,20.9,0.962c0,0.103,0.029,0.196,0.06,0.288h-3.681c0.029-0.092,0.058-0.186,0.058-0.288
			c0-0.53-0.43-0.962-0.961-0.962c-0.531,0-0.961,0.432-0.961,0.962c0,0.103,0.028,0.196,0.058,0.288h-3.681
			c0.029-0.092,0.059-0.186,0.059-0.288C11.851,0.432,11.42,0,10.89,0c-0.531,0-0.962,0.432-0.962,0.962
			c0,0.103,0.028,0.196,0.058,0.288h-3.68c0.03-0.092,0.059-0.186,0.059-0.288C6.365,0.432,5.935,0,5.404,0
			C4.873,0,4.442,0.432,4.442,0.962c0,0.103,0.028,0.196,0.058,0.288H3.375c-1.518,0-2.75,1.234-2.75,2.75v26
			c0,1.518,1.232,2.75,2.75,2.75H26.27l5.855-5.855V4C32.125,2.484,30.893,1.25,29.375,1.25z M30.625,26.273l-0.311,0.311h-2.355
			c-1.102,0-2,0.9-2,2v2.355l-0.311,0.311H3.375c-0.689,0-1.25-0.561-1.25-1.25V5h28.5V26.273z"/>
		<path d="M17.852,18.128l6.094-6.095c0.723,0.197,1.525,0.023,2.095-0.544c0.841-0.843,0.84-2.207,0-3.047
			c-0.841-0.843-2.207-0.843-3.048,0c-0.566,0.567-0.742,1.369-0.544,2.092l-6.094,6.095l0.14,0.141l1.217,1.219L17.852,18.128z"/>
		<path d="M12.049,21.211c-0.302-0.771-0.144-1.684,0.48-2.307c0.625-0.627,1.536-0.784,2.309-0.481l1.654-1.653
			c-1.516-1.516-3.833-1.651-5.179-0.306c-0.441,0.442-0.708,0.992-0.834,1.582c-1.578-0.354-3.175-0.01-4.274,1.089
			c-1.85,1.85-1.579,5.123,0.609,7.311L12.049,21.211z"/>
		<path d="M15.577,21.949c-0.624,0.625-1.536,0.783-2.309,0.482l-5.234,5.231c2.188,2.188,5.461,2.461,7.312,0.61
			c1.099-1.099,1.444-2.698,1.09-4.273c0.588-0.126,1.139-0.393,1.582-0.835c1.346-1.347,1.209-3.664-0.307-5.179l-1.653,1.652
			C16.359,20.415,16.2,21.326,15.577,21.949z"/>
		<circle cx="23.384" cy="7.265" r="0.555"/>
		<circle cx="21.814" cy="8.834" r="0.554"/>
		<circle cx="27.216" cy="11.097" r="0.555"/>
		<circle cx="25.646" cy="12.666" r="0.555"/>
		<path d="M8.735,11.664c0.515,0.068,0.977-0.21,1.032-0.621l0.275-2.066l2.432,0.324l-0.189,1.415
			c-0.125-0.076-0.27-0.133-0.433-0.153c-0.514-0.068-0.977,0.209-1.031,0.621c-0.055,0.411,0.319,0.801,0.833,0.869
			c0.514,0.069,0.976-0.209,1.031-0.621l0.421-3.161L9.702,7.818l-0.334,2.511c-0.125-0.076-0.271-0.134-0.433-0.155
			c-0.515-0.068-0.977,0.21-1.031,0.622C7.85,11.208,8.22,11.596,8.735,11.664z M10.123,8.369l2.431,0.324l-0.048,0.363
			l-2.431-0.324L10.123,8.369z"/>
		<path d="M16.641,12.338c-0.247-0.08-0.499,0.017-0.562,0.214c-0.063,0.198,0.085,0.422,0.332,0.501
			c0.248,0.08,0.5-0.017,0.563-0.214l0.487-1.518l-1.635-0.524l-0.387,1.205c-0.055-0.049-0.122-0.089-0.2-0.114
			c-0.247-0.079-0.499,0.017-0.563,0.215c-0.063,0.197,0.085,0.423,0.333,0.501c0.247,0.079,0.499-0.017,0.562-0.215l0.319-0.992
			l1.168,0.375l-0.218,0.68C16.786,12.403,16.719,12.362,16.641,12.338z M15.929,11.279l0.056-0.175l1.168,0.375l-0.056,0.176
			L15.929,11.279z"/>
		<path d="M14.365,9.973c0.108,0.254,0.454,0.352,0.772,0.215c0.318-0.135,0.488-0.451,0.379-0.705l-0.542-1.278l1.503-0.639
			l0.372,0.875c-0.097-0.001-0.2,0.017-0.299,0.06c-0.319,0.134-0.489,0.451-0.381,0.705c0.109,0.255,0.454,0.352,0.771,0.216
			c0.32-0.135,0.489-0.452,0.382-0.706l-0.831-1.953l-2.104,0.895l0.66,1.552c-0.098-0.002-0.2,0.016-0.3,0.059
			C14.427,9.401,14.256,9.717,14.365,9.973z M14.813,7.829l1.504-0.64l0.097,0.227L14.91,8.054L14.813,7.829z"/>
	</g>
</g>
<g>
</g>
<g>
</g>
<g>
</g>
<g>
</g>
<g>
</g>
<g>
</g>
<g>
</g>
<g>
</g>
<g>
</g>
<g>
</g>
<g>
</g>
<g>
</g>
<g>
</g>
<g>
</g>
<g>
</g>
</svg>
