<?xml version="1.0" encoding="iso-8859-1"?>
<!-- Generator: Adobe Illustrator 16.0.0, SVG Export Plug-In . SVG Version: 6.00 Build 0)  -->
<!DOCTYPE svg PUBLIC "-//W3C//DTD SVG 1.1//EN" "http://www.w3.org/Graphics/SVG/1.1/DTD/svg11.dtd">
<svg version="1.1" id="Capa_1" xmlns="http://www.w3.org/2000/svg" xmlns:xlink="http://www.w3.org/1999/xlink" x="0px" y="0px"
	 width="36.447px" height="36.447px" viewBox="0 0 36.447 36.447" style="enable-background:new 0 0 36.447 36.447;"
	 xml:space="preserve">
<g>
	<g>
		<path d="M30.224,3.948h-1.098V2.75c0-1.516-1.197-2.75-2.67-2.75c-1.474,0-2.67,1.234-2.67,2.75v1.197h-2.74V2.75
			c0-1.516-1.197-2.75-2.67-2.75c-1.473,0-2.67,1.234-2.67,2.75v1.197h-2.74V2.75c0-1.516-1.197-2.75-2.67-2.75
			c-1.473,0-2.67,1.234-2.67,2.75v1.197H6.224c-2.343,0-4.25,1.907-4.25,4.25v24c0,2.343,1.907,4.25,4.25,4.25h24
			c2.344,0,4.25-1.907,4.25-4.25v-24C34.474,5.854,32.567,3.948,30.224,3.948z M25.286,2.75c0-0.689,0.525-1.25,1.17-1.25
			c0.646,0,1.17,0.561,1.17,1.25v4.895c0,0.689-0.524,1.25-1.17,1.25c-0.645,0-1.17-0.561-1.17-1.25V2.75z M17.206,2.75
			c0-0.689,0.525-1.25,1.17-1.25s1.17,0.561,1.17,1.25v4.895c0,0.689-0.525,1.25-1.17,1.25s-1.17-0.561-1.17-1.25V2.75z M9.125,2.75
			c0-0.689,0.525-1.25,1.17-1.25s1.17,0.561,1.17,1.25v4.895c0,0.689-0.525,1.25-1.17,1.25s-1.17-0.561-1.17-1.25V2.75z
			 M31.974,32.198c0,0.965-0.785,1.75-1.75,1.75h-24c-0.965,0-1.75-0.785-1.75-1.75v-22h27.5V32.198z"/>
		<path d="M18.224,30.014c4.418,0,8-3.582,8-8c0-4.417-3.582-8-8-8c-4.419,0-8,3.583-8,8C10.224,26.432,13.805,30.014,18.224,30.014
			z M21.456,19.225c0.828,0,1.5,0.672,1.5,1.5s-0.672,1.5-1.5,1.5s-1.5-0.672-1.5-1.5S20.628,19.225,21.456,19.225z M21.724,24.422
			c0,1.44-1.566,3.609-3.5,3.609c-1.935,0-3.5-2.169-3.5-3.609c0-1.439,1.565,0.391,3.5,0.391
			C20.157,24.812,21.724,22.982,21.724,24.422z M14.991,19.225c0.829,0,1.5,0.672,1.5,1.5s-0.671,1.5-1.5,1.5
			c-0.828,0-1.5-0.672-1.5-1.5S14.162,19.225,14.991,19.225z"/>
	</g>
</g>
<g>
</g>
<g>
</g>
<g>
</g>
<g>
</g>
<g>
</g>
<g>
</g>
<g>
</g>
<g>
</g>
<g>
</g>
<g>
</g>
<g>
</g>
<g>
</g>
<g>
</g>
<g>
</g>
<g>
</g>
</svg>
