<?xml version="1.0" encoding="iso-8859-1"?>
<!-- Generator: Adobe Illustrator 16.0.0, SVG Export Plug-In . SVG Version: 6.00 Build 0)  -->
<!DOCTYPE svg PUBLIC "-//W3C//DTD SVG 1.1//EN" "http://www.w3.org/Graphics/SVG/1.1/DTD/svg11.dtd">
<svg version="1.1" id="Capa_1" xmlns="http://www.w3.org/2000/svg" xmlns:xlink="http://www.w3.org/1999/xlink" x="0px" y="0px"
	 width="37.884px" height="37.885px" viewBox="0 0 37.884 37.885" style="enable-background:new 0 0 37.884 37.885;"
	 xml:space="preserve">
<g>
	<g>
		<path d="M31.212,8.157h-3.346L19.832,1.32c0.045-0.111,0.072-0.233,0.072-0.36c0-0.529-0.431-0.96-0.96-0.96
			c-0.531,0-0.961,0.431-0.961,0.96c0,0.127,0.027,0.249,0.072,0.36l-8.034,6.837H6.674c-1.432,0-2.595,1.164-2.595,2.595V35.29
			c0,1.433,1.163,2.595,2.595,2.595h21.606l5.524-5.525V10.752C33.806,9.321,32.642,8.157,31.212,8.157z M28.675,11.48
			c0,0.771-0.626,1.396-1.396,1.396s-1.396-0.625-1.396-1.396s0.625-1.396,1.396-1.396S28.675,10.71,28.675,11.48z M18.458,1.767
			c0.144,0.088,0.304,0.154,0.486,0.154s0.341-0.065,0.488-0.153l7.508,6.39H10.947L18.458,1.767z M24.507,11.48
			c0,0.771-0.625,1.396-1.398,1.396c-0.77,0-1.394-0.625-1.394-1.396s0.624-1.396,1.394-1.396
			C23.882,10.084,24.507,10.71,24.507,11.48z M20.339,11.48c0,0.771-0.626,1.396-1.396,1.396c-0.771,0-1.396-0.625-1.396-1.396
			s0.626-1.396,1.396-1.396S20.339,10.71,20.339,11.48z M16.17,11.48c0,0.771-0.623,1.396-1.393,1.396
			c-0.774,0-1.399-0.625-1.399-1.396s0.625-1.396,1.399-1.396C15.547,10.084,16.17,10.71,16.17,11.48z M10.607,10.084
			c0.771,0,1.396,0.626,1.396,1.396s-0.625,1.396-1.396,1.396s-1.396-0.625-1.396-1.396S9.837,10.084,10.607,10.084z M32.392,31.773
			l-0.294,0.291h-2.224c-1.038,0-1.887,0.852-1.887,1.889v2.224l-0.293,0.293H6.674c-0.651,0-1.18-0.528-1.18-1.18V14.527H32.39
			v17.247H32.392z"/>
		<path d="M11.677,30.906c0.073,0.127,0.208,0.199,0.346,0.199c0.016,0,0.03-0.011,0.046-0.014c0.015,0.102,0.022,0.202,0.05,0.305
			c0.403,1.506,1.952,2.401,3.461,1.998c1.507-0.402,0.045-5.863-1.464-5.459c-1.029,0.276-1.76,1.092-2,2.059
			c-0.491-1.021-0.764-2.143-0.764-3.287c0-1.146,0.262-2.229,0.718-3.203c0.258-0.016,0.505-0.152,0.644-0.393
			c1.283-2.217,3.671-3.596,6.229-3.596s4.945,1.377,6.229,3.594c0.138,0.24,0.384,0.365,0.64,0.383
			c0.459,0.977,0.723,2.064,0.723,3.214c0,1.146-0.272,2.267-0.764,3.288c-0.24-0.967-0.972-1.783-2.002-2.059
			c-1.508-0.404-2.971,5.055-1.463,5.457c1.508,0.404,3.057-0.49,3.461-1.998c0.027-0.099,0.033-0.199,0.049-0.297
			c0.152,0.02,0.312-0.053,0.396-0.195c0.733-1.27,1.123-2.721,1.123-4.195c0-1.275-0.295-2.482-0.808-3.566
			c0.158-0.244,0.185-0.562,0.028-0.83c-1.567-2.709-4.485-4.393-7.611-4.393c-3.129,0-6.046,1.684-7.613,4.393
			c-0.154,0.27-0.129,0.588,0.03,0.832c-0.514,1.082-0.808,2.289-0.808,3.564C10.552,28.184,10.942,29.635,11.677,30.906z"/>
	</g>
</g>
<g>
</g>
<g>
</g>
<g>
</g>
<g>
</g>
<g>
</g>
<g>
</g>
<g>
</g>
<g>
</g>
<g>
</g>
<g>
</g>
<g>
</g>
<g>
</g>
<g>
</g>
<g>
</g>
<g>
</g>
</svg>
