<?xml version="1.0" encoding="iso-8859-1"?>
<!-- Generator: Adobe Illustrator 16.0.0, SVG Export Plug-In . SVG Version: 6.00 Build 0)  -->
<!DOCTYPE svg PUBLIC "-//W3C//DTD SVG 1.1//EN" "http://www.w3.org/Graphics/SVG/1.1/DTD/svg11.dtd">
<svg version="1.1" id="Capa_1" xmlns="http://www.w3.org/2000/svg" xmlns:xlink="http://www.w3.org/1999/xlink" x="0px" y="0px"
	 width="36.447px" height="36.447px" viewBox="0 0 36.447 36.447" style="enable-background:new 0 0 36.447 36.447;"
	 xml:space="preserve">
<g>
	<g>
		<path d="M30.224,3.947h-1.098V2.75c0-1.516-1.199-2.75-2.67-2.75c-1.473,0-2.67,1.234-2.67,2.75v1.197h-2.742V2.75
			c0-1.516-1.196-2.75-2.668-2.75s-2.669,1.234-2.669,2.75v1.197h-2.741V2.75c0-1.516-1.198-2.75-2.67-2.75
			c-1.472,0-2.67,1.234-2.67,2.75v1.197H6.224c-2.343,0-4.25,1.907-4.25,4.25v24c0,2.343,1.907,4.25,4.25,4.25h24
			c2.343,0,4.25-1.907,4.25-4.25v-24C34.474,5.854,32.566,3.947,30.224,3.947z M25.286,2.75c0-0.689,0.524-1.25,1.17-1.25
			c0.645,0,1.17,0.561,1.17,1.25v4.895c0,0.689-0.525,1.25-1.17,1.25c-0.646,0-1.17-0.561-1.17-1.25V2.75z M17.207,2.75
			c0-0.689,0.524-1.25,1.169-1.25s1.168,0.561,1.168,1.25v4.895c0,0.689-0.523,1.25-1.168,1.25s-1.169-0.561-1.169-1.25V2.75z
			 M9.125,2.75c0-0.689,0.525-1.25,1.17-1.25s1.17,0.561,1.17,1.25v4.895c0,0.689-0.525,1.25-1.17,1.25s-1.17-0.561-1.17-1.25V2.75z
			 M31.974,32.197c0,0.965-0.785,1.75-1.75,1.75h-24c-0.965,0-1.75-0.785-1.75-1.75v-18h27.5V32.197z"/>
		<path d="M10.875,32.232h15v-9h2.851l-3.894-3.113v-4.167h-2.25v2.367l-4.208-3.367L8.024,23.232h2.851V32.232z M11.922,22.736
			l6.453-5.165l6.454,5.163v8.45h-3.787v-6.952h-5.333v6.952h-3.787V22.736z"/>
	</g>
</g>
<g>
</g>
<g>
</g>
<g>
</g>
<g>
</g>
<g>
</g>
<g>
</g>
<g>
</g>
<g>
</g>
<g>
</g>
<g>
</g>
<g>
</g>
<g>
</g>
<g>
</g>
<g>
</g>
<g>
</g>
</svg>
