<?xml version="1.0" encoding="iso-8859-1"?>
<!-- Generator: Adobe Illustrator 16.0.0, SVG Export Plug-In . SVG Version: 6.00 Build 0)  -->
<!DOCTYPE svg PUBLIC "-//W3C//DTD SVG 1.1//EN" "http://www.w3.org/Graphics/SVG/1.1/DTD/svg11.dtd">
<svg version="1.1" id="Capa_1" xmlns="http://www.w3.org/2000/svg" xmlns:xlink="http://www.w3.org/1999/xlink" x="0px" y="0px"
	 width="30px" height="30px" viewBox="0 0 30 30" style="enable-background:new 0 0 30 30;" xml:space="preserve">
<g>
	<g>
		<path d="M27,0H3C1.35,0,0,1.35,0,3v24c0,1.65,1.35,3,3,3h24c1.65,0,3-1.35,3-3V3C30,1.35,28.65,0,27,0z M29,4v10.5H1V4H29z M1,26
			V15.5h28V26H1z"/>
		<path d="M5.521,11.279c0.956,0,1.407-0.536,1.407-1.486V7.581H5.747v2.377c0,0.29-0.12,0.44-0.3,0.44
			c-0.311,0-0.311-0.405-0.311-0.781H4.085C3.989,10.699,4.48,11.279,5.521,11.279z"/>
		<path d="M7.409,10.468c0,0.545,0.44,0.791,0.936,0.791c0.39,0,0.691-0.08,0.986-0.355l0.05,0.28h1.076v-0.05
			c-0.135-0.11-0.14-0.185-0.14-0.335V9.572c0-0.625-0.075-1.086-1.316-1.086c-1.036,0-1.432,0.325-1.432,0.881H8.57
			c0.025-0.225,0.22-0.255,0.365-0.255c0.11,0,0.341,0.025,0.341,0.215C9.277,9.818,7.409,9.277,7.409,10.468z M8.816,10.668
			c-0.205,0-0.33-0.09-0.33-0.22c0-0.34,0.45-0.26,0.791-0.425C9.301,10.383,9.181,10.668,8.816,10.668z"/>
		<path d="M11.901,9.848c0-0.335,0.085-0.541,0.405-0.541c0.295,0,0.365,0.23,0.365,0.491v1.386h1.041V9.612
			c0-0.721-0.325-1.126-1.016-1.126c-0.396,0-0.651,0.17-0.886,0.485v-0.41h-0.951v2.623H11.9L11.901,9.848L11.901,9.848z"/>
		<path d="M15.135,11.259c0.43,0,0.686-0.1,0.945-0.46v0.385h0.967V8.561h-1.041v1.261c0,0.405-0.095,0.63-0.395,0.63
			c-0.25,0-0.375-0.115-0.375-0.475V8.56h-1.041v1.597C14.195,10.909,14.565,11.259,15.135,11.259z"/>
		<path d="M17.414,10.468c0,0.545,0.439,0.791,0.936,0.791c0.391,0,0.691-0.08,0.986-0.355l0.05,0.28h1.076v-0.05
			c-0.136-0.11-0.14-0.185-0.14-0.335V9.572c0-0.625-0.076-1.086-1.316-1.086c-1.036,0-1.432,0.325-1.432,0.881h1
			c0.025-0.225,0.221-0.255,0.365-0.255c0.11,0,0.342,0.025,0.342,0.215C19.281,9.818,17.414,9.277,17.414,10.468z M18.82,10.668
			c-0.205,0-0.33-0.09-0.33-0.22c0-0.34,0.451-0.26,0.791-0.425C19.306,10.383,19.186,10.668,18.82,10.668z"/>
		<path d="M21.926,10.278c0-0.565,0.215-0.766,0.641-0.766c0.07,0,0.146,0.02,0.215,0.03V8.501c-0.045-0.005-0.09-0.015-0.135-0.015
			c-0.404,0-0.66,0.195-0.806,0.605H21.83v-0.53h-0.945v2.623h1.041V10.278z"/>
		<path d="M23.529,11.334c-0.069,0-0.14-0.005-0.215-0.005v0.726c0.08,0,0.271,0.021,0.461,0.021c0.926,0,1.035-0.255,1.311-1.066
			l0.841-2.447h-1.001l-0.455,1.617l-0.46-1.617h-1.046l0.861,2.387C23.93,11.239,23.855,11.334,23.529,11.334z"/>
		<path d="M9.436,19.5c0-1.311-1.095-1.823-2.263-1.823c-1.463,0-2.367,0.671-2.391,2.327h1.495c-0.008-0.544,0.176-1.08,0.815-1.08
			c0.336,0,0.68,0.208,0.68,0.568c0,0.936-1.479,1.318-2.422,2.303c-0.448,0.464-0.704,0.943-0.672,1.6h4.741v-1.359H6.805
			c0.296-0.208,0.728-0.424,1.135-0.68C8.676,20.9,9.436,20.492,9.436,19.5z"/>
		<path d="M12.237,17.678c-1.287,0-2.438,0.775-2.446,2.846c0,1.615,0.624,2.992,2.446,2.992c1.823,0,2.439-1.393,2.439-3
			C14.676,18.645,13.7,17.678,12.237,17.678z M12.237,22.268c-0.631,0-0.783-0.664-0.783-1.647c0-0.536,0.016-1.695,0.768-1.695
			c0.823,0,0.792,1.087,0.792,1.679C13.013,21.547,12.829,22.268,12.237,22.268z"/>
		<path d="M15.686,18.973v1.135h1.303v3.287h1.664v-5.718h-1.264C17.205,18.652,16.566,18.957,15.686,18.973z"/>
		<path d="M24.619,17.758h-1.551l-2.631,3.126v1.335h2.6v1.176h1.582v-1.176h0.705V20.98h-0.705V17.758z M23.037,20.98h-1.344
			l1.344-1.72V20.98z"/>
	</g>
</g>
<g>
</g>
<g>
</g>
<g>
</g>
<g>
</g>
<g>
</g>
<g>
</g>
<g>
</g>
<g>
</g>
<g>
</g>
<g>
</g>
<g>
</g>
<g>
</g>
<g>
</g>
<g>
</g>
<g>
</g>
</svg>
