<?xml version="1.0" encoding="iso-8859-1"?>
<!-- Generator: Adobe Illustrator 16.0.0, SVG Export Plug-In . SVG Version: 6.00 Build 0)  -->
<!DOCTYPE svg PUBLIC "-//W3C//DTD SVG 1.1//EN" "http://www.w3.org/Graphics/SVG/1.1/DTD/svg11.dtd">
<svg version="1.1" id="Capa_1" xmlns="http://www.w3.org/2000/svg" xmlns:xlink="http://www.w3.org/1999/xlink" x="0px" y="0px"
	 width="32.75px" height="32.75px" viewBox="0 0 32.75 32.75" style="enable-background:new 0 0 32.75 32.75;" xml:space="preserve"
	>
<g>
	<path d="M31.375,26.583h-3.416c-1.102,0-2,0.899-2,2V32L31.375,26.583L31.375,26.583z"/>
	<g>
		<path d="M29.375,1.25h-1.124c0.03-0.093,0.06-0.186,0.06-0.289C28.311,0.43,27.879,0,27.348,0s-0.961,0.431-0.961,0.961
			c0,0.103,0.028,0.196,0.059,0.289h-3.68c0.029-0.093,0.059-0.186,0.059-0.289C22.824,0.43,22.393,0,21.861,0
			C21.332,0,20.9,0.431,20.9,0.961c0,0.103,0.029,0.196,0.06,0.289h-3.683c0.031-0.093,0.06-0.186,0.06-0.289
			C17.337,0.43,16.907,0,16.376,0c-0.531,0-0.961,0.431-0.961,0.961c0,0.103,0.028,0.196,0.059,0.289h-3.682
			c0.03-0.093,0.059-0.186,0.059-0.289C11.851,0.43,11.42,0,10.89,0c-0.531,0-0.962,0.431-0.962,0.961
			c0,0.103,0.028,0.196,0.059,0.289H6.305c0.03-0.093,0.059-0.186,0.059-0.289C6.364,0.43,5.934,0,5.403,0
			C4.872,0,4.441,0.431,4.441,0.961c0,0.103,0.028,0.196,0.059,0.289H3.375c-1.518,0-2.75,1.233-2.75,2.75v26
			c0,1.518,1.232,2.75,2.75,2.75H26.27l5.855-5.855V4C32.125,2.483,30.893,1.25,29.375,1.25z M3.375,2.75h26
			c0.689,0,1.25,0.561,1.25,1.25v6h-28.5V4C2.125,3.311,2.686,2.75,3.375,2.75z M7.593,18.062c-0.72,0-0.927,0.604-0.919,1.215H4.99
			c0.027-1.862,1.045-2.619,2.692-2.619c1.314,0,2.548,0.576,2.548,2.053c0,1.116-0.855,1.576-1.684,2.088
			c-0.459,0.288-0.945,0.531-1.278,0.766h2.944v1.53H4.873c-0.036-0.737,0.252-1.278,0.756-1.801
			c1.063-1.106,2.728-1.539,2.728-2.593C8.357,18.298,7.971,18.062,7.593,18.062z M10.625,19.864
			c0.009-2.332,1.305-3.205,2.754-3.205c1.648,0,2.746,1.089,2.746,3.196c0,1.81-0.693,3.375-2.746,3.375
			C11.326,23.23,10.625,21.684,10.625,19.864z M17.258,19.396v-1.278c0.99-0.019,1.711-0.36,1.918-1.458h1.422v6.438h-1.873v-3.701
			H17.258L17.258,19.396z M25.385,20.07c-0.277,0-0.611,0.072-0.756,0.352l-1.764-0.062l0.629-3.609h4.07v1.53h-2.756l-0.207,0.954
			c0.396-0.289,0.838-0.342,1.313-0.342c1.216,0,2.161,0.737,2.161,2.006c0,1.757-1.396,2.332-2.846,2.332
			c-1.387,0-2.287-0.621-2.646-1.791l1.881-0.189c0,0.018,0.019,0.045,0.019,0.062c0.108,0.334,0.469,0.514,0.811,0.514
			c0.549,0,0.91-0.369,0.91-0.837C26.205,20.467,25.953,20.07,25.385,20.07z"/>
		<path d="M6.927,7.97c0.956,0,1.406-0.536,1.406-1.487V4.271H7.152v2.377c0,0.29-0.12,0.44-0.301,0.44
			c-0.31,0-0.31-0.406-0.31-0.781H5.489C5.396,7.39,5.886,7.97,6.927,7.97z"/>
		<path d="M8.815,7.159c0,0.546,0.44,0.791,0.937,0.791c0.39,0,0.69-0.08,0.985-0.355l0.05,0.28h1.076v-0.05
			c-0.135-0.11-0.14-0.186-0.14-0.335V6.264c0-0.626-0.075-1.086-1.316-1.086c-1.036,0-1.432,0.326-1.432,0.881h1.001
			c0.025-0.225,0.221-0.255,0.365-0.255c0.11,0,0.341,0.025,0.341,0.215C10.683,6.509,8.815,5.968,8.815,7.159z M10.222,7.359
			c-0.205,0-0.33-0.09-0.33-0.22c0-0.34,0.45-0.26,0.791-0.425C10.707,7.074,10.587,7.359,10.222,7.359z"/>
		<path d="M13.307,6.539c0-0.335,0.085-0.541,0.405-0.541c0.296,0,0.365,0.23,0.365,0.491v1.386h1.041V6.304
			c0-0.721-0.325-1.126-1.016-1.126c-0.396,0-0.65,0.17-0.886,0.486V5.253h-0.951v2.623h1.041L13.307,6.539L13.307,6.539z"/>
		<path d="M16.541,7.95c0.432,0,0.688-0.1,0.945-0.46v0.385h0.967V5.252h-1.041v1.261c0,0.405-0.096,0.631-0.396,0.631
			c-0.25,0-0.375-0.115-0.375-0.476V5.251H15.6v1.597C15.601,7.6,15.971,7.95,16.541,7.95z"/>
		<path d="M18.82,7.159c0,0.546,0.439,0.791,0.936,0.791c0.391,0,0.691-0.08,0.986-0.355l0.05,0.28h1.076v-0.05
			c-0.136-0.11-0.14-0.186-0.14-0.335V6.264c0-0.626-0.076-1.086-1.316-1.086c-1.036,0-1.432,0.326-1.432,0.881h1
			c0.025-0.225,0.222-0.255,0.365-0.255c0.11,0,0.342,0.025,0.342,0.215C20.688,6.509,18.82,5.968,18.82,7.159z M20.227,7.359
			c-0.205,0-0.33-0.09-0.33-0.22c0-0.34,0.451-0.26,0.791-0.425C20.712,7.074,20.592,7.359,20.227,7.359z"/>
		<path d="M23.332,6.969c0-0.566,0.215-0.766,0.641-0.766c0.069,0,0.146,0.021,0.215,0.03V5.192
			c-0.045-0.005-0.09-0.015-0.135-0.015c-0.406,0-0.66,0.195-0.807,0.606h-0.01V5.252h-0.945v2.623h1.041V6.969z"/>
		<path d="M24.936,8.025c-0.069,0-0.141-0.005-0.215-0.005v0.726c0.08,0,0.271,0.02,0.461,0.02c0.926,0,1.035-0.255,1.312-1.066
			l0.841-2.447h-1.001L25.877,6.87l-0.46-1.617h-1.046L25.23,7.64C25.336,7.93,25.262,8.025,24.936,8.025z"/>
		<path d="M14.253,19.954c0-0.666,0.036-1.892-0.892-1.892c-0.846,0-0.864,1.307-0.864,1.91c0,1.106,0.171,1.854,0.882,1.854
			C14.046,21.827,14.253,21.018,14.253,19.954z"/>
	</g>
</g>
<g>
</g>
<g>
</g>
<g>
</g>
<g>
</g>
<g>
</g>
<g>
</g>
<g>
</g>
<g>
</g>
<g>
</g>
<g>
</g>
<g>
</g>
<g>
</g>
<g>
</g>
<g>
</g>
<g>
</g>
</svg>
