<?xml version="1.0" encoding="iso-8859-1"?>
<!-- Generator: Adobe Illustrator 16.0.0, SVG Export Plug-In . SVG Version: 6.00 Build 0)  -->
<!DOCTYPE svg PUBLIC "-//W3C//DTD SVG 1.1//EN" "http://www.w3.org/Graphics/SVG/1.1/DTD/svg11.dtd">
<svg version="1.1" id="Capa_1" xmlns="http://www.w3.org/2000/svg" xmlns:xlink="http://www.w3.org/1999/xlink" x="0px" y="0px"
	 width="32.75px" height="32.75px" viewBox="0 0 32.75 32.75" style="enable-background:new 0 0 32.75 32.75;" xml:space="preserve"
	>
<g>
	<g>
		<path d="M29.375,1.25h-1.123c0.029-0.093,0.059-0.186,0.059-0.289c0-0.53-0.432-0.961-0.963-0.961s-0.961,0.431-0.961,0.961
			c0,0.103,0.028,0.196,0.059,0.289h-3.68c0.029-0.093,0.059-0.186,0.059-0.289C22.823,0.431,22.393,0,21.861,0
			C21.331,0,20.9,0.431,20.9,0.961c0,0.103,0.029,0.196,0.059,0.289h-3.682c0.029-0.093,0.059-0.186,0.059-0.289
			c0-0.53-0.43-0.961-0.961-0.961c-0.531,0-0.961,0.431-0.961,0.961c0,0.103,0.028,0.196,0.058,0.289h-3.681
			c0.029-0.093,0.059-0.186,0.059-0.289C11.85,0.431,11.419,0,10.889,0c-0.531,0-0.962,0.431-0.962,0.961
			c0,0.103,0.028,0.196,0.058,0.289h-3.68c0.03-0.093,0.059-0.186,0.059-0.289C6.364,0.43,5.934,0,5.403,0
			C4.872,0,4.441,0.431,4.441,0.961c0,0.103,0.028,0.196,0.058,0.289H3.375c-1.518,0-2.75,1.233-2.75,2.75v26
			c0,1.518,1.232,2.75,2.75,2.75H26.27l5.855-5.855V4C32.125,2.483,30.893,1.25,29.375,1.25z M23.891,5.258l0.365,1.201
			c0.041,0.145,0.092,0.325,0.121,0.456h0.016c0.034-0.13,0.074-0.315,0.109-0.456l0.3-1.201h0.815l-0.57,1.611
			c-0.35,0.971-0.586,1.361-0.859,1.607c-0.267,0.23-0.547,0.31-0.735,0.335l-0.16-0.646c0.095-0.015,0.215-0.06,0.33-0.13
			c0.114-0.061,0.239-0.181,0.313-0.306c0.025-0.035,0.041-0.075,0.041-0.11c0-0.025-0.006-0.065-0.035-0.125l-0.896-2.237
			L23.891,5.258L23.891,5.258z M21.842,5.258l0.024,0.45h0.021c0.125-0.355,0.426-0.505,0.66-0.505c0.07,0,0.105,0,0.16,0.01v0.716
			c-0.055-0.01-0.12-0.02-0.205-0.02c-0.279,0-0.471,0.15-0.521,0.385c-0.01,0.05-0.015,0.11-0.015,0.17v1.241h-0.761V6.063
			c0-0.36-0.01-0.596-0.02-0.806L21.842,5.258L21.842,5.258z M19.271,5.724c-0.25,0-0.517,0.085-0.676,0.185l-0.142-0.49
			c0.171-0.095,0.506-0.215,0.95-0.215c0.816,0,1.076,0.48,1.076,1.056v0.851c0,0.235,0.011,0.46,0.035,0.596H19.83l-0.045-0.245
			H19.77c-0.16,0.195-0.41,0.3-0.701,0.3c-0.494,0-0.791-0.36-0.791-0.751c0-0.636,0.572-0.941,1.438-0.936V6.04
			C19.717,5.909,19.646,5.724,19.271,5.724z M15.391,5.258h0.766v1.316c0,0.355,0.115,0.571,0.381,0.571
			c0.21,0,0.33-0.145,0.38-0.265c0.021-0.045,0.023-0.105,0.023-0.165V5.258h0.768V6.92c0,0.32,0.01,0.581,0.02,0.786h-0.66
			l-0.034-0.345H17.02c-0.097,0.15-0.326,0.4-0.767,0.4c-0.496,0-0.861-0.311-0.861-1.066L15.391,5.258L15.391,5.258z M12.986,5.258
			l0.035,0.335h0.015c0.101-0.155,0.351-0.391,0.756-0.391c0.5,0,0.876,0.33,0.876,1.051v1.452h-0.762V6.349
			c0-0.315-0.109-0.53-0.385-0.53c-0.21,0-0.336,0.145-0.385,0.285c-0.021,0.045-0.031,0.12-0.031,0.19v1.412h-0.76V6.039
			c0-0.306-0.01-0.565-0.021-0.781H12.986z M10.411,5.724c-0.251,0-0.516,0.085-0.676,0.185l-0.14-0.49
			c0.17-0.095,0.505-0.215,0.95-0.215c0.815,0,1.076,0.48,1.076,1.056v0.851c0,0.235,0.011,0.46,0.035,0.596H10.97l-0.045-0.245
			H10.91c-0.16,0.195-0.411,0.3-0.701,0.3c-0.496,0-0.791-0.36-0.791-0.751c0-0.636,0.57-0.941,1.437-0.936V6.04
			C10.856,5.909,10.786,5.724,10.411,5.724z M7.199,7.065c0.105,0.035,0.24,0.06,0.391,0.06c0.32,0,0.521-0.145,0.521-0.671V4.332
			h0.761v2.132c0,0.961-0.46,1.296-1.201,1.296c-0.175,0-0.405-0.03-0.555-0.08L7.199,7.065z M30.625,26.273l-0.311,0.311h-2.355
			c-1.102,0-2,0.9-2,2v2.355l-0.311,0.311H3.375c-0.689,0-1.25-0.561-1.25-1.25V11h28.5V26.273z"/>
		<path d="M10.171,6.935c0,0.195,0.13,0.291,0.3,0.291c0.19,0,0.346-0.125,0.396-0.28c0.011-0.04,0.015-0.085,0.015-0.13V6.551
			C10.48,6.544,10.171,6.64,10.171,6.935z"/>
		<path d="M19.031,6.935c0,0.195,0.13,0.291,0.301,0.291c0.189,0,0.345-0.125,0.395-0.28c0.01-0.04,0.017-0.085,0.017-0.13V6.551
			C19.342,6.544,19.031,6.64,19.031,6.935z"/>
		<path d="M5.63,21.545c-0.504,0.521-0.792,1.062-0.756,1.801h5.339v-1.529H7.269c0.333-0.234,0.819-0.479,1.278-0.767
			c0.828-0.513,1.684-0.972,1.684-2.088c0-1.478-1.233-2.053-2.548-2.053c-1.647,0-2.665,0.756-2.692,2.62h1.684
			c-0.008-0.612,0.199-1.215,0.919-1.215c0.378,0,0.765,0.233,0.765,0.639C8.357,20.006,6.692,20.438,5.63,21.545z"/>
		<path d="M13.379,23.48c2.053,0,2.746-1.566,2.746-3.375c0-2.106-1.098-3.196-2.746-3.196c-1.449,0-2.745,0.874-2.754,3.205
			C10.625,21.934,11.326,23.48,13.379,23.48z M13.361,18.312c0.928,0,0.892,1.226,0.892,1.892c0,1.063-0.207,1.873-0.874,1.873
			c-0.711,0-0.882-0.747-0.882-1.854C12.497,19.619,12.516,18.312,13.361,18.312z"/>
		<path d="M18.725,23.346h1.873v-6.437h-1.422c-0.207,1.099-0.928,1.44-1.918,1.458v1.277h1.467V23.346z"/>
		<path d="M25.529,23.346h1.783v-1.322h0.791v-1.396h-0.791V17h-1.748l-2.961,3.52v1.504h2.926V23.346z M24.018,20.627l1.512-1.936
			v1.936H24.018z"/>
	</g>
</g>
<g>
</g>
<g>
</g>
<g>
</g>
<g>
</g>
<g>
</g>
<g>
</g>
<g>
</g>
<g>
</g>
<g>
</g>
<g>
</g>
<g>
</g>
<g>
</g>
<g>
</g>
<g>
</g>
<g>
</g>
</svg>
