<?xml version="1.0" encoding="iso-8859-1"?>
<!-- Generator: Adobe Illustrator 16.0.0, SVG Export Plug-In . SVG Version: 6.00 Build 0)  -->
<!DOCTYPE svg PUBLIC "-//W3C//DTD SVG 1.1//EN" "http://www.w3.org/Graphics/SVG/1.1/DTD/svg11.dtd">
<svg version="1.1" id="Capa_1" xmlns="http://www.w3.org/2000/svg" xmlns:xlink="http://www.w3.org/1999/xlink" x="0px" y="0px"
	 width="33px" height="33px" viewBox="0 0 33 33" style="enable-background:new 0 0 33 33;" xml:space="preserve">
<g>
	<g>
		<rect x="3.334" y="15.798" width="3.667" height="3.667"/>
		<rect x="9" y="15.798" width="3.667" height="3.667"/>
		<rect x="14.667" y="15.798" width="3.667" height="3.667"/>
		<rect x="20.333" y="15.798" width="3.667" height="3.667"/>
		<rect x="26" y="15.798" width="3.667" height="3.667"/>
		<rect x="3.333" y="21.465" width="3.667" height="3.667"/>
		<rect x="9" y="21.465" width="3.667" height="3.667"/>
		<rect x="14.667" y="21.465" width="3.667" height="3.667"/>
		<rect x="20.333" y="21.465" width="3.667" height="3.667"/>
		<rect x="26" y="21.465" width="3.667" height="3.667"/>
		<path d="M29.4,4.881V3.119h-1.174v1.762h-1.903V3.119h-1.175v1.762h-1.903V3.119H22.07v1.762h-1.904V3.119h-1.174v1.762h-1.904
			V3.119h-1.174v1.762H14.01V3.119h-1.174v1.762H10.93V3.119H9.756v1.762H7.852V3.119H6.678v1.762H4.774V3.119H3.6v1.762H0v25h33
			v-25H29.4z M21.055,7.236h3.413v0.895H22.17v0.75h2.1v0.863h-2.1v0.816h2.357v0.96h-3.473V7.236z M16.597,7.236h1.146l1.487,2.641
			h0.013V7.236h1.05v4.284h-1.146l-1.487-2.67h-0.013v2.67h-1.049V7.236z M12.133,7.236h1.116v2.58c0,0.276,0.056,0.484,0.168,0.624
			c0.112,0.141,0.306,0.21,0.582,0.21s0.47-0.069,0.582-0.21c0.112-0.14,0.168-0.348,0.168-0.624v-2.58h1.116v2.515
			c0,0.619-0.149,1.085-0.447,1.395s-0.771,0.465-1.419,0.465s-1.121-0.155-1.419-0.465s-0.447-0.775-0.447-1.395V7.236z
			 M8.389,9.816h1.05v0.396c0,0.14,0.037,0.248,0.111,0.323c0.074,0.076,0.181,0.114,0.321,0.114c0.128,0,0.227-0.041,0.297-0.123
			s0.105-0.227,0.105-0.435V7.235h1.116v2.928c0,0.965-0.5,1.446-1.5,1.446c-0.284,0-0.522-0.039-0.714-0.117
			c-0.192-0.078-0.346-0.188-0.462-0.33c-0.116-0.142-0.199-0.311-0.249-0.507c-0.05-0.195-0.075-0.414-0.075-0.653V9.816z
			 M31,27.381H2v-14h29V27.381z"/>
	</g>
</g>
<g>
</g>
<g>
</g>
<g>
</g>
<g>
</g>
<g>
</g>
<g>
</g>
<g>
</g>
<g>
</g>
<g>
</g>
<g>
</g>
<g>
</g>
<g>
</g>
<g>
</g>
<g>
</g>
<g>
</g>
</svg>
