<?xml version="1.0" encoding="iso-8859-1"?>
<!-- Generator: Adobe Illustrator 16.0.0, SVG Export Plug-In . SVG Version: 6.00 Build 0)  -->
<!DOCTYPE svg PUBLIC "-//W3C//DTD SVG 1.1//EN" "http://www.w3.org/Graphics/SVG/1.1/DTD/svg11.dtd">
<svg version="1.1" id="Capa_1" xmlns="http://www.w3.org/2000/svg" xmlns:xlink="http://www.w3.org/1999/xlink" x="0px" y="0px"
	 width="33px" height="33px" viewBox="0 0 33 33" style="enable-background:new 0 0 33 33;" xml:space="preserve">
<g>
	<g>
		<path d="M29.021,4.411V1.589h-7v2.821H20V1.589h-7v2.821h-2.021V1.589h-7v2.821H0v27h33v-27H29.021z M23.021,2.589h5v4h-5V2.589z
			 M14,2.589h5v4h-5V2.589z M4.979,2.589h5v4h-5V2.589z M31,28.911H2v-18h29V28.911z"/>
		<path d="M4.881,22.392c0.174,0.213,0.405,0.377,0.693,0.494c0.288,0.116,0.645,0.176,1.071,0.176c1.5,0,2.25-0.724,2.25-2.17V16.5
			H7.221v4.284c0,0.312-0.053,0.529-0.158,0.652s-0.253,0.185-0.445,0.185c-0.21,0-0.371-0.058-0.481-0.171
			c-0.111-0.114-0.167-0.276-0.167-0.486v-0.594H4.395v0.277c0,0.36,0.038,0.688,0.112,0.981
			C4.583,21.924,4.707,22.178,4.881,22.392z"/>
		<path d="M12.81,23.062c0.972,0,1.681-0.232,2.128-0.697s0.67-1.162,0.67-2.094V16.5h-1.674v3.87c0,0.414-0.084,0.727-0.252,0.936
			c-0.168,0.211-0.459,0.315-0.873,0.315s-0.705-0.104-0.873-0.315c-0.168-0.209-0.252-0.521-0.252-0.936V16.5H10.01v3.771
			c0,0.932,0.224,1.629,0.671,2.094C11.128,22.829,11.838,23.062,12.81,23.062z"/>
		<polygon points="18.282,18.921 18.299,18.921 20.532,22.926 22.25,22.926 22.25,16.5 20.676,16.5 20.676,20.46 20.658,20.46 
			18.426,16.5 16.708,16.5 16.708,22.926 18.282,22.926 		"/>
		<polygon points="28.605,21.486 25.068,21.486 25.068,20.263 28.217,20.263 28.217,18.966 25.068,18.966 25.068,17.841 
			28.514,17.841 28.514,16.5 23.395,16.5 23.395,22.926 28.605,22.926 		"/>
	</g>
</g>
<g>
</g>
<g>
</g>
<g>
</g>
<g>
</g>
<g>
</g>
<g>
</g>
<g>
</g>
<g>
</g>
<g>
</g>
<g>
</g>
<g>
</g>
<g>
</g>
<g>
</g>
<g>
</g>
<g>
</g>
</svg>
