<?xml version="1.0" encoding="iso-8859-1"?>
<!-- Generator: Adobe Illustrator 16.0.0, SVG Export Plug-In . SVG Version: 6.00 Build 0)  -->
<!DOCTYPE svg PUBLIC "-//W3C//DTD SVG 1.1//EN" "http://www.w3.org/Graphics/SVG/1.1/DTD/svg11.dtd">
<svg version="1.1" id="Capa_1" xmlns="http://www.w3.org/2000/svg" xmlns:xlink="http://www.w3.org/1999/xlink" x="0px" y="0px"
	 width="32.805px" height="32.805px" viewBox="0 0 32.805 32.805" style="enable-background:new 0 0 32.805 32.805;"
	 xml:space="preserve">
<g>
	<g>
		<path d="M28.392,2.356V0h-1.276v2.356h-4.398V0h-1.277v2.356h-4.397V0h-1.277v2.356h-4.398V0H10.09v2.356H5.692V0H4.415v2.356
			H1.178v30.449h30.449V2.356H28.392z M21.355,5.462h3.713v0.973h-2.5V7.25h2.285v0.938h-2.285v0.889h2.564v1.044h-3.777V5.462
			L21.355,5.462z M16.508,5.462h1.247l1.618,2.871h0.013V5.462h1.142v4.659h-1.246l-1.617-2.904H17.65v2.904h-1.143V5.462z
			 M11.654,5.462h1.214v2.806c0,0.301,0.061,0.526,0.183,0.679c0.122,0.152,0.332,0.229,0.633,0.229c0.3,0,0.511-0.076,0.632-0.229
			c0.122-0.152,0.183-0.378,0.183-0.679V5.462h1.213v2.734c0,0.674-0.162,1.18-0.486,1.517c-0.324,0.337-0.838,0.506-1.543,0.506
			c-0.705,0-1.219-0.169-1.543-0.506c-0.324-0.337-0.486-0.843-0.486-1.517V5.462z M7.582,8.267h1.142v0.431
			c0,0.152,0.041,0.271,0.121,0.352c0.08,0.083,0.196,0.125,0.349,0.125c0.139,0,0.247-0.045,0.323-0.134
			c0.076-0.09,0.114-0.247,0.114-0.473V5.462h1.214v3.184c0,1.05-0.543,1.573-1.631,1.573c-0.309,0-0.568-0.043-0.776-0.128
			c-0.209-0.085-0.376-0.204-0.502-0.358C7.81,9.579,7.719,9.395,7.665,9.181c-0.055-0.212-0.082-0.45-0.082-0.71L7.582,8.267
			L7.582,8.267z M29.781,29.761H3.024V12.709h26.757V29.761z"/>
		<rect x="14.41" y="16.402" width="3.987" height="3.987"/>
		<rect x="20.572" y="16.402" width="3.986" height="3.987"/>
		<rect x="8.247" y="22.564" width="3.987" height="3.987"/>
		<rect x="14.409" y="22.564" width="3.988" height="3.987"/>
		<rect x="20.57" y="22.564" width="3.987" height="3.987"/>
	</g>
</g>
<g>
</g>
<g>
</g>
<g>
</g>
<g>
</g>
<g>
</g>
<g>
</g>
<g>
</g>
<g>
</g>
<g>
</g>
<g>
</g>
<g>
</g>
<g>
</g>
<g>
</g>
<g>
</g>
<g>
</g>
</svg>
