<?xml version="1.0" encoding="iso-8859-1"?>
<!-- Generator: Adobe Illustrator 16.0.0, SVG Export Plug-In . SVG Version: 6.00 Build 0)  -->
<!DOCTYPE svg PUBLIC "-//W3C//DTD SVG 1.1//EN" "http://www.w3.org/Graphics/SVG/1.1/DTD/svg11.dtd">
<svg version="1.1" id="Capa_1" xmlns="http://www.w3.org/2000/svg" xmlns:xlink="http://www.w3.org/1999/xlink" x="0px" y="0px"
	 width="31.5px" height="31.5px" viewBox="0 0 31.5 31.5" style="enable-background:new 0 0 31.5 31.5;" xml:space="preserve">
<g>
	<g>
		<path d="M28.75,0h-26C1.232,0,0,1.233,0,2.75v26c0,1.518,1.232,2.75,2.75,2.75h22.895l5.855-5.855V2.75
			C31.5,1.234,30.268,0,28.75,0z M24.583,2.042c0.817,0,1.479,0.662,1.479,1.479S25.4,5,24.583,5s-1.479-0.662-1.479-1.479
			S23.766,2.042,24.583,2.042z M20.166,2.042c0.816,0,1.479,0.662,1.479,1.479S20.982,5,20.166,5s-1.479-0.662-1.479-1.479
			S19.35,2.042,20.166,2.042z M15.75,2.042c0.816,0,1.479,0.662,1.479,1.479S16.567,5,15.75,5s-1.479-0.662-1.479-1.479
			S14.933,2.042,15.75,2.042z M11.334,2.042c0.816,0,1.479,0.662,1.479,1.479S12.151,5,11.334,5c-0.818,0-1.48-0.662-1.48-1.479
			S10.516,2.042,11.334,2.042z M6.917,2.042c0.817,0,1.479,0.662,1.479,1.479S7.734,5,6.917,5S5.438,4.338,5.438,3.521
			S6.1,2.042,6.917,2.042z M30,25.023l-0.311,0.311h-2.355c-1.102,0-2,0.9-2,2v2.355L25.023,30H2.75c-0.689,0-1.25-0.561-1.25-1.25
			v-22H30V25.023z"/>
		<path d="M13.092,23.618h1.994v2.325h-3.323c-0.551,0-0.997,0.447-0.997,0.998c0,0.55,0.446,0.996,0.997,0.996h7.975
			c0.551,0,0.998-0.446,0.998-0.996c0-0.551-0.446-0.998-0.998-0.998h-3.323v-2.325h1.994c2.198,0,3.987-1.789,3.987-3.988v-4.652
			c0-0.368-0.297-0.665-0.666-0.665c-0.367,0-0.664,0.297-0.664,0.665v4.652c0,1.468-1.193,2.659-2.658,2.659h-5.317
			c-1.466,0-2.659-1.191-2.659-2.659v-4.652c0-0.368-0.297-0.665-0.665-0.665c-0.368,0-0.665,0.297-0.665,0.665v4.652
			C9.104,21.829,10.893,23.618,13.092,23.618z"/>
		<path d="M14.089,21.125h3.323c1.375,0,2.492-1.119,2.492-2.493V11.32c0-1.374-1.117-2.492-2.492-2.492h-3.323
			c-1.375,0-2.493,1.118-2.493,2.492v7.312C11.596,20.007,12.714,21.125,14.089,21.125z M14.753,20.128h-0.664v-4.817h0.664V20.128z
			 M16.083,20.128h-0.665v-4.817h0.665V20.128z M17.412,20.128h-0.665v-4.817h0.665V20.128z M18.907,18.633
			c0,0.585-0.339,1.086-0.831,1.333v-4.655h0.831V18.633z M12.593,11.321c0-0.824,0.671-1.495,1.496-1.495h3.323
			c0.824,0,1.496,0.671,1.496,1.495v3.323h-6.314v-3.323H12.593z M12.593,15.311h0.831v4.655c-0.49-0.246-0.831-0.748-0.831-1.333
			V15.311z"/>
	</g>
</g>
<g>
</g>
<g>
</g>
<g>
</g>
<g>
</g>
<g>
</g>
<g>
</g>
<g>
</g>
<g>
</g>
<g>
</g>
<g>
</g>
<g>
</g>
<g>
</g>
<g>
</g>
<g>
</g>
<g>
</g>
</svg>
