<?xml version="1.0" encoding="iso-8859-1"?>
<!-- Generator: Adobe Illustrator 16.0.0, SVG Export Plug-In . SVG Version: 6.00 Build 0)  -->
<!DOCTYPE svg PUBLIC "-//W3C//DTD SVG 1.1//EN" "http://www.w3.org/Graphics/SVG/1.1/DTD/svg11.dtd">
<svg version="1.1" id="Capa_1" xmlns="http://www.w3.org/2000/svg" xmlns:xlink="http://www.w3.org/1999/xlink" x="0px" y="0px"
	 width="32.75px" height="32.75px" viewBox="0 0 32.75 32.75" style="enable-background:new 0 0 32.75 32.75;" xml:space="preserve"
	>
<g>
	<g>
		<path d="M9.915,25.666h3.36v-14.16h-2.36c-0.04,0.227-0.117,0.47-0.23,0.73c-0.113,0.26-0.29,0.5-0.53,0.72
			c-0.24,0.22-0.563,0.403-0.97,0.55c-0.407,0.147-0.93,0.22-1.57,0.22h-0.42v2.12h2.72V25.666z"/>
		<path d="M21.495,23.826c-0.253,0-0.46-0.062-0.62-0.19c-0.16-0.126-0.287-0.293-0.38-0.5c-0.095-0.206-0.157-0.45-0.19-0.729
			c-0.033-0.28-0.05-0.58-0.05-0.9h-3.239c0,0.907,0.109,1.647,0.33,2.22c0.219,0.574,0.535,1.023,0.949,1.352
			c0.413,0.327,0.903,0.554,1.471,0.68c0.565,0.127,1.202,0.19,1.909,0.19c0.613,0,1.193-0.08,1.74-0.24
			c0.546-0.16,1.021-0.41,1.42-0.75s0.717-0.78,0.95-1.319c0.232-0.541,0.35-1.189,0.35-1.951c0-1-0.18-1.77-0.539-2.31
			c-0.361-0.54-0.961-0.903-1.801-1.09v-0.04c0.653-0.146,1.153-0.477,1.5-0.99c0.348-0.513,0.52-1.13,0.52-1.85
			c0-1.373-0.336-2.367-1.01-2.98c-0.674-0.613-1.709-0.92-3.109-0.92c-1.573,0-2.728,0.347-3.461,1.04
			c-0.719,0.667-1.08,1.707-1.08,3.12h3c0-0.8,0.125-1.34,0.371-1.62c0.246-0.28,0.557-0.42,0.93-0.42c0.387,0,0.67,0.13,0.85,0.39
			c0.18,0.261,0.271,0.67,0.271,1.23c0,0.693-0.101,1.22-0.3,1.58c-0.2,0.359-0.58,0.54-1.141,0.54h-0.92v2.12h0.801
			c0.332,0,0.609,0.033,0.83,0.1c0.219,0.067,0.399,0.184,0.539,0.35c0.141,0.168,0.24,0.397,0.301,0.69
			c0.06,0.294,0.09,0.667,0.09,1.12c0,0.8-0.107,1.347-0.32,1.641C22.242,23.68,21.921,23.826,21.495,23.826z"/>
		<path d="M14.549,5.502c-0.048,0.036-0.083,0.079-0.104,0.129c-0.021,0.05-0.033,0.116-0.033,0.2c0,0.118,0.022,0.21,0.066,0.278
			c0.044,0.067,0.108,0.102,0.193,0.102c0.095,0,0.179-0.029,0.25-0.088c0.072-0.059,0.107-0.165,0.107-0.319
			c0-0.124,0.001-0.227,0.003-0.308c0.001-0.081,0.002-0.152,0.002-0.215c-0.139,0.073-0.245,0.12-0.316,0.141
			C14.645,5.442,14.589,5.469,14.549,5.502z"/>
		<path d="M29.375,1.25h-1.123c0.029-0.093,0.059-0.186,0.059-0.289c0-0.53-0.432-0.961-0.963-0.961s-0.961,0.431-0.961,0.961
			c0,0.104,0.028,0.196,0.059,0.289h-3.68c0.029-0.093,0.059-0.186,0.059-0.289c0-0.53-0.432-0.961-0.963-0.961
			C21.332,0,20.9,0.431,20.9,0.961c0,0.104,0.029,0.196,0.06,0.289h-3.681c0.029-0.093,0.058-0.186,0.058-0.289
			c0-0.53-0.43-0.961-0.961-0.961c-0.531,0-0.961,0.431-0.961,0.961c0,0.104,0.028,0.196,0.058,0.289h-3.681
			c0.029-0.093,0.059-0.186,0.059-0.289C11.851,0.431,11.42,0,10.89,0c-0.531,0-0.962,0.431-0.962,0.961
			c0,0.104,0.028,0.196,0.058,0.289h-3.68c0.03-0.093,0.059-0.186,0.059-0.289C6.365,0.431,5.935,0,5.404,0
			C4.873,0,4.442,0.431,4.442,0.961c0,0.104,0.028,0.196,0.058,0.289H3.375c-1.518,0-2.75,1.233-2.75,2.75v26
			c0,1.518,1.232,2.75,2.75,2.75H26.27l5.855-5.855V4C32.125,2.483,30.893,1.25,29.375,1.25z M21.018,2.823h0.891v1.275h0.011
			c0.073-0.146,0.167-0.25,0.281-0.311c0.112-0.061,0.248-0.091,0.401-0.091c0.252,0,0.444,0.066,0.578,0.198
			c0.131,0.132,0.197,0.341,0.197,0.627v2.228h-0.893V4.72c0-0.105-0.021-0.189-0.065-0.25s-0.108-0.091-0.192-0.091
			s-0.158,0.033-0.223,0.102c-0.064,0.067-0.096,0.175-0.096,0.321v1.947h-0.891V2.823z M18.325,4.575
			c0.034-0.179,0.098-0.332,0.19-0.463c0.09-0.13,0.215-0.231,0.371-0.305c0.155-0.074,0.354-0.11,0.596-0.11
			c0.235,0,0.429,0.029,0.582,0.088c0.151,0.059,0.271,0.141,0.359,0.245c0.088,0.104,0.149,0.23,0.186,0.38
			c0.035,0.148,0.052,0.311,0.052,0.486h-0.825c0-0.22-0.025-0.378-0.08-0.473c-0.053-0.096-0.139-0.144-0.256-0.144
			c-0.073,0-0.132,0.023-0.176,0.069c-0.045,0.046-0.078,0.11-0.102,0.195c-0.024,0.084-0.041,0.187-0.048,0.308
			s-0.011,0.259-0.011,0.412c0,0.169,0.003,0.314,0.011,0.438c0.009,0.124,0.023,0.225,0.048,0.306
			c0.023,0.08,0.057,0.14,0.102,0.179c0.044,0.038,0.103,0.058,0.176,0.058c0.066,0,0.12-0.012,0.162-0.036
			c0.042-0.023,0.074-0.063,0.1-0.118c0.023-0.055,0.041-0.127,0.051-0.217c0.012-0.09,0.02-0.201,0.022-0.333h0.825
			c-0.004,0.458-0.1,0.787-0.289,0.987c-0.189,0.2-0.484,0.3-0.889,0.3c-0.281,0-0.502-0.046-0.662-0.138
			c-0.16-0.092-0.281-0.215-0.363-0.368c-0.082-0.154-0.134-0.332-0.154-0.534c-0.02-0.201-0.029-0.412-0.029-0.632
			C18.271,4.946,18.29,4.753,18.325,4.575z M16.402,3.774h0.858v0.418h0.012c0.059-0.132,0.146-0.247,0.261-0.347
			c0.114-0.099,0.267-0.147,0.454-0.147h0.065c0.015,0,0.041,0.004,0.077,0.012v0.836c-0.044-0.008-0.085-0.014-0.124-0.017
			c-0.039-0.004-0.08-0.006-0.124-0.006c-0.18,0-0.322,0.04-0.429,0.121s-0.159,0.22-0.159,0.418v1.688h-0.891V3.774z M14.967,4.36
			c-0.044-0.053-0.116-0.08-0.214-0.08c-0.125,0-0.209,0.036-0.253,0.107c-0.044,0.071-0.068,0.172-0.072,0.3h-0.792
			c0.003-0.209,0.034-0.376,0.091-0.501c0.057-0.124,0.138-0.223,0.245-0.297c0.106-0.073,0.225-0.123,0.355-0.151
			c0.13-0.027,0.289-0.041,0.476-0.041c0.367,0,0.634,0.067,0.803,0.201c0.168,0.134,0.253,0.36,0.253,0.679v1.529
			c0,0.113,0.004,0.233,0.014,0.357c0.009,0.125,0.04,0.22,0.091,0.286h-0.858c-0.019-0.052-0.03-0.106-0.036-0.165
			c-0.005-0.059-0.01-0.117-0.014-0.176h-0.011c-0.063,0.132-0.156,0.234-0.281,0.308c-0.125,0.074-0.264,0.11-0.418,0.11
			c-0.253,0-0.448-0.07-0.585-0.212c-0.138-0.141-0.207-0.373-0.207-0.695c0-0.177,0.033-0.331,0.099-0.465
			c0.066-0.134,0.154-0.232,0.264-0.295c0.11-0.062,0.239-0.109,0.388-0.143c0.149-0.034,0.285-0.066,0.41-0.099
			c0.066-0.019,0.12-0.036,0.162-0.053c0.042-0.017,0.075-0.036,0.099-0.062C15,4.78,15.015,4.749,15.023,4.712
			c0.007-0.036,0.011-0.082,0.011-0.138C15.033,4.486,15.011,4.413,14.967,4.36z M9.439,2.823h1.353l0.484,2.579h0.011l0.467-2.579
			h1.336V6.75h-0.858V3.692h-0.011l-0.6,3.058h-0.715l-0.631-3.058h-0.01V6.75H9.44L9.439,2.823L9.439,2.823z M30.625,26.273
			l-0.311,0.311h-2.355c-1.102,0-2,0.898-2,2v2.355l-0.311,0.311H3.375c-0.689,0-1.25-0.561-1.25-1.25V9h28.5V26.273z"/>
	</g>
</g>
<g>
</g>
<g>
</g>
<g>
</g>
<g>
</g>
<g>
</g>
<g>
</g>
<g>
</g>
<g>
</g>
<g>
</g>
<g>
</g>
<g>
</g>
<g>
</g>
<g>
</g>
<g>
</g>
<g>
</g>
</svg>
