<?xml version="1.0" encoding="iso-8859-1"?>
<!-- Generator: Adobe Illustrator 16.0.0, SVG Export Plug-In . SVG Version: 6.00 Build 0)  -->
<!DOCTYPE svg PUBLIC "-//W3C//DTD SVG 1.1//EN" "http://www.w3.org/Graphics/SVG/1.1/DTD/svg11.dtd">
<svg version="1.1" id="Capa_1" xmlns="http://www.w3.org/2000/svg" xmlns:xlink="http://www.w3.org/1999/xlink" x="0px" y="0px"
	 width="32px" height="32px" viewBox="0 0 32 32" style="enable-background:new 0 0 32 32;" xml:space="preserve">
<g>
	<g>
		<polygon points="17.229,14.41 16.42,16.91 18.04,16.91 17.25,14.41 		"/>
		<path d="M16,0C7.162,0,0,7.163,0,16c0,8.838,7.162,16,16,16c8.837,0,16-7.162,16-16C32,7.163,24.837,0,16,0z M16,1
			c0.738,0,1.337,0.599,1.337,1.338c0,0.738-0.599,1.337-1.337,1.337c-0.739,0-1.338-0.599-1.338-1.337C14.662,1.599,15.261,1,16,1z
			 M13.07,19.57h-1.75v-5.42H11.3l-1.5,5.42H8.38l-1.5-5.42H6.86v5.42H5.11v-7.14h2.739l1.23,4.759h0.02l1.23-4.759h2.74
			L13.07,19.57L13.07,19.57z M18.92,19.57l-0.439-1.28h-2.49l-0.449,1.28h-1.91l2.67-7.14h1.891l2.67,7.14H18.92z M24.289,16.91
			v2.66H22.43v-2.66l-2.601-4.479h2.11l1.42,2.899l1.42-2.899h2.109L24.289,16.91z"/>
	</g>
</g>
<g>
</g>
<g>
</g>
<g>
</g>
<g>
</g>
<g>
</g>
<g>
</g>
<g>
</g>
<g>
</g>
<g>
</g>
<g>
</g>
<g>
</g>
<g>
</g>
<g>
</g>
<g>
</g>
<g>
</g>
</svg>
