<?xml version="1.0" encoding="iso-8859-1"?>
<!-- Generator: Adobe Illustrator 16.0.0, SVG Export Plug-In . SVG Version: 6.00 Build 0)  -->
<!DOCTYPE svg PUBLIC "-//W3C//DTD SVG 1.1//EN" "http://www.w3.org/Graphics/SVG/1.1/DTD/svg11.dtd">
<svg version="1.1" id="Capa_1" xmlns="http://www.w3.org/2000/svg" xmlns:xlink="http://www.w3.org/1999/xlink" x="0px" y="0px"
	 width="33px" height="33px" viewBox="0 0 33 33" style="enable-background:new 0 0 33 33;" xml:space="preserve">
<g>
	<g>
		<path d="M28.5,0h-24C2.019,0,0,2.019,0,4.5v24C0,30.98,2.019,33,4.5,33h24c2.48,0,4.5-2.02,4.5-4.5v-24C33,2.019,30.98,0,28.5,0z
			 M31.5,28.5c0,1.648-1.35,3-3,3h-24c-1.65,0-3-1.352-3-3v-24c0-1.649,1.35-3,3-3h24c1.65,0,3,1.351,3,3V28.5z"/>
		<polygon points="17.838,13.704 17.01,17.557 18.689,17.557 17.861,13.704 		"/>
		<path d="M26.318,3H6.682C4.652,3,3,4.65,3,6.681V26.32c0,2.029,1.652,3.681,3.682,3.681h19.636c2.029,0,3.682-1.649,3.682-3.681
			V6.681C30,4.65,28.348,3,26.318,3z M13.878,20.784h-1.584v-6.84H12.27l-1.524,6.84H9.402l-1.524-6.84H7.854v6.84H6.27v-8.568
			h2.568l1.224,6.05h0.024l1.236-6.05h2.556V20.784z M19.387,20.784l-0.396-1.812h-2.28l-0.396,1.812h-1.8l2.268-8.568h2.136
			l2.268,8.568H19.387z M24.51,17.412v3.372h-1.728v-3.372l-2.22-5.196h1.943l1.128,3.313h0.024l1.199-3.313h1.873L24.51,17.412z"/>
	</g>
</g>
<g>
</g>
<g>
</g>
<g>
</g>
<g>
</g>
<g>
</g>
<g>
</g>
<g>
</g>
<g>
</g>
<g>
</g>
<g>
</g>
<g>
</g>
<g>
</g>
<g>
</g>
<g>
</g>
<g>
</g>
</svg>
