<?xml version="1.0" encoding="iso-8859-1"?>
<!-- Generator: Adobe Illustrator 16.0.0, SVG Export Plug-In . SVG Version: 6.00 Build 0)  -->
<!DOCTYPE svg PUBLIC "-//W3C//DTD SVG 1.1//EN" "http://www.w3.org/Graphics/SVG/1.1/DTD/svg11.dtd">
<svg version="1.1" id="Capa_1" xmlns="http://www.w3.org/2000/svg" xmlns:xlink="http://www.w3.org/1999/xlink" x="0px" y="0px"
	 width="32.75px" height="32.75px" viewBox="0 0 32.75 32.75" style="enable-background:new 0 0 32.75 32.75;" xml:space="preserve"
	>
<g>
	<g>
		<path d="M29.375,1.25h-1.124c0.028-0.093,0.058-0.186,0.058-0.289C28.311,0.431,27.879,0,27.348,0s-0.961,0.431-0.961,0.961
			c0,0.103,0.028,0.196,0.059,0.289h-3.68c0.029-0.093,0.058-0.186,0.058-0.289C22.823,0.43,22.393,0,21.861,0
			C21.331,0,20.9,0.431,20.9,0.961c0,0.103,0.029,0.196,0.059,0.289h-3.68c0.029-0.093,0.058-0.186,0.058-0.289
			C17.336,0.431,16.906,0,16.375,0c-0.531,0-0.961,0.431-0.961,0.961c0,0.103,0.029,0.196,0.058,0.289h-3.68
			c0.029-0.093,0.058-0.186,0.058-0.289C11.85,0.431,11.419,0,10.888,0c-0.531,0-0.961,0.431-0.961,0.961
			c0,0.103,0.028,0.196,0.058,0.289h-3.68c0.03-0.093,0.058-0.186,0.058-0.289C6.363,0.43,5.933,0,5.402,0
			C4.871,0,4.441,0.431,4.441,0.961c0,0.103,0.029,0.196,0.058,0.289H3.375c-1.517,0-2.75,1.233-2.75,2.75v26
			c0,1.518,1.233,2.75,2.75,2.75H26.27l5.855-5.855V4C32.125,2.483,30.893,1.25,29.375,1.25z M30.625,26.273l-0.311,0.311h-2.356
			c-1.101,0-2,0.9-2,2v2.355l-0.31,0.311H3.375c-0.689,0-1.25-0.561-1.25-1.25V7h28.5V26.273z"/>
		<path d="M11.036,27.875h10.678c1.958,0,3.56-1.602,3.56-3.559V13.638c0-1.958-1.603-3.559-3.56-3.559H11.036
			c-1.958,0-3.559,1.602-3.559,3.559v10.678C7.477,26.273,9.079,27.875,11.036,27.875z M12.822,26.984h-0.72
			c-0.098,0-0.178-0.079-0.178-0.178c0-0.098,0.08-0.178,0.178-0.178h0.72c0.098,0,0.178,0.08,0.178,0.178
			C13,26.905,12.92,26.984,12.822,26.984z M14.982,26.984h-0.72c-0.098,0-0.178-0.079-0.178-0.178c0-0.098,0.08-0.178,0.178-0.178
			h0.72c0.098,0,0.178,0.08,0.178,0.178C15.16,26.905,15.081,26.984,14.982,26.984z M17.145,26.984h-0.722
			c-0.098,0-0.178-0.079-0.178-0.178c0-0.098,0.08-0.178,0.178-0.178h0.722c0.098,0,0.178,0.08,0.178,0.178
			C17.322,26.905,17.242,26.984,17.145,26.984z M19.305,26.984h-0.721c-0.098,0-0.178-0.079-0.178-0.178
			c0-0.098,0.08-0.178,0.178-0.178h0.721c0.098,0,0.178,0.08,0.178,0.178C19.482,26.905,19.402,26.984,19.305,26.984z
			 M21.465,26.984h-0.72c-0.099,0-0.179-0.079-0.179-0.178c0-0.098,0.08-0.178,0.179-0.178h0.72c0.098,0,0.178,0.08,0.178,0.178
			C21.643,26.905,21.562,26.984,21.465,26.984z M24.383,22.717c0,0.098-0.08,0.178-0.178,0.178s-0.178-0.08-0.178-0.178v-0.72
			c0-0.099,0.08-0.179,0.178-0.179s0.178,0.08,0.178,0.179V22.717z M24.383,20.557c0,0.099-0.08,0.178-0.178,0.178
			s-0.178-0.079-0.178-0.178v-0.72c0-0.098,0.08-0.178,0.178-0.178s0.178,0.08,0.178,0.178V20.557z M24.383,18.396
			c0,0.098-0.08,0.178-0.178,0.178s-0.178-0.08-0.178-0.178v-0.721c0-0.098,0.08-0.178,0.178-0.178s0.178,0.08,0.178,0.178V18.396z
			 M24.383,16.235c0,0.098-0.08,0.178-0.178,0.178s-0.178-0.08-0.178-0.178v-0.72c0-0.098,0.08-0.178,0.178-0.178
			s0.178,0.08,0.178,0.178V16.235z M24.17,13.178c0.096-0.011,0.186,0.06,0.196,0.157c0.011,0.1,0.018,0.2,0.018,0.303v0.436
			c0,0.098-0.079,0.178-0.178,0.178s-0.179-0.08-0.179-0.178v-0.436c0-0.089-0.004-0.177-0.014-0.264
			C24.001,13.277,24.072,13.188,24.17,13.178z M24.027,24.314v-0.157c0-0.099,0.08-0.179,0.178-0.179s0.178,0.08,0.178,0.179v0.159
			c-0.001,0.203-0.023,0.403-0.066,0.597c-0.021,0.083-0.094,0.138-0.174,0.138c-0.014,0-0.026-0.001-0.041-0.004
			c-0.096-0.021-0.156-0.117-0.134-0.213C24.007,24.666,24.025,24.492,24.027,24.314z M22.95,11.469
			c0.056-0.082,0.166-0.103,0.248-0.049c0.213,0.144,0.405,0.317,0.571,0.515c0.062,0.076,0.051,0.188-0.023,0.251
			c-0.034,0.028-0.074,0.041-0.114,0.041c-0.051,0-0.103-0.021-0.137-0.064c-0.144-0.172-0.31-0.322-0.496-0.447
			C22.917,11.661,22.896,11.551,22.95,11.469z M22.777,26.37c0.197-0.103,0.379-0.234,0.541-0.39c0.07-0.068,0.184-0.066,0.25,0.004
			c0.068,0.07,0.066,0.184-0.004,0.25c-0.187,0.181-0.396,0.332-0.623,0.449c-0.026,0.015-0.055,0.021-0.082,0.021
			c-0.064,0-0.127-0.035-0.158-0.097C22.656,26.523,22.689,26.415,22.777,26.37z M20.994,10.969h0.72
			c0.099,0,0.192,0.08,0.192,0.179c0,0.098-0.065,0.178-0.163,0.178c-0.005,0-0.038-0.001-0.042-0.001h-0.708
			c-0.099,0-0.179-0.08-0.179-0.178S20.896,10.969,20.994,10.969z M18.833,10.969h0.72c0.098,0,0.178,0.08,0.178,0.178
			s-0.08,0.178-0.178,0.178h-0.72c-0.099,0-0.179-0.08-0.179-0.178S18.734,10.969,18.833,10.969z M16.672,10.969h0.721
			c0.098,0,0.178,0.08,0.178,0.178s-0.08,0.178-0.178,0.178h-0.721c-0.098,0-0.178-0.08-0.178-0.178S16.575,10.969,16.672,10.969z
			 M14.512,10.969h0.72c0.098,0,0.178,0.08,0.178,0.178s-0.08,0.178-0.178,0.178h-0.72c-0.098,0-0.178-0.08-0.178-0.178
			S14.414,10.969,14.512,10.969z M12.351,10.969h0.72c0.098,0,0.178,0.08,0.178,0.178s-0.08,0.178-0.178,0.178h-0.72
			c-0.098,0-0.178-0.08-0.178-0.178S12.253,10.969,12.351,10.969z M11.466,17.014h2.945v-2.946h3.927v2.946h2.946v3.928h-2.946
			v2.944h-3.927v-2.944h-2.945V17.014z M10.147,11.122c0.243-0.086,0.497-0.137,0.754-0.15c0.102-0.006,0.182,0.071,0.187,0.169
			s-0.071,0.182-0.169,0.187c-0.224,0.011-0.443,0.055-0.654,0.129c-0.02,0.007-0.04,0.01-0.059,0.01
			c-0.073,0-0.142-0.046-0.167-0.119C10.006,11.256,10.054,11.154,10.147,11.122z M9.815,26.495c0.042-0.09,0.149-0.126,0.237-0.085
			c0.203,0.096,0.417,0.16,0.637,0.193c0.097,0.016,0.164,0.105,0.149,0.203c-0.013,0.088-0.089,0.151-0.176,0.151
			c-0.008,0-0.018-0.001-0.026-0.002c-0.254-0.038-0.501-0.113-0.736-0.224C9.812,26.689,9.774,26.584,9.815,26.495z M8.917,12.017
			c0.059-0.079,0.171-0.093,0.25-0.033c0.078,0.06,0.092,0.171,0.032,0.25c-0.136,0.177-0.246,0.373-0.326,0.582
			c-0.027,0.071-0.095,0.114-0.167,0.114c-0.021,0-0.043-0.003-0.064-0.012c-0.091-0.036-0.137-0.138-0.102-0.23
			C8.633,12.447,8.76,12.222,8.917,12.017z M8.367,14.171c0-0.098,0.08-0.178,0.178-0.178s0.178,0.08,0.178,0.178v0.72
			c0,0.098-0.08,0.178-0.178,0.178s-0.178-0.08-0.178-0.178V14.171z M8.367,16.332c0-0.098,0.08-0.178,0.178-0.178
			s0.178,0.08,0.178,0.178v0.72c0,0.099-0.08,0.179-0.178,0.179s-0.178-0.08-0.178-0.179V16.332z M8.367,18.493
			c0-0.099,0.08-0.179,0.178-0.179s0.178,0.08,0.178,0.179v0.72c0,0.098-0.08,0.178-0.178,0.178s-0.178-0.08-0.178-0.178V18.493z
			 M8.367,20.652c0-0.098,0.08-0.178,0.178-0.178s0.178,0.08,0.178,0.178v0.721c0,0.098-0.08,0.178-0.178,0.178
			s-0.178-0.08-0.178-0.178V20.652z M8.367,23.534v-0.72c0-0.099,0.08-0.179,0.178-0.179s0.178,0.08,0.178,0.179v0.72
			c0,0.098-0.08,0.178-0.178,0.178S8.367,23.632,8.367,23.534z M8.584,24.795c0.095-0.025,0.192,0.03,0.218,0.125
			c0.059,0.215,0.148,0.42,0.266,0.61c0.052,0.083,0.026,0.192-0.058,0.245c-0.029,0.019-0.062,0.026-0.094,0.026
			c-0.059,0-0.118-0.03-0.152-0.084c-0.135-0.219-0.239-0.456-0.306-0.704C8.434,24.918,8.489,24.82,8.584,24.795z"/>
	</g>
</g>
<g>
</g>
<g>
</g>
<g>
</g>
<g>
</g>
<g>
</g>
<g>
</g>
<g>
</g>
<g>
</g>
<g>
</g>
<g>
</g>
<g>
</g>
<g>
</g>
<g>
</g>
<g>
</g>
<g>
</g>
</svg>
