<?xml version="1.0" encoding="iso-8859-1"?>
<!-- Generator: Adobe Illustrator 16.0.0, SVG Export Plug-In . SVG Version: 6.00 Build 0)  -->
<!DOCTYPE svg PUBLIC "-//W3C//DTD SVG 1.1//EN" "http://www.w3.org/Graphics/SVG/1.1/DTD/svg11.dtd">
<svg version="1.1" id="Capa_1" xmlns="http://www.w3.org/2000/svg" xmlns:xlink="http://www.w3.org/1999/xlink" x="0px" y="0px"
	 width="32.75px" height="32.75px" viewBox="0 0 32.75 32.75" style="enable-background:new 0 0 32.75 32.75;" xml:space="preserve"
	>
<g>
	<g>
		<path d="M11.995,16.977c-0.16,0.272-0.407,0.594-0.74,0.959c-0.333,0.367-0.8,0.817-1.399,1.352
			c-0.307,0.268-0.645,0.594-1.01,0.979c-0.367,0.389-0.714,0.842-1.041,1.36c-0.326,0.521-0.6,1.113-0.82,1.78
			c-0.219,0.667-0.329,1.42-0.329,2.26h9.04v-2.6h-5.02c0.172-0.4,0.502-0.83,0.989-1.291c0.487-0.459,1.077-1.029,1.771-1.709
			c0.439-0.414,0.803-0.787,1.09-1.121c0.286-0.332,0.516-0.67,0.689-1.01c0.174-0.341,0.293-0.703,0.36-1.091
			c0.066-0.387,0.101-0.847,0.101-1.38c0-0.56-0.067-1.08-0.201-1.56c-0.133-0.48-0.366-0.896-0.699-1.25
			c-0.334-0.354-0.783-0.634-1.35-0.84c-0.567-0.207-1.277-0.311-2.131-0.311c-3.04,0-4.561,1.42-4.561,4.26v0.46h3.121
			c0-0.268,0.006-0.554,0.02-0.859c0.014-0.306,0.061-0.59,0.141-0.851c0.08-0.26,0.206-0.473,0.379-0.64
			c0.174-0.167,0.42-0.25,0.74-0.25c0.48,0,0.797,0.17,0.95,0.51c0.153,0.34,0.229,0.79,0.229,1.351c0,0.267-0.013,0.513-0.039,0.74
			C12.248,16.453,12.155,16.703,11.995,16.977z"/>
		<path d="M17.654,24.046c0.32,0.613,0.787,1.084,1.4,1.41c0.612,0.326,1.452,0.489,2.521,0.489c1.053,0,1.886-0.188,2.5-0.561
			c0.612-0.373,1.079-0.883,1.399-1.529c0.319-0.646,0.526-1.41,0.621-2.289c0.092-0.881,0.139-1.827,0.139-2.842
			c0-1.133-0.043-2.148-0.129-3.05c-0.088-0.899-0.291-1.656-0.61-2.27c-0.32-0.613-0.79-1.083-1.41-1.41
			c-0.62-0.326-1.457-0.49-2.51-0.49c-1.054,0-1.888,0.188-2.5,0.561c-0.614,0.373-1.08,0.883-1.4,1.529
			c-0.319,0.647-0.526,1.41-0.62,2.29c-0.094,0.881-0.14,1.827-0.14,2.84c0,1.147,0.043,2.168,0.13,3.062
			C17.131,22.68,17.335,23.434,17.654,24.046z M20.314,16.236c0.026-0.66,0.086-1.185,0.181-1.57
			c0.093-0.387,0.228-0.656,0.399-0.81c0.174-0.153,0.399-0.23,0.681-0.23c0.28,0,0.507,0.077,0.68,0.23s0.308,0.423,0.399,0.81
			c0.094,0.387,0.154,0.91,0.181,1.57s0.04,1.496,0.04,2.51c0,1-0.014,1.827-0.04,2.479c-0.026,0.654-0.087,1.174-0.181,1.562
			c-0.094,0.387-0.228,0.657-0.399,0.81c-0.173,0.153-0.399,0.23-0.68,0.23c-0.281,0-0.507-0.077-0.681-0.23
			c-0.174-0.152-0.308-0.423-0.399-0.81c-0.095-0.388-0.153-0.906-0.181-1.562c-0.026-0.651-0.039-1.479-0.039-2.479
			C20.275,17.732,20.288,16.896,20.314,16.236z"/>
		<path d="M29.375,1.25h-1.123c0.029-0.093,0.059-0.186,0.059-0.289c0-0.53-0.432-0.961-0.963-0.961s-0.961,0.431-0.961,0.961
			c0,0.104,0.028,0.196,0.059,0.289h-3.68c0.029-0.093,0.059-0.186,0.059-0.289c0-0.53-0.432-0.961-0.963-0.961
			C21.332,0,20.9,0.431,20.9,0.961c0,0.104,0.029,0.196,0.06,0.289h-3.681c0.029-0.093,0.058-0.186,0.058-0.289
			c0-0.53-0.43-0.961-0.961-0.961c-0.531,0-0.961,0.431-0.961,0.961c0,0.104,0.028,0.196,0.058,0.289h-3.681
			c0.029-0.093,0.059-0.186,0.059-0.289C11.851,0.431,11.42,0,10.89,0c-0.531,0-0.962,0.431-0.962,0.961
			c0,0.104,0.028,0.196,0.058,0.289h-3.68c0.03-0.093,0.059-0.186,0.059-0.289C6.365,0.431,5.935,0,5.404,0
			C4.873,0,4.442,0.431,4.442,0.961c0,0.104,0.028,0.196,0.058,0.289H3.375c-1.518,0-2.75,1.233-2.75,2.75v26
			c0,1.518,1.232,2.75,2.75,2.75H26.27l5.855-5.855V4C32.125,2.483,30.893,1.25,29.375,1.25z M30.625,26.273l-0.311,0.311h-2.355
			c-1.102,0-2,0.898-2,2v2.355l-0.311,0.311H3.375c-0.689,0-1.25-0.561-1.25-1.25V9h28.5V26.273z M30.625,7.208c0,0.55-0.45,1-1,1
			h-26.5c-0.55,0-1-0.45-1-1v-4c0-0.55,0.45-1,1-1h26.5c0.55,0,1,0.45,1,1V7.208z"/>
		<path d="M10.224,3.356c-0.09-0.187-0.228-0.335-0.413-0.445c-0.185-0.11-0.44-0.165-0.767-0.165c-0.305,0-0.548,0.048-0.729,0.143
			c-0.181,0.096-0.32,0.232-0.418,0.41C7.8,3.477,7.737,3.692,7.708,3.943S7.665,4.475,7.665,4.787c0,0.313,0.014,0.594,0.043,0.845
			s0.093,0.466,0.189,0.644C7.995,6.454,8.134,6.59,8.315,6.685C8.497,6.781,8.74,6.829,9.044,6.829
			c0.326,0,0.582-0.055,0.767-0.165c0.186-0.11,0.323-0.259,0.413-0.445c0.09-0.188,0.146-0.404,0.167-0.652
			c0.023-0.247,0.033-0.507,0.033-0.778s-0.01-0.53-0.033-0.778C10.369,3.761,10.313,3.544,10.224,3.356z M9.453,5.466
			C9.444,5.648,9.424,5.793,9.392,5.904C9.361,6.013,9.318,6.092,9.261,6.14C9.203,6.188,9.129,6.211,9.038,6.211
			c-0.092,0-0.166-0.023-0.221-0.071C8.762,6.092,8.719,6.013,8.69,5.904c-0.029-0.11-0.049-0.256-0.057-0.438
			c-0.01-0.182-0.015-0.408-0.015-0.68c0-0.268,0.005-0.493,0.015-0.676C8.641,3.926,8.66,3.78,8.69,3.67
			c0.03-0.11,0.072-0.188,0.127-0.236c0.055-0.048,0.129-0.071,0.221-0.071c0.091,0,0.165,0.023,0.223,0.071
			c0.057,0.048,0.1,0.126,0.131,0.236c0.031,0.11,0.052,0.257,0.061,0.44c0.01,0.183,0.014,0.408,0.014,0.676
			C9.467,5.058,9.463,5.284,9.453,5.466z"/>
		<path d="M11.719,4.545c0.024-0.085,0.059-0.149,0.103-0.195c0.044-0.046,0.103-0.069,0.176-0.069c0.117,0,0.202,0.048,0.256,0.144
			c0.054,0.095,0.079,0.253,0.079,0.473h0.826c0-0.176-0.018-0.338-0.053-0.486s-0.096-0.275-0.185-0.38
			c-0.088-0.104-0.208-0.188-0.36-0.245c-0.152-0.058-0.346-0.088-0.58-0.088c-0.242,0-0.441,0.037-0.597,0.11
			c-0.156,0.073-0.28,0.175-0.371,0.305c-0.092,0.131-0.155,0.284-0.19,0.463c-0.034,0.178-0.052,0.371-0.052,0.58
			c0,0.22,0.011,0.431,0.03,0.632c0.02,0.202,0.072,0.38,0.154,0.534c0.082,0.153,0.203,0.276,0.363,0.368
			c0.159,0.092,0.38,0.138,0.662,0.138c0.403,0,0.699-0.1,0.889-0.3c0.188-0.2,0.285-0.529,0.289-0.987h-0.826
			c-0.003,0.132-0.01,0.243-0.021,0.333c-0.011,0.09-0.028,0.162-0.053,0.217c-0.023,0.055-0.057,0.095-0.099,0.118
			c-0.042,0.024-0.097,0.036-0.162,0.036c-0.073,0-0.132-0.02-0.176-0.058c-0.044-0.039-0.078-0.099-0.103-0.179
			c-0.023-0.081-0.039-0.183-0.047-0.306c-0.007-0.123-0.01-0.269-0.01-0.438c0-0.153,0.003-0.291,0.01-0.412
			C11.68,4.731,11.695,4.629,11.719,4.545z"/>
		<path d="M14.521,2.9H13.63v0.874h-0.369V4.39h0.369v1.59c0,0.172,0.012,0.312,0.035,0.418c0.023,0.105,0.066,0.188,0.127,0.244
			s0.143,0.095,0.244,0.113c0.104,0.018,0.231,0.027,0.385,0.027c0.17,0,0.34-0.011,0.512-0.033V6.155
			c-0.018,0.004-0.039,0.006-0.063,0.008s-0.045,0.003-0.063,0.003c-0.106,0-0.181-0.02-0.223-0.058
			c-0.042-0.039-0.063-0.111-0.063-0.218V4.389h0.412V3.773h-0.412V2.9z"/>
		<path d="M17.395,4.143c-0.086-0.139-0.209-0.248-0.371-0.327c-0.16-0.078-0.377-0.118-0.647-0.118
			c-0.257,0-0.465,0.041-0.624,0.121C15.593,3.9,15.468,4.01,15.378,4.152c-0.09,0.141-0.15,0.307-0.182,0.498
			c-0.031,0.19-0.047,0.397-0.047,0.621s0.013,0.43,0.039,0.619c0.025,0.188,0.08,0.353,0.164,0.492
			c0.085,0.139,0.209,0.248,0.371,0.327c0.164,0.078,0.381,0.118,0.652,0.118c0.257,0,0.465-0.041,0.624-0.121
			c0.159-0.081,0.284-0.191,0.374-0.333c0.09-0.141,0.15-0.307,0.182-0.497c0.031-0.191,0.047-0.398,0.047-0.622
			c0-0.224-0.014-0.43-0.039-0.619C17.537,4.446,17.48,4.282,17.395,4.143z M16.697,5.727c-0.01,0.125-0.026,0.226-0.051,0.303
			c-0.023,0.077-0.058,0.132-0.099,0.165c-0.043,0.033-0.099,0.05-0.168,0.05c-0.133,0-0.223-0.073-0.27-0.22
			c-0.048-0.147-0.072-0.402-0.072-0.765c0-0.359,0.024-0.612,0.072-0.759c0.047-0.147,0.137-0.221,0.27-0.221
			c0.069,0,0.125,0.017,0.168,0.05c0.041,0.033,0.074,0.088,0.099,0.165c0.023,0.077,0.041,0.179,0.051,0.305
			c0.009,0.127,0.014,0.282,0.014,0.465S16.706,5.603,16.697,5.727z"/>
		<path d="M20.27,4.146c-0.062-0.141-0.149-0.251-0.265-0.33c-0.114-0.078-0.261-0.118-0.44-0.118c-0.062,0-0.123,0.007-0.187,0.02
			c-0.063,0.013-0.123,0.034-0.183,0.063c-0.059,0.029-0.112,0.07-0.164,0.123c-0.051,0.054-0.096,0.119-0.133,0.195h-0.01V2.824
			h-0.892v3.927h0.856V6.388h0.013c0.014,0.052,0.036,0.103,0.067,0.154s0.073,0.098,0.127,0.141
			c0.053,0.042,0.115,0.076,0.189,0.104c0.072,0.027,0.159,0.041,0.258,0.041c0.146,0,0.277-0.028,0.395-0.085
			c0.115-0.058,0.211-0.147,0.287-0.27c0.078-0.123,0.138-0.282,0.178-0.477c0.04-0.195,0.061-0.431,0.061-0.709
			c0-0.231-0.011-0.443-0.033-0.638C20.373,4.454,20.332,4.287,20.27,4.146z M19.529,5.592c-0.006,0.112-0.021,0.211-0.041,0.298
			c-0.022,0.086-0.057,0.155-0.105,0.209c-0.047,0.053-0.111,0.079-0.191,0.079c-0.133,0-0.219-0.077-0.258-0.229
			c-0.041-0.154-0.062-0.376-0.062-0.666c0-0.132,0.003-0.255,0.009-0.368c0.006-0.113,0.02-0.213,0.041-0.297
			c0.021-0.085,0.055-0.15,0.096-0.198c0.043-0.048,0.103-0.071,0.18-0.071c0.08,0,0.144,0.021,0.189,0.063
			c0.045,0.042,0.079,0.103,0.102,0.181c0.021,0.079,0.035,0.174,0.041,0.283c0.007,0.11,0.009,0.233,0.009,0.369
			C19.537,5.364,19.535,5.48,19.529,5.592z"/>
		<path d="M23.146,5.408c0-0.253-0.012-0.484-0.03-0.693s-0.07-0.39-0.148-0.542c-0.079-0.151-0.196-0.27-0.354-0.352
			c-0.157-0.083-0.373-0.124-0.648-0.124c-0.242,0-0.441,0.037-0.597,0.11c-0.156,0.073-0.28,0.175-0.371,0.305
			c-0.093,0.131-0.155,0.284-0.19,0.463c-0.033,0.178-0.052,0.371-0.052,0.58c0,0.22,0.011,0.431,0.03,0.632
			c0.02,0.202,0.072,0.38,0.154,0.534c0.082,0.153,0.203,0.276,0.362,0.368c0.159,0.092,0.38,0.138,0.662,0.138
			c0.374,0,0.658-0.089,0.853-0.267c0.195-0.178,0.297-0.454,0.304-0.828h-0.825c-0.011,0.188-0.039,0.324-0.082,0.412
			c-0.045,0.089-0.125,0.133-0.242,0.133c-0.129,0-0.215-0.058-0.259-0.171s-0.065-0.286-0.065-0.517V5.407L23.146,5.408
			L23.146,5.408z M21.705,4.418c0.039-0.113,0.133-0.171,0.279-0.171c0.125,0,0.207,0.056,0.246,0.165
			c0.037,0.11,0.057,0.27,0.057,0.479h-0.643C21.645,4.689,21.664,4.531,21.705,4.418z"/>
		<path d="M25.082,3.697c-0.188,0-0.339,0.05-0.454,0.147c-0.116,0.1-0.202,0.215-0.261,0.347h-0.012V3.774h-0.857V6.75h0.891V5.062
			c0-0.198,0.053-0.337,0.159-0.418s0.249-0.121,0.429-0.121c0.045,0,0.086,0.002,0.125,0.006c0.037,0.003,0.08,0.009,0.123,0.017
			V3.71c-0.037-0.008-0.062-0.012-0.076-0.012L25.082,3.697L25.082,3.697z"/>
	</g>
</g>
<g>
</g>
<g>
</g>
<g>
</g>
<g>
</g>
<g>
</g>
<g>
</g>
<g>
</g>
<g>
</g>
<g>
</g>
<g>
</g>
<g>
</g>
<g>
</g>
<g>
</g>
<g>
</g>
<g>
</g>
</svg>
