<?xml version="1.0" encoding="iso-8859-1"?>
<!-- Generator: Adobe Illustrator 16.0.0, SVG Export Plug-In . SVG Version: 6.00 Build 0)  -->
<!DOCTYPE svg PUBLIC "-//W3C//DTD SVG 1.1//EN" "http://www.w3.org/Graphics/SVG/1.1/DTD/svg11.dtd">
<svg version="1.1" id="Capa_1" xmlns="http://www.w3.org/2000/svg" xmlns:xlink="http://www.w3.org/1999/xlink" x="0px" y="0px"
	 width="37.884px" height="37.885px" viewBox="0 0 37.884 37.885" style="enable-background:new 0 0 37.884 37.885;"
	 xml:space="preserve">
<g>
	<g>
		<path d="M31.212,8.157h-3.346L19.832,1.32c0.045-0.111,0.072-0.233,0.072-0.36c0-0.529-0.431-0.96-0.96-0.96
			c-0.531,0-0.961,0.431-0.961,0.96c0,0.127,0.027,0.249,0.072,0.36l-8.034,6.837H6.674c-1.432,0-2.595,1.164-2.595,2.595V35.29
			c0,1.433,1.163,2.595,2.595,2.595h21.606l5.524-5.525V10.752C33.806,9.321,32.642,8.157,31.212,8.157z M28.675,11.48
			c0,0.771-0.626,1.396-1.396,1.396s-1.396-0.625-1.396-1.396s0.625-1.396,1.396-1.396S28.675,10.71,28.675,11.48z M18.458,1.767
			c0.144,0.088,0.304,0.154,0.486,0.154s0.341-0.065,0.488-0.153l7.508,6.39H10.947L18.458,1.767z M24.507,11.48
			c0,0.771-0.625,1.396-1.398,1.396c-0.77,0-1.394-0.625-1.394-1.396s0.624-1.396,1.394-1.396
			C23.882,10.084,24.507,10.71,24.507,11.48z M20.339,11.48c0,0.771-0.626,1.396-1.396,1.396c-0.771,0-1.396-0.625-1.396-1.396
			s0.626-1.396,1.396-1.396S20.339,10.71,20.339,11.48z M16.17,11.48c0,0.771-0.623,1.396-1.393,1.396
			c-0.774,0-1.399-0.625-1.399-1.396s0.625-1.396,1.399-1.396C15.547,10.084,16.17,10.71,16.17,11.48z M10.607,10.084
			c0.771,0,1.396,0.626,1.396,1.396s-0.625,1.396-1.396,1.396s-1.396-0.625-1.396-1.396S9.837,10.084,10.607,10.084z M32.392,31.773
			l-0.294,0.291h-2.224c-1.038,0-1.887,0.852-1.887,1.889v2.224l-0.293,0.293H6.674c-0.651,0-1.18-0.528-1.18-1.18V14.527H32.39
			v17.247H32.392z"/>
		<path d="M9.048,28.029c0.17,0.326,0.415,0.582,0.735,0.765c0.32,0.183,0.75,0.274,1.29,0.274s0.97-0.092,1.29-0.274
			c0.32-0.185,0.565-0.438,0.735-0.765c0.17-0.328,0.28-0.719,0.33-1.176c0.05-0.457,0.075-0.955,0.075-1.494
			c0-0.541-0.025-1.039-0.075-1.496c-0.05-0.457-0.16-0.848-0.33-1.174c-0.17-0.326-0.415-0.582-0.735-0.766
			c-0.32-0.184-0.75-0.275-1.29-0.275s-0.97,0.092-1.29,0.275c-0.32,0.184-0.565,0.438-0.735,0.766
			c-0.17,0.326-0.28,0.719-0.33,1.174c-0.05,0.457-0.075,0.955-0.075,1.496c0,0.539,0.025,1.037,0.075,1.494
			C8.769,27.311,8.878,27.703,9.048,28.029z M10.118,24.139c0.023-0.332,0.07-0.605,0.14-0.82c0.07-0.213,0.17-0.369,0.3-0.465
			c0.13-0.096,0.301-0.145,0.515-0.145c0.214,0,0.385,0.049,0.515,0.145c0.13,0.098,0.23,0.252,0.3,0.465
			c0.07,0.213,0.116,0.488,0.14,0.82c0.023,0.334,0.035,0.74,0.035,1.221c0,0.479-0.012,0.888-0.035,1.225s-0.07,0.609-0.14,0.82
			c-0.07,0.209-0.17,0.363-0.3,0.459c-0.13,0.098-0.302,0.146-0.515,0.146s-0.385-0.048-0.515-0.146
			c-0.13-0.096-0.23-0.25-0.3-0.459c-0.07-0.211-0.117-0.483-0.14-0.82c-0.023-0.336-0.035-0.745-0.035-1.225
			C10.083,24.879,10.095,24.473,10.118,24.139z"/>
		<path d="M15.793,26.079h0.77c0.34,0,0.65-0.044,0.93-0.13c0.28-0.086,0.518-0.217,0.715-0.391c0.197-0.173,0.35-0.395,0.46-0.664
			c0.11-0.271,0.165-0.592,0.165-0.966c0-0.267-0.033-0.528-0.1-0.784c-0.066-0.257-0.177-0.486-0.33-0.686
			c-0.153-0.2-0.355-0.361-0.605-0.484s-0.558-0.186-0.925-0.186h-2.52v7.14h1.44V26.079z M15.793,22.85h0.6
			c0.36,0,0.617,0.094,0.77,0.279c0.153,0.186,0.23,0.46,0.23,0.82c0,0.367-0.088,0.637-0.265,0.81
			c-0.177,0.173-0.408,0.261-0.695,0.261h-0.64V22.85z"/>
		<polygon points="23.633,27.749 20.984,27.749 20.984,25.829 23.383,25.829 23.383,24.65 20.984,24.65 20.984,22.969 
			23.533,22.969 23.533,21.789 19.543,21.789 19.543,28.929 23.633,28.929 		"/>
		<polygon points="25.673,23.929 25.693,23.929 27.453,28.929 29.093,28.929 29.093,21.789 27.773,21.789 27.773,26.679 
			27.753,26.679 26.013,21.789 24.353,21.789 24.353,28.929 25.673,28.929 		"/>
	</g>
</g>
<g>
</g>
<g>
</g>
<g>
</g>
<g>
</g>
<g>
</g>
<g>
</g>
<g>
</g>
<g>
</g>
<g>
</g>
<g>
</g>
<g>
</g>
<g>
</g>
<g>
</g>
<g>
</g>
<g>
</g>
</svg>
