<?xml version="1.0" encoding="iso-8859-1"?>
<!-- Generator: Adobe Illustrator 16.0.0, SVG Export Plug-In . SVG Version: 6.00 Build 0)  -->
<!DOCTYPE svg PUBLIC "-//W3C//DTD SVG 1.1//EN" "http://www.w3.org/Graphics/SVG/1.1/DTD/svg11.dtd">
<svg version="1.1" id="Capa_1" xmlns="http://www.w3.org/2000/svg" xmlns:xlink="http://www.w3.org/1999/xlink" x="0px" y="0px"
	 width="32.75px" height="32.75px" viewBox="0 0 32.75 32.75" style="enable-background:new 0 0 32.75 32.75;" xml:space="preserve"
	>
<g>
	<g>
		<path d="M29.375,1.25h-1.123c0.029-0.093,0.059-0.186,0.059-0.289C28.311,0.43,27.879,0,27.348,0s-0.961,0.431-0.961,0.961
			c0,0.103,0.028,0.196,0.059,0.289h-3.68c0.029-0.093,0.059-0.186,0.059-0.289C22.824,0.43,22.393,0,21.861,0
			C21.332,0,20.9,0.431,20.9,0.961c0,0.103,0.029,0.196,0.06,0.289h-3.681c0.029-0.093,0.058-0.186,0.058-0.289
			C17.337,0.43,16.907,0,16.376,0c-0.531,0-0.961,0.431-0.961,0.961c0,0.103,0.028,0.196,0.058,0.289h-3.681
			c0.029-0.093,0.059-0.186,0.059-0.289C11.851,0.43,11.42,0,10.89,0c-0.531,0-0.962,0.431-0.962,0.961
			c0,0.103,0.028,0.196,0.058,0.289h-3.68c0.03-0.093,0.059-0.186,0.059-0.289C6.365,0.43,5.935,0,5.404,0
			C4.873,0,4.442,0.431,4.442,0.961c0,0.103,0.028,0.196,0.058,0.289H3.375c-1.518,0-2.75,1.233-2.75,2.75v26
			c0,1.518,1.232,2.75,2.75,2.75H26.27l5.855-5.855V4C32.125,2.484,30.893,1.25,29.375,1.25z M30.625,26.273l-0.311,0.311h-2.355
			c-1.102,0-2,0.9-2,2v2.355l-0.311,0.311H3.375c-0.689,0-1.25-0.561-1.25-1.25V5h28.5V26.273z"/>
		<path d="M23.859,11.613c0.598-0.161,1.213,0.196,1.371,0.792l2.322,8.659c0.159,0.598-0.195,1.213-0.793,1.373l-8.193,2.195
			l-4.5,2.6l13.042-3.496c1.313-0.352,2.096-1.706,1.744-3.02l-2.32-8.661c-0.352-1.313-1.707-2.094-3.02-1.744L22.4,10.61
			l0.695,1.205L23.859,11.613z"/>
		<path d="M8.626,26.713c0.679,1.178,2.19,1.582,3.368,0.901l12.422-7.173c1.178-0.68,1.583-2.188,0.902-3.366L20.836,9.31
			c-0.68-1.178-2.189-1.582-3.368-0.902L5.046,15.58c-1.177,0.68-1.583,2.189-0.902,3.367L8.626,26.713z M5.719,16.745l12.421-7.172
			c0.535-0.309,1.221-0.125,1.53,0.41l4.483,7.765c0.309,0.535,0.125,1.221-0.411,1.529L11.322,26.45
			c-0.536,0.309-1.223,0.125-1.531-0.41l-4.482-7.765C5,17.741,5.183,17.055,5.719,16.745z"/>
		<path d="M11.524,17.471c0.542,0.313,2.232,0.698,2.546,0.155c0.312-0.539-0.87-1.809-1.412-2.122
			c-0.542-0.314-1.236-0.128-1.549,0.413C10.796,16.462,10.981,17.157,11.524,17.471z"/>
		<path d="M17.938,18.552c-0.541-0.312-2.231-0.698-2.545-0.155c-0.312,0.539,0.87,1.811,1.411,2.121
			c0.543,0.314,1.239,0.129,1.551-0.412C18.667,19.562,18.482,18.866,17.938,18.552z"/>
		<path d="M12.659,20.52c0.541-0.313,1.721-1.584,1.407-2.129c-0.311-0.539-2.002-0.15-2.542,0.161
			c-0.544,0.314-0.729,1.009-0.418,1.548C11.42,20.645,12.115,20.832,12.659,20.52z"/>
		<path d="M15.395,17.632c0.312,0.54,2.001,0.15,2.544-0.161c0.541-0.313,0.729-1.008,0.416-1.547
			c-0.312-0.545-1.01-0.733-1.553-0.419C16.262,15.816,15.081,17.087,15.395,17.632z"/>
		<path d="M14.728,18.775c-0.624,0-1.131,1.658-1.132,2.283c0,0.625,0.508,1.137,1.132,1.135c0.627,0,1.137-0.508,1.14-1.135
			C15.865,20.434,15.357,18.777,14.728,18.775z"/>
		<path d="M14.734,17.246c0.624-0.001,1.132-1.659,1.133-2.284c-0.001-0.627-0.51-1.134-1.133-1.134
			c-0.629-0.002-1.14,0.508-1.138,1.134C13.596,15.587,14.104,17.246,14.734,17.246z"/>
		<circle cx="14.731" cy="18.012" r="0.455"/>
	</g>
</g>
<g>
</g>
<g>
</g>
<g>
</g>
<g>
</g>
<g>
</g>
<g>
</g>
<g>
</g>
<g>
</g>
<g>
</g>
<g>
</g>
<g>
</g>
<g>
</g>
<g>
</g>
<g>
</g>
<g>
</g>
</svg>
