<?xml version="1.0" encoding="iso-8859-1"?>
<!-- Generator: Adobe Illustrator 16.0.0, SVG Export Plug-In . SVG Version: 6.00 Build 0)  -->
<!DOCTYPE svg PUBLIC "-//W3C//DTD SVG 1.1//EN" "http://www.w3.org/Graphics/SVG/1.1/DTD/svg11.dtd">
<svg version="1.1" id="Capa_1" xmlns="http://www.w3.org/2000/svg" xmlns:xlink="http://www.w3.org/1999/xlink" x="0px" y="0px"
	 width="32.75px" height="32.75px" viewBox="0 0 32.75 32.75" style="enable-background:new 0 0 32.75 32.75;" xml:space="preserve"
	>
<g>
	<g>
		<path d="M29.375,1.25h-1.124c0.028-0.093,0.058-0.186,0.058-0.289C28.311,0.431,27.879,0,27.348,0s-0.961,0.431-0.961,0.961
			c0,0.103,0.028,0.196,0.059,0.289h-3.68c0.029-0.093,0.058-0.186,0.058-0.289C22.823,0.43,22.393,0,21.861,0
			C21.331,0,20.9,0.431,20.9,0.961c0,0.103,0.029,0.196,0.059,0.289h-3.68c0.029-0.093,0.058-0.186,0.058-0.289
			C17.336,0.431,16.906,0,16.375,0c-0.531,0-0.961,0.431-0.961,0.961c0,0.103,0.029,0.196,0.058,0.289h-3.68
			c0.029-0.093,0.058-0.186,0.058-0.289C11.85,0.431,11.419,0,10.888,0c-0.531,0-0.961,0.431-0.961,0.961
			c0,0.103,0.028,0.196,0.058,0.289h-3.68c0.03-0.093,0.058-0.186,0.058-0.289C6.363,0.43,5.933,0,5.402,0
			C4.871,0,4.441,0.431,4.441,0.961c0,0.103,0.029,0.196,0.058,0.289H3.375c-1.517,0-2.75,1.233-2.75,2.75v26
			c0,1.518,1.233,2.75,2.75,2.75H26.27l5.855-5.855V4C32.125,2.483,30.893,1.25,29.375,1.25z M30.625,26.273l-0.311,0.311h-2.356
			c-1.101,0-2,0.9-2,2v2.355l-0.31,0.311H3.375c-0.689,0-1.25-0.561-1.25-1.25V9h28.5V26.273z"/>
		<path d="M7.449,24.818h7.041l-0.492-0.852c-0.186-0.324-0.274-0.684-0.279-1.048c-1.541-0.608-2.636-2.103-2.636-3.858
			c0-2.294,1.862-4.154,4.156-4.154c2.066,0,3.767,1.513,4.087,3.488l2.843-1.642c0.328-0.19,0.701-0.291,1.08-0.291
			c0.763,0,1.472,0.406,1.858,1.06v-2.141c0-1.142-0.936-2.077-2.076-2.077h-9.042c0-1.05-0.936-1.909-2.077-1.909H9.521
			c-1.142,0-2.077,0.859-2.077,1.909v0.001c-1.14,0.003-2.072,0.937-2.072,2.076v7.358C5.371,23.883,6.307,24.818,7.449,24.818z"/>
		<path d="M17.835,19.061c0-1.433-1.164-2.597-2.596-2.597c-1.432,0-2.598,1.164-2.598,2.597c0,1.084,0.669,2.014,1.615,2.402
			c0.154-0.174,0.329-0.329,0.535-0.449l3.021-1.746C17.82,19.2,17.835,19.132,17.835,19.061z"/>
		<path d="M22.52,17.357l-7.378,4.262c-0.7,0.402-0.94,1.301-0.537,2l2.664,4.611c0.403,0.701,1.301,0.939,2,0.537l7.379-4.261
			c0.699-0.403,0.94-1.301,0.537-2l-2.664-4.612C24.116,17.193,23.219,16.954,22.52,17.357z M26.246,23.814l-7.378,4.261
			c-0.318,0.183-0.726,0.073-0.91-0.244l-2.663-4.612c-0.183-0.318-0.075-0.726,0.244-0.91l7.378-4.259
			c0.317-0.184,0.726-0.073,0.909,0.244l2.662,4.612C26.674,23.223,26.564,23.631,26.246,23.814z"/>
		<path d="M18.988,22.741c0.32,0.186,1.326,0.415,1.511,0.092c0.187-0.319-0.517-1.073-0.838-1.261
			c-0.322-0.186-0.733-0.075-0.92,0.246C18.555,22.143,18.665,22.557,18.988,22.741z"/>
		<path d="M22.797,23.384c-0.32-0.186-1.324-0.415-1.512-0.093c-0.186,0.32,0.518,1.076,0.839,1.26
			c0.323,0.188,0.735,0.078,0.921-0.244S23.121,23.57,22.797,23.384z"/>
		<path d="M20.498,23.288c-0.186-0.32-1.189-0.089-1.51,0.096c-0.323,0.187-0.434,0.599-0.248,0.919
			c0.186,0.324,0.6,0.434,0.922,0.249C19.982,24.365,20.684,23.611,20.498,23.288z"/>
		<path d="M22.124,21.572c-0.321,0.187-1.022,0.941-0.837,1.265c0.186,0.32,1.188,0.089,1.51-0.096
			c0.323-0.187,0.434-0.599,0.249-0.919C22.859,21.498,22.445,21.389,22.124,21.572z"/>
		<path d="M20.893,23.516c-0.371,0-0.674,0.985-0.675,1.356c0.001,0.372,0.302,0.674,0.675,0.674c0.371,0,0.674-0.301,0.676-0.674
			C21.566,24.501,21.264,23.518,20.893,23.516z"/>
		<path d="M20.895,22.607c0.369,0,0.672-0.985,0.674-1.356c-0.002-0.374-0.305-0.673-0.674-0.675c-0.373,0-0.677,0.302-0.676,0.675
			C20.219,21.623,20.52,22.607,20.895,22.607z"/>
		<circle cx="20.893" cy="23.063" r="0.269"/>
	</g>
</g>
<g>
</g>
<g>
</g>
<g>
</g>
<g>
</g>
<g>
</g>
<g>
</g>
<g>
</g>
<g>
</g>
<g>
</g>
<g>
</g>
<g>
</g>
<g>
</g>
<g>
</g>
<g>
</g>
<g>
</g>
</svg>
