<?xml version="1.0" encoding="iso-8859-1"?>
<!-- Generator: Adobe Illustrator 16.0.0, SVG Export Plug-In . SVG Version: 6.00 Build 0)  -->
<!DOCTYPE svg PUBLIC "-//W3C//DTD SVG 1.1//EN" "http://www.w3.org/Graphics/SVG/1.1/DTD/svg11.dtd">
<svg version="1.1" id="Capa_1" xmlns="http://www.w3.org/2000/svg" xmlns:xlink="http://www.w3.org/1999/xlink" x="0px" y="0px"
	 width="32.75px" height="32.75px" viewBox="0 0 32.75 32.75" style="enable-background:new 0 0 32.75 32.75;" xml:space="preserve"
	>
<g>
	<g>
		<path d="M29.375,1.25h-1.123c0.029-0.092,0.059-0.186,0.059-0.288c0-0.53-0.432-0.962-0.963-0.962s-0.961,0.432-0.961,0.962
			c0,0.103,0.028,0.196,0.059,0.288h-3.68c0.029-0.092,0.059-0.186,0.059-0.288c0-0.53-0.432-0.962-0.963-0.962
			C21.332,0,20.9,0.432,20.9,0.962c0,0.103,0.029,0.196,0.06,0.288h-3.681c0.029-0.092,0.058-0.186,0.058-0.288
			c0-0.53-0.43-0.962-0.961-0.962c-0.531,0-0.961,0.432-0.961,0.962c0,0.103,0.028,0.196,0.058,0.288h-3.681
			c0.029-0.092,0.059-0.186,0.059-0.288C11.851,0.432,11.42,0,10.89,0c-0.531,0-0.962,0.432-0.962,0.962
			c0,0.103,0.028,0.196,0.058,0.288h-3.68c0.03-0.092,0.059-0.186,0.059-0.288C6.365,0.432,5.935,0,5.404,0
			C4.873,0,4.442,0.432,4.442,0.962c0,0.103,0.028,0.196,0.058,0.288H3.375c-1.518,0-2.75,1.234-2.75,2.75v26
			c0,1.518,1.232,2.75,2.75,2.75H26.27l5.855-5.855V4C32.125,2.484,30.893,1.25,29.375,1.25z M30.625,26.273l-0.311,0.311h-2.355
			c-1.102,0-2,0.9-2,2v2.355l-0.311,0.311H3.375c-0.689,0-1.25-0.561-1.25-1.25V5h28.5V26.273z"/>
		<path d="M16.375,29.875c6.468,0,11.729-5.262,11.729-11.729c0-6.467-5.261-11.729-11.729-11.729S4.646,11.68,4.646,18.146
			C4.646,24.611,9.907,29.875,16.375,29.875z M12.16,25.152c0.58-0.266,1.181-0.479,1.799-0.631
			c0.175,1.259,0.425,2.473,0.781,3.404C13.751,27.407,12.865,26.434,12.16,25.152z M13.561,19.016
			c0.02,0.975,0.076,2.561,0.244,4.215c-0.758,0.176-1.496,0.422-2.204,0.748c-0.589-1.439-0.97-3.141-1.063-4.963H13.561z
			 M10.537,17.277c0.094-1.822,0.475-3.522,1.063-4.962c0.708,0.325,1.446,0.572,2.204,0.748c-0.168,1.654-0.225,3.24-0.244,4.214
			H10.537z M16.508,28.131c-0.045,0.001-0.088,0.008-0.133,0.008s-0.088-0.007-0.133-0.008c-0.32-0.523-0.709-1.837-0.993-3.832
			c0.372-0.042,0.747-0.07,1.126-0.07s0.754,0.028,1.126,0.07C17.217,26.294,16.828,27.605,16.508,28.131z M21.008,26.99
			c0.273-0.368,0.526-0.775,0.764-1.206c0.188,0.116,0.367,0.243,0.549,0.373C21.904,26.467,21.468,26.748,21.008,26.99z
			 M19.189,19.016h3.023c-0.09,1.84-0.46,3.541-1.038,4.974c-0.715-0.33-1.462-0.582-2.229-0.759
			C19.111,21.575,19.17,19.989,19.189,19.016z M18.945,13.063c0.769-0.177,1.516-0.429,2.229-0.759
			c0.578,1.433,0.948,3.133,1.038,4.973h-3.023C19.17,16.304,19.111,14.718,18.945,13.063z M23.341,10.998
			c1.668,1.626,2.769,3.826,2.981,6.279h-2.807c-0.093-2.073-0.507-3.982-1.175-5.589C22.688,11.478,23.02,11.245,23.341,10.998z
			 M23.516,19.016h2.808c-0.214,2.453-1.313,4.653-2.981,6.279c-0.322-0.247-0.654-0.479-0.999-0.689
			C23.01,22.998,23.424,21.089,23.516,19.016z M22.318,10.136c-0.18,0.129-0.36,0.256-0.549,0.373
			c-0.235-0.431-0.488-0.838-0.763-1.206C21.468,9.545,21.904,9.826,22.318,10.136z M20.62,11.125
			c-0.589,0.271-1.199,0.492-1.829,0.646c-0.176-1.268-0.428-2.489-0.788-3.424C19.016,8.858,19.914,9.83,20.62,11.125z
			 M18.791,24.521c0.63,0.153,1.24,0.375,1.829,0.646c-0.706,1.295-1.604,2.267-2.617,2.776
			C18.363,27.011,18.615,25.789,18.791,24.521z M16.242,8.162c0.045-0.001,0.088-0.007,0.133-0.007s0.088,0.006,0.133,0.007
			c0.32,0.524,0.709,1.837,0.993,3.832c-0.372,0.042-0.747,0.071-1.126,0.071s-0.754-0.029-1.126-0.071
			C15.533,9.999,15.922,8.687,16.242,8.162z M15.089,13.287c0.426,0.048,0.854,0.081,1.286,0.081s0.86-0.033,1.286-0.081
			c0.12,1.16,0.202,2.497,0.226,3.99h-3.023C14.887,15.784,14.969,14.447,15.089,13.287z M17.887,19.016
			c-0.023,1.493-0.104,2.83-0.226,3.99c-0.426-0.048-0.854-0.081-1.286-0.081s-0.86,0.033-1.286,0.081
			c-0.12-1.16-0.202-2.497-0.226-3.99H17.887z M14.74,8.366c-0.356,0.933-0.606,2.146-0.781,3.405
			c-0.618-0.152-1.219-0.366-1.799-0.631C12.865,9.859,13.751,8.886,14.74,8.366z M11.742,9.303
			c-0.273,0.368-0.526,0.775-0.763,1.206c-0.188-0.117-0.368-0.244-0.549-0.374C10.846,9.826,11.282,9.545,11.742,9.303z
			 M10.979,25.784c0.236,0.431,0.489,0.838,0.763,1.206c-0.46-0.242-0.896-0.523-1.312-0.832
			C10.611,26.027,10.792,25.9,10.979,25.784z M9.409,10.998c0.323,0.246,0.654,0.479,0.999,0.689
			c-0.668,1.607-1.082,3.517-1.174,5.59H6.427C6.641,14.824,7.741,12.623,9.409,10.998z M9.234,19.016
			c0.092,2.073,0.506,3.982,1.174,5.59c-0.345,0.211-0.676,0.443-0.999,0.689c-1.668-1.625-2.769-3.826-2.981-6.279H9.234z"/>
	</g>
</g>
<g>
</g>
<g>
</g>
<g>
</g>
<g>
</g>
<g>
</g>
<g>
</g>
<g>
</g>
<g>
</g>
<g>
</g>
<g>
</g>
<g>
</g>
<g>
</g>
<g>
</g>
<g>
</g>
<g>
</g>
</svg>
