<?xml version="1.0" encoding="iso-8859-1"?>
<!-- Generator: Adobe Illustrator 16.0.0, SVG Export Plug-In . SVG Version: 6.00 Build 0)  -->
<!DOCTYPE svg PUBLIC "-//W3C//DTD SVG 1.1//EN" "http://www.w3.org/Graphics/SVG/1.1/DTD/svg11.dtd">
<svg version="1.1" id="Capa_1" xmlns="http://www.w3.org/2000/svg" xmlns:xlink="http://www.w3.org/1999/xlink" x="0px" y="0px"
	 width="36.447px" height="36.447px" viewBox="0 0 36.447 36.447" style="enable-background:new 0 0 36.447 36.447;"
	 xml:space="preserve">
<g>
	<g>
		<path d="M30.224,3.947h-1.098V2.75c0-1.516-1.197-2.75-2.67-2.75c-1.474,0-2.67,1.234-2.67,2.75v1.197h-2.74V2.75
			c0-1.516-1.197-2.75-2.67-2.75s-2.67,1.234-2.67,2.75v1.197h-2.74V2.75c0-1.516-1.197-2.75-2.67-2.75s-2.67,1.234-2.67,2.75v1.197
			H6.224c-2.343,0-4.25,1.907-4.25,4.25v24c0,2.343,1.907,4.25,4.25,4.25h24c2.344,0,4.25-1.907,4.25-4.25v-24
			C34.474,5.854,32.566,3.947,30.224,3.947z M25.286,2.75c0-0.689,0.524-1.25,1.17-1.25c0.645,0,1.17,0.561,1.17,1.25v4.895
			c0,0.689-0.525,1.25-1.17,1.25c-0.646,0-1.17-0.561-1.17-1.25V2.75z M17.206,2.75c0-0.689,0.525-1.25,1.17-1.25
			s1.17,0.561,1.17,1.25v4.895c0,0.689-0.525,1.25-1.17,1.25s-1.17-0.561-1.17-1.25V2.75z M9.125,2.75c0-0.689,0.525-1.25,1.17-1.25
			s1.17,0.561,1.17,1.25v4.895c0,0.689-0.525,1.25-1.17,1.25s-1.17-0.561-1.17-1.25V2.75z M31.974,32.197
			c0,0.965-0.785,1.75-1.75,1.75h-24c-0.965,0-1.75-0.785-1.75-1.75v-22h27.5V32.197z"/>
		<path d="M19.302,25.404v-2.156h-2.157v2.156h-6.471c-0.592,0-1.14-0.172-1.617-0.451v3.687c0,1.187,0.971,2.158,2.157,2.158h14.02
			c1.188,0,2.157-0.972,2.157-2.158v-3.687c-0.478,0.279-1.024,0.451-1.618,0.451H19.302z"/>
		<path d="M10.673,24.324h5.394v-2.156h1.077v-3.705v-1.078v-1.147h2.157v1.147v1.078v3.705h1.078v2.156h5.393
			c1.188,0,2.158-0.969,2.158-2.156v-4.314c0-1.186-0.971-2.157-2.158-2.157h-2.845c0-1.487-1.21-2.696-2.697-2.696h-4.014
			c-1.465,0-2.654,1.175-2.691,2.696h-2.852c-1.187,0-2.157,0.971-2.157,2.157v4.314C8.517,23.355,9.486,24.324,10.673,24.324z
			 M16.216,14.08h4.014c0.871,0,1.577,0.691,1.612,1.618h-7.244C14.599,14.806,15.324,14.08,16.216,14.08z"/>
	</g>
</g>
<g>
</g>
<g>
</g>
<g>
</g>
<g>
</g>
<g>
</g>
<g>
</g>
<g>
</g>
<g>
</g>
<g>
</g>
<g>
</g>
<g>
</g>
<g>
</g>
<g>
</g>
<g>
</g>
<g>
</g>
</svg>
