<?xml version="1.0" encoding="iso-8859-1"?>
<!-- Generator: Adobe Illustrator 16.0.0, SVG Export Plug-In . SVG Version: 6.00 Build 0)  -->
<!DOCTYPE svg PUBLIC "-//W3C//DTD SVG 1.1//EN" "http://www.w3.org/Graphics/SVG/1.1/DTD/svg11.dtd">
<svg version="1.1" id="Capa_1" xmlns="http://www.w3.org/2000/svg" xmlns:xlink="http://www.w3.org/1999/xlink" x="0px" y="0px"
	 width="36.447px" height="36.447px" viewBox="0 0 36.447 36.447" style="enable-background:new 0 0 36.447 36.447;"
	 xml:space="preserve">
<g>
	<g>
		<path d="M30.224,3.948h-1.098V2.75c0-1.516-1.197-2.75-2.67-2.75c-1.474,0-2.67,1.234-2.67,2.75v1.197h-2.74V2.75
			c0-1.516-1.197-2.75-2.67-2.75c-1.473,0-2.67,1.234-2.67,2.75v1.197h-2.74V2.75c0-1.516-1.197-2.75-2.67-2.75
			c-1.473,0-2.67,1.234-2.67,2.75v1.197H6.224c-2.343,0-4.25,1.907-4.25,4.25v24c0,2.343,1.907,4.25,4.25,4.25h24
			c2.344,0,4.25-1.907,4.25-4.25v-24C34.474,5.854,32.567,3.948,30.224,3.948z M25.286,2.75c0-0.689,0.525-1.25,1.17-1.25
			c0.646,0,1.17,0.561,1.17,1.25v4.895c0,0.689-0.524,1.25-1.17,1.25c-0.645,0-1.17-0.561-1.17-1.25V2.75z M17.206,2.75
			c0-0.689,0.525-1.25,1.17-1.25s1.17,0.561,1.17,1.25v4.895c0,0.689-0.525,1.25-1.17,1.25s-1.17-0.561-1.17-1.25V2.75z M9.125,2.75
			c0-0.689,0.525-1.25,1.17-1.25s1.17,0.561,1.17,1.25v4.895c0,0.689-0.525,1.25-1.17,1.25s-1.17-0.561-1.17-1.25V2.75z
			 M31.974,32.198c0,0.965-0.785,1.75-1.75,1.75h-24c-0.965,0-1.75-0.785-1.75-1.75v-22h27.5V32.198z"/>
		<path d="M12.384,23.323c0.423,0,0.826-0.086,1.204-0.222c0.656,0.904,1.714,1.498,2.916,1.498c0.735,0,1.416-0.225,1.987-0.602
			c0.65,0.633,1.535,1.025,2.516,1.025c1.441,0,2.676-0.852,3.256-2.073c0.177,0.034,0.355,0.056,0.545,0.056
			c1.583,0,2.868-1.283,2.868-2.867c0-1.494-1.146-2.705-2.601-2.84c-0.25-2.001-1.938-3.553-4.004-3.553
			c-0.988,0-1.882,0.366-2.583,0.951c-0.66-0.844-1.678-1.398-2.834-1.398c-1.725,0-3.161,1.211-3.521,2.829
			c-1.876,0.131-3.362,1.678-3.362,3.586C8.771,21.705,10.389,23.323,12.384,23.323z"/>
		<path d="M11.364,27.443c0,0.613,0.497,1.109,1.11,1.109s1.11-0.498,1.11-1.109c0-0.613-1.11-2.42-1.11-2.42
			S11.364,26.83,11.364,27.443z"/>
		<path d="M14.238,30.061c0,0.613,0.498,1.111,1.111,1.111s1.11-0.498,1.11-1.111c0-0.612-1.11-2.418-1.11-2.418
			S14.238,29.448,14.238,30.061z"/>
		<path d="M17.114,27.443c0,0.613,0.498,1.109,1.11,1.109s1.109-0.498,1.109-1.109c0-0.613-1.109-2.42-1.109-2.42
			S17.114,26.83,17.114,27.443z"/>
		<path d="M19.989,30.061c0,0.613,0.496,1.111,1.108,1.111c0.614,0,1.112-0.498,1.112-1.111c0-0.612-1.112-2.418-1.112-2.418
			S19.989,29.448,19.989,30.061z"/>
		<path d="M22.864,27.443c0,0.613,0.496,1.109,1.11,1.109c0.612,0,1.108-0.498,1.108-1.109c0-0.613-1.108-2.42-1.108-2.42
			S22.864,26.83,22.864,27.443z"/>
	</g>
</g>
<g>
</g>
<g>
</g>
<g>
</g>
<g>
</g>
<g>
</g>
<g>
</g>
<g>
</g>
<g>
</g>
<g>
</g>
<g>
</g>
<g>
</g>
<g>
</g>
<g>
</g>
<g>
</g>
<g>
</g>
</svg>
