<?xml version="1.0" encoding="iso-8859-1"?>
<!-- Generator: Adobe Illustrator 16.0.0, SVG Export Plug-In . SVG Version: 6.00 Build 0)  -->
<!DOCTYPE svg PUBLIC "-//W3C//DTD SVG 1.1//EN" "http://www.w3.org/Graphics/SVG/1.1/DTD/svg11.dtd">
<svg version="1.1" id="Capa_1" xmlns="http://www.w3.org/2000/svg" xmlns:xlink="http://www.w3.org/1999/xlink" x="0px" y="0px"
	 width="31.5px" height="31.5px" viewBox="0 0 31.5 31.5" style="enable-background:new 0 0 31.5 31.5;" xml:space="preserve">
<g>
	<g>
		<path d="M28.75,0h-26C1.232,0,0,1.233,0,2.75v26c0,1.518,1.232,2.75,2.75,2.75h22.895l5.855-5.855V2.75
			C31.5,1.234,30.268,0,28.75,0z M24.583,2.042c0.817,0,1.479,0.662,1.479,1.479S25.4,5,24.583,5s-1.479-0.662-1.479-1.479
			S23.766,2.042,24.583,2.042z M20.166,2.042c0.816,0,1.479,0.662,1.479,1.479S20.982,5,20.166,5s-1.479-0.662-1.479-1.479
			S19.35,2.042,20.166,2.042z M15.75,2.042c0.816,0,1.479,0.662,1.479,1.479S16.567,5,15.75,5s-1.479-0.662-1.479-1.479
			S14.933,2.042,15.75,2.042z M11.334,2.042c0.816,0,1.479,0.662,1.479,1.479S12.151,5,11.334,5c-0.818,0-1.48-0.662-1.48-1.479
			S10.516,2.042,11.334,2.042z M6.917,2.042c0.817,0,1.479,0.662,1.479,1.479S7.734,5,6.917,5S5.438,4.338,5.438,3.521
			S6.1,2.042,6.917,2.042z M30,25.023l-0.311,0.311h-2.355c-1.102,0-2,0.9-2,2v2.355L25.023,30H2.75c-0.689,0-1.25-0.561-1.25-1.25
			v-22H30V25.023z"/>
		<path d="M11.181,17.15v8.416c0,1.18,0.965,2.145,2.144,2.145h6.431c1.18,0,2.145-0.964,2.145-2.145v-9.287H20.3
			c0.035-0.172-0.069-0.358-0.422-0.437c-0.045-0.463-0.815-1.391-1.304-0.706c-0.065-0.287-0.471-0.639-0.883,0
			c0.043-0.949-0.86-1.457-1.877-0.707c-0.153-0.331-1.234-0.367-1.234,0.707c-0.222-0.333-0.929-0.331-1.061,0
			c-0.133,0.331,0.088,0.641,0.309,0.883c-0.188,0.047-0.326,0.143-0.43,0.26h-1.346l6.388-6.387c-0.947-0.949-2.501-0.95-3.449,0
			l-0.514,0.512c-0.433-0.161-0.939-0.07-1.286,0.277l-2.588,2.588c-0.347,0.346-0.438,0.854-0.277,1.287l-0.512,0.512
			c-0.948,0.949-0.948,2.5,0.001,3.449L11.181,17.15z M18.684,18.423c0-0.396,0.318-0.714,0.715-0.714
			c0.395,0,0.715,0.318,0.715,0.714v7.146c0,0.395-0.32,0.714-0.715,0.714c-0.396,0-0.715-0.32-0.715-0.714V18.423z M15.825,18.423
			c0-0.396,0.319-0.714,0.715-0.714s0.714,0.318,0.714,0.714v7.146c0,0.395-0.318,0.714-0.714,0.714s-0.715-0.32-0.715-0.714V18.423
			z M12.967,18.423c0-0.396,0.32-0.714,0.715-0.714c0.396,0,0.715,0.318,0.715,0.714v7.146c0,0.395-0.319,0.714-0.715,0.714
			c-0.395,0-0.715-0.32-0.715-0.714V18.423z"/>
	</g>
</g>
<g>
</g>
<g>
</g>
<g>
</g>
<g>
</g>
<g>
</g>
<g>
</g>
<g>
</g>
<g>
</g>
<g>
</g>
<g>
</g>
<g>
</g>
<g>
</g>
<g>
</g>
<g>
</g>
<g>
</g>
</svg>
