<?xml version="1.0" encoding="iso-8859-1"?>
<!-- Generator: Adobe Illustrator 16.0.0, SVG Export Plug-In . SVG Version: 6.00 Build 0)  -->
<!DOCTYPE svg PUBLIC "-//W3C//DTD SVG 1.1//EN" "http://www.w3.org/Graphics/SVG/1.1/DTD/svg11.dtd">
<svg version="1.1" id="Capa_1" xmlns="http://www.w3.org/2000/svg" xmlns:xlink="http://www.w3.org/1999/xlink" x="0px" y="0px"
	 width="36.447px" height="36.447px" viewBox="0 0 36.447 36.447" style="enable-background:new 0 0 36.447 36.447;"
	 xml:space="preserve">
<g>
	<g>
		<path d="M30.224,3.947h-1.098V2.75c0-1.516-1.197-2.75-2.67-2.75c-1.474,0-2.67,1.234-2.67,2.75v1.197h-2.74V2.75
			c0-1.516-1.197-2.75-2.67-2.75s-2.67,1.234-2.67,2.75v1.197h-2.74V2.75c0-1.516-1.197-2.75-2.67-2.75s-2.67,1.234-2.67,2.75v1.197
			H6.224c-2.343,0-4.25,1.907-4.25,4.25v24c0,2.343,1.907,4.25,4.25,4.25h24c2.344,0,4.25-1.907,4.25-4.25v-24
			C34.474,5.854,32.566,3.947,30.224,3.947z M25.286,2.75c0-0.689,0.524-1.25,1.17-1.25c0.645,0,1.17,0.561,1.17,1.25v4.895
			c0,0.689-0.525,1.25-1.17,1.25c-0.646,0-1.17-0.561-1.17-1.25V2.75z M17.206,2.75c0-0.689,0.525-1.25,1.17-1.25
			s1.17,0.561,1.17,1.25v4.895c0,0.689-0.525,1.25-1.17,1.25s-1.17-0.561-1.17-1.25V2.75z M9.125,2.75c0-0.689,0.525-1.25,1.17-1.25
			s1.17,0.561,1.17,1.25v4.895c0,0.689-0.525,1.25-1.17,1.25s-1.17-0.561-1.17-1.25V2.75z M31.974,32.197
			c0,0.965-0.785,1.75-1.75,1.75h-24c-0.965,0-1.75-0.785-1.75-1.75v-22h27.5V32.197z"/>
		<path d="M12.085,28.449c0.196,0.463,0.642,0.963,1.177,1l4.322,0.302l0.019-0.226l0.152-3.789c0,0-4.442-0.16-5.239-0.283
			C12.208,26.367,11.676,27.499,12.085,28.449z"/>
		<path d="M21.208,25.544l-0.076-1.779l-2.168,3.728l2.37,3.771l-0.084-1.688c0,0,1.516-0.056,2.254-0.121
			c0.74-0.066,1.006-0.73,1.006-0.73l1.935-3.693C24.689,25.961,21.208,25.544,21.208,25.544z"/>
		<path d="M21.688,20.804c0,0,2.379,3.757,2.723,4.483c0.93-0.26,2.164-0.459,2.719-1.334c0.271-0.424,0.433-1.072,0.16-1.536
			l-2.189-3.738l-0.195,0.113L21.688,20.804z"/>
		<path d="M20.071,18.246l-1.547,0.885l4.309,0.209l2.26-3.839l-1.461,0.851c0,0-0.746-1.32-1.146-1.945
			c-0.398-0.625-1.111-0.556-1.111-0.556l-4.168-0.019C18.837,14.962,20.071,18.246,20.071,18.246z"/>
		<path d="M15.641,19.999c0,0,2.241-3.838,2.727-4.482c-0.658-0.705-1.404-1.707-2.436-1.798c-0.502-0.045-1.151,0.111-1.436,0.566
			l-2.312,3.664l0.19,0.122L15.641,19.999z"/>
		<path d="M9.59,22.353c-0.362,0.648,0.035,1.242,0.035,1.242l1.958,3.683c0.221-1.973,2.531-4.613,2.531-4.613l1.512,0.943
			l-1.855-3.894L9.32,19.54l1.441,0.883C10.762,20.422,9.951,21.705,9.59,22.353z"/>
	</g>
</g>
<g>
</g>
<g>
</g>
<g>
</g>
<g>
</g>
<g>
</g>
<g>
</g>
<g>
</g>
<g>
</g>
<g>
</g>
<g>
</g>
<g>
</g>
<g>
</g>
<g>
</g>
<g>
</g>
<g>
</g>
</svg>
