<?xml version="1.0" encoding="iso-8859-1"?>
<!-- Generator: Adobe Illustrator 16.0.0, SVG Export Plug-In . SVG Version: 6.00 Build 0)  -->
<!DOCTYPE svg PUBLIC "-//W3C//DTD SVG 1.1//EN" "http://www.w3.org/Graphics/SVG/1.1/DTD/svg11.dtd">
<svg version="1.1" id="Capa_1" xmlns="http://www.w3.org/2000/svg" xmlns:xlink="http://www.w3.org/1999/xlink" x="0px" y="0px"
	 width="31.5px" height="31.5px" viewBox="0 0 31.5 31.5" style="enable-background:new 0 0 31.5 31.5;" xml:space="preserve">
<g>
	<g>
		<path d="M28.75,0h-26C1.232,0,0,1.233,0,2.75v26c0,1.518,1.232,2.75,2.75,2.75h22.895l5.855-5.855V2.75
			C31.5,1.234,30.268,0,28.75,0z M24.583,2.042c0.817,0,1.479,0.662,1.479,1.479S25.4,5,24.583,5s-1.479-0.662-1.479-1.479
			S23.766,2.042,24.583,2.042z M20.166,2.042c0.816,0,1.479,0.662,1.479,1.479S20.982,5,20.166,5s-1.479-0.662-1.479-1.479
			S19.35,2.042,20.166,2.042z M15.75,2.042c0.816,0,1.479,0.662,1.479,1.479S16.567,5,15.75,5s-1.479-0.662-1.479-1.479
			S14.933,2.042,15.75,2.042z M11.334,2.042c0.816,0,1.479,0.662,1.479,1.479S12.151,5,11.334,5c-0.818,0-1.48-0.662-1.48-1.479
			S10.516,2.042,11.334,2.042z M6.917,2.042c0.817,0,1.479,0.662,1.479,1.479S7.734,5,6.917,5S5.438,4.338,5.438,3.521
			S6.1,2.042,6.917,2.042z M30,25.023l-0.311,0.311h-2.355c-1.102,0-2,0.9-2,2v2.355L25.023,30H2.75c-0.689,0-1.25-0.561-1.25-1.25
			v-22H30V25.023z"/>
		<path d="M7.509,26.531c-0.36,0.357-0.36,0.938-0.002,1.297c0.359,0.359,0.94,0.359,1.299,0l5.724-5.723l-1.298-1.299L7.509,26.531
			z"/>
		<path d="M15.633,18.406l1.298,1.297l0.958-0.958c0.026-0.026,0.036-0.06,0.061-0.089c1.188,0.765,2.65,0.756,4.072-0.512
			c0.039-0.02,0.076-0.039,0.108-0.07l4.169-4.17c0.194-0.193,0.194-0.504,0-0.697c-0.189-0.192-0.502-0.192-0.695,0.001
			l-4.029,4.032l-0.696-0.695l4.031-4.031c0.194-0.193,0.194-0.504,0.003-0.696c-0.194-0.192-0.503-0.192-0.695,0.001l-4.033,4.031
			l-0.697-0.694l4.031-4.032c0.193-0.193,0.193-0.504,0.002-0.696c-0.19-0.192-0.502-0.191-0.695,0.001l-4.031,4.031l-0.695-0.695
			l4.03-4.032c0.195-0.192,0.195-0.503,0.003-0.695c-0.193-0.194-0.504-0.194-0.695,0l-4.172,4.169
			c-0.031,0.032-0.05,0.071-0.07,0.107c-1.269,1.422-1.276,2.884-0.511,4.074c-0.029,0.022-0.064,0.033-0.09,0.059L15.633,18.406z"
			/>
		<path d="M11.607,18.034c0.033,0.048,0.056,0.101,0.099,0.144l9.731,9.732c0.358,0.357,0.938,0.359,1.299,0
			c0.357-0.357,0.356-0.938,0-1.297l-9.732-9.732c-0.045-0.043-0.099-0.064-0.146-0.097c0.669-1.409,0.188-3.43-1.314-4.932
			c-1.791-1.792-4.333-2.155-5.676-0.813c-1.344,1.344-0.981,3.886,0.81,5.679C8.18,18.221,10.199,18.704,11.607,18.034z"/>
	</g>
</g>
<g>
</g>
<g>
</g>
<g>
</g>
<g>
</g>
<g>
</g>
<g>
</g>
<g>
</g>
<g>
</g>
<g>
</g>
<g>
</g>
<g>
</g>
<g>
</g>
<g>
</g>
<g>
</g>
<g>
</g>
</svg>
