<?xml version="1.0" encoding="iso-8859-1"?>
<!-- Generator: Adobe Illustrator 16.0.0, SVG Export Plug-In . SVG Version: 6.00 Build 0)  -->
<!DOCTYPE svg PUBLIC "-//W3C//DTD SVG 1.1//EN" "http://www.w3.org/Graphics/SVG/1.1/DTD/svg11.dtd">
<svg version="1.1" id="Capa_1" xmlns="http://www.w3.org/2000/svg" xmlns:xlink="http://www.w3.org/1999/xlink" x="0px" y="0px"
	 width="32.75px" height="32.75px" viewBox="0 0 32.75 32.75" style="enable-background:new 0 0 32.75 32.75;" xml:space="preserve"
	>
<g>
	<g>
		<path d="M29.375,1.25h-1.123c0.029-0.092,0.059-0.186,0.059-0.288c0-0.53-0.432-0.962-0.963-0.962s-0.961,0.432-0.961,0.962
			c0,0.103,0.028,0.196,0.059,0.288h-3.68c0.029-0.092,0.059-0.186,0.059-0.288c0-0.53-0.432-0.962-0.963-0.962
			C21.332,0,20.9,0.432,20.9,0.962c0,0.103,0.029,0.196,0.06,0.288h-3.681c0.029-0.092,0.058-0.186,0.058-0.288
			c0-0.53-0.43-0.962-0.961-0.962c-0.531,0-0.961,0.432-0.961,0.962c0,0.103,0.028,0.196,0.058,0.288h-3.681
			c0.029-0.092,0.059-0.186,0.059-0.288C11.851,0.432,11.42,0,10.89,0c-0.531,0-0.962,0.432-0.962,0.962
			c0,0.103,0.028,0.196,0.058,0.288h-3.68c0.03-0.092,0.059-0.186,0.059-0.288C6.365,0.432,5.935,0,5.404,0
			C4.873,0,4.442,0.432,4.442,0.962c0,0.103,0.028,0.196,0.058,0.288H3.375c-1.518,0-2.75,1.234-2.75,2.75v26
			c0,1.518,1.232,2.75,2.75,2.75H26.27l5.855-5.855V4C32.125,2.484,30.893,1.25,29.375,1.25z M30.625,26.273l-0.311,0.311h-2.355
			c-1.102,0-2,0.9-2,2v2.355l-0.311,0.311H3.375c-0.689,0-1.25-0.561-1.25-1.25V5h28.5V26.273z"/>
		<circle cx="12.931" cy="25.285" r="1.423"/>
		<circle cx="23.843" cy="25.285" r="1.423"/>
		<path d="M7.484,13.957H9.8l2.695,8.982c0.09,0.3,0.367,0.508,0.682,0.508h10.438c0.333,0,0.623-0.233,0.693-0.559l1.652-7.432
			c0.005-0.025-0.001-0.05,0.001-0.076c0.003-0.026,0.017-0.05,0.017-0.077c0-0.023-0.012-0.042-0.014-0.064
			c-0.004-0.048-0.014-0.094-0.027-0.138c-0.013-0.045-0.028-0.086-0.049-0.126c-0.021-0.04-0.046-0.074-0.074-0.11
			c-0.029-0.036-0.06-0.069-0.094-0.1c-0.035-0.027-0.07-0.05-0.109-0.072c-0.041-0.023-0.084-0.044-0.131-0.059
			c-0.021-0.008-0.039-0.021-0.06-0.024c-0.026-0.008-0.052,0-0.079-0.002c-0.027-0.004-0.049-0.017-0.076-0.017h-1.649v-0.645
			c0-0.257-0.212-0.469-0.47-0.469h-2.502c-0.258,0-0.47,0.212-0.47,0.469v0.644l-3.397-0.001l0.814-1.145
			c0.219-0.306,0.145-0.734-0.161-0.951l-2.967-2.109c-0.306-0.217-0.734-0.145-0.951,0.162l-2.109,2.966
			c-0.098,0.138-0.128,0.299-0.114,0.455l-0.278-0.927c-0.09-0.301-0.368-0.509-0.682-0.509H7.484c-0.394,0-0.712,0.319-0.712,0.713
			S7.091,13.957,7.484,13.957z M13.745,16.015l0.787,0.559c0.305,0.218,0.733,0.145,0.952-0.161l0.186-0.262
			c-0.015,0.063-0.04,0.123-0.04,0.191V20.9c0,0.47,0.385,0.854,0.854,0.854h4.557c0.469,0,0.854-0.385,0.854-0.854v-3.98h1.25
			c0.258,0,0.469-0.21,0.469-0.47v-0.433h0.765l-1.335,6.006h-9.337l-1.802-6.008H13.745z M11.566,14.466l0.176,0.124h-0.235
			c-0.01,0-0.019,0.006-0.029,0.006l-0.103-0.343C11.423,14.333,11.485,14.407,11.566,14.466z"/>
		<polygon points="9.534,15.5 6.772,15.8 9.534,16.102 		"/>
		<polygon points="10.102,16.855 6.772,17.217 10.102,17.58 		"/>
		<polygon points="10.688,18.695 6.772,19.121 10.688,19.549 		"/>
	</g>
</g>
<g>
</g>
<g>
</g>
<g>
</g>
<g>
</g>
<g>
</g>
<g>
</g>
<g>
</g>
<g>
</g>
<g>
</g>
<g>
</g>
<g>
</g>
<g>
</g>
<g>
</g>
<g>
</g>
<g>
</g>
</svg>
