<?xml version="1.0" encoding="iso-8859-1"?>
<!-- Generator: Adobe Illustrator 16.0.0, SVG Export Plug-In . SVG Version: 6.00 Build 0)  -->
<!DOCTYPE svg PUBLIC "-//W3C//DTD SVG 1.1//EN" "http://www.w3.org/Graphics/SVG/1.1/DTD/svg11.dtd">
<svg version="1.1" id="Capa_1" xmlns="http://www.w3.org/2000/svg" xmlns:xlink="http://www.w3.org/1999/xlink" x="0px" y="0px"
	 width="34px" height="34px" viewBox="0 0 34 34" style="enable-background:new 0 0 34 34;" xml:space="preserve">
<g>
	<g>
		<path d="M27.91,2H27V1c0-0.553-0.447-1-1-1s-1,0.447-1,1v1h-7V1c0-0.553-0.447-1-1-1c-0.553,0-1,0.447-1,1v1H9V1
			c0-0.553-0.447-1-1-1S7,0.447,7,1v1H6.09C3.283,2,1,4.283,1,7.09v21.82C1,31.717,3.283,34,6.09,34h21.82
			c2.807,0,5.09-2.283,5.09-5.09V7.09C33,4.283,30.717,2,27.91,2z M31,28.91c0,1.704-1.387,3.09-3.09,3.09H6.09
			C4.386,32,3,30.614,3,28.91V12h28V28.91z M31,10H3V7.09C3,5.386,4.386,4,6.09,4H7v3c0,0.553,0.447,1,1,1s1-0.447,1-1V4h7v3
			c0,0.553,0.447,1,1,1c0.553,0,1-0.447,1-1V4h7v3c0,0.553,0.447,1,1,1s1-0.447,1-1V4h0.91C29.613,4,31,5.386,31,7.09V10z"/>
		<path d="M16.864,26.66c0,0-0.331-0.253-0.569-0.27c-0.238-0.018-1.242,0.692-1.242,0.692c0,0.001,0.597-0.153,1.121-0.153
			c0.298,0,0.586,0.154,0.69,0.153c0.13,0,0.476-0.132,0.852-0.132c0.466,0,0.961,0.132,0.961,0.132s-0.815-0.692-1.106-0.692
			C17.281,26.391,16.864,26.66,16.864,26.66z"/>
		<path d="M16.864,27.327c-0.242,0-0.49,0.063-0.702,0.055c-0.662-0.03-1.109-0.298-1.109-0.298s0.681,0.941,1.812,0.941
			c1.132,0,1.812-0.941,1.812-0.941s-0.402,0.243-0.994,0.275C17.438,27.373,17.159,27.327,16.864,27.327z"/>
		<path d="M10.952,20.544c0.038-1.216,0.445-2.341,1.112-3.269c1.403-0.429,3.245-0.523,5.038-0.096
			c-1.028,0.223-1.989,0.723-2.792,1.479c-0.779,0.733-1.346,1.651-1.62,2.563c-0.001,0.004-0.002,0.006-0.003,0.008
			c0.145,0.082,0.315,0.174,0.503,0.261c0.729-1.298,2.101-2.175,3.675-2.175c0.781,0,1.51,0.22,2.137,0.595
			c-0.063,0.271-0.074,0.552-0.022,0.821l0.054,0.264c-0.019,0.029-0.032,0.059-0.044,0.085c-0.147,0.36-0.148,0.758-0.03,1.131
			c0.052-0.062,0.14-0.11,0.249-0.157c-0.068-0.268-0.064-0.568,0.057-0.861c0.239-0.586,1.596,0.065,1.596,0.065
			s-1.286-1.114-1.59-0.579c-0.176-0.929,0.479-2.004,1.482-1.781c-0.795,0.73,0.382,2.08,0.382,2.08s-0.438-1.472-0.112-1.834
			c0.481-0.541,1.584,0.289,1.592,1.086c-0.381-0.029-0.743,0.468-0.94,0.799l0.009-0.006c0.41-0.227,0.771-0.315,1.061-0.389
			c0.107-0.025,0.203-0.052,0.285-0.078c0.104-0.035,0.225-0.135,0.359-0.281c-0.234-3.397-3.064-6.091-6.521-6.091
			c-3.35,0-6.115,2.532-6.494,5.782C10.599,20.283,10.795,20.48,10.952,20.544z M22.773,20.539c0,0.013,0.002,0.023,0.002,0.035
			c-0.006-0.014-0.016-0.023-0.021-0.037L22.773,20.539z M19.385,19.113c-0.052,0.062-0.09,0.136-0.133,0.205
			c-0.699-0.366-1.514-0.549-2.388-0.549c-0.819,0-1.592,0.156-2.261,0.48c0.045-0.045,0.087-0.094,0.133-0.139
			c1.07-1.006,2.444-1.517,3.872-1.435c0.567,0.244,1.109,0.56,1.617,0.938C19.904,18.678,19.611,18.84,19.385,19.113z
			 M16.864,14.807c2.818,0,5.177,1.98,5.77,4.62c-0.288-0.428-0.762-0.751-1.219-0.751c-0.044,0-0.085,0.008-0.126,0.016
			c-2.405-2.24-5.922-2.723-8.524-2.224C13.829,15.442,15.272,14.807,16.864,14.807z"/>
		<path d="M20.352,23.312c0.01,0.1,0.033,0.191,0.072,0.276c0.1,0.212,0.287,0.354,0.508,0.448c0.039-0.082,0.075-0.169,0.118-0.268
			c-0.165-0.068-0.295-0.17-0.356-0.307c-0.049-0.104-0.055-0.24-0.045-0.384c-0.155,0.048-0.307,0.088-0.438,0.091h-0.001
			c-0.174,0-0.375-0.036-0.57-0.094c0.107,0.066,0.223,0.126,0.354,0.164L20.352,23.312z"/>
		<path d="M19.927,27.587c-0.071,0-0.17-0.019-0.267-0.089c-0.873,1.211-1.975,2.075-2.796,2.075c-0.802,0-1.872-0.824-2.736-1.991
			c-0.019,0.003-0.039,0.005-0.055,0.005c-0.171,0-0.332-0.092-0.494-0.258c0.155,0.269,0.282,0.519,0.36,0.739
			c1.015,1.182,2.226,1.918,2.925,1.918c0.813,0,2.313-0.993,3.395-2.521C20.15,27.543,20.041,27.587,19.927,27.587z"/>
		<path d="M9.344,25.225c0.207,0.639,1.088,2.729,1.563,2.797c0.541,0.078-0.927-2.149-0.541-2.297
			c0.136-0.053,0.392,0.562,0.678,1.174c0.388,0.834,0.936,2.06,1.231,1.926c0.764-0.344-1.617-3.283-1.108-3.36
			c0.182-0.028,0.665,0.733,1.078,1.501c0.468,0.866,1.142,2.032,1.464,1.684c0.273-0.295-0.452-1.347-0.937-2.16
			c-0.43-0.725-0.797-1.453-0.615-1.553c0.219-0.121,0.455,0.332,0.715,0.803c0.416,0.751,1.006,1.904,1.36,1.517
			c0.346-0.375-0.8-1.841-1.314-2.935c-0.194-0.413-0.523-1.09-0.45-1.5c0.074-0.41,0.928,0.087,1.328,0.096
			c0.402,0.01,1.079-0.24,1.069-0.503c-0.006-0.144-0.73-0.279-1.41-0.53c-0.569-0.211-1.096-0.544-1.258-0.633
			c-0.539-0.298-1.003-0.346-1.306-0.449c-0.262-0.089-0.535-0.386-0.83-0.822l-2.255,1.304c0.302,0.542,0.536,1.063,0.598,1.469
			C8.606,24.059,9.164,24.667,9.344,25.225z"/>
		<path d="M21.803,21.248c-0.16,0.089-0.688,0.422-1.257,0.633c-0.68,0.251-1.403,0.389-1.411,0.53
			c-0.009,0.263,0.667,0.513,1.069,0.503c0.401-0.009,1.255-0.506,1.329-0.096c0.072,0.41-0.258,1.087-0.451,1.5
			c-0.514,1.094-1.66,2.56-1.314,2.935c0.355,0.39,0.943-0.767,1.36-1.517c0.261-0.471,0.496-0.924,0.716-0.803
			c0.182,0.1-0.187,0.828-0.615,1.553c-0.484,0.813-1.211,1.865-0.938,2.16c0.322,0.35,0.997-0.816,1.463-1.684
			c0.414-0.768,0.896-1.529,1.079-1.501c0.509,0.077-1.871,3.017-1.108,3.36c0.297,0.134,0.844-1.092,1.232-1.926
			c0.285-0.612,0.541-1.227,0.678-1.174c0.387,0.146-1.082,2.375-0.541,2.297c0.475-0.066,1.354-2.158,1.562-2.797
			c0.181-0.558,0.736-1.166,0.939-2.477c0.063-0.404,0.297-0.928,0.6-1.469l-2.256-1.303c-0.295,0.437-0.568,0.732-0.83,0.821
			C22.807,20.902,22.342,20.95,21.803,21.248z"/>
		<path d="M18.314,23.355c-0.324,0.155-0.408,0.506-0.428,0.644c-0.021,0.138,0.272,0.052,0.283-0.036
			c0.006-0.062-0.018-0.156,0.135-0.299c-0.012,0.031-0.012,0.062,0.004,0.089c0.115,0.2,0.373,0.271,0.573,0.153
			c0.2-0.115,0.269-0.37,0.155-0.571c0.312-0.048,0.645-0.056,0.645-0.056S18.751,23.145,18.314,23.355z"/>
		<path d="M18.189,24.091c0,0,0.498,0.072,0.762,0.072c0.265,0,0.609-0.336,0.609-0.336s-0.295,0.136-0.556,0.188
			C18.771,24.064,18.189,24.091,18.189,24.091z"/>
		<path d="M15.414,23.355c-0.436-0.211-1.366-0.076-1.366-0.076s0.333,0.008,0.644,0.056c-0.114,0.201-0.045,0.456,0.155,0.571
			c0.201,0.115,0.457,0.047,0.574-0.153c0.015-0.026,0.015-0.058,0.004-0.089c0.151,0.143,0.128,0.236,0.134,0.299
			c0.011,0.088,0.305,0.174,0.285,0.036C15.823,23.861,15.739,23.512,15.414,23.355z"/>
		<path d="M15.538,24.091c0,0-0.58-0.024-0.814-0.075c-0.26-0.053-0.555-0.188-0.555-0.188s0.345,0.336,0.608,0.336
			C15.042,24.163,15.538,24.091,15.538,24.091z"/>
	</g>
</g>
<g>
</g>
<g>
</g>
<g>
</g>
<g>
</g>
<g>
</g>
<g>
</g>
<g>
</g>
<g>
</g>
<g>
</g>
<g>
</g>
<g>
</g>
<g>
</g>
<g>
</g>
<g>
</g>
<g>
</g>
</svg>
