<?xml version="1.0" encoding="iso-8859-1"?>
<!-- Generator: Adobe Illustrator 16.0.0, SVG Export Plug-In . SVG Version: 6.00 Build 0)  -->
<!DOCTYPE svg PUBLIC "-//W3C//DTD SVG 1.1//EN" "http://www.w3.org/Graphics/SVG/1.1/DTD/svg11.dtd">
<svg version="1.1" id="Capa_1" xmlns="http://www.w3.org/2000/svg" xmlns:xlink="http://www.w3.org/1999/xlink" x="0px" y="0px"
	 width="31.5px" height="31.5px" viewBox="0 0 31.5 31.5" style="enable-background:new 0 0 31.5 31.5;" xml:space="preserve">
<g>
	<g>
		<path d="M28.75,0h-26C1.232,0,0,1.233,0,2.75v26c0,1.518,1.232,2.75,2.75,2.75h22.895l5.855-5.855V2.75
			C31.5,1.234,30.268,0,28.75,0z M24.583,2.042c0.817,0,1.479,0.662,1.479,1.479S25.4,5,24.583,5s-1.479-0.662-1.479-1.479
			S23.766,2.042,24.583,2.042z M20.166,2.042c0.816,0,1.479,0.662,1.479,1.479S20.982,5,20.166,5s-1.479-0.662-1.479-1.479
			S19.35,2.042,20.166,2.042z M15.75,2.042c0.816,0,1.479,0.662,1.479,1.479S16.567,5,15.75,5s-1.479-0.662-1.479-1.479
			S14.933,2.042,15.75,2.042z M11.334,2.042c0.816,0,1.479,0.662,1.479,1.479S12.151,5,11.334,5c-0.818,0-1.48-0.662-1.48-1.479
			S10.516,2.042,11.334,2.042z M6.917,2.042c0.817,0,1.479,0.662,1.479,1.479S7.734,5,6.917,5S5.438,4.338,5.438,3.521
			S6.1,2.042,6.917,2.042z M30,25.023l-0.311,0.311h-2.355c-1.102,0-2,0.9-2,2v2.355L25.023,30H2.75c-0.689,0-1.25-0.561-1.25-1.25
			v-22H30V25.023z"/>
		<path d="M11.483,26.344l-0.438,1.473c-0.055,0.188,0.009,0.226,0.144,0.084l1.429-1.508h5.764l1.429,1.508
			c0.135,0.141,0.198,0.104,0.145-0.084l-0.438-1.473c1.728-0.234,3.074-1.708,3.074-3.498v-7.092c0-1.95-1.596-3.546-3.546-3.546
			h-1.918c-0.003-0.014-0.006-0.028-0.008-0.042l3.036-3.234c0.187,0.114,0.431,0.1,0.593-0.062c0.188-0.19,0.188-0.497,0-0.687
			c-0.188-0.189-0.497-0.189-0.687,0c-0.162,0.163-0.178,0.406-0.063,0.594l-3.13,2.938c-0.146-0.131-0.334-0.217-0.544-0.217
			h-1.652c-0.21,0-0.398,0.085-0.544,0.217l-3.13-2.938c0.114-0.188,0.1-0.431-0.063-0.594c-0.189-0.189-0.497-0.189-0.687,0
			c-0.189,0.19-0.189,0.497,0,0.687c0.162,0.162,0.406,0.176,0.593,0.062l3.036,3.234c-0.002,0.014-0.005,0.028-0.008,0.042h-1.918
			c-1.95,0-3.546,1.596-3.546,3.546v7.092C8.408,24.635,9.756,26.109,11.483,26.344z M15.5,26.081c-0.319,0-0.578-0.259-0.578-0.578
			s0.259-0.579,0.578-0.579s0.578,0.26,0.578,0.579S15.819,26.081,15.5,26.081z M9.472,16.286c0-1.658,1.357-3.014,3.014-3.014h6.03
			c1.655,0,3.014,1.356,3.014,3.014v5.319c0,1.656-1.357,3.014-3.014,3.014h-6.03c-1.656,0-3.014-1.357-3.014-3.014V16.286z"/>
		<polygon points="13.121,20.958 14.146,20.958 14.146,18.46 15.191,18.46 15.191,17.641 12.076,17.641 12.076,18.46 13.121,18.46 
					"/>
		<polygon points="17.691,20.958 18.924,17.641 17.884,17.641 17.146,20.027 16.4,17.641 15.329,17.641 16.582,20.958 		"/>
	</g>
</g>
<g>
</g>
<g>
</g>
<g>
</g>
<g>
</g>
<g>
</g>
<g>
</g>
<g>
</g>
<g>
</g>
<g>
</g>
<g>
</g>
<g>
</g>
<g>
</g>
<g>
</g>
<g>
</g>
<g>
</g>
</svg>
