<?xml version="1.0" encoding="iso-8859-1"?>
<!-- Generator: Adobe Illustrator 16.0.0, SVG Export Plug-In . SVG Version: 6.00 Build 0)  -->
<!DOCTYPE svg PUBLIC "-//W3C//DTD SVG 1.1//EN" "http://www.w3.org/Graphics/SVG/1.1/DTD/svg11.dtd">
<svg version="1.1" id="Capa_1" xmlns="http://www.w3.org/2000/svg" xmlns:xlink="http://www.w3.org/1999/xlink" x="0px" y="0px"
	 width="37.884px" height="37.885px" viewBox="0 0 37.884 37.885" style="enable-background:new 0 0 37.884 37.885;"
	 xml:space="preserve">
<g>
	<g>
		<path d="M31.212,8.157h-3.346L19.832,1.32c0.045-0.111,0.072-0.233,0.072-0.36c0-0.529-0.431-0.96-0.96-0.96
			c-0.531,0-0.961,0.431-0.961,0.96c0,0.127,0.027,0.249,0.072,0.36l-8.034,6.837H6.674c-1.432,0-2.595,1.164-2.595,2.595V35.29
			c0,1.433,1.163,2.595,2.595,2.595h21.606l5.524-5.525V10.752C33.806,9.321,32.642,8.157,31.212,8.157z M28.675,11.48
			c0,0.771-0.626,1.396-1.396,1.396s-1.396-0.625-1.396-1.396s0.625-1.396,1.396-1.396S28.675,10.71,28.675,11.48z M18.458,1.767
			c0.144,0.088,0.304,0.154,0.486,0.154s0.341-0.065,0.488-0.153l7.508,6.39H10.947L18.458,1.767z M24.507,11.48
			c0,0.771-0.625,1.396-1.398,1.396c-0.77,0-1.394-0.625-1.394-1.396s0.624-1.396,1.394-1.396
			C23.882,10.084,24.507,10.71,24.507,11.48z M20.339,11.48c0,0.771-0.626,1.396-1.396,1.396c-0.771,0-1.396-0.625-1.396-1.396
			s0.626-1.396,1.396-1.396S20.339,10.71,20.339,11.48z M16.17,11.48c0,0.771-0.623,1.396-1.393,1.396
			c-0.774,0-1.399-0.625-1.399-1.396s0.625-1.396,1.399-1.396C15.547,10.084,16.17,10.71,16.17,11.48z M10.607,10.084
			c0.771,0,1.396,0.626,1.396,1.396s-0.625,1.396-1.396,1.396s-1.396-0.625-1.396-1.396S9.837,10.084,10.607,10.084z M32.392,31.773
			l-0.294,0.291h-2.224c-1.038,0-1.887,0.852-1.887,1.889v2.224l-0.293,0.293H6.674c-0.651,0-1.18-0.528-1.18-1.18V14.527H32.39
			v17.247H32.392z"/>
		<path d="M9.631,28.691c0.33,0,0.609-0.172,0.792-0.42v0.42c0,0.551,0.45,1,1,1c0.356,0,0.656-0.199,0.833-0.48v0.48
			c0,0.551,0.45,1,1,1s1-0.449,1-1v-3.207h9.375v3.207c0,0.551,0.45,1,1,1s1-0.449,1-1v-0.48c0.177,0.281,0.478,0.48,0.833,0.48
			c0.55,0,1-0.449,1-1v-0.42c0.184,0.248,0.462,0.42,0.792,0.42c0.55,0,1-0.449,1-1v-4c0-0.549-0.45-1-1-1
			c-0.33,0-0.608,0.172-0.792,0.422v-0.422c0-0.549-0.45-1-1-1c-0.355,0-0.656,0.199-0.833,0.481v-0.481c0-0.549-0.45-1-1-1
			s-1,0.451-1,1v2.793h-9.375v-2.793c0-0.549-0.45-1-1-1s-1,0.451-1,1v0.481c-0.177-0.282-0.477-0.481-0.833-0.481
			c-0.55,0-1,0.451-1,1v0.422c-0.183-0.25-0.462-0.422-0.792-0.422c-0.55,0-1,0.451-1,1v4C8.631,28.242,9.082,28.691,9.631,28.691z"
			/>
	</g>
</g>
<g>
</g>
<g>
</g>
<g>
</g>
<g>
</g>
<g>
</g>
<g>
</g>
<g>
</g>
<g>
</g>
<g>
</g>
<g>
</g>
<g>
</g>
<g>
</g>
<g>
</g>
<g>
</g>
<g>
</g>
</svg>
