<?xml version="1.0" encoding="iso-8859-1"?>
<!-- Generator: Adobe Illustrator 16.0.0, SVG Export Plug-In . SVG Version: 6.00 Build 0)  -->
<!DOCTYPE svg PUBLIC "-//W3C//DTD SVG 1.1//EN" "http://www.w3.org/Graphics/SVG/1.1/DTD/svg11.dtd">
<svg version="1.1" id="Capa_1" xmlns="http://www.w3.org/2000/svg" xmlns:xlink="http://www.w3.org/1999/xlink" x="0px" y="0px"
	 width="36.447px" height="36.447px" viewBox="0 0 36.447 36.447" style="enable-background:new 0 0 36.447 36.447;"
	 xml:space="preserve">
<g>
	<g>
		<path d="M30.224,3.948h-1.098V2.75c0-1.516-1.197-2.75-2.67-2.75c-1.474,0-2.67,1.234-2.67,2.75v1.197h-2.74V2.75
			c0-1.516-1.197-2.75-2.67-2.75c-1.473,0-2.67,1.234-2.67,2.75v1.197h-2.74V2.75c0-1.516-1.197-2.75-2.67-2.75
			c-1.473,0-2.67,1.234-2.67,2.75v1.197H6.224c-2.343,0-4.25,1.907-4.25,4.25v24c0,2.343,1.907,4.25,4.25,4.25h24
			c2.344,0,4.25-1.907,4.25-4.25v-24C34.474,5.854,32.567,3.948,30.224,3.948z M25.286,2.75c0-0.689,0.525-1.25,1.17-1.25
			c0.646,0,1.17,0.561,1.17,1.25v4.895c0,0.689-0.524,1.25-1.17,1.25c-0.645,0-1.17-0.561-1.17-1.25V2.75z M17.206,2.75
			c0-0.689,0.525-1.25,1.17-1.25s1.17,0.561,1.17,1.25v4.895c0,0.689-0.525,1.25-1.17,1.25s-1.17-0.561-1.17-1.25V2.75z M9.125,2.75
			c0-0.689,0.525-1.25,1.17-1.25s1.17,0.561,1.17,1.25v4.895c0,0.689-0.525,1.25-1.17,1.25s-1.17-0.561-1.17-1.25V2.75z
			 M31.974,32.198c0,0.965-0.785,1.75-1.75,1.75h-24c-0.965,0-1.75-0.785-1.75-1.75v-22h27.5V32.198z"/>
		<path d="M9.205,23.039l1.642,1.092c0.62,0.411,1.007,1.346,0.86,2.075l-0.39,1.933c-0.147,0.73,0.33,1.207,1.06,1.06l1.933-0.39
			c0.73-0.147,1.663,0.24,2.075,0.858l1.092,1.644c0.412,0.619,1.085,0.619,1.497,0l1.092-1.644c0.412-0.62,1.346-1.006,2.075-0.858
			l1.933,0.39c0.73,0.147,1.207-0.329,1.061-1.06l-0.391-1.933c-0.146-0.729,0.24-1.664,0.86-2.075l1.642-1.092
			c0.621-0.412,0.621-1.085,0-1.497l-1.642-1.092c-0.62-0.412-1.007-1.345-0.86-2.075l0.391-1.933
			c0.146-0.729-0.33-1.206-1.061-1.059l-1.933,0.39c-0.729,0.148-1.663-0.239-2.075-0.859l-1.092-1.643
			c-0.412-0.62-1.085-0.62-1.497,0l-1.093,1.643c-0.412,0.62-1.345,1.007-2.075,0.859l-1.933-0.39
			c-0.73-0.147-1.207,0.33-1.06,1.059l0.39,1.933c0.147,0.73-0.24,1.664-0.86,2.075l-1.642,1.092
			C8.584,21.954,8.584,22.628,9.205,23.039z M13.5,22.059c0.051-1.06,0.458-2.103,1.219-2.942l-0.083-0.413l0.413,0.083
			c0.84-0.763,1.883-1.168,2.943-1.22l0.232-0.348l0.232,0.349c1.06,0.052,2.104,0.458,2.943,1.22l0.413-0.083l-0.083,0.413
			c0.763,0.84,1.168,1.883,1.22,2.943l0.35,0.231l-0.35,0.231c-0.052,1.061-0.459,2.104-1.22,2.943l0.083,0.414l-0.413-0.084
			c-0.839,0.762-1.883,1.168-2.943,1.219l-0.232,0.349l-0.232-0.351c-1.06-0.051-2.103-0.457-2.943-1.219l-0.413,0.083l0.083-0.413
			c-0.762-0.84-1.168-1.883-1.219-2.943l-0.35-0.231L13.5,22.059z"/>
	</g>
</g>
<g>
</g>
<g>
</g>
<g>
</g>
<g>
</g>
<g>
</g>
<g>
</g>
<g>
</g>
<g>
</g>
<g>
</g>
<g>
</g>
<g>
</g>
<g>
</g>
<g>
</g>
<g>
</g>
<g>
</g>
</svg>
