<?xml version="1.0" encoding="iso-8859-1"?>
<!-- Generator: Adobe Illustrator 16.0.0, SVG Export Plug-In . SVG Version: 6.00 Build 0)  -->
<!DOCTYPE svg PUBLIC "-//W3C//DTD SVG 1.1//EN" "http://www.w3.org/Graphics/SVG/1.1/DTD/svg11.dtd">
<svg version="1.1" id="Capa_1" xmlns="http://www.w3.org/2000/svg" xmlns:xlink="http://www.w3.org/1999/xlink" x="0px" y="0px"
	 width="36.447px" height="36.447px" viewBox="0 0 36.447 36.447" style="enable-background:new 0 0 36.447 36.447;"
	 xml:space="preserve">
<g>
	<g>
		<path d="M30.224,3.947h-1.098V2.75c0-1.516-1.199-2.75-2.67-2.75c-1.473,0-2.67,1.234-2.67,2.75v1.197h-2.742V2.75
			c0-1.516-1.196-2.75-2.668-2.75s-2.669,1.234-2.669,2.75v1.197h-2.741V2.75c0-1.516-1.198-2.75-2.67-2.75
			c-1.472,0-2.67,1.234-2.67,2.75v1.197H6.224c-2.343,0-4.25,1.907-4.25,4.25v24c0,2.343,1.907,4.25,4.25,4.25h24
			c2.343,0,4.25-1.907,4.25-4.25v-24C34.474,5.854,32.566,3.947,30.224,3.947z M25.286,2.75c0-0.689,0.524-1.25,1.17-1.25
			c0.645,0,1.17,0.561,1.17,1.25v4.895c0,0.689-0.525,1.25-1.17,1.25c-0.646,0-1.17-0.561-1.17-1.25V2.75z M17.207,2.75
			c0-0.689,0.524-1.25,1.169-1.25s1.168,0.561,1.168,1.25v4.895c0,0.689-0.523,1.25-1.168,1.25s-1.169-0.561-1.169-1.25V2.75z
			 M9.125,2.75c0-0.689,0.525-1.25,1.17-1.25s1.17,0.561,1.17,1.25v4.895c0,0.689-0.525,1.25-1.17,1.25s-1.17-0.561-1.17-1.25V2.75z
			 M31.974,32.197c0,0.965-0.785,1.75-1.75,1.75h-24c-0.965,0-1.75-0.785-1.75-1.75v-18h27.5V32.197z"/>
		<path d="M15.869,21.638c0,0.976,0.392,1.979,0.968,2.952c0.44-0.53,0.81-1.049,1.074-1.536c-0.222-0.492-0.356-0.97-0.356-1.416
			c0-1.587,0.834-2.573,2.177-2.573c0.999,0,2.121,0.557,3.082,1.524l0.598,0.604l0.598-0.604c0.962-0.968,2.084-1.524,3.084-1.524
			c1.342,0,2.176,0.986,2.176,2.573c0,2.453-3.861,5.851-5.857,7.345c-0.92-0.688-2.231-1.789-3.384-3.01
			c-0.332,0.461-0.69,0.908-1.07,1.335c1.724,1.793,3.597,3.146,3.971,3.407l0.482,0.338l0.483-0.338
			c0.724-0.505,7.06-5.053,7.06-9.077c0-2.508-1.588-4.259-3.861-4.259c-1.246,0-2.53,0.518-3.682,1.474
			c-1.15-0.956-2.435-1.474-3.68-1.474C17.457,17.379,15.869,19.131,15.869,21.638z"/>
		<path d="M12.855,30.715l0.483,0.338l0.483-0.338c0.723-0.505,7.061-5.053,7.061-9.077c0-0.549-0.086-1.054-0.234-1.517
			c-0.316-0.127-0.63-0.213-0.917-0.213c-0.376,0-0.642,0.119-0.836,0.295c0.194,0.393,0.302,0.875,0.302,1.435
			c0,2.453-3.861,5.851-5.858,7.345c-1.996-1.494-5.856-4.891-5.856-7.345c0-1.587,0.834-2.573,2.176-2.573
			c0.999,0,2.121,0.557,3.082,1.524l0.598,0.604l0.599-0.604c0.466-0.472,0.972-0.838,1.483-1.097
			c0.344-0.873,0.898-1.6,1.611-2.111c-0.003,0-0.008-0.001-0.012-0.001c-1.246,0-2.53,0.518-3.681,1.474
			c-1.151-0.956-2.435-1.474-3.68-1.474c-2.274,0-3.862,1.751-3.862,4.259C5.796,25.662,12.133,30.21,12.855,30.715z"/>
	</g>
</g>
<g>
</g>
<g>
</g>
<g>
</g>
<g>
</g>
<g>
</g>
<g>
</g>
<g>
</g>
<g>
</g>
<g>
</g>
<g>
</g>
<g>
</g>
<g>
</g>
<g>
</g>
<g>
</g>
<g>
</g>
</svg>
