<?xml version="1.0" encoding="iso-8859-1"?>
<!-- Generator: Adobe Illustrator 16.0.0, SVG Export Plug-In . SVG Version: 6.00 Build 0)  -->
<!DOCTYPE svg PUBLIC "-//W3C//DTD SVG 1.1//EN" "http://www.w3.org/Graphics/SVG/1.1/DTD/svg11.dtd">
<svg version="1.1" id="Capa_1" xmlns="http://www.w3.org/2000/svg" xmlns:xlink="http://www.w3.org/1999/xlink" x="0px" y="0px"
	 width="31.5px" height="31.5px" viewBox="0 0 31.5 31.5" style="enable-background:new 0 0 31.5 31.5;" xml:space="preserve">
<g>
	<g>
		<path d="M28.75,0h-26C1.232,0,0,1.233,0,2.75v26c0,1.518,1.232,2.75,2.75,2.75h22.895l5.855-5.855V2.75
			C31.5,1.234,30.268,0,28.75,0z M24.583,2.042c0.817,0,1.479,0.662,1.479,1.479S25.4,5,24.583,5s-1.479-0.662-1.479-1.479
			S23.766,2.042,24.583,2.042z M20.166,2.042c0.816,0,1.479,0.662,1.479,1.479S20.982,5,20.166,5s-1.479-0.662-1.479-1.479
			S19.35,2.042,20.166,2.042z M15.75,2.042c0.816,0,1.479,0.662,1.479,1.479S16.567,5,15.75,5s-1.479-0.662-1.479-1.479
			S14.933,2.042,15.75,2.042z M11.334,2.042c0.816,0,1.479,0.662,1.479,1.479S12.151,5,11.334,5c-0.818,0-1.48-0.662-1.48-1.479
			S10.516,2.042,11.334,2.042z M6.917,2.042c0.817,0,1.479,0.662,1.479,1.479S7.734,5,6.917,5S5.438,4.338,5.438,3.521
			S6.1,2.042,6.917,2.042z M30,25.023l-0.311,0.311h-2.355c-1.102,0-2,0.9-2,2v2.355L25.023,30H2.75c-0.689,0-1.25-0.561-1.25-1.25
			v-22H30V25.023z"/>
		<path d="M15.75,10.636c4.475,0,8.115,3.64,8.115,8.115h1.41c0-5.253-4.273-9.527-9.525-9.527s-9.525,4.273-9.525,9.527h1.411
			C7.635,14.275,11.275,10.636,15.75,10.636z"/>
		<path d="M15.75,11.871c-3.793,0-6.88,3.086-6.88,6.88h1.411c0-3.017,2.453-5.469,5.469-5.469c3.016,0,5.469,2.452,5.469,5.469
			h1.411C22.63,14.957,19.543,11.871,15.75,11.871z"/>
		<path d="M15.75,14.517c-2.334,0-4.233,1.899-4.233,4.234h1.411c0-1.558,1.266-2.823,2.822-2.823c1.557,0,2.823,1.266,2.823,2.823
			h1.409C19.982,16.416,18.084,14.517,15.75,14.517z"/>
		<path d="M16.529,18.751c0-0.431-0.349-0.778-0.779-0.778s-0.779,0.348-0.779,0.778c0,0.343,0.226,0.626,0.534,0.729l-2.948,8.797
			h6.386l-2.948-8.797C16.303,19.377,16.529,19.094,16.529,18.751z"/>
	</g>
</g>
<g>
</g>
<g>
</g>
<g>
</g>
<g>
</g>
<g>
</g>
<g>
</g>
<g>
</g>
<g>
</g>
<g>
</g>
<g>
</g>
<g>
</g>
<g>
</g>
<g>
</g>
<g>
</g>
<g>
</g>
</svg>
