<?xml version="1.0" encoding="iso-8859-1"?>
<!-- Generator: Adobe Illustrator 16.0.0, SVG Export Plug-In . SVG Version: 6.00 Build 0)  -->
<!DOCTYPE svg PUBLIC "-//W3C//DTD SVG 1.1//EN" "http://www.w3.org/Graphics/SVG/1.1/DTD/svg11.dtd">
<svg version="1.1" id="Capa_1" xmlns="http://www.w3.org/2000/svg" xmlns:xlink="http://www.w3.org/1999/xlink" x="0px" y="0px"
	 width="32.75px" height="32.75px" viewBox="0 0 32.75 32.75" style="enable-background:new 0 0 32.75 32.75;" xml:space="preserve"
	>
<g>
	<g>
		<path d="M29.375,1.25h-1.123c0.029-0.093,0.059-0.186,0.059-0.289C28.311,0.43,27.879,0,27.348,0s-0.961,0.431-0.961,0.961
			c0,0.103,0.028,0.196,0.059,0.289h-3.68c0.029-0.093,0.059-0.186,0.059-0.289C22.824,0.43,22.393,0,21.861,0
			C21.332,0,20.9,0.431,20.9,0.961c0,0.103,0.029,0.196,0.06,0.289h-3.681c0.029-0.093,0.058-0.186,0.058-0.289
			C17.337,0.43,16.907,0,16.376,0c-0.531,0-0.961,0.431-0.961,0.961c0,0.103,0.028,0.196,0.058,0.289h-3.681
			c0.029-0.093,0.059-0.186,0.059-0.289C11.851,0.43,11.42,0,10.89,0c-0.531,0-0.962,0.431-0.962,0.961
			c0,0.103,0.028,0.196,0.058,0.289h-3.68c0.03-0.093,0.059-0.186,0.059-0.289C6.365,0.43,5.935,0,5.404,0
			C4.873,0,4.442,0.431,4.442,0.961c0,0.103,0.028,0.196,0.058,0.289H3.375c-1.518,0-2.75,1.233-2.75,2.75v26
			c0,1.518,1.232,2.75,2.75,2.75H26.27l5.855-5.855V4C32.125,2.484,30.893,1.25,29.375,1.25z M30.625,26.273l-0.311,0.311h-2.355
			c-1.102,0-2,0.9-2,2v2.355l-0.311,0.311H3.375c-0.689,0-1.25-0.561-1.25-1.25V5h28.5V26.273z"/>
		<path d="M17.613,25.516l3.31,2.942l5.632-5.631l-2.943-3.31c-0.246,1.45-0.922,2.842-2.039,3.959S19.062,25.27,17.613,25.516z"/>
		<path d="M11.611,23.043c2.627,2.627,6.901,2.627,9.528,0c2.629-2.627,2.629-6.9,0-9.529c-2.627-2.627-6.901-2.627-9.529,0
			C8.983,16.143,8.983,20.417,11.611,23.043z M12.477,22.178c-0.878-0.878-1.392-1.982-1.552-3.126l0.615,0.692
			c0.232,0.771,0.653,1.5,1.262,2.109c0.609,0.608,1.337,1.028,2.109,1.262l0.693,0.615C14.459,23.568,13.355,23.057,12.477,22.178z
			 M20.273,14.382c0.877,0.878,1.391,1.981,1.551,3.125l-0.615-0.692c-0.232-0.771-0.652-1.5-1.261-2.107
			c-0.61-0.609-1.337-1.029-2.109-1.261l-0.692-0.615C18.291,12.99,19.395,13.503,20.273,14.382z M13.018,14.923
			c1.851-1.851,4.862-1.852,6.714,0c1.851,1.853,1.851,4.863,0,6.714c-1.852,1.852-4.862,1.852-6.713,0
			C11.167,19.785,11.167,16.773,13.018,14.923z"/>
		<path d="M15.508,19.146c0.479,0.479,1.256,0.478,1.732,0c0.479-0.479,0.479-1.256,0.001-1.734
			c-0.089-0.086-0.187-0.152-0.291-0.208c-0.13-2.018-0.575-3.518-0.575-3.518s-0.445,1.501-0.576,3.52
			c-0.104,0.056-0.203,0.121-0.292,0.208c-0.087,0.087-0.152,0.188-0.208,0.291c-2.018,0.13-3.519,0.576-3.519,0.576
			s1.501,0.445,3.52,0.574C15.356,18.958,15.422,19.059,15.508,19.146z"/>
		<path d="M11.177,13.083c1.118-1.118,2.51-1.794,3.961-2.04l-3.311-2.942l-2.49,2.49c0.179,0.18,0.179,0.472,0,0.65
			c-0.179,0.179-0.471,0.179-0.65,0l-2.491,2.491l2.942,3.31C9.385,15.591,10.061,14.199,11.177,13.083z M9.77,11.674
			c0.179-0.18,0.47-0.18,0.649,0c0.18,0.179,0.18,0.471,0,0.649c-0.179,0.18-0.47,0.18-0.649,0C9.59,12.145,9.59,11.854,9.77,11.674
			z"/>
	</g>
</g>
<g>
</g>
<g>
</g>
<g>
</g>
<g>
</g>
<g>
</g>
<g>
</g>
<g>
</g>
<g>
</g>
<g>
</g>
<g>
</g>
<g>
</g>
<g>
</g>
<g>
</g>
<g>
</g>
<g>
</g>
</svg>
