<?xml version="1.0" encoding="iso-8859-1"?>
<!-- Generator: Adobe Illustrator 19.0.0, SVG Export Plug-In . SVG Version: 6.00 Build 0)  -->
<svg xmlns="http://www.w3.org/2000/svg" xmlns:xlink="http://www.w3.org/1999/xlink" version="1.1" id="Layer_1" x="0px" y="0px" viewBox="0 0 512.009 512.009" style="enable-background:new 0 0 512.009 512.009;" xml:space="preserve">
<g>
	<g>
		<path d="M501.343,0.005h-192c-2.837,0-5.547,1.131-7.552,3.115L3.124,301.786c-3.051,3.051-3.968,7.637-2.304,11.627    c1.664,3.989,5.547,6.592,9.856,6.592H192.01v181.333c0,4.309,2.603,8.213,6.592,9.856c1.301,0.555,2.688,0.811,4.075,0.811    c2.773,0,5.504-1.088,7.552-3.115l298.667-298.667c1.984-2.005,3.115-4.715,3.115-7.552v-192    C512.01,4.783,507.231,0.005,501.343,0.005z M394.676,149.338c-17.643,0-32-14.357-32-32c0-17.643,14.357-32,32-32    s32,14.357,32,32C426.676,134.981,412.319,149.338,394.676,149.338z"/>
	</g>
</g>
<g>
</g>
<g>
</g>
<g>
</g>
<g>
</g>
<g>
</g>
<g>
</g>
<g>
</g>
<g>
</g>
<g>
</g>
<g>
</g>
<g>
</g>
<g>
</g>
<g>
</g>
<g>
</g>
<g>
</g>
</svg>
