<?xml version="1.0" encoding="iso-8859-1"?>
<!-- Generator: Adobe Illustrator 19.0.0, SVG Export Plug-In . SVG Version: 6.00 Build 0)  -->
<svg xmlns="http://www.w3.org/2000/svg" xmlns:xlink="http://www.w3.org/1999/xlink" version="1.1" id="Layer_1" x="0px" y="0px" viewBox="0 0 512.005 512.005" style="enable-background:new 0 0 512.005 512.005;" xml:space="preserve">
<g>
	<g>
		<path d="M394.672,64.003c-29.419,0-53.333,23.915-53.333,53.333c0,29.419,23.915,53.333,53.333,53.333    s53.333-23.915,53.333-53.333C448.005,87.917,424.091,64.003,394.672,64.003z M394.672,149.336c-17.643,0-32-14.357-32-32    c0-17.643,14.357-32,32-32s32,14.357,32,32C426.672,134.979,412.315,149.336,394.672,149.336z"/>
	</g>
</g>
<g>
	<g>
		<path d="M501.339,0.003h-192c-2.837,0-5.547,1.131-7.552,3.115L3.12,301.784c-4.16,4.16-4.16,10.923,0,15.083l192,192    c2.091,2.091,4.821,3.136,7.552,3.136c2.731,0,5.461-1.045,7.552-3.115l298.667-298.667c1.984-2.005,3.115-4.715,3.115-7.552v-192    C512.005,4.781,507.227,0.003,501.339,0.003z M394.672,170.669c-29.419,0-53.333-23.936-53.333-53.333    c0-29.397,23.915-53.333,53.333-53.333s53.333,23.936,53.333,53.333C448.005,146.733,424.091,170.669,394.672,170.669z"/>
	</g>
</g>
<g>
</g>
<g>
</g>
<g>
</g>
<g>
</g>
<g>
</g>
<g>
</g>
<g>
</g>
<g>
</g>
<g>
</g>
<g>
</g>
<g>
</g>
<g>
</g>
<g>
</g>
<g>
</g>
<g>
</g>
</svg>
