<?xml version="1.0" encoding="iso-8859-1"?>
<!-- Generator: Adobe Illustrator 19.0.0, SVG Export Plug-In . SVG Version: 6.00 Build 0)  -->
<svg xmlns="http://www.w3.org/2000/svg" xmlns:xlink="http://www.w3.org/1999/xlink" version="1.1" id="Layer_1" x="0px" y="0px" viewBox="0 0 512 512" style="enable-background:new 0 0 512 512;" xml:space="preserve">
<g>
	<g>
		<path d="M330.667,149.333c-64.704,0-117.333,52.629-117.333,117.333S265.963,384,330.667,384S448,331.371,448,266.667    S395.371,149.333,330.667,149.333z M338.347,338.133c-2.133,2.133-4.907,3.2-7.68,3.2c-2.773,0-5.547-1.067-7.467-3.2    c-2.133-1.92-3.2-4.693-3.2-7.467c0-2.773,1.067-5.547,3.2-7.467c4.053-4.053,10.88-4.053,14.933-0.213    c2.133,2.133,3.2,4.907,3.2,7.68C341.333,333.44,340.267,336.213,338.347,338.133z M341.355,275.371L341.333,288    c0,5.888-4.779,10.667-10.667,10.667S320,293.867,320,288l0.021-21.333c0-5.056,3.563-9.408,8.512-10.432l2.325-0.448    c21.696-4.011,31.808-10.731,31.808-21.12c0-11.563-14.677-21.333-32.021-21.333c-16.704,0-31.083,9.045-32,20.181    c-0.469,5.867-5.696,10.453-11.52,9.728c-5.867-0.491-10.219-5.653-9.728-11.52C279.275,209.088,302.187,192,330.645,192    C360.064,192,384,211.136,384,234.667C384,255.04,369.664,268.715,341.355,275.371z"/>
	</g>
</g>
<g>
	<g>
		<path d="M373.333,0H138.667C97.493,0,64,33.493,64,74.667v426.667c0,4.309,2.603,8.213,6.592,9.856    c1.301,0.555,2.709,0.811,4.075,0.811c2.773,0,5.504-1.088,7.552-3.115l120.491-120.512    c47.829,47.211,113.92,112.789,118.4,117.675c1.323,2.667,3.691,4.715,6.677,5.547c4.565,1.301,9.493-0.64,12.011-4.715    c1.109-1.792,1.621-3.883,1.536-5.952V416c0-5.888-4.779-10.667-10.667-10.667C254.208,405.333,192,343.125,192,266.667    S254.208,128,330.667,128c5.888,0,10.667-4.779,10.667-10.667v-64c0-17.643,14.357-32,32-32c5.888,0,10.667-4.779,10.667-10.667    S379.221,0,373.333,0z"/>
	</g>
</g>
<g>
	<g>
		<path d="M373.333,0H320c-5.888,0-10.667,4.779-10.667,10.667v64c0,5.888,4.779,10.667,10.667,10.667h21.333v-32    c0-17.643,14.357-32,32-32C379.221,21.333,384,26.112,384,32s-4.779,10.667-10.667,10.667c-5.867,0-10.667,4.779-10.667,10.667v32    H416c5.888,0,10.667-4.779,10.667-10.667V53.333C426.667,23.936,402.752,0,373.333,0z"/>
	</g>
</g>
<g>
</g>
<g>
</g>
<g>
</g>
<g>
</g>
<g>
</g>
<g>
</g>
<g>
</g>
<g>
</g>
<g>
</g>
<g>
</g>
<g>
</g>
<g>
</g>
<g>
</g>
<g>
</g>
<g>
</g>
</svg>
