<?xml version="1.0" encoding="iso-8859-1"?>
<!-- Generator: Adobe Illustrator 19.0.0, SVG Export Plug-In . SVG Version: 6.00 Build 0)  -->
<svg xmlns="http://www.w3.org/2000/svg" xmlns:xlink="http://www.w3.org/1999/xlink" version="1.1" id="Layer_1" x="0px" y="0px" viewBox="0 0 490.667 490.667" style="enable-background:new 0 0 490.667 490.667;" xml:space="preserve">
<g>
	<g>
		<path d="M171.2,398.421c-0.021-0.277-0.491-3.477-0.533-3.755v-9.259c-7.595-0.853-14.997-1.408-21.333-1.408    c-40.235,0-69.163,7.787-73.365,11.968c-9.024,9.045-23.061,11.819-34.859,6.933c-12.032-4.971-19.776-16.576-19.776-29.568    V103.68l-13.248,3.307C3.328,108.181,0,112.448,0,117.333V416c0,3.029,1.301,5.931,3.563,7.957    c1.963,1.749,4.48,2.709,7.104,2.709c0.405,0,0.789-0.021,1.173-0.064l149.909-16.661    C167.509,409.301,171.691,404.181,171.2,398.421z"/>
	</g>
</g>
<g>
	<g>
		<path d="M482.581,106.987l-13.248-3.307v269.653c0,12.992-7.744,24.597-19.755,29.568c-3.904,1.6-8.021,2.432-12.245,2.432    c-8.341,0-16.235-3.179-22.229-8.981C409.685,392.747,366.976,384,341.333,384c-7.637,0-14.699,0.341-21.44,0.832l-0.043,10.837    c-0.043,0.277-0.363,2.475-0.384,2.752c-0.491,5.781,3.691,10.88,9.451,11.52l149.909,16.661c0.384,0.043,0.768,0.064,1.173,0.064    c2.624,0,5.141-0.96,7.104-2.709c2.261-2.027,3.563-4.928,3.563-7.957V117.333C490.667,112.448,487.339,108.181,482.581,106.987z"/>
	</g>
</g>
<g>
	<g>
		<path d="M267.968,395.968c-0.341,0.341-0.768,0.512-1.109,0.832c-1.259,1.152-2.667,2.069-4.117,3.029    c-1.216,0.789-2.368,1.579-3.669,2.197c-0.533,0.256-0.939,0.661-1.493,0.896c-3.904,1.579-8.021,2.411-12.245,2.411    c-0.491,0-0.939-0.256-1.429-0.277c-3.2-0.128-6.357-0.725-9.429-1.813c-0.427-0.149-0.875-0.149-1.28-0.32    c-0.021-0.021-0.064,0-0.085-0.021c-3.499-1.451-6.485-3.584-9.173-6.016c-0.256-0.235-0.576-0.299-0.832-0.533    c-2.816-1.877-15.765-5.12-31.104-7.808v6.123c0,18.24,22.933,32,53.333,32c30.4,0,53.333-13.76,53.333-32v-7.509    C281.707,389.803,270.443,393.493,267.968,395.968z"/>
	</g>
</g>
<g>
	<g>
		<path d="M202.667,352c-5.888,0-10.667,4.779-10.667,10.667v4.331c7.488,1.259,14.699,2.731,21.333,4.373v-8.704    C213.333,356.779,208.555,352,202.667,352z"/>
	</g>
</g>
<g>
	<g>
		<path d="M341.312,64c-8.128,0-24.747,0.448-42.667,2.752v195.499h0.021l24.448-24.448c4.16-4.16,10.923-4.16,15.083,0    l24.448,24.448V65.301C354.005,64.448,346.411,64,341.312,64z"/>
	</g>
</g>
<g>
	<g>
		<path d="M149.333,64c-18.56,0-80.853,1.771-103.552,24.448c-1.984,2.005-3.115,4.715-3.115,7.552v277.333    c0,4.309,2.603,8.213,6.592,9.856c3.989,1.685,8.576,0.747,11.627-2.304c12.501-12.523,54.613-18.219,88.448-18.219    c26.197,0,71.68,8.171,85.333,16.213V78.357C208.384,68.544,166.144,64,149.333,64z M91.307,161.088    c0.981-0.491,24.384-11.755,58.027-11.755c38.08,0,57.984,11.691,58.816,12.181c5.056,3.029,6.677,9.579,3.648,14.635    c-1.984,3.349-5.525,5.184-9.131,5.184c-1.877,0-3.776-0.491-5.483-1.515c-0.085-0.043-16.235-9.152-47.851-9.152    c-28.437,0-48.469,9.493-48.661,9.6c-5.312,2.56-11.691,0.341-14.251-4.949S86.037,163.669,91.307,161.088z M211.819,304.149    c-2.005,3.349-5.547,5.184-9.152,5.184c-1.856,0-3.755-0.491-5.483-1.515c-0.085-0.043-16.235-9.152-47.851-9.152    c-28.437,0-48.469,9.493-48.661,9.6c-5.312,2.581-11.669,0.341-14.251-4.928c-2.56-5.291-0.384-11.648,4.885-14.229    c0.981-0.512,24.384-11.776,58.027-11.776c38.08,0,57.984,11.691,58.816,12.181C213.205,292.544,214.848,299.115,211.819,304.149z     M211.819,240.149c-2.005,3.349-5.547,5.184-9.152,5.184c-1.856,0-3.755-0.491-5.483-1.515    c-0.085-0.043-16.235-9.152-47.851-9.152c-28.437,0-48.469,9.493-48.661,9.6c-5.312,2.56-11.669,0.363-14.251-4.928    c-2.56-5.291-0.384-11.648,4.885-14.229c0.981-0.512,24.384-11.776,58.027-11.776c38.08,0,57.984,11.691,58.816,12.181    C213.205,228.544,214.848,235.115,211.819,240.149z"/>
	</g>
</g>
<g>
	<g>
		<path d="M444.885,88.448c-9.941-9.941-36.331-16.555-60.885-20.395V288c0,4.309-2.603,8.213-6.592,9.856    c-1.323,0.555-2.709,0.811-4.075,0.811c-2.773,0-5.504-1.088-7.552-3.115l-35.115-35.136l-35.115,35.115    c-3.072,3.051-7.616,3.989-11.627,2.304c-3.989-1.621-6.592-5.525-6.592-9.835V70.421c-7.552,1.728-14.805,3.925-21.333,6.677    v301.504c15.147-10.88,53.696-15.936,85.333-15.936c28.373,0,79.851,9.6,88.448,18.219c2.048,2.027,4.779,3.115,7.552,3.115    c1.365,0,2.752-0.256,4.075-0.811c3.989-1.643,6.592-5.547,6.592-9.856V96C448,93.163,446.869,90.453,444.885,88.448z"/>
	</g>
</g>
<g>
</g>
<g>
</g>
<g>
</g>
<g>
</g>
<g>
</g>
<g>
</g>
<g>
</g>
<g>
</g>
<g>
</g>
<g>
</g>
<g>
</g>
<g>
</g>
<g>
</g>
<g>
</g>
<g>
</g>
</svg>
