<?xml version="1.0" encoding="iso-8859-1"?>
<!-- Generator: Adobe Illustrator 19.0.0, SVG Export Plug-In . SVG Version: 6.00 Build 0)  -->
<svg xmlns="http://www.w3.org/2000/svg" xmlns:xlink="http://www.w3.org/1999/xlink" version="1.1" id="Layer_1" x="0px" y="0px" viewBox="0 0 512 512" style="enable-background:new 0 0 512 512;" xml:space="preserve">
<g>
	<g>
		<path d="M256,0C114.837,0,0,114.837,0,256s114.837,256,256,256s256-114.837,256-256S397.163,0,256,0z M422.549,211.093    l-90.389,70.293l30.123,110.485c1.173,4.288-0.448,8.853-4.053,11.456c-1.856,1.323-4.032,2.005-6.229,2.005    c-2.069,0-4.117-0.597-5.909-1.792L256,343.488l-90.091,60.053c-3.691,2.475-8.533,2.368-12.16-0.213    c-3.605-2.603-5.227-7.168-4.053-11.456l30.144-110.485l-90.389-70.293c-3.605-2.795-5.013-7.573-3.541-11.883    C87.381,194.901,91.456,192,96,192h110.123l39.979-99.968c3.243-8.107,16.555-8.107,19.819,0L305.877,192H416    c4.544,0,8.619,2.901,10.091,7.211C427.563,203.52,426.155,208.299,422.549,211.093z"/>
	</g>
</g>
<g>
</g>
<g>
</g>
<g>
</g>
<g>
</g>
<g>
</g>
<g>
</g>
<g>
</g>
<g>
</g>
<g>
</g>
<g>
</g>
<g>
</g>
<g>
</g>
<g>
</g>
<g>
</g>
<g>
</g>
</svg>
