<?xml version="1.0" encoding="iso-8859-1"?>
<!-- Generator: Adobe Illustrator 19.0.0, SVG Export Plug-In . SVG Version: 6.00 Build 0)  -->
<svg xmlns="http://www.w3.org/2000/svg" xmlns:xlink="http://www.w3.org/1999/xlink" version="1.1" id="Layer_1" x="0px" y="0px" viewBox="0 0 512 512" style="enable-background:new 0 0 512 512;" xml:space="preserve">
<g>
	<g>
		<path d="M458.667,0H53.333C23.915,0,0,23.936,0,53.333v405.333C0,488.064,23.915,512,53.333,512h405.333    C488.085,512,512,488.064,512,458.667V53.333C512,23.936,488.085,0,458.667,0z M490.667,458.667c0,17.643-14.357,32-32,32H53.333    c-17.643,0-32-14.357-32-32V53.333c0-17.643,14.357-32,32-32h405.333c17.643,0,32,14.357,32,32V458.667z"/>
	</g>
</g>
<g>
	<g>
		<path d="M501.333,85.333H10.667C4.779,85.333,0,90.112,0,96s4.779,10.667,10.667,10.667h490.667    c5.888,0,10.667-4.779,10.667-10.667S507.221,85.333,501.333,85.333z"/>
	</g>
</g>
<g>
	<g>
		<polygon points="416,245.333 298.667,245.333 256,138.667 213.333,245.333 96,245.333 192,320 160,437.333 256,373.333     352,437.333 320,320   "/>
	</g>
</g>
<g>
	<g>
		<path d="M426.091,241.877c-1.493-4.309-5.525-7.211-10.091-7.211H305.899l-40-99.968c-3.221-8.107-16.597-8.107-19.797,0    l-40,99.968H96c-4.565,0-8.597,2.901-10.069,7.211s-0.064,9.088,3.541,11.883l90.368,70.293l-30.123,110.485    c-1.173,4.288,0.427,8.853,4.053,11.456c3.605,2.581,8.448,2.688,12.139,0.213L256,386.155l90.091,60.053    c1.792,1.195,3.84,1.792,5.909,1.792c2.197,0,4.373-0.683,6.229-2.005c3.605-2.603,5.227-7.168,4.053-11.456L332.16,324.053    l90.389-70.293C426.155,250.965,427.563,246.187,426.091,241.877z M313.472,311.573c-3.392,2.645-4.885,7.083-3.755,11.221    l24.491,89.856l-72.299-48.192c-1.792-1.195-3.84-1.792-5.909-1.792s-4.117,0.597-5.888,1.792l-72.299,48.192l24.491-89.856    c1.131-4.139-0.363-8.576-3.755-11.221L127.083,256h86.251c4.352,0,8.299-2.667,9.899-6.72L256,167.381l32.768,81.92    c1.6,4.032,5.547,6.699,9.899,6.699h86.251L313.472,311.573z"/>
	</g>
</g>
<g>
	<g>
		<path d="M458.667,0H53.333C23.915,0,0,23.936,0,53.333V96c0,5.888,4.779,10.667,10.667,10.667h490.667    c5.888,0,10.667-4.779,10.667-10.667V53.333C512,23.936,488.085,0,458.667,0z M53.333,64c-5.888,0-10.667-4.779-10.667-10.667    s4.779-10.667,10.667-10.667S64,47.445,64,53.333S59.221,64,53.333,64z M96,64c-5.888,0-10.667-4.779-10.667-10.667    S90.112,42.667,96,42.667s10.667,4.779,10.667,10.667S101.888,64,96,64z M138.667,64C132.779,64,128,59.221,128,53.333    s4.779-10.667,10.667-10.667s10.667,4.779,10.667,10.667S144.555,64,138.667,64z"/>
	</g>
</g>
<g>
</g>
<g>
</g>
<g>
</g>
<g>
</g>
<g>
</g>
<g>
</g>
<g>
</g>
<g>
</g>
<g>
</g>
<g>
</g>
<g>
</g>
<g>
</g>
<g>
</g>
<g>
</g>
<g>
</g>
</svg>
