<?xml version="1.0" encoding="iso-8859-1"?>
<!-- Generator: Adobe Illustrator 19.0.0, SVG Export Plug-In . SVG Version: 6.00 Build 0)  -->
<svg xmlns="http://www.w3.org/2000/svg" xmlns:xlink="http://www.w3.org/1999/xlink" version="1.1" id="Layer_1" x="0px" y="0px" viewBox="0 0 512 512" style="enable-background:new 0 0 512 512;" xml:space="preserve">
<g>
	<g>
		<path d="M458.667,42.667H416c-5.888,0-10.667,4.779-10.667,10.667S410.112,64,416,64h42.667c17.643,0,32,14.357,32,32v362.667    c0,17.643-14.357,32-32,32H53.333c-17.643,0-32-14.357-32-32V96c0-17.643,14.357-32,32-32h85.333    c5.888,0,10.667-4.779,10.667-10.667s-4.779-10.667-10.667-10.667H53.333C23.915,42.667,0,66.603,0,96v362.667    C0,488.064,23.915,512,53.333,512h405.333C488.085,512,512,488.064,512,458.667V96C512,66.603,488.085,42.667,458.667,42.667z"/>
	</g>
</g>
<g>
	<g>
		<path d="M457.771,42.667h-52.437v106.667h105.771V96C511.104,66.603,487.189,42.667,457.771,42.667z"/>
	</g>
</g>
<g>
	<g>
		<path d="M416,0H245.333C215.915,0,192,23.936,192,53.333v277.333c0,4.309,2.603,8.213,6.592,9.856    c3.947,1.664,8.555,0.747,11.627-2.304L288,260.437l77.781,77.781c2.048,2.027,4.779,3.115,7.552,3.115    c1.365,0,2.773-0.256,4.075-0.811c3.989-1.643,6.592-5.547,6.592-9.856V53.333c0-17.643,14.357-32,32-32    c5.888,0,10.667-4.779,10.667-10.667S421.888,0,416,0z"/>
	</g>
</g>
<g>
	<g>
		<path d="M138.667,128h-128C4.779,128,0,132.779,0,138.667s4.779,10.667,10.667,10.667h128c5.888,0,10.667-4.779,10.667-10.667    S144.555,128,138.667,128z"/>
	</g>
</g>
<g>
	<g>
		<path d="M53.333,42.667C23.915,42.667,0,66.603,0,96v53.333h170.667V42.667H53.333z M53.333,106.667    c-5.888,0-10.667-4.779-10.667-10.667s4.779-10.667,10.667-10.667S64,90.112,64,96S59.221,106.667,53.333,106.667z M96,106.667    c-5.888,0-10.667-4.779-10.667-10.667S90.112,85.333,96,85.333S106.667,90.112,106.667,96S101.888,106.667,96,106.667z     M138.667,106.667C132.779,106.667,128,101.888,128,96s4.779-10.667,10.667-10.667S149.333,90.112,149.333,96    S144.555,106.667,138.667,106.667z"/>
	</g>
</g>
<g>
</g>
<g>
</g>
<g>
</g>
<g>
</g>
<g>
</g>
<g>
</g>
<g>
</g>
<g>
</g>
<g>
</g>
<g>
</g>
<g>
</g>
<g>
</g>
<g>
</g>
<g>
</g>
<g>
</g>
</svg>
