<?xml version="1.0" encoding="iso-8859-1"?>
<!-- Generator: Adobe Illustrator 19.0.0, SVG Export Plug-In . SVG Version: 6.00 Build 0)  -->
<svg xmlns="http://www.w3.org/2000/svg" xmlns:xlink="http://www.w3.org/1999/xlink" version="1.1" id="Layer_1" x="0px" y="0px" viewBox="0 0 512 512" style="enable-background:new 0 0 512 512;" xml:space="preserve">
<g>
	<g>
		<path d="M373.333,0H138.667C97.493,0,64,33.493,64,74.667v426.667c0,4.309,2.603,8.213,6.592,9.856    c1.301,0.555,2.709,0.811,4.075,0.811c2.773,0,5.504-1.088,7.552-3.115l120.491-120.512    c47.829,47.211,113.92,112.789,118.4,117.675c1.323,2.667,3.691,4.715,6.677,5.547c4.608,1.301,9.493-0.64,12.011-4.715    c1.109-1.792,1.621-3.883,1.536-5.952V387.093c0-3.797-2.027-7.296-5.291-9.216c-3.264-1.92-7.339-1.941-10.603-0.085    c-6.592,3.712-14.379,4.928-21.931,3.499c-29.653-5.909-56.171-21.355-76.672-44.693c-5.013-5.739-7.851-13.077-7.957-20.715    c-0.064-3.691-2.027-7.104-5.205-9.003c-6.528-3.883-11.456-9.984-13.888-17.195C194.539,274.24,192,259.755,192,245.333    s2.539-28.907,7.765-44.331c2.432-7.211,7.381-13.312,13.888-17.195c3.179-1.899,5.141-5.312,5.205-9.003    c0.107-7.637,2.944-14.997,7.957-20.715c20.501-23.339,47.019-38.805,76.672-44.715c7.573-1.493,15.36-0.235,21.931,3.499    c3.264,1.856,7.339,1.835,10.603-0.085c3.285-1.899,5.312-5.419,5.312-9.216v-50.24c0-17.643,14.357-32,32-32    c5.888,0,10.667-4.779,10.667-10.667S379.221,0,373.333,0z"/>
	</g>
</g>
<g>
	<g>
		<path d="M441.365,207.872c-0.96-2.816-3.051-5.099-5.76-6.293c-2.688-1.216-5.781-1.259-8.512-0.085    c-4.971,2.091-10.773,0.277-13.291-4.117c-2.645-4.565-1.344-10.283,3.072-13.632c2.368-1.771,3.904-4.48,4.181-7.424    c0.32-2.944-0.619-5.888-2.581-8.128c-17.387-19.797-39.808-32.875-64.811-37.845c-2.923-0.64-5.995,0.107-8.427,1.877    c-2.432,1.771-3.968,4.48-4.267,7.467c-0.576,5.483-5.013,9.643-10.304,9.643c-5.291,0-9.728-4.16-10.304-9.685    c-0.32-2.987-1.856-5.696-4.267-7.467c-2.411-1.792-5.525-2.539-8.427-1.877c-25.003,4.971-47.424,18.069-64.811,37.845    c-1.963,2.219-2.901,5.184-2.581,8.128c0.299,2.944,1.813,5.653,4.181,7.424c4.395,3.328,5.717,9.067,3.093,13.611    c-2.56,4.437-8.341,6.229-13.312,4.139c-2.731-1.152-5.824-1.131-8.512,0.085c-2.709,1.216-4.8,3.499-5.76,6.293    c-4.459,13.184-6.635,25.451-6.635,37.504c0,12.053,2.176,24.32,6.635,37.461c0.96,2.816,3.051,5.099,5.76,6.293    c2.688,1.216,5.781,1.259,8.512,0.085c4.949-2.133,10.752-0.277,13.291,4.117c2.645,4.565,1.344,10.283-3.072,13.632    c-2.368,1.771-3.904,4.48-4.181,7.424c-0.32,2.944,0.619,5.888,2.581,8.128c17.387,19.797,39.808,32.875,64.811,37.845    c2.944,0.64,5.995-0.085,8.427-1.877c2.411-1.771,3.968-4.48,4.267-7.467c0.576-5.483,5.013-9.643,10.304-9.643    c5.291,0,9.728,4.16,10.304,9.685c0.32,2.987,1.856,5.696,4.267,7.467c1.856,1.365,4.075,2.091,6.336,2.091    c0.683,0,1.387-0.064,2.091-0.213c25.003-4.971,47.424-18.069,64.811-37.845c1.963-2.219,2.901-5.184,2.581-8.128    c-0.299-2.944-1.813-5.653-4.181-7.424c-4.395-3.328-5.717-9.067-3.093-13.611c2.56-4.437,8.363-6.251,13.312-4.139    c2.731,1.152,5.824,1.131,8.512-0.085c2.709-1.216,4.8-3.499,5.76-6.293c4.459-13.184,6.635-25.451,6.635-37.504    C448,233.28,445.824,221.013,441.365,207.872z M330.667,277.333c-17.643,0-32-14.357-32-32c0-17.643,14.357-32,32-32    c17.643,0,32,14.357,32,32C362.667,262.976,348.309,277.333,330.667,277.333z"/>
	</g>
</g>
<g>
	<g>
		<path d="M330.667,192c-29.419,0-53.333,23.936-53.333,53.333s23.915,53.333,53.333,53.333c29.419,0,53.333-23.936,53.333-53.333    S360.085,192,330.667,192z M330.667,277.333c-17.643,0-32-14.357-32-32c0-17.643,14.357-32,32-32c17.643,0,32,14.357,32,32    C362.667,262.976,348.309,277.333,330.667,277.333z"/>
	</g>
</g>
<g>
	<g>
		<path d="M373.333,0H288c-5.888,0-10.667,4.779-10.667,10.667v64c0,5.888,4.779,10.667,10.667,10.667h53.333v-32    c0-17.643,14.357-32,32-32C379.221,21.333,384,26.112,384,32s-4.779,10.667-10.667,10.667c-5.867,0-10.667,4.779-10.667,10.667v32    H416c5.888,0,10.667-4.779,10.667-10.667V53.333C426.667,23.936,402.752,0,373.333,0z"/>
	</g>
</g>
<g>
</g>
<g>
</g>
<g>
</g>
<g>
</g>
<g>
</g>
<g>
</g>
<g>
</g>
<g>
</g>
<g>
</g>
<g>
</g>
<g>
</g>
<g>
</g>
<g>
</g>
<g>
</g>
<g>
</g>
</svg>
