<?xml version="1.0" encoding="iso-8859-1"?>
<!-- Generator: Adobe Illustrator 19.0.0, SVG Export Plug-In . SVG Version: 6.00 Build 0)  -->
<svg xmlns="http://www.w3.org/2000/svg" xmlns:xlink="http://www.w3.org/1999/xlink" version="1.1" id="Layer_1" x="0px" y="0px" viewBox="0 0 512 512" style="enable-background:new 0 0 512 512;" xml:space="preserve">
<g>
	<g>
		<path d="M384,0H149.333C108.16,0,74.667,33.493,74.667,74.667v426.667c0,4.309,2.603,8.213,6.592,9.856    c1.323,0.555,2.709,0.811,4.075,0.811c2.773,0,5.504-1.088,7.552-3.115l120.512-120.512    c47.829,47.211,113.899,112.789,118.379,117.675c1.323,2.667,3.691,4.715,6.677,5.547c4.587,1.28,9.493-0.619,12.011-4.715    c1.109-1.792,1.621-3.883,1.536-5.952V117.333v-32v-32c0-17.643,14.357-32,32-32c5.888,0,10.667,4.779,10.667,10.667    S389.888,42.667,384,42.667c-5.867,0-10.667,4.779-10.667,10.667v32H416h10.667c5.888,0,10.667-4.779,10.667-10.667V53.333    C437.333,23.936,413.419,0,384,0z"/>
	</g>
</g>
<g>
</g>
<g>
</g>
<g>
</g>
<g>
</g>
<g>
</g>
<g>
</g>
<g>
</g>
<g>
</g>
<g>
</g>
<g>
</g>
<g>
</g>
<g>
</g>
<g>
</g>
<g>
</g>
<g>
</g>
</svg>
